<?xml version="1.0" encoding="UTF-8" standalone="no"?>
<!DOCTYPE svg PUBLIC "-//W3C//DTD SVG 1.1//EN"
 "http://www.w3.org/Graphics/SVG/1.1/DTD/svg11.dtd">
<!-- Generated by graphviz version 2.36.0 (20140111.2315)
 -->
<!-- Title: controllers_diagram Pages: 1 -->
<svg width="469pt" height="477pt"
 viewBox="0.00 0.00 469.00 477.00" xmlns="http://www.w3.org/2000/svg" xmlns:xlink="http://www.w3.org/1999/xlink">
<g id="graph0" class="graph" transform="scale(1 1) rotate(0) translate(4 473)">
<title>controllers_diagram</title>
<polygon fill="white" stroke="none" points="-4,4 -4,-473 465,-473 465,4 -4,4"/>
<!-- _diagram_info -->
<g id="node1" class="node"><title>_diagram_info</title>
<text text-anchor="start" x="53" y="-183.6" font-family="Times,serif" font-size="13.00">Controllers diagram</text>
<text text-anchor="start" x="53" y="-169.6" font-family="Times,serif" font-size="13.00">Date: Jul 23 2014 &#45; 02:11</text>
<text text-anchor="start" x="53" y="-155.6" font-family="Times,serif" font-size="13.00">Migration version: 20140723060452</text>
<text text-anchor="start" x="53" y="-141.6" font-family="Times,serif" font-size="13.00">Generated by RailRoady 1.1.1</text>
<text text-anchor="start" x="53" y="-127.6" font-family="Times,serif" font-size="13.00">http://railroady.prestonlee.com</text>
</g>
<!-- ApplicationController -->
<g id="node2" class="node"><title>ApplicationController</title>
<path fill="none" stroke="black" d="M237,-225.5C237,-225.5 407,-225.5 407,-225.5 413,-225.5 419,-231.5 419,-237.5 419,-237.5 419,-306.5 419,-306.5 419,-312.5 413,-318.5 407,-318.5 407,-318.5 237,-318.5 237,-318.5 231,-318.5 225,-312.5 225,-306.5 225,-306.5 225,-237.5 225,-237.5 225,-231.5 231,-225.5 237,-225.5"/>
<text text-anchor="middle" x="322" y="-303.3" font-family="Times,serif" font-size="14.00">ApplicationController</text>
<polyline fill="none" stroke="black" points="225,-295.5 419,-295.5 "/>
<polyline fill="none" stroke="black" points="225,-271.5 419,-271.5 "/>
<text text-anchor="start" x="233" y="-256.3" font-family="Times,serif" font-size="14.00">configure_permitted_parameters</text>
<polyline fill="none" stroke="black" points="225,-248.5 419,-248.5 "/>
<text text-anchor="start" x="233" y="-233.3" font-family="Times,serif" font-size="14.00">_layout</text>
</g>
<!-- EventoController -->
<g id="node3" class="node"><title>EventoController</title>
<path fill="none" stroke="black" d="M87,-255.5C87,-255.5 185,-255.5 185,-255.5 191,-255.5 197,-261.5 197,-267.5 197,-267.5 197,-396.5 197,-396.5 197,-402.5 191,-408.5 185,-408.5 185,-408.5 87,-408.5 87,-408.5 81,-408.5 75,-402.5 75,-396.5 75,-396.5 75,-267.5 75,-267.5 75,-261.5 81,-255.5 87,-255.5"/>
<text text-anchor="middle" x="136" y="-393.3" font-family="Times,serif" font-size="14.00">EventoController</text>
<polyline fill="none" stroke="black" points="75,-385.5 197,-385.5 "/>
<text text-anchor="start" x="83" y="-370.3" font-family="Times,serif" font-size="14.00">editar</text>
<text text-anchor="start" x="83" y="-355.3" font-family="Times,serif" font-size="14.00">eventos</text>
<text text-anchor="start" x="83" y="-340.3" font-family="Times,serif" font-size="14.00">eventos_publicador</text>
<text text-anchor="start" x="83" y="-325.3" font-family="Times,serif" font-size="14.00">new</text>
<text text-anchor="start" x="83" y="-310.3" font-family="Times,serif" font-size="14.00">publicar</text>
<polyline fill="none" stroke="black" points="75,-302.5 197,-302.5 "/>
<polyline fill="none" stroke="black" points="75,-278.5 197,-278.5 "/>
<text text-anchor="start" x="83" y="-263.3" font-family="Times,serif" font-size="14.00">_layout</text>
</g>
<!-- AuthenticateController -->
<g id="node4" class="node"><title>AuthenticateController</title>
<path fill="none" stroke="black" d="M297,-45.5C297,-45.5 414,-45.5 414,-45.5 420,-45.5 426,-51.5 426,-57.5 426,-57.5 426,-127.5 426,-127.5 426,-133.5 420,-139.5 414,-139.5 414,-139.5 297,-139.5 297,-139.5 291,-139.5 285,-133.5 285,-127.5 285,-127.5 285,-57.5 285,-57.5 285,-51.5 291,-45.5 297,-45.5"/>
<text text-anchor="middle" x="355.5" y="-124.3" font-family="Times,serif" font-size="14.00">AuthenticateController</text>
<polyline fill="none" stroke="black" points="285,-116.5 426,-116.5 "/>
<polyline fill="none" stroke="black" points="285,-92.5 426,-92.5 "/>
<polyline fill="none" stroke="black" points="285,-68.5 426,-68.5 "/>
<text text-anchor="start" x="293" y="-53.3" font-family="Times,serif" font-size="14.00">_layout</text>
</g>
<!-- CarpoolController -->
<g id="node5" class="node"><title>CarpoolController</title>
<path fill="none" stroke="black" d="M357,-345.5C357,-345.5 449,-345.5 449,-345.5 455,-345.5 461,-351.5 461,-357.5 461,-357.5 461,-456.5 461,-456.5 461,-462.5 455,-468.5 449,-468.5 449,-468.5 357,-468.5 357,-468.5 351,-468.5 345,-462.5 345,-456.5 345,-456.5 345,-357.5 345,-357.5 345,-351.5 351,-345.5 357,-345.5"/>
<text text-anchor="middle" x="403" y="-453.3" font-family="Times,serif" font-size="14.00">CarpoolController</text>
<polyline fill="none" stroke="black" points="345,-445.5 461,-445.5 "/>
<text text-anchor="start" x="353" y="-430.3" font-family="Times,serif" font-size="14.00">crear_comentario</text>
<text text-anchor="start" x="353" y="-415.3" font-family="Times,serif" font-size="14.00">detalle</text>
<text text-anchor="start" x="353" y="-400.3" font-family="Times,serif" font-size="14.00">publicar</text>
<polyline fill="none" stroke="black" points="345,-392.5 461,-392.5 "/>
<polyline fill="none" stroke="black" points="345,-368.5 461,-368.5 "/>
<text text-anchor="start" x="353" y="-353.3" font-family="Times,serif" font-size="14.00">_layout</text>
</g>
<!-- UserController -->
<g id="node6" class="node"><title>UserController</title>
<path fill="none" stroke="black" d="M12,-0.5C12,-0.5 86,-0.5 86,-0.5 92,-0.5 98,-6.5 98,-12.5 98,-12.5 98,-81.5 98,-81.5 98,-87.5 92,-93.5 86,-93.5 86,-93.5 12,-93.5 12,-93.5 6,-93.5 0,-87.5 0,-81.5 0,-81.5 0,-12.5 0,-12.5 0,-6.5 6,-0.5 12,-0.5"/>
<text text-anchor="middle" x="49" y="-78.3" font-family="Times,serif" font-size="14.00">UserController</text>
<polyline fill="none" stroke="black" points="0,-70.5 98,-70.5 "/>
<text text-anchor="start" x="8" y="-55.3" font-family="Times,serif" font-size="14.00">index</text>
<polyline fill="none" stroke="black" points="0,-47.5 98,-47.5 "/>
<polyline fill="none" stroke="black" points="0,-23.5 98,-23.5 "/>
<text text-anchor="start" x="8" y="-8.3" font-family="Times,serif" font-size="14.00">_layout</text>
</g>
</g>
</svg>
