<?xml version="1.0" encoding="UTF-8" standalone="no"?>
<!DOCTYPE svg PUBLIC "-//W3C//DTD SVG 1.1//EN"
 "http://www.w3.org/Graphics/SVG/1.1/DTD/svg11.dtd">
<!-- Generated by graphviz version 2.36.0 (20140111.2315)
 -->
<!-- Title: controllers_diagram Pages: 1 -->
<svg width="549pt" height="470pt"
 viewBox="0.00 0.00 549.00 470.00" xmlns="http://www.w3.org/2000/svg" xmlns:xlink="http://www.w3.org/1999/xlink">
<g id="graph0" class="graph" transform="scale(1 1) rotate(0) translate(4 466)">
<title>controllers_diagram</title>
<polygon fill="white" stroke="none" points="-4,4 -4,-466 545,-466 545,4 -4,4"/>
<!-- _diagram_info -->
<g id="node1" class="node"><title>_diagram_info</title>
<text text-anchor="start" x="328" y="-431.6" font-family="Times,serif" font-size="13.00">Controllers diagram</text>
<text text-anchor="start" x="328" y="-417.6" font-family="Times,serif" font-size="13.00">Date: Jul 25 2014 &#45; 21:59</text>
<text text-anchor="start" x="328" y="-403.6" font-family="Times,serif" font-size="13.00">Migration version: 20140724044557</text>
<text text-anchor="start" x="328" y="-389.6" font-family="Times,serif" font-size="13.00">Generated by RailRoady 1.1.1</text>
<text text-anchor="start" x="328" y="-375.6" font-family="Times,serif" font-size="13.00">http://railroady.prestonlee.com</text>
</g>
<!-- ApplicationController -->
<g id="node2" class="node"><title>ApplicationController</title>
<path fill="none" stroke="black" d="M108,-368.5C108,-368.5 278,-368.5 278,-368.5 284,-368.5 290,-374.5 290,-380.5 290,-380.5 290,-449.5 290,-449.5 290,-455.5 284,-461.5 278,-461.5 278,-461.5 108,-461.5 108,-461.5 102,-461.5 96,-455.5 96,-449.5 96,-449.5 96,-380.5 96,-380.5 96,-374.5 102,-368.5 108,-368.5"/>
<text text-anchor="middle" x="193" y="-446.3" font-family="Times,serif" font-size="14.00">ApplicationController</text>
<polyline fill="none" stroke="black" points="96,-438.5 290,-438.5 "/>
<polyline fill="none" stroke="black" points="96,-414.5 290,-414.5 "/>
<text text-anchor="start" x="104" y="-399.3" font-family="Times,serif" font-size="14.00">configure_permitted_parameters</text>
<polyline fill="none" stroke="black" points="96,-391.5 290,-391.5 "/>
<text text-anchor="start" x="104" y="-376.3" font-family="Times,serif" font-size="14.00">_layout</text>
</g>
<!-- EventoController -->
<g id="node3" class="node"><title>EventoController</title>
<path fill="none" stroke="black" d="M140,-144.5C140,-144.5 238,-144.5 238,-144.5 244,-144.5 250,-150.5 250,-156.5 250,-156.5 250,-315.5 250,-315.5 250,-321.5 244,-327.5 238,-327.5 238,-327.5 140,-327.5 140,-327.5 134,-327.5 128,-321.5 128,-315.5 128,-315.5 128,-156.5 128,-156.5 128,-150.5 134,-144.5 140,-144.5"/>
<text text-anchor="middle" x="189" y="-312.3" font-family="Times,serif" font-size="14.00">EventoController</text>
<polyline fill="none" stroke="black" points="128,-304.5 250,-304.5 "/>
<text text-anchor="start" x="136" y="-289.3" font-family="Times,serif" font-size="14.00">editar</text>
<text text-anchor="start" x="136" y="-274.3" font-family="Times,serif" font-size="14.00">eventos</text>
<text text-anchor="start" x="136" y="-259.3" font-family="Times,serif" font-size="14.00">eventos_publicador</text>
<text text-anchor="start" x="136" y="-244.3" font-family="Times,serif" font-size="14.00">new</text>
<text text-anchor="start" x="136" y="-229.3" font-family="Times,serif" font-size="14.00">publicar</text>
<text text-anchor="start" x="136" y="-214.3" font-family="Times,serif" font-size="14.00">show</text>
<polyline fill="none" stroke="black" points="128,-206.5 250,-206.5 "/>
<polyline fill="none" stroke="black" points="128,-182.5 250,-182.5 "/>
<text text-anchor="start" x="136" y="-167.3" font-family="Times,serif" font-size="14.00">_layout</text>
<text text-anchor="start" x="136" y="-152.3" font-family="Times,serif" font-size="14.00">evento_params</text>
</g>
<!-- AuthenticateController -->
<g id="node4" class="node"><title>AuthenticateController</title>
<path fill="none" stroke="black" d="M412,-16.5C412,-16.5 529,-16.5 529,-16.5 535,-16.5 541,-22.5 541,-28.5 541,-28.5 541,-98.5 541,-98.5 541,-104.5 535,-110.5 529,-110.5 529,-110.5 412,-110.5 412,-110.5 406,-110.5 400,-104.5 400,-98.5 400,-98.5 400,-28.5 400,-28.5 400,-22.5 406,-16.5 412,-16.5"/>
<text text-anchor="middle" x="470.5" y="-95.3" font-family="Times,serif" font-size="14.00">AuthenticateController</text>
<polyline fill="none" stroke="black" points="400,-87.5 541,-87.5 "/>
<polyline fill="none" stroke="black" points="400,-63.5 541,-63.5 "/>
<polyline fill="none" stroke="black" points="400,-39.5 541,-39.5 "/>
<text text-anchor="start" x="408" y="-24.3" font-family="Times,serif" font-size="14.00">_layout</text>
</g>
<!-- CarpoolController -->
<g id="node5" class="node"><title>CarpoolController</title>
<path fill="none" stroke="black" d="M300,-144.5C300,-144.5 392,-144.5 392,-144.5 398,-144.5 404,-150.5 404,-156.5 404,-156.5 404,-315.5 404,-315.5 404,-321.5 398,-327.5 392,-327.5 392,-327.5 300,-327.5 300,-327.5 294,-327.5 288,-321.5 288,-315.5 288,-315.5 288,-156.5 288,-156.5 288,-150.5 294,-144.5 300,-144.5"/>
<text text-anchor="middle" x="346" y="-312.3" font-family="Times,serif" font-size="14.00">CarpoolController</text>
<polyline fill="none" stroke="black" points="288,-304.5 404,-304.5 "/>
<text text-anchor="start" x="296" y="-289.3" font-family="Times,serif" font-size="14.00">comentarios</text>
<text text-anchor="start" x="296" y="-274.3" font-family="Times,serif" font-size="14.00">crear_comentario</text>
<text text-anchor="start" x="296" y="-259.3" font-family="Times,serif" font-size="14.00">detalle</text>
<text text-anchor="start" x="296" y="-244.3" font-family="Times,serif" font-size="14.00">new</text>
<text text-anchor="start" x="296" y="-229.3" font-family="Times,serif" font-size="14.00">publicar</text>
<text text-anchor="start" x="296" y="-214.3" font-family="Times,serif" font-size="14.00">show</text>
<polyline fill="none" stroke="black" points="288,-206.5 404,-206.5 "/>
<polyline fill="none" stroke="black" points="288,-182.5 404,-182.5 "/>
<text text-anchor="start" x="296" y="-167.3" font-family="Times,serif" font-size="14.00">_layout</text>
<text text-anchor="start" x="296" y="-152.3" font-family="Times,serif" font-size="14.00">carpool_params</text>
</g>
<!-- OmniauthCallbacksController -->
<g id="node6" class="node"><title>OmniauthCallbacksController</title>
<path fill="none" stroke="black" d="M204,-0.5C204,-0.5 360,-0.5 360,-0.5 366,-0.5 372,-6.5 372,-12.5 372,-12.5 372,-96.5 372,-96.5 372,-102.5 366,-108.5 360,-108.5 360,-108.5 204,-108.5 204,-108.5 198,-108.5 192,-102.5 192,-96.5 192,-96.5 192,-12.5 192,-12.5 192,-6.5 198,-0.5 204,-0.5"/>
<text text-anchor="middle" x="282" y="-93.3" font-family="Times,serif" font-size="14.00">OmniauthCallbacksController</text>
<polyline fill="none" stroke="black" points="192,-85.5 372,-85.5 "/>
<text text-anchor="start" x="200" y="-70.3" font-family="Times,serif" font-size="14.00">facebook</text>
<text text-anchor="start" x="200" y="-55.3" font-family="Times,serif" font-size="14.00">twitter</text>
<polyline fill="none" stroke="black" points="192,-47.5 372,-47.5 "/>
<polyline fill="none" stroke="black" points="192,-23.5 372,-23.5 "/>
<text text-anchor="start" x="200" y="-8.3" font-family="Times,serif" font-size="14.00">_layout</text>
</g>
<!-- UserController -->
<g id="node7" class="node"><title>UserController</title>
<path fill="none" stroke="black" d="M12,-224.5C12,-224.5 86,-224.5 86,-224.5 92,-224.5 98,-230.5 98,-236.5 98,-236.5 98,-320.5 98,-320.5 98,-326.5 92,-332.5 86,-332.5 86,-332.5 12,-332.5 12,-332.5 6,-332.5 0,-326.5 0,-320.5 0,-320.5 0,-236.5 0,-236.5 0,-230.5 6,-224.5 12,-224.5"/>
<text text-anchor="middle" x="49" y="-317.3" font-family="Times,serif" font-size="14.00">UserController</text>
<polyline fill="none" stroke="black" points="0,-309.5 98,-309.5 "/>
<text text-anchor="start" x="8" y="-294.3" font-family="Times,serif" font-size="14.00">index</text>
<text text-anchor="start" x="8" y="-279.3" font-family="Times,serif" font-size="14.00">perfil</text>
<polyline fill="none" stroke="black" points="0,-271.5 98,-271.5 "/>
<polyline fill="none" stroke="black" points="0,-247.5 98,-247.5 "/>
<text text-anchor="start" x="8" y="-232.3" font-family="Times,serif" font-size="14.00">_layout</text>
</g>
</g>
</svg>
