<?xml version="1.0" encoding="UTF-8" standalone="no"?>
<!DOCTYPE svg PUBLIC "-//W3C//DTD SVG 1.1//EN"
 "http://www.w3.org/Graphics/SVG/1.1/DTD/svg11.dtd">
<!-- Generated by graphviz version 2.36.0 (20140111.2315)
 -->
<!-- Title: controllers_diagram Pages: 1 -->
<svg width="542pt" height="498pt"
 viewBox="0.00 0.00 542.00 498.00" xmlns="http://www.w3.org/2000/svg" xmlns:xlink="http://www.w3.org/1999/xlink">
<g id="graph0" class="graph" transform="scale(1 1) rotate(0) translate(4 494)">
<title>controllers_diagram</title>
<polygon fill="white" stroke="none" points="-4,4 -4,-494 538,-494 538,4 -4,4"/>
<!-- _diagram_info -->
<g id="node1" class="node"><title>_diagram_info</title>
<text text-anchor="start" x="328" y="-159.6" font-family="Times,serif" font-size="13.00">Controllers diagram</text>
<text text-anchor="start" x="328" y="-145.6" font-family="Times,serif" font-size="13.00">Date: Aug 31 2014 &#45; 20:53</text>
<text text-anchor="start" x="328" y="-131.6" font-family="Times,serif" font-size="13.00">Migration version: 20140901000518</text>
<text text-anchor="start" x="328" y="-117.6" font-family="Times,serif" font-size="13.00">Generated by RailRoady 1.1.1</text>
<text text-anchor="start" x="328" y="-103.6" font-family="Times,serif" font-size="13.00">http://railroady.prestonlee.com</text>
</g>
<!-- ApplicationController -->
<g id="node2" class="node"><title>ApplicationController</title>
<path fill="none" stroke="black" d="M332,-208.5C332,-208.5 502,-208.5 502,-208.5 508,-208.5 514,-214.5 514,-220.5 514,-220.5 514,-289.5 514,-289.5 514,-295.5 508,-301.5 502,-301.5 502,-301.5 332,-301.5 332,-301.5 326,-301.5 320,-295.5 320,-289.5 320,-289.5 320,-220.5 320,-220.5 320,-214.5 326,-208.5 332,-208.5"/>
<text text-anchor="middle" x="417" y="-286.3" font-family="Times,serif" font-size="14.00">ApplicationController</text>
<polyline fill="none" stroke="black" points="320,-278.5 514,-278.5 "/>
<polyline fill="none" stroke="black" points="320,-254.5 514,-254.5 "/>
<text text-anchor="start" x="328" y="-239.3" font-family="Times,serif" font-size="14.00">configure_permitted_parameters</text>
<polyline fill="none" stroke="black" points="320,-231.5 514,-231.5 "/>
<text text-anchor="start" x="328" y="-216.3" font-family="Times,serif" font-size="14.00">_layout</text>
</g>
<!-- EventoController -->
<g id="node3" class="node"><title>EventoController</title>
<path fill="none" stroke="black" d="M172,-96.5C172,-96.5 270,-96.5 270,-96.5 276,-96.5 282,-102.5 282,-108.5 282,-108.5 282,-267.5 282,-267.5 282,-273.5 276,-279.5 270,-279.5 270,-279.5 172,-279.5 172,-279.5 166,-279.5 160,-273.5 160,-267.5 160,-267.5 160,-108.5 160,-108.5 160,-102.5 166,-96.5 172,-96.5"/>
<text text-anchor="middle" x="221" y="-264.3" font-family="Times,serif" font-size="14.00">EventoController</text>
<polyline fill="none" stroke="black" points="160,-256.5 282,-256.5 "/>
<text text-anchor="start" x="168" y="-241.3" font-family="Times,serif" font-size="14.00">editar</text>
<text text-anchor="start" x="168" y="-226.3" font-family="Times,serif" font-size="14.00">eventos</text>
<text text-anchor="start" x="168" y="-211.3" font-family="Times,serif" font-size="14.00">eventos_publicador</text>
<text text-anchor="start" x="168" y="-196.3" font-family="Times,serif" font-size="14.00">new</text>
<text text-anchor="start" x="168" y="-181.3" font-family="Times,serif" font-size="14.00">publicar</text>
<text text-anchor="start" x="168" y="-166.3" font-family="Times,serif" font-size="14.00">show</text>
<polyline fill="none" stroke="black" points="160,-158.5 282,-158.5 "/>
<polyline fill="none" stroke="black" points="160,-134.5 282,-134.5 "/>
<text text-anchor="start" x="168" y="-119.3" font-family="Times,serif" font-size="14.00">_layout</text>
<text text-anchor="start" x="168" y="-104.3" font-family="Times,serif" font-size="14.00">evento_params</text>
</g>
<!-- CarpoolController -->
<g id="node4" class="node"><title>CarpoolController</title>
<path fill="none" stroke="black" d="M380,-336.5C380,-336.5 472,-336.5 472,-336.5 478,-336.5 484,-342.5 484,-348.5 484,-348.5 484,-477.5 484,-477.5 484,-483.5 478,-489.5 472,-489.5 472,-489.5 380,-489.5 380,-489.5 374,-489.5 368,-483.5 368,-477.5 368,-477.5 368,-348.5 368,-348.5 368,-342.5 374,-336.5 380,-336.5"/>
<text text-anchor="middle" x="426" y="-474.3" font-family="Times,serif" font-size="14.00">CarpoolController</text>
<polyline fill="none" stroke="black" points="368,-466.5 484,-466.5 "/>
<text text-anchor="start" x="376" y="-451.3" font-family="Times,serif" font-size="14.00">new</text>
<text text-anchor="start" x="376" y="-436.3" font-family="Times,serif" font-size="14.00">new_transaction</text>
<text text-anchor="start" x="376" y="-421.3" font-family="Times,serif" font-size="14.00">publicar</text>
<text text-anchor="start" x="376" y="-406.3" font-family="Times,serif" font-size="14.00">show</text>
<polyline fill="none" stroke="black" points="368,-398.5 484,-398.5 "/>
<polyline fill="none" stroke="black" points="368,-374.5 484,-374.5 "/>
<text text-anchor="start" x="376" y="-359.3" font-family="Times,serif" font-size="14.00">_layout</text>
<text text-anchor="start" x="376" y="-344.3" font-family="Times,serif" font-size="14.00">carpool_params</text>
</g>
<!-- OmniauthCallbacksController -->
<g id="node5" class="node"><title>OmniauthCallbacksController</title>
<path fill="none" stroke="black" d="M124,-320.5C124,-320.5 280,-320.5 280,-320.5 286,-320.5 292,-326.5 292,-332.5 292,-332.5 292,-416.5 292,-416.5 292,-422.5 286,-428.5 280,-428.5 280,-428.5 124,-428.5 124,-428.5 118,-428.5 112,-422.5 112,-416.5 112,-416.5 112,-332.5 112,-332.5 112,-326.5 118,-320.5 124,-320.5"/>
<text text-anchor="middle" x="202" y="-413.3" font-family="Times,serif" font-size="14.00">OmniauthCallbacksController</text>
<polyline fill="none" stroke="black" points="112,-405.5 292,-405.5 "/>
<text text-anchor="start" x="120" y="-390.3" font-family="Times,serif" font-size="14.00">facebook</text>
<text text-anchor="start" x="120" y="-375.3" font-family="Times,serif" font-size="14.00">twitter</text>
<polyline fill="none" stroke="black" points="112,-367.5 292,-367.5 "/>
<polyline fill="none" stroke="black" points="112,-343.5 292,-343.5 "/>
<text text-anchor="start" x="120" y="-328.3" font-family="Times,serif" font-size="14.00">_layout</text>
</g>
<!-- UserController -->
<g id="node6" class="node"><title>UserController</title>
<path fill="none" stroke="black" d="M44,-144.5C44,-144.5 118,-144.5 118,-144.5 124,-144.5 130,-150.5 130,-156.5 130,-156.5 130,-270.5 130,-270.5 130,-276.5 124,-282.5 118,-282.5 118,-282.5 44,-282.5 44,-282.5 38,-282.5 32,-276.5 32,-270.5 32,-270.5 32,-156.5 32,-156.5 32,-150.5 38,-144.5 44,-144.5"/>
<text text-anchor="middle" x="81" y="-267.3" font-family="Times,serif" font-size="14.00">UserController</text>
<polyline fill="none" stroke="black" points="32,-259.5 130,-259.5 "/>
<text text-anchor="start" x="40" y="-244.3" font-family="Times,serif" font-size="14.00">edit</text>
<text text-anchor="start" x="40" y="-229.3" font-family="Times,serif" font-size="14.00">editar</text>
<text text-anchor="start" x="40" y="-214.3" font-family="Times,serif" font-size="14.00">index</text>
<text text-anchor="start" x="40" y="-199.3" font-family="Times,serif" font-size="14.00">perfil</text>
<polyline fill="none" stroke="black" points="32,-191.5 130,-191.5 "/>
<polyline fill="none" stroke="black" points="32,-167.5 130,-167.5 "/>
<text text-anchor="start" x="40" y="-152.3" font-family="Times,serif" font-size="14.00">_layout</text>
</g>
<!-- CommentsController -->
<g id="node7" class="node"><title>CommentsController</title>
<path fill="none" stroke="black" d="M12,-0.5C12,-0.5 120,-0.5 120,-0.5 126,-0.5 132,-6.5 132,-12.5 132,-12.5 132,-96.5 132,-96.5 132,-102.5 126,-108.5 120,-108.5 120,-108.5 12,-108.5 12,-108.5 6,-108.5 -2.84217e-14,-102.5 -2.84217e-14,-96.5 -2.84217e-14,-96.5 -2.84217e-14,-12.5 -2.84217e-14,-12.5 -2.84217e-14,-6.5 6,-0.5 12,-0.5"/>
<text text-anchor="middle" x="66" y="-93.3" font-family="Times,serif" font-size="14.00">CommentsController</text>
<polyline fill="none" stroke="black" points="-2.84217e-14,-85.5 132,-85.5 "/>
<text text-anchor="start" x="8" y="-70.3" font-family="Times,serif" font-size="14.00">create</text>
<text text-anchor="start" x="8" y="-55.3" font-family="Times,serif" font-size="14.00">destroy</text>
<polyline fill="none" stroke="black" points="-2.84217e-14,-47.5 132,-47.5 "/>
<polyline fill="none" stroke="black" points="-2.84217e-14,-23.5 132,-23.5 "/>
<text text-anchor="start" x="8" y="-8.3" font-family="Times,serif" font-size="14.00">_layout</text>
</g>
</g>
</svg>
