<?xml version="1.0" encoding="UTF-8" standalone="no"?>
<!DOCTYPE svg PUBLIC "-//W3C//DTD SVG 1.1//EN"
 "http://www.w3.org/Graphics/SVG/1.1/DTD/svg11.dtd">
<!-- Generated by graphviz version 2.36.0 (20140111.2315)
 -->
<!-- Title: controllers_diagram Pages: 1 -->
<svg width="612pt" height="366pt"
 viewBox="0.00 0.00 612.00 365.53" xmlns="http://www.w3.org/2000/svg" xmlns:xlink="http://www.w3.org/1999/xlink">
<g id="graph0" class="graph" transform="scale(1 1) rotate(0) translate(4 361.532)">
<title>controllers_diagram</title>
<polygon fill="white" stroke="none" points="-4,4 -4,-361.532 608,-361.532 608,4 -4,4"/>
<!-- _diagram_info -->
<g id="node1" class="node"><title>_diagram_info</title>
<text text-anchor="start" x="398" y="-63.6" font-family="Times,serif" font-size="13.00">Controllers diagram</text>
<text text-anchor="start" x="398" y="-49.6" font-family="Times,serif" font-size="13.00">Date: Jul 16 2014 &#45; 00:57</text>
<text text-anchor="start" x="398" y="-35.6" font-family="Times,serif" font-size="13.00">Migration version: 20140716032004</text>
<text text-anchor="start" x="398" y="-21.6" font-family="Times,serif" font-size="13.00">Generated by RailRoady 1.1.1</text>
<text text-anchor="start" x="398" y="-7.6" font-family="Times,serif" font-size="13.00">http://railroady.prestonlee.com</text>
</g>
<!-- CarpoolController -->
<g id="node2" class="node"><title>CarpoolController</title>
<path fill="none" stroke="black" d="M12,-254.312C12,-254.312 104,-254.312 104,-254.312 110,-254.312 116,-260.312 116,-266.312 116,-266.312 116,-336.312 116,-336.312 116,-342.312 110,-348.312 104,-348.312 104,-348.312 12,-348.312 12,-348.312 6,-348.312 -1.42109e-14,-342.312 -1.42109e-14,-336.312 -1.42109e-14,-336.312 -1.42109e-14,-266.312 -1.42109e-14,-266.312 -1.42109e-14,-260.312 6,-254.312 12,-254.312"/>
<text text-anchor="middle" x="58" y="-333.112" font-family="Times,serif" font-size="14.00">CarpoolController</text>
<polyline fill="none" stroke="black" points="-1.42109e-14,-325.312 116,-325.312 "/>
<polyline fill="none" stroke="black" points="-1.42109e-14,-301.312 116,-301.312 "/>
<polyline fill="none" stroke="black" points="-1.42109e-14,-277.312 116,-277.312 "/>
<text text-anchor="start" x="8" y="-262.112" font-family="Times,serif" font-size="14.00">_layout</text>
</g>
<!-- UserController -->
<g id="node3" class="node"><title>UserController</title>
<path fill="none" stroke="black" d="M266.088,-38.493C266.088,-38.493 340.088,-38.493 340.088,-38.493 346.088,-38.493 352.088,-44.493 352.088,-50.493 352.088,-50.493 352.088,-120.493 352.088,-120.493 352.088,-126.493 346.088,-132.493 340.088,-132.493 340.088,-132.493 266.088,-132.493 266.088,-132.493 260.088,-132.493 254.088,-126.493 254.088,-120.493 254.088,-120.493 254.088,-50.493 254.088,-50.493 254.088,-44.493 260.088,-38.493 266.088,-38.493"/>
<text text-anchor="middle" x="303.088" y="-117.293" font-family="Times,serif" font-size="14.00">UserController</text>
<polyline fill="none" stroke="black" points="254.088,-109.493 352.088,-109.493 "/>
<polyline fill="none" stroke="black" points="254.088,-85.493 352.088,-85.493 "/>
<polyline fill="none" stroke="black" points="254.088,-61.493 352.088,-61.493 "/>
<text text-anchor="start" x="262.088" y="-46.293" font-family="Times,serif" font-size="14.00">_layout</text>
</g>
<!-- EventoController -->
<g id="node4" class="node"><title>EventoController</title>
<path fill="none" stroke="black" d="M23.4318,-30.5C23.4318,-30.5 109.432,-30.5 109.432,-30.5 115.432,-30.5 121.432,-36.5 121.432,-42.5 121.432,-42.5 121.432,-112.5 121.432,-112.5 121.432,-118.5 115.432,-124.5 109.432,-124.5 109.432,-124.5 23.4318,-124.5 23.4318,-124.5 17.4318,-124.5 11.4318,-118.5 11.4318,-112.5 11.4318,-112.5 11.4318,-42.5 11.4318,-42.5 11.4318,-36.5 17.4318,-30.5 23.4318,-30.5"/>
<text text-anchor="middle" x="66.4318" y="-109.3" font-family="Times,serif" font-size="14.00">EventoController</text>
<polyline fill="none" stroke="black" points="11.4318,-101.5 121.432,-101.5 "/>
<polyline fill="none" stroke="black" points="11.4318,-77.5 121.432,-77.5 "/>
<polyline fill="none" stroke="black" points="11.4318,-53.5 121.432,-53.5 "/>
<text text-anchor="start" x="19.4318" y="-38.3" font-family="Times,serif" font-size="14.00">_layout</text>
</g>
<!-- ApplicationController -->
<g id="node5" class="node"><title>ApplicationController</title>
<path fill="none" stroke="black" d="M75.5634,-147.198C75.5634,-147.198 287.563,-147.198 287.563,-147.198 293.563,-147.198 299.563,-153.198 299.563,-159.198 299.563,-159.198 299.563,-228.198 299.563,-228.198 299.563,-234.198 293.563,-240.198 287.563,-240.198 287.563,-240.198 75.5634,-240.198 75.5634,-240.198 69.5634,-240.198 63.5634,-234.198 63.5634,-228.198 63.5634,-228.198 63.5634,-159.198 63.5634,-159.198 63.5634,-153.198 69.5634,-147.198 75.5634,-147.198"/>
<text text-anchor="middle" x="181.563" y="-224.998" font-family="Times,serif" font-size="14.00">ApplicationController</text>
<polyline fill="none" stroke="black" points="63.5634,-217.198 299.563,-217.198 "/>
<polyline fill="none" stroke="black" points="63.5634,-193.198 299.563,-193.198 "/>
<text text-anchor="start" x="71.5634" y="-177.998" font-family="Times,serif" font-size="14.00">configure_devise_permitted_parameters</text>
<polyline fill="none" stroke="black" points="63.5634,-170.198 299.563,-170.198 "/>
<text text-anchor="start" x="71.5634" y="-154.998" font-family="Times,serif" font-size="14.00">_layout</text>
</g>
<!-- ApplicationController&#45;&gt;CarpoolController -->
<g id="edge1" class="edge"><title>ApplicationController&#45;&gt;CarpoolController</title>
<path fill="none" stroke="black" d="M128.085,-240.273C122.867,-244.818 117.569,-249.432 112.343,-253.984"/>
</g>
<!-- ApplicationController&#45;&gt;UserController -->
<g id="edge2" class="edge"><title>ApplicationController&#45;&gt;UserController</title>
<path fill="none" stroke="black" d="M233.806,-147.182C240.496,-141.224 247.327,-135.142 253.966,-129.231"/>
</g>
<!-- ApplicationController&#45;&gt;EventoController -->
<g id="edge3" class="edge"><title>ApplicationController&#45;&gt;EventoController</title>
<path fill="none" stroke="black" d="M135.398,-147.106C128.141,-139.781 120.633,-132.203 113.359,-124.862"/>
</g>
<!-- AuthenticateController -->
<g id="node6" class="node"><title>AuthenticateController</title>
<path fill="none" stroke="black" d="M236.199,-263.032C236.199,-263.032 353.199,-263.032 353.199,-263.032 359.199,-263.032 365.199,-269.032 365.199,-275.032 365.199,-275.032 365.199,-345.032 365.199,-345.032 365.199,-351.032 359.199,-357.032 353.199,-357.032 353.199,-357.032 236.199,-357.032 236.199,-357.032 230.199,-357.032 224.199,-351.032 224.199,-345.032 224.199,-345.032 224.199,-275.032 224.199,-275.032 224.199,-269.032 230.199,-263.032 236.199,-263.032"/>
<text text-anchor="middle" x="294.699" y="-341.832" font-family="Times,serif" font-size="14.00">AuthenticateController</text>
<polyline fill="none" stroke="black" points="224.199,-334.032 365.199,-334.032 "/>
<polyline fill="none" stroke="black" points="224.199,-310.032 365.199,-310.032 "/>
<polyline fill="none" stroke="black" points="224.199,-286.032 365.199,-286.032 "/>
<text text-anchor="start" x="232.199" y="-270.832" font-family="Times,serif" font-size="14.00">_layout</text>
</g>
<!-- ApplicationController&#45;&gt;AuthenticateController -->
<g id="edge4" class="edge"><title>ApplicationController&#45;&gt;AuthenticateController</title>
<path fill="none" stroke="black" d="M226.928,-240.345C234.182,-247.804 241.692,-255.527 248.955,-262.995"/>
</g>
</g>
</svg>
