<?xml version="1.0" encoding="UTF-8" standalone="no"?>
<!DOCTYPE svg PUBLIC "-//W3C//DTD SVG 1.1//EN"
 "http://www.w3.org/Graphics/SVG/1.1/DTD/svg11.dtd">
<!-- Generated by graphviz version 2.36.0 (20140111.2315)
 -->
<!-- Title: controllers_diagram Pages: 1 -->
<svg width="542pt" height="451pt"
 viewBox="0.00 0.00 542.00 451.00" xmlns="http://www.w3.org/2000/svg" xmlns:xlink="http://www.w3.org/1999/xlink">
<g id="graph0" class="graph" transform="scale(1 1) rotate(0) translate(4 447)">
<title>controllers_diagram</title>
<polygon fill="white" stroke="none" points="-4,4 -4,-447 538,-447 538,4 -4,4"/>
<!-- _diagram_info -->
<g id="node1" class="node"><title>_diagram_info</title>
<text text-anchor="start" x="328" y="-127.6" font-family="Times,serif" font-size="13.00">Controllers diagram</text>
<text text-anchor="start" x="328" y="-113.6" font-family="Times,serif" font-size="13.00">Date: Aug 18 2014 &#45; 11:26</text>
<text text-anchor="start" x="328" y="-99.6" font-family="Times,serif" font-size="13.00">Migration version: 20140727011228</text>
<text text-anchor="start" x="328" y="-85.6" font-family="Times,serif" font-size="13.00">Generated by RailRoady 1.1.1</text>
<text text-anchor="start" x="328" y="-71.6" font-family="Times,serif" font-size="13.00">http://railroady.prestonlee.com</text>
</g>
<!-- ApplicationController -->
<g id="node2" class="node"><title>ApplicationController</title>
<path fill="none" stroke="black" d="M332,-176.5C332,-176.5 502,-176.5 502,-176.5 508,-176.5 514,-182.5 514,-188.5 514,-188.5 514,-257.5 514,-257.5 514,-263.5 508,-269.5 502,-269.5 502,-269.5 332,-269.5 332,-269.5 326,-269.5 320,-263.5 320,-257.5 320,-257.5 320,-188.5 320,-188.5 320,-182.5 326,-176.5 332,-176.5"/>
<text text-anchor="middle" x="417" y="-254.3" font-family="Times,serif" font-size="14.00">ApplicationController</text>
<polyline fill="none" stroke="black" points="320,-246.5 514,-246.5 "/>
<polyline fill="none" stroke="black" points="320,-222.5 514,-222.5 "/>
<text text-anchor="start" x="328" y="-207.3" font-family="Times,serif" font-size="14.00">configure_permitted_parameters</text>
<polyline fill="none" stroke="black" points="320,-199.5 514,-199.5 "/>
<text text-anchor="start" x="328" y="-184.3" font-family="Times,serif" font-size="14.00">_layout</text>
</g>
<!-- EventoController -->
<g id="node3" class="node"><title>EventoController</title>
<path fill="none" stroke="black" d="M172,-64.5C172,-64.5 270,-64.5 270,-64.5 276,-64.5 282,-70.5 282,-76.5 282,-76.5 282,-235.5 282,-235.5 282,-241.5 276,-247.5 270,-247.5 270,-247.5 172,-247.5 172,-247.5 166,-247.5 160,-241.5 160,-235.5 160,-235.5 160,-76.5 160,-76.5 160,-70.5 166,-64.5 172,-64.5"/>
<text text-anchor="middle" x="221" y="-232.3" font-family="Times,serif" font-size="14.00">EventoController</text>
<polyline fill="none" stroke="black" points="160,-224.5 282,-224.5 "/>
<text text-anchor="start" x="168" y="-209.3" font-family="Times,serif" font-size="14.00">editar</text>
<text text-anchor="start" x="168" y="-194.3" font-family="Times,serif" font-size="14.00">eventos</text>
<text text-anchor="start" x="168" y="-179.3" font-family="Times,serif" font-size="14.00">eventos_publicador</text>
<text text-anchor="start" x="168" y="-164.3" font-family="Times,serif" font-size="14.00">new</text>
<text text-anchor="start" x="168" y="-149.3" font-family="Times,serif" font-size="14.00">publicar</text>
<text text-anchor="start" x="168" y="-134.3" font-family="Times,serif" font-size="14.00">show</text>
<polyline fill="none" stroke="black" points="160,-126.5 282,-126.5 "/>
<polyline fill="none" stroke="black" points="160,-102.5 282,-102.5 "/>
<text text-anchor="start" x="168" y="-87.3" font-family="Times,serif" font-size="14.00">_layout</text>
<text text-anchor="start" x="168" y="-72.3" font-family="Times,serif" font-size="14.00">evento_params</text>
</g>
<!-- CarpoolController -->
<g id="node4" class="node"><title>CarpoolController</title>
<path fill="none" stroke="black" d="M380,-304.5C380,-304.5 472,-304.5 472,-304.5 478,-304.5 484,-310.5 484,-316.5 484,-316.5 484,-430.5 484,-430.5 484,-436.5 478,-442.5 472,-442.5 472,-442.5 380,-442.5 380,-442.5 374,-442.5 368,-436.5 368,-430.5 368,-430.5 368,-316.5 368,-316.5 368,-310.5 374,-304.5 380,-304.5"/>
<text text-anchor="middle" x="426" y="-427.3" font-family="Times,serif" font-size="14.00">CarpoolController</text>
<polyline fill="none" stroke="black" points="368,-419.5 484,-419.5 "/>
<text text-anchor="start" x="376" y="-404.3" font-family="Times,serif" font-size="14.00">new</text>
<text text-anchor="start" x="376" y="-389.3" font-family="Times,serif" font-size="14.00">publicar</text>
<text text-anchor="start" x="376" y="-374.3" font-family="Times,serif" font-size="14.00">show</text>
<polyline fill="none" stroke="black" points="368,-366.5 484,-366.5 "/>
<polyline fill="none" stroke="black" points="368,-342.5 484,-342.5 "/>
<text text-anchor="start" x="376" y="-327.3" font-family="Times,serif" font-size="14.00">_layout</text>
<text text-anchor="start" x="376" y="-312.3" font-family="Times,serif" font-size="14.00">carpool_params</text>
</g>
<!-- OmniauthCallbacksController -->
<g id="node5" class="node"><title>OmniauthCallbacksController</title>
<path fill="none" stroke="black" d="M124,-288.5C124,-288.5 280,-288.5 280,-288.5 286,-288.5 292,-294.5 292,-300.5 292,-300.5 292,-384.5 292,-384.5 292,-390.5 286,-396.5 280,-396.5 280,-396.5 124,-396.5 124,-396.5 118,-396.5 112,-390.5 112,-384.5 112,-384.5 112,-300.5 112,-300.5 112,-294.5 118,-288.5 124,-288.5"/>
<text text-anchor="middle" x="202" y="-381.3" font-family="Times,serif" font-size="14.00">OmniauthCallbacksController</text>
<polyline fill="none" stroke="black" points="112,-373.5 292,-373.5 "/>
<text text-anchor="start" x="120" y="-358.3" font-family="Times,serif" font-size="14.00">facebook</text>
<text text-anchor="start" x="120" y="-343.3" font-family="Times,serif" font-size="14.00">twitter</text>
<polyline fill="none" stroke="black" points="112,-335.5 292,-335.5 "/>
<polyline fill="none" stroke="black" points="112,-311.5 292,-311.5 "/>
<text text-anchor="start" x="120" y="-296.3" font-family="Times,serif" font-size="14.00">_layout</text>
</g>
<!-- UserController -->
<g id="node6" class="node"><title>UserController</title>
<path fill="none" stroke="black" d="M44,-0.5C44,-0.5 118,-0.5 118,-0.5 124,-0.5 130,-6.5 130,-12.5 130,-12.5 130,-96.5 130,-96.5 130,-102.5 124,-108.5 118,-108.5 118,-108.5 44,-108.5 44,-108.5 38,-108.5 32,-102.5 32,-96.5 32,-96.5 32,-12.5 32,-12.5 32,-6.5 38,-0.5 44,-0.5"/>
<text text-anchor="middle" x="81" y="-93.3" font-family="Times,serif" font-size="14.00">UserController</text>
<polyline fill="none" stroke="black" points="32,-85.5 130,-85.5 "/>
<text text-anchor="start" x="40" y="-70.3" font-family="Times,serif" font-size="14.00">index</text>
<text text-anchor="start" x="40" y="-55.3" font-family="Times,serif" font-size="14.00">perfil</text>
<polyline fill="none" stroke="black" points="32,-47.5 130,-47.5 "/>
<polyline fill="none" stroke="black" points="32,-23.5 130,-23.5 "/>
<text text-anchor="start" x="40" y="-8.3" font-family="Times,serif" font-size="14.00">_layout</text>
</g>
<!-- CommentsController -->
<g id="node7" class="node"><title>CommentsController</title>
<path fill="none" stroke="black" d="M12,-144.5C12,-144.5 120,-144.5 120,-144.5 126,-144.5 132,-150.5 132,-156.5 132,-156.5 132,-240.5 132,-240.5 132,-246.5 126,-252.5 120,-252.5 120,-252.5 12,-252.5 12,-252.5 6,-252.5 -2.84217e-14,-246.5 -2.84217e-14,-240.5 -2.84217e-14,-240.5 -2.84217e-14,-156.5 -2.84217e-14,-156.5 -2.84217e-14,-150.5 6,-144.5 12,-144.5"/>
<text text-anchor="middle" x="66" y="-237.3" font-family="Times,serif" font-size="14.00">CommentsController</text>
<polyline fill="none" stroke="black" points="-2.84217e-14,-229.5 132,-229.5 "/>
<text text-anchor="start" x="8" y="-214.3" font-family="Times,serif" font-size="14.00">create</text>
<text text-anchor="start" x="8" y="-199.3" font-family="Times,serif" font-size="14.00">destroy</text>
<polyline fill="none" stroke="black" points="-2.84217e-14,-191.5 132,-191.5 "/>
<polyline fill="none" stroke="black" points="-2.84217e-14,-167.5 132,-167.5 "/>
<text text-anchor="start" x="8" y="-152.3" font-family="Times,serif" font-size="14.00">_layout</text>
</g>
</g>
</svg>
