<?xml version="1.0" encoding="UTF-8" standalone="no"?>
<!DOCTYPE svg PUBLIC "-//W3C//DTD SVG 1.1//EN"
 "http://www.w3.org/Graphics/SVG/1.1/DTD/svg11.dtd">
<!-- Generated by graphviz version 2.36.0 (20140111.2315)
 -->
<!-- Title: controllers_diagram Pages: 1 -->
<svg width="488pt" height="219pt"
 viewBox="0.00 0.00 488.00 219.00" xmlns="http://www.w3.org/2000/svg" xmlns:xlink="http://www.w3.org/1999/xlink">
<g id="graph0" class="graph" transform="scale(1 1) rotate(0) translate(4 215)">
<title>controllers_diagram</title>
<polygon fill="white" stroke="none" points="-4,4 -4,-215 484,-215 484,4 -4,4"/>
<!-- _diagram_info -->
<g id="node1" class="node"><title>_diagram_info</title>
<text text-anchor="start" x="274" y="-196.6" font-family="Times,serif" font-size="13.00">Controllers diagram</text>
<text text-anchor="start" x="274" y="-182.6" font-family="Times,serif" font-size="13.00">Date: Jul 15 2014 &#45; 23:46</text>
<text text-anchor="start" x="274" y="-168.6" font-family="Times,serif" font-size="13.00">Migration version: 20140716032004</text>
<text text-anchor="start" x="274" y="-154.6" font-family="Times,serif" font-size="13.00">Generated by RailRoady 1.1.1</text>
<text text-anchor="start" x="274" y="-140.6" font-family="Times,serif" font-size="13.00">http://railroady.prestonlee.com</text>
</g>
<!-- UserController -->
<g id="node2" class="node"><title>UserController</title>
<path fill="none" stroke="black" d="M12,-0.5C12,-0.5 86,-0.5 86,-0.5 92,-0.5 98,-6.5 98,-12.5 98,-12.5 98,-82.5 98,-82.5 98,-88.5 92,-94.5 86,-94.5 86,-94.5 12,-94.5 12,-94.5 6,-94.5 -2.84217e-14,-88.5 -2.84217e-14,-82.5 -2.84217e-14,-82.5 -2.84217e-14,-12.5 -2.84217e-14,-12.5 -2.84217e-14,-6.5 6,-0.5 12,-0.5"/>
<text text-anchor="middle" x="49" y="-79.3" font-family="Times,serif" font-size="14.00">UserController</text>
<polyline fill="none" stroke="black" points="-2.84217e-14,-71.5 98,-71.5 "/>
<polyline fill="none" stroke="black" points="-2.84217e-14,-47.5 98,-47.5 "/>
<polyline fill="none" stroke="black" points="-2.84217e-14,-23.5 98,-23.5 "/>
<text text-anchor="start" x="8" y="-8.3" font-family="Times,serif" font-size="14.00">_layout</text>
</g>
<!-- ApplicationController -->
<g id="node3" class="node"><title>ApplicationController</title>
<path fill="none" stroke="black" d="M123.238,-0.98965C123.238,-0.98965 335.238,-0.98965 335.238,-0.98965 341.238,-0.98965 347.238,-6.98965 347.238,-12.9896 347.238,-12.9896 347.238,-81.9896 347.238,-81.9896 347.238,-87.9896 341.238,-93.9896 335.238,-93.9896 335.238,-93.9896 123.238,-93.9896 123.238,-93.9896 117.238,-93.9896 111.238,-87.9896 111.238,-81.9896 111.238,-81.9896 111.238,-12.9896 111.238,-12.9896 111.238,-6.98965 117.238,-0.98965 123.238,-0.98965"/>
<text text-anchor="middle" x="229.238" y="-78.7896" font-family="Times,serif" font-size="14.00">ApplicationController</text>
<polyline fill="none" stroke="black" points="111.238,-70.9896 347.238,-70.9896 "/>
<polyline fill="none" stroke="black" points="111.238,-46.9896 347.238,-46.9896 "/>
<text text-anchor="start" x="119.238" y="-31.7896" font-family="Times,serif" font-size="14.00">configure_devise_permitted_parameters</text>
<polyline fill="none" stroke="black" points="111.238,-23.9896 347.238,-23.9896 "/>
<text text-anchor="start" x="119.238" y="-8.78965" font-family="Times,serif" font-size="14.00">_layout</text>
</g>
<!-- ApplicationController&#45;&gt;UserController -->
<g id="edge1" class="edge"><title>ApplicationController&#45;&gt;UserController</title>
<path fill="none" stroke="black" d="M111.028,-47.4964C106.648,-47.4967 102.367,-47.4969 98.2321,-47.4972"/>
</g>
</g>
</svg>
