<?xml version="1.0" encoding="UTF-8" standalone="no"?>
<!DOCTYPE svg PUBLIC "-//W3C//DTD SVG 1.1//EN"
 "http://www.w3.org/Graphics/SVG/1.1/DTD/svg11.dtd">
<!-- Generated by graphviz version 2.36.0 (20140111.2315)
 -->
<!-- Title: controllers_diagram Pages: 1 -->
<svg width="715pt" height="674pt"
 viewBox="0.00 0.00 715.00 674.00" xmlns="http://www.w3.org/2000/svg" xmlns:xlink="http://www.w3.org/1999/xlink">
<g id="graph0" class="graph" transform="scale(1 1) rotate(0) translate(4 670)">
<title>controllers_diagram</title>
<polygon fill="white" stroke="none" points="-4,4 -4,-670 711,-670 711,4 -4,4"/>
<!-- _diagram_info -->
<g id="node1" class="node"><title>_diagram_info</title>
<text text-anchor="start" x="382" y="-148.6" font-family="Times,serif" font-size="13.00">Controllers diagram</text>
<text text-anchor="start" x="382" y="-134.6" font-family="Times,serif" font-size="13.00">Date: Nov 06 2014 &#45; 20:01</text>
<text text-anchor="start" x="382" y="-120.6" font-family="Times,serif" font-size="13.00">Migration version: 20141011004157</text>
<text text-anchor="start" x="382" y="-106.6" font-family="Times,serif" font-size="13.00">Generated by RailRoady 1.1.2</text>
<text text-anchor="start" x="382" y="-92.6" font-family="Times,serif" font-size="13.00">http://railroady.prestonlee.com</text>
</g>
<!-- CarpoolController -->
<g id="node2" class="node"><title>CarpoolController</title>
<path fill="none" stroke="black" d="M216,-170.5C216,-170.5 329,-170.5 329,-170.5 335,-170.5 341,-176.5 341,-182.5 341,-182.5 341,-401.5 341,-401.5 341,-407.5 335,-413.5 329,-413.5 329,-413.5 216,-413.5 216,-413.5 210,-413.5 204,-407.5 204,-401.5 204,-401.5 204,-182.5 204,-182.5 204,-176.5 210,-170.5 216,-170.5"/>
<text text-anchor="middle" x="272.5" y="-398.3" font-family="Times,serif" font-size="14.00">CarpoolController</text>
<polyline fill="none" stroke="black" points="204,-390.5 341,-390.5 "/>
<text text-anchor="start" x="212" y="-375.3" font-family="Times,serif" font-size="14.00">aceptar_transaction</text>
<text text-anchor="start" x="212" y="-360.3" font-family="Times,serif" font-size="14.00">cambiar_asientos</text>
<text text-anchor="start" x="212" y="-345.3" font-family="Times,serif" font-size="14.00">delete_transaction</text>
<text text-anchor="start" x="212" y="-330.3" font-family="Times,serif" font-size="14.00">new</text>
<text text-anchor="start" x="212" y="-315.3" font-family="Times,serif" font-size="14.00">new_transaction</text>
<text text-anchor="start" x="212" y="-300.3" font-family="Times,serif" font-size="14.00">publicar</text>
<text text-anchor="start" x="212" y="-285.3" font-family="Times,serif" font-size="14.00">rechazar_transaction</text>
<text text-anchor="start" x="212" y="-270.3" font-family="Times,serif" font-size="14.00">show</text>
<text text-anchor="start" x="212" y="-255.3" font-family="Times,serif" font-size="14.00">update</text>
<polyline fill="none" stroke="black" points="204,-247.5 341,-247.5 "/>
<polyline fill="none" stroke="black" points="204,-223.5 341,-223.5 "/>
<text text-anchor="start" x="212" y="-208.3" font-family="Times,serif" font-size="14.00">_layout</text>
<text text-anchor="start" x="212" y="-193.3" font-family="Times,serif" font-size="14.00">carpool_params</text>
<text text-anchor="start" x="212" y="-178.3" font-family="Times,serif" font-size="14.00">trans_carpool_params</text>
</g>
<!-- RegistrationsController -->
<g id="node3" class="node"><title>RegistrationsController</title>
<path fill="none" stroke="black" d="M63,-527.5C63,-527.5 182,-527.5 182,-527.5 188,-527.5 194,-533.5 194,-539.5 194,-539.5 194,-653.5 194,-653.5 194,-659.5 188,-665.5 182,-665.5 182,-665.5 63,-665.5 63,-665.5 57,-665.5 51,-659.5 51,-653.5 51,-653.5 51,-539.5 51,-539.5 51,-533.5 57,-527.5 63,-527.5"/>
<text text-anchor="middle" x="122.5" y="-650.3" font-family="Times,serif" font-size="14.00">RegistrationsController</text>
<polyline fill="none" stroke="black" points="51,-642.5 194,-642.5 "/>
<text text-anchor="start" x="59" y="-627.3" font-family="Times,serif" font-size="14.00">create</text>
<text text-anchor="start" x="59" y="-612.3" font-family="Times,serif" font-size="14.00">edit</text>
<text text-anchor="start" x="59" y="-597.3" font-family="Times,serif" font-size="14.00">new</text>
<text text-anchor="start" x="59" y="-582.3" font-family="Times,serif" font-size="14.00">update</text>
<polyline fill="none" stroke="black" points="51,-574.5 194,-574.5 "/>
<polyline fill="none" stroke="black" points="51,-550.5 194,-550.5 "/>
<text text-anchor="start" x="59" y="-535.3" font-family="Times,serif" font-size="14.00">_layout</text>
</g>
<!-- UserController -->
<g id="node4" class="node"><title>UserController</title>
<path fill="none" stroke="black" d="M216,-0.5C216,-0.5 290,-0.5 290,-0.5 296,-0.5 302,-6.5 302,-12.5 302,-12.5 302,-126.5 302,-126.5 302,-132.5 296,-138.5 290,-138.5 290,-138.5 216,-138.5 216,-138.5 210,-138.5 204,-132.5 204,-126.5 204,-126.5 204,-12.5 204,-12.5 204,-6.5 210,-0.5 216,-0.5"/>
<text text-anchor="middle" x="253" y="-123.3" font-family="Times,serif" font-size="14.00">UserController</text>
<polyline fill="none" stroke="black" points="204,-115.5 302,-115.5 "/>
<text text-anchor="start" x="212" y="-100.3" font-family="Times,serif" font-size="14.00">edit</text>
<text text-anchor="start" x="212" y="-85.3" font-family="Times,serif" font-size="14.00">editar</text>
<text text-anchor="start" x="212" y="-70.3" font-family="Times,serif" font-size="14.00">index</text>
<text text-anchor="start" x="212" y="-55.3" font-family="Times,serif" font-size="14.00">perfil</text>
<polyline fill="none" stroke="black" points="204,-47.5 302,-47.5 "/>
<polyline fill="none" stroke="black" points="204,-23.5 302,-23.5 "/>
<text text-anchor="start" x="212" y="-8.3" font-family="Times,serif" font-size="14.00">_layout</text>
</g>
<!-- EventoController -->
<g id="node5" class="node"><title>EventoController</title>
<path fill="none" stroke="black" d="M386,-204.5C386,-204.5 484,-204.5 484,-204.5 490,-204.5 496,-210.5 496,-216.5 496,-216.5 496,-435.5 496,-435.5 496,-441.5 490,-447.5 484,-447.5 484,-447.5 386,-447.5 386,-447.5 380,-447.5 374,-441.5 374,-435.5 374,-435.5 374,-216.5 374,-216.5 374,-210.5 380,-204.5 386,-204.5"/>
<text text-anchor="middle" x="435" y="-432.3" font-family="Times,serif" font-size="14.00">EventoController</text>
<polyline fill="none" stroke="black" points="374,-424.5 496,-424.5 "/>
<text text-anchor="start" x="382" y="-409.3" font-family="Times,serif" font-size="14.00">editar</text>
<text text-anchor="start" x="382" y="-394.3" font-family="Times,serif" font-size="14.00">eventos</text>
<text text-anchor="start" x="382" y="-379.3" font-family="Times,serif" font-size="14.00">eventos_publicador</text>
<text text-anchor="start" x="382" y="-364.3" font-family="Times,serif" font-size="14.00">list_eventos</text>
<text text-anchor="start" x="382" y="-349.3" font-family="Times,serif" font-size="14.00">new</text>
<text text-anchor="start" x="382" y="-334.3" font-family="Times,serif" font-size="14.00">publicar</text>
<text text-anchor="start" x="382" y="-319.3" font-family="Times,serif" font-size="14.00">ruta_evento</text>
<text text-anchor="start" x="382" y="-304.3" font-family="Times,serif" font-size="14.00">show</text>
<text text-anchor="start" x="382" y="-289.3" font-family="Times,serif" font-size="14.00">update</text>
<polyline fill="none" stroke="black" points="374,-281.5 496,-281.5 "/>
<polyline fill="none" stroke="black" points="374,-257.5 496,-257.5 "/>
<text text-anchor="start" x="382" y="-242.3" font-family="Times,serif" font-size="14.00">_layout</text>
<text text-anchor="start" x="382" y="-227.3" font-family="Times,serif" font-size="14.00">evento_params</text>
<text text-anchor="start" x="382" y="-212.3" font-family="Times,serif" font-size="14.00">pasaje_params</text>
</g>
<!-- OmniauthCallbacksController -->
<g id="node6" class="node"><title>OmniauthCallbacksController</title>
<path fill="none" stroke="black" d="M539,-204.5C539,-204.5 695,-204.5 695,-204.5 701,-204.5 707,-210.5 707,-216.5 707,-216.5 707,-300.5 707,-300.5 707,-306.5 701,-312.5 695,-312.5 695,-312.5 539,-312.5 539,-312.5 533,-312.5 527,-306.5 527,-300.5 527,-300.5 527,-216.5 527,-216.5 527,-210.5 533,-204.5 539,-204.5"/>
<text text-anchor="middle" x="617" y="-297.3" font-family="Times,serif" font-size="14.00">OmniauthCallbacksController</text>
<polyline fill="none" stroke="black" points="527,-289.5 707,-289.5 "/>
<text text-anchor="start" x="535" y="-274.3" font-family="Times,serif" font-size="14.00">facebook</text>
<text text-anchor="start" x="535" y="-259.3" font-family="Times,serif" font-size="14.00">twitter</text>
<polyline fill="none" stroke="black" points="527,-251.5 707,-251.5 "/>
<polyline fill="none" stroke="black" points="527,-227.5 707,-227.5 "/>
<text text-anchor="start" x="535" y="-212.3" font-family="Times,serif" font-size="14.00">_layout</text>
</g>
<!-- PasajesController -->
<g id="node7" class="node"><title>PasajesController</title>
<path fill="none" stroke="black" d="M63,-306.5C63,-306.5 151,-306.5 151,-306.5 157,-306.5 163,-312.5 163,-318.5 163,-318.5 163,-462.5 163,-462.5 163,-468.5 157,-474.5 151,-474.5 151,-474.5 63,-474.5 63,-474.5 57,-474.5 51,-468.5 51,-462.5 51,-462.5 51,-318.5 51,-318.5 51,-312.5 57,-306.5 63,-306.5"/>
<text text-anchor="middle" x="107" y="-459.3" font-family="Times,serif" font-size="14.00">PasajesController</text>
<polyline fill="none" stroke="black" points="51,-451.5 163,-451.5 "/>
<text text-anchor="start" x="59" y="-436.3" font-family="Times,serif" font-size="14.00">aceptar_reserva</text>
<text text-anchor="start" x="59" y="-421.3" font-family="Times,serif" font-size="14.00">list_pasajes</text>
<text text-anchor="start" x="59" y="-406.3" font-family="Times,serif" font-size="14.00">reserva</text>
<text text-anchor="start" x="59" y="-391.3" font-family="Times,serif" font-size="14.00">reserva_send</text>
<text text-anchor="start" x="59" y="-376.3" font-family="Times,serif" font-size="14.00">reservado</text>
<polyline fill="none" stroke="black" points="51,-368.5 163,-368.5 "/>
<polyline fill="none" stroke="black" points="51,-344.5 163,-344.5 "/>
<text text-anchor="start" x="59" y="-329.3" font-family="Times,serif" font-size="14.00">_layout</text>
<text text-anchor="start" x="59" y="-314.3" font-family="Times,serif" font-size="14.00">reserva_params</text>
</g>
<!-- CommentsController -->
<g id="node8" class="node"><title>CommentsController</title>
<path fill="none" stroke="black" d="M539,-340.5C539,-340.5 647,-340.5 647,-340.5 653,-340.5 659,-346.5 659,-352.5 659,-352.5 659,-436.5 659,-436.5 659,-442.5 653,-448.5 647,-448.5 647,-448.5 539,-448.5 539,-448.5 533,-448.5 527,-442.5 527,-436.5 527,-436.5 527,-352.5 527,-352.5 527,-346.5 533,-340.5 539,-340.5"/>
<text text-anchor="middle" x="593" y="-433.3" font-family="Times,serif" font-size="14.00">CommentsController</text>
<polyline fill="none" stroke="black" points="527,-425.5 659,-425.5 "/>
<text text-anchor="start" x="535" y="-410.3" font-family="Times,serif" font-size="14.00">create</text>
<text text-anchor="start" x="535" y="-395.3" font-family="Times,serif" font-size="14.00">destroy</text>
<polyline fill="none" stroke="black" points="527,-387.5 659,-387.5 "/>
<polyline fill="none" stroke="black" points="527,-363.5 659,-363.5 "/>
<text text-anchor="start" x="535" y="-348.3" font-family="Times,serif" font-size="14.00">_layout</text>
</g>
<!-- ApplicationController -->
<g id="node9" class="node"><title>ApplicationController</title>
<path fill="none" stroke="black" d="M454,-476.5C454,-476.5 624,-476.5 624,-476.5 630,-476.5 636,-482.5 636,-488.5 636,-488.5 636,-572.5 636,-572.5 636,-578.5 630,-584.5 624,-584.5 624,-584.5 454,-584.5 454,-584.5 448,-584.5 442,-578.5 442,-572.5 442,-572.5 442,-488.5 442,-488.5 442,-482.5 448,-476.5 454,-476.5"/>
<text text-anchor="middle" x="539" y="-569.3" font-family="Times,serif" font-size="14.00">ApplicationController</text>
<polyline fill="none" stroke="black" points="442,-561.5 636,-561.5 "/>
<polyline fill="none" stroke="black" points="442,-537.5 636,-537.5 "/>
<text text-anchor="start" x="450" y="-522.3" font-family="Times,serif" font-size="14.00">configure_permitted_parameters</text>
<text text-anchor="start" x="450" y="-507.3" font-family="Times,serif" font-size="14.00">last_notifications</text>
<polyline fill="none" stroke="black" points="442,-499.5 636,-499.5 "/>
<text text-anchor="start" x="450" y="-484.3" font-family="Times,serif" font-size="14.00">_layout</text>
</g>
<!-- RankingsController -->
<g id="node10" class="node"><title>RankingsController</title>
<path fill="none" stroke="black" d="M233,-442.5C233,-442.5 332,-442.5 332,-442.5 338,-442.5 344,-448.5 344,-454.5 344,-454.5 344,-643.5 344,-643.5 344,-649.5 338,-655.5 332,-655.5 332,-655.5 233,-655.5 233,-655.5 227,-655.5 221,-649.5 221,-643.5 221,-643.5 221,-454.5 221,-454.5 221,-448.5 227,-442.5 233,-442.5"/>
<text text-anchor="middle" x="282.5" y="-640.3" font-family="Times,serif" font-size="14.00">RankingsController</text>
<polyline fill="none" stroke="black" points="221,-632.5 344,-632.5 "/>
<text text-anchor="start" x="229" y="-617.3" font-family="Times,serif" font-size="14.00">create</text>
<text text-anchor="start" x="229" y="-602.3" font-family="Times,serif" font-size="14.00">destroy</text>
<text text-anchor="start" x="229" y="-587.3" font-family="Times,serif" font-size="14.00">edit</text>
<text text-anchor="start" x="229" y="-572.3" font-family="Times,serif" font-size="14.00">index</text>
<text text-anchor="start" x="229" y="-557.3" font-family="Times,serif" font-size="14.00">new</text>
<text text-anchor="start" x="229" y="-542.3" font-family="Times,serif" font-size="14.00">show</text>
<text text-anchor="start" x="229" y="-527.3" font-family="Times,serif" font-size="14.00">update</text>
<polyline fill="none" stroke="black" points="221,-519.5 344,-519.5 "/>
<polyline fill="none" stroke="black" points="221,-495.5 344,-495.5 "/>
<text text-anchor="start" x="229" y="-480.3" font-family="Times,serif" font-size="14.00">_layout</text>
<text text-anchor="start" x="229" y="-465.3" font-family="Times,serif" font-size="14.00">ranking_params</text>
<text text-anchor="start" x="229" y="-450.3" font-family="Times,serif" font-size="14.00">set_ranking</text>
</g>
<!-- NotificationsController -->
<g id="node11" class="node"><title>NotificationsController</title>
<path fill="none" stroke="black" d="M46,-153.5C46,-153.5 165,-153.5 165,-153.5 171,-153.5 177,-159.5 177,-165.5 177,-165.5 177,-264.5 177,-264.5 177,-270.5 171,-276.5 165,-276.5 165,-276.5 46,-276.5 46,-276.5 40,-276.5 34,-270.5 34,-264.5 34,-264.5 34,-165.5 34,-165.5 34,-159.5 40,-153.5 46,-153.5"/>
<text text-anchor="middle" x="105.5" y="-261.3" font-family="Times,serif" font-size="14.00">NotificationsController</text>
<polyline fill="none" stroke="black" points="34,-253.5 177,-253.5 "/>
<text text-anchor="start" x="42" y="-238.3" font-family="Times,serif" font-size="14.00">checking_new</text>
<text text-anchor="start" x="42" y="-223.3" font-family="Times,serif" font-size="14.00">index</text>
<text text-anchor="start" x="42" y="-208.3" font-family="Times,serif" font-size="14.00">showing_recent</text>
<polyline fill="none" stroke="black" points="34,-200.5 177,-200.5 "/>
<polyline fill="none" stroke="black" points="34,-176.5 177,-176.5 "/>
<text text-anchor="start" x="42" y="-161.3" font-family="Times,serif" font-size="14.00">_layout</text>
</g>
<!-- IndexController -->
<g id="node12" class="node"><title>IndexController</title>
<path fill="none" stroke="black" d="M12,-34.5C12,-34.5 91,-34.5 91,-34.5 97,-34.5 103,-40.5 103,-46.5 103,-46.5 103,-115.5 103,-115.5 103,-121.5 97,-127.5 91,-127.5 91,-127.5 12,-127.5 12,-127.5 6,-127.5 0,-121.5 0,-115.5 0,-115.5 0,-46.5 0,-46.5 0,-40.5 6,-34.5 12,-34.5"/>
<text text-anchor="middle" x="51.5" y="-112.3" font-family="Times,serif" font-size="14.00">IndexController</text>
<polyline fill="none" stroke="black" points="0,-104.5 103,-104.5 "/>
<text text-anchor="start" x="8" y="-89.3" font-family="Times,serif" font-size="14.00">index</text>
<polyline fill="none" stroke="black" points="0,-81.5 103,-81.5 "/>
<polyline fill="none" stroke="black" points="0,-57.5 103,-57.5 "/>
<text text-anchor="start" x="8" y="-42.3" font-family="Times,serif" font-size="14.00">_layout</text>
</g>
</g>
</svg>
