<?xml version="1.0" encoding="UTF-8" standalone="no"?>
<!DOCTYPE svg PUBLIC "-//W3C//DTD SVG 1.1//EN"
 "http://www.w3.org/Graphics/SVG/1.1/DTD/svg11.dtd">
<!-- Generated by graphviz version 2.36.0 (20140111.2315)
 -->
<!-- Title: models_diagram Pages: 1 -->
<svg width="493pt" height="1442pt"
 viewBox="0.00 0.00 493.00 1442.00" xmlns="http://www.w3.org/2000/svg" xmlns:xlink="http://www.w3.org/1999/xlink">
<g id="graph0" class="graph" transform="scale(1 1) rotate(0) translate(4 1438)">
<title>models_diagram</title>
<polygon fill="white" stroke="none" points="-4,4 -4,-1438 489,-1438 489,4 -4,4"/>
<!-- _diagram_info -->
<g id="node1" class="node"><title>_diagram_info</title>
<text text-anchor="start" x="7" y="-1337.6" font-family="Times,serif" font-size="13.00">Models diagram</text>
<text text-anchor="start" x="7" y="-1323.6" font-family="Times,serif" font-size="13.00">Date: Jul 25 2014 &#45; 21:59</text>
<text text-anchor="start" x="7" y="-1309.6" font-family="Times,serif" font-size="13.00">Migration version: 20140724044557</text>
<text text-anchor="start" x="7" y="-1295.6" font-family="Times,serif" font-size="13.00">Generated by RailRoady 1.1.1</text>
<text text-anchor="start" x="7" y="-1281.6" font-family="Times,serif" font-size="13.00">http://railroady.prestonlee.com</text>
</g>
<!-- RedSocial -->
<g id="node2" class="node"><title>RedSocial</title>
<path fill="none" stroke="black" d="M103.5,-426.5C103.5,-426.5 210.5,-426.5 210.5,-426.5 216.5,-426.5 222.5,-432.5 222.5,-438.5 222.5,-438.5 222.5,-535.5 222.5,-535.5 222.5,-541.5 216.5,-547.5 210.5,-547.5 210.5,-547.5 103.5,-547.5 103.5,-547.5 97.5,-547.5 91.5,-541.5 91.5,-535.5 91.5,-535.5 91.5,-438.5 91.5,-438.5 91.5,-432.5 97.5,-426.5 103.5,-426.5"/>
<text text-anchor="middle" x="157" y="-532.3" font-family="Times,serif" font-size="14.00">RedSocial</text>
<polyline fill="none" stroke="black" points="91.5,-524.5 222.5,-524.5 "/>
<text text-anchor="start" x="99.5" y="-509.3" font-family="Times,serif" font-size="14.00">id :integer</text>
<text text-anchor="start" x="99.5" y="-494.3" font-family="Times,serif" font-size="14.00">user_id :integer</text>
<text text-anchor="start" x="99.5" y="-479.3" font-family="Times,serif" font-size="14.00">provider :string</text>
<text text-anchor="start" x="99.5" y="-464.3" font-family="Times,serif" font-size="14.00">uid :string</text>
<text text-anchor="start" x="99.5" y="-449.3" font-family="Times,serif" font-size="14.00">created_at :datetime</text>
<text text-anchor="start" x="99.5" y="-434.3" font-family="Times,serif" font-size="14.00">updated_at :datetime</text>
</g>
<!-- Oferta -->
<g id="node3" class="node"><title>Oferta</title>
<path fill="none" stroke="black" d="M191,-1C191,-1 311,-1 311,-1 317,-1 323,-7 323,-13 323,-13 323,-125 323,-125 323,-131 317,-137 311,-137 311,-137 191,-137 191,-137 185,-137 179,-131 179,-125 179,-125 179,-13 179,-13 179,-7 185,-1 191,-1"/>
<text text-anchor="middle" x="251" y="-121.8" font-family="Times,serif" font-size="14.00">Oferta</text>
<polyline fill="none" stroke="black" points="179,-114 323,-114 "/>
<text text-anchor="start" x="187" y="-98.8" font-family="Times,serif" font-size="14.00">id :integer</text>
<text text-anchor="start" x="187" y="-83.8" font-family="Times,serif" font-size="14.00">nombre :string</text>
<text text-anchor="start" x="187" y="-68.8" font-family="Times,serif" font-size="14.00">desc :string</text>
<text text-anchor="start" x="187" y="-53.8" font-family="Times,serif" font-size="14.00">porcentaje :integer</text>
<text text-anchor="start" x="187" y="-38.8" font-family="Times,serif" font-size="14.00">mod_cantidad :boolean</text>
<text text-anchor="start" x="187" y="-23.8" font-family="Times,serif" font-size="14.00">created_at :datetime</text>
<text text-anchor="start" x="187" y="-8.8" font-family="Times,serif" font-size="14.00">updated_at :datetime</text>
</g>
<!-- Pasaje -->
<g id="node5" class="node"><title>Pasaje</title>
<path fill="none" stroke="black" d="M191,-213.5C191,-213.5 311,-213.5 311,-213.5 317,-213.5 323,-219.5 323,-225.5 323,-225.5 323,-352.5 323,-352.5 323,-358.5 317,-364.5 311,-364.5 311,-364.5 191,-364.5 191,-364.5 185,-364.5 179,-358.5 179,-352.5 179,-352.5 179,-225.5 179,-225.5 179,-219.5 185,-213.5 191,-213.5"/>
<text text-anchor="middle" x="251" y="-349.3" font-family="Times,serif" font-size="14.00">Pasaje</text>
<polyline fill="none" stroke="black" points="179,-341.5 323,-341.5 "/>
<text text-anchor="start" x="187" y="-326.3" font-family="Times,serif" font-size="14.00">id :integer</text>
<text text-anchor="start" x="187" y="-311.3" font-family="Times,serif" font-size="14.00">user_evento_id :integer</text>
<text text-anchor="start" x="187" y="-296.3" font-family="Times,serif" font-size="14.00">oferta_id :integer</text>
<text text-anchor="start" x="187" y="-281.3" font-family="Times,serif" font-size="14.00">precio :integer</text>
<text text-anchor="start" x="187" y="-266.3" font-family="Times,serif" font-size="14.00">cantidad :integer</text>
<text text-anchor="start" x="187" y="-251.3" font-family="Times,serif" font-size="14.00">codigo :string</text>
<text text-anchor="start" x="187" y="-236.3" font-family="Times,serif" font-size="14.00">created_at :datetime</text>
<text text-anchor="start" x="187" y="-221.3" font-family="Times,serif" font-size="14.00">updated_at :datetime</text>
</g>
<!-- Oferta&#45;&gt;Pasaje -->
<g id="edge1" class="edge"><title>Oferta&#45;&gt;Pasaje</title>
<path fill="none" stroke="#e3d030" d="M260.25,-145.139C260.54,-148.808 260.794,-152.443 261,-156 261.883,-171.245 261.635,-187.469 260.782,-203.136"/>
<ellipse fill="none" stroke="#e3d030" cx="259.9" cy="-141.056" rx="4" ry="4"/>
<polygon fill="#e3d030" stroke="#e3d030" points="260.768,-203.356 255.649,-213.053 260.454,-208.346 260.14,-213.336 260.14,-213.336 260.14,-213.336 260.454,-208.346 264.631,-213.618 260.768,-203.356 260.768,-203.356"/>
</g>
<!-- Evento -->
<g id="node4" class="node"><title>Evento</title>
<path fill="none" stroke="black" d="M274.5,-987C274.5,-987 387.5,-987 387.5,-987 393.5,-987 399.5,-993 399.5,-999 399.5,-999 399.5,-1141 399.5,-1141 399.5,-1147 393.5,-1153 387.5,-1153 387.5,-1153 274.5,-1153 274.5,-1153 268.5,-1153 262.5,-1147 262.5,-1141 262.5,-1141 262.5,-999 262.5,-999 262.5,-993 268.5,-987 274.5,-987"/>
<text text-anchor="middle" x="331" y="-1137.8" font-family="Times,serif" font-size="14.00">Evento</text>
<polyline fill="none" stroke="black" points="262.5,-1130 399.5,-1130 "/>
<text text-anchor="start" x="270.5" y="-1114.8" font-family="Times,serif" font-size="14.00">id :integer</text>
<text text-anchor="start" x="270.5" y="-1099.8" font-family="Times,serif" font-size="14.00">nombre :string</text>
<text text-anchor="start" x="270.5" y="-1084.8" font-family="Times,serif" font-size="14.00">desc :string</text>
<text text-anchor="start" x="270.5" y="-1069.8" font-family="Times,serif" font-size="14.00">fecha_inicio :date</text>
<text text-anchor="start" x="270.5" y="-1054.8" font-family="Times,serif" font-size="14.00">fecha_termino :date</text>
<text text-anchor="start" x="270.5" y="-1039.8" font-family="Times,serif" font-size="14.00">imagen :string</text>
<text text-anchor="start" x="270.5" y="-1024.8" font-family="Times,serif" font-size="14.00">created_at :datetime</text>
<text text-anchor="start" x="270.5" y="-1009.8" font-family="Times,serif" font-size="14.00">updated_at :datetime</text>
<text text-anchor="start" x="270.5" y="-994.8" font-family="Times,serif" font-size="14.00">publicador_id :integer</text>
</g>
<!-- User -->
<g id="node6" class="node"><title>User</title>
<path fill="none" stroke="black" d="M153,-586.5C153,-586.5 329,-586.5 329,-586.5 335,-586.5 341,-592.5 341,-598.5 341,-598.5 341,-935.5 341,-935.5 341,-941.5 335,-947.5 329,-947.5 329,-947.5 153,-947.5 153,-947.5 147,-947.5 141,-941.5 141,-935.5 141,-935.5 141,-598.5 141,-598.5 141,-592.5 147,-586.5 153,-586.5"/>
<text text-anchor="middle" x="241" y="-932.3" font-family="Times,serif" font-size="14.00">User</text>
<polyline fill="none" stroke="black" points="141,-924.5 341,-924.5 "/>
<text text-anchor="start" x="149" y="-909.3" font-family="Times,serif" font-size="14.00">id :integer</text>
<text text-anchor="start" x="149" y="-894.3" font-family="Times,serif" font-size="14.00">email :string</text>
<text text-anchor="start" x="149" y="-879.3" font-family="Times,serif" font-size="14.00">encrypted_password :string</text>
<text text-anchor="start" x="149" y="-864.3" font-family="Times,serif" font-size="14.00">reset_password_token :string</text>
<text text-anchor="start" x="149" y="-849.3" font-family="Times,serif" font-size="14.00">reset_password_sent_at :datetime</text>
<text text-anchor="start" x="149" y="-834.3" font-family="Times,serif" font-size="14.00">remember_created_at :datetime</text>
<text text-anchor="start" x="149" y="-819.3" font-family="Times,serif" font-size="14.00">sign_in_count :integer</text>
<text text-anchor="start" x="149" y="-804.3" font-family="Times,serif" font-size="14.00">current_sign_in_at :datetime</text>
<text text-anchor="start" x="149" y="-789.3" font-family="Times,serif" font-size="14.00">last_sign_in_at :datetime</text>
<text text-anchor="start" x="149" y="-774.3" font-family="Times,serif" font-size="14.00">current_sign_in_ip :string</text>
<text text-anchor="start" x="149" y="-759.3" font-family="Times,serif" font-size="14.00">last_sign_in_ip :string</text>
<text text-anchor="start" x="149" y="-744.3" font-family="Times,serif" font-size="14.00">created_at :datetime</text>
<text text-anchor="start" x="149" y="-729.3" font-family="Times,serif" font-size="14.00">updated_at :datetime</text>
<text text-anchor="start" x="149" y="-714.3" font-family="Times,serif" font-size="14.00">nombre :string</text>
<text text-anchor="start" x="149" y="-699.3" font-family="Times,serif" font-size="14.00">ciudad :string</text>
<text text-anchor="start" x="149" y="-684.3" font-family="Times,serif" font-size="14.00">region :string</text>
<text text-anchor="start" x="149" y="-669.3" font-family="Times,serif" font-size="14.00">telefono :string</text>
<text text-anchor="start" x="149" y="-654.3" font-family="Times,serif" font-size="14.00">cumple :date</text>
<text text-anchor="start" x="149" y="-639.3" font-family="Times,serif" font-size="14.00">rut :string</text>
<text text-anchor="start" x="149" y="-624.3" font-family="Times,serif" font-size="14.00">dv :string</text>
<text text-anchor="start" x="149" y="-609.3" font-family="Times,serif" font-size="14.00">direccion :text</text>
<text text-anchor="start" x="149" y="-594.3" font-family="Times,serif" font-size="14.00">foto :string</text>
</g>
<!-- Evento&#45;&gt;User -->
<g id="edge3" class="edge"><title>Evento&#45;&gt;User</title>
<path fill="none" stroke="#231c0d" d="M303.484,-976.975C301.572,-970.581 299.611,-964.021 297.617,-957.351"/>
<polygon fill="#231c0d" stroke="#231c0d" points="303.542,-977.17 302.096,-988.04 304.975,-981.96 306.407,-986.75 306.407,-986.75 306.407,-986.75 304.975,-981.96 310.719,-985.461 303.542,-977.17 303.542,-977.17"/>
<polygon fill="#231c0d" stroke="#231c0d" points="297.538,-957.088 298.985,-946.218 296.106,-952.298 294.673,-947.507 294.673,-947.507 294.673,-947.507 296.106,-952.298 290.362,-948.796 297.538,-957.088 297.538,-957.088"/>
</g>
<!-- UserEvento -->
<g id="node7" class="node"><title>UserEvento</title>
<path fill="none" stroke="black" d="M302.5,-456.5C302.5,-456.5 393.5,-456.5 393.5,-456.5 399.5,-456.5 405.5,-462.5 405.5,-468.5 405.5,-468.5 405.5,-505.5 405.5,-505.5 405.5,-511.5 399.5,-517.5 393.5,-517.5 393.5,-517.5 302.5,-517.5 302.5,-517.5 296.5,-517.5 290.5,-511.5 290.5,-505.5 290.5,-505.5 290.5,-468.5 290.5,-468.5 290.5,-462.5 296.5,-456.5 302.5,-456.5"/>
<text text-anchor="middle" x="348" y="-502.3" font-family="Times,serif" font-size="14.00">UserEvento</text>
<polyline fill="none" stroke="black" points="290.5,-494.5 405.5,-494.5 "/>
<text text-anchor="start" x="298.5" y="-479.3" font-family="Times,serif" font-size="14.00">user_id :integer</text>
<text text-anchor="start" x="298.5" y="-464.3" font-family="Times,serif" font-size="14.00">evento_id :integer</text>
</g>
<!-- Evento&#45;&gt;UserEvento -->
<g id="edge2" class="edge"><title>Evento&#45;&gt;UserEvento</title>
<path fill="none" stroke="#c0b6f6" d="M346.724,-978.934C348.07,-968.531 349.216,-958.052 350,-948 362.1,-792.936 354.632,-607.575 350.366,-527.761"/>
<ellipse fill="none" stroke="#c0b6f6" cx="346.191" cy="-982.902" rx="4.00001" ry="4.00001"/>
<polygon fill="#c0b6f6" stroke="#c0b6f6" points="350.36,-527.646 354.306,-517.415 350.087,-522.653 349.813,-517.661 349.813,-517.661 349.813,-517.661 350.087,-522.653 345.32,-517.907 350.36,-527.646 350.36,-527.646"/>
</g>
<!-- Pasaje&#45;&gt;Oferta -->
<g id="edge4" class="edge"><title>Pasaje&#45;&gt;Oferta</title>
<path fill="none" stroke="#ee9120" d="M225.894,-205.247C223.449,-188.969 222.637,-171.985 225,-156 225.528,-152.432 226.172,-148.806 226.908,-145.163"/>
<ellipse fill="none" stroke="#ee9120" cx="226.559" cy="-209.228" rx="4.00001" ry="4.00001"/>
<ellipse fill="#ee9120" stroke="#ee9120" cx="227.8" cy="-141.083" rx="4.00001" ry="4.00001"/>
<text text-anchor="middle" x="241" y="-160.3" font-family="Times,serif" font-size="14.00">oferta</text>
</g>
<!-- User&#45;&gt;RedSocial -->
<g id="edge5" class="edge"><title>User&#45;&gt;RedSocial</title>
<path fill="none" stroke="#26c2c2" d="M184.326,-578.436C182.125,-571.153 179.986,-564.074 177.938,-557.294"/>
<ellipse fill="none" stroke="#26c2c2" cx="185.576" cy="-582.575" rx="4.00001" ry="4.00001"/>
<polygon fill="#26c2c2" stroke="#26c2c2" points="177.896,-557.157 179.311,-546.282 176.45,-552.37 175.004,-547.584 175.004,-547.584 175.004,-547.584 176.45,-552.37 170.696,-548.886 177.896,-557.157 177.896,-557.157"/>
</g>
<!-- User&#45;&gt;Pasaje -->
<g id="edge7" class="edge"><title>User&#45;&gt;Pasaje</title>
<path fill="none" stroke="#a06ad5" d="M244.992,-575.969C246.458,-506.177 248.045,-430.644 249.22,-374.741"/>
<polygon fill="#a06ad5" stroke="#a06ad5" points="244.984,-576.386 240.274,-586.289 244.879,-581.385 244.773,-586.384 244.773,-586.384 244.773,-586.384 244.879,-581.385 249.272,-586.479 244.984,-576.386 244.984,-576.386"/>
<polygon fill="#a06ad5" stroke="#a06ad5" points="249.224,-374.534 253.933,-364.631 249.329,-369.535 249.434,-364.536 249.434,-364.536 249.434,-364.536 249.329,-369.535 244.935,-364.442 249.224,-374.534 249.224,-374.534"/>
</g>
<!-- User&#45;&gt;UserEvento -->
<g id="edge6" class="edge"><title>User&#45;&gt;UserEvento</title>
<path fill="none" stroke="#0d274f" d="M313.099,-578.677C320.474,-559.517 327.31,-541.756 332.941,-527.124"/>
<ellipse fill="none" stroke="#0d274f" cx="311.562" cy="-582.671" rx="4.00001" ry="4.00001"/>
<polygon fill="#0d274f" stroke="#0d274f" points="333.048,-526.848 340.839,-519.132 334.844,-522.182 336.64,-517.515 336.64,-517.515 336.64,-517.515 334.844,-522.182 332.44,-515.899 333.048,-526.848 333.048,-526.848"/>
</g>
<!-- UserEvento&#45;&gt;Pasaje -->
<g id="edge8" class="edge"><title>UserEvento&#45;&gt;Pasaje</title>
<path fill="none" stroke="#3e1d9b" d="M329.592,-448.805C319.07,-427.543 305.422,-399.967 292.46,-373.776"/>
<ellipse fill="none" stroke="#3e1d9b" cx="331.494" cy="-452.647" rx="4.00002" ry="4.00002"/>
<polygon fill="#3e1d9b" stroke="#3e1d9b" points="292.346,-373.544 291.944,-362.586 290.128,-369.063 287.91,-364.582 287.91,-364.582 287.91,-364.582 290.128,-369.063 283.877,-366.578 292.346,-373.544 292.346,-373.544"/>
</g>
<!-- PublicacionCarpool -->
<g id="node9" class="node"><title>PublicacionCarpool</title>
<path fill="none" stroke="black" d="M353,-191C353,-191 473,-191 473,-191 479,-191 485,-197 485,-203 485,-203 485,-375 485,-375 485,-381 479,-387 473,-387 473,-387 353,-387 353,-387 347,-387 341,-381 341,-375 341,-375 341,-203 341,-203 341,-197 347,-191 353,-191"/>
<text text-anchor="middle" x="413" y="-371.8" font-family="Times,serif" font-size="14.00">PublicacionCarpool</text>
<polyline fill="none" stroke="black" points="341,-364 485,-364 "/>
<text text-anchor="start" x="349" y="-348.8" font-family="Times,serif" font-size="14.00">id :integer</text>
<text text-anchor="start" x="349" y="-333.8" font-family="Times,serif" font-size="14.00">user_evento_id :integer</text>
<text text-anchor="start" x="349" y="-318.8" font-family="Times,serif" font-size="14.00">fecha :date</text>
<text text-anchor="start" x="349" y="-303.8" font-family="Times,serif" font-size="14.00">descripcion :text</text>
<text text-anchor="start" x="349" y="-288.8" font-family="Times,serif" font-size="14.00">precio :integer</text>
<text text-anchor="start" x="349" y="-273.8" font-family="Times,serif" font-size="14.00">hora_desde :time</text>
<text text-anchor="start" x="349" y="-258.8" font-family="Times,serif" font-size="14.00">desde :string</text>
<text text-anchor="start" x="349" y="-243.8" font-family="Times,serif" font-size="14.00">hora_hasta :time</text>
<text text-anchor="start" x="349" y="-228.8" font-family="Times,serif" font-size="14.00">hasta :time</text>
<text text-anchor="start" x="349" y="-213.8" font-family="Times,serif" font-size="14.00">created_at :datetime</text>
<text text-anchor="start" x="349" y="-198.8" font-family="Times,serif" font-size="14.00">updated_at :datetime</text>
</g>
<!-- UserEvento&#45;&gt;PublicacionCarpool -->
<g id="edge9" class="edge"><title>UserEvento&#45;&gt;PublicacionCarpool</title>
<path fill="none" stroke="#3a1032" d="M360.444,-448.477C365.404,-433.521 371.387,-415.479 377.513,-397.007"/>
<ellipse fill="none" stroke="#3a1032" cx="359.131" cy="-452.435" rx="4.00001" ry="4.00001"/>
<polygon fill="#3a1032" stroke="#3a1032" points="377.577,-396.814 384.996,-388.739 379.151,-392.068 380.725,-387.323 380.725,-387.323 380.725,-387.323 379.151,-392.068 376.453,-385.906 377.577,-396.814 377.577,-396.814"/>
</g>
<!-- Publicador -->
<g id="node8" class="node"><title>Publicador</title>
<path fill="none" stroke="black" d="M243,-1192.5C243,-1192.5 419,-1192.5 419,-1192.5 425,-1192.5 431,-1198.5 431,-1204.5 431,-1204.5 431,-1421.5 431,-1421.5 431,-1427.5 425,-1433.5 419,-1433.5 419,-1433.5 243,-1433.5 243,-1433.5 237,-1433.5 231,-1427.5 231,-1421.5 231,-1421.5 231,-1204.5 231,-1204.5 231,-1198.5 237,-1192.5 243,-1192.5"/>
<text text-anchor="middle" x="331" y="-1418.3" font-family="Times,serif" font-size="14.00">Publicador</text>
<polyline fill="none" stroke="black" points="231,-1410.5 431,-1410.5 "/>
<text text-anchor="start" x="239" y="-1395.3" font-family="Times,serif" font-size="14.00">id :integer</text>
<text text-anchor="start" x="239" y="-1380.3" font-family="Times,serif" font-size="14.00">email :string</text>
<text text-anchor="start" x="239" y="-1365.3" font-family="Times,serif" font-size="14.00">encrypted_password :string</text>
<text text-anchor="start" x="239" y="-1350.3" font-family="Times,serif" font-size="14.00">reset_password_token :string</text>
<text text-anchor="start" x="239" y="-1335.3" font-family="Times,serif" font-size="14.00">reset_password_sent_at :datetime</text>
<text text-anchor="start" x="239" y="-1320.3" font-family="Times,serif" font-size="14.00">remember_created_at :datetime</text>
<text text-anchor="start" x="239" y="-1305.3" font-family="Times,serif" font-size="14.00">sign_in_count :integer</text>
<text text-anchor="start" x="239" y="-1290.3" font-family="Times,serif" font-size="14.00">current_sign_in_at :datetime</text>
<text text-anchor="start" x="239" y="-1275.3" font-family="Times,serif" font-size="14.00">last_sign_in_at :datetime</text>
<text text-anchor="start" x="239" y="-1260.3" font-family="Times,serif" font-size="14.00">current_sign_in_ip :string</text>
<text text-anchor="start" x="239" y="-1245.3" font-family="Times,serif" font-size="14.00">last_sign_in_ip :string</text>
<text text-anchor="start" x="239" y="-1230.3" font-family="Times,serif" font-size="14.00">created_at :datetime</text>
<text text-anchor="start" x="239" y="-1215.3" font-family="Times,serif" font-size="14.00">updated_at :datetime</text>
<text text-anchor="start" x="239" y="-1200.3" font-family="Times,serif" font-size="14.00">username :string</text>
</g>
<!-- Publicador&#45;&gt;Evento -->
<g id="edge10" class="edge"><title>Publicador&#45;&gt;Evento</title>
<path fill="none" stroke="#eda843" d="M331,-1184.15C331,-1177.08 331,-1170.04 331,-1163.13"/>
<ellipse fill="none" stroke="#eda843" cx="331" cy="-1188.21" rx="4" ry="4"/>
<polygon fill="#eda843" stroke="#eda843" points="331,-1163.12 335.5,-1153.12 331,-1158.12 331,-1153.12 331,-1153.12 331,-1153.12 331,-1158.12 326.5,-1153.12 331,-1163.12 331,-1163.12"/>
</g>
</g>
</svg>
