<?xml version="1.0" encoding="UTF-8" standalone="no"?>
<!DOCTYPE svg PUBLIC "-//W3C//DTD SVG 1.1//EN"
 "http://www.w3.org/Graphics/SVG/1.1/DTD/svg11.dtd">
<!-- Generated by graphviz version 2.36.0 (20140111.2315)
 -->
<!-- Title: models_diagram Pages: 1 -->
<svg width="536pt" height="484pt"
 viewBox="0.00 0.00 536.00 484.00" xmlns="http://www.w3.org/2000/svg" xmlns:xlink="http://www.w3.org/1999/xlink">
<g id="graph0" class="graph" transform="scale(1 1) rotate(0) translate(4 480)">
<title>models_diagram</title>
<polygon fill="white" stroke="none" points="-4,4 -4,-480 532,-480 532,4 -4,4"/>
<!-- _diagram_info -->
<g id="node1" class="node"><title>_diagram_info</title>
<text text-anchor="start" x="156" y="-461.6" font-family="Times,serif" font-size="13.00">Models diagram</text>
<text text-anchor="start" x="156" y="-447.6" font-family="Times,serif" font-size="13.00">Date: Aug 31 2014 &#45; 20:53</text>
<text text-anchor="start" x="156" y="-433.6" font-family="Times,serif" font-size="13.00">Migration version: 20140901000518</text>
<text text-anchor="start" x="156" y="-419.6" font-family="Times,serif" font-size="13.00">Generated by RailRoady 1.1.1</text>
<text text-anchor="start" x="156" y="-405.6" font-family="Times,serif" font-size="13.00">http://railroady.prestonlee.com</text>
</g>
<!-- RedSocial -->
<g id="node2" class="node"><title>RedSocial</title>
<ellipse fill="none" stroke="black" cx="430" cy="-194" rx="46.1964" ry="18"/>
<text text-anchor="middle" x="430" y="-190.3" font-family="Times,serif" font-size="14.00">RedSocial</text>
</g>
<!-- Oferta -->
<g id="node3" class="node"><title>Oferta</title>
<ellipse fill="none" stroke="black" cx="210" cy="-194" rx="33.2209" ry="18"/>
<text text-anchor="middle" x="210" y="-190.3" font-family="Times,serif" font-size="14.00">Oferta</text>
</g>
<!-- Pasaje -->
<g id="node8" class="node"><title>Pasaje</title>
<ellipse fill="none" stroke="black" cx="210" cy="-106" rx="33.2209" ry="18"/>
<text text-anchor="middle" x="210" y="-102.3" font-family="Times,serif" font-size="14.00">Pasaje</text>
</g>
<!-- Oferta&#45;&gt;Pasaje -->
<g id="edge1" class="edge"><title>Oferta&#45;&gt;Pasaje</title>
<path fill="none" stroke="#028239" d="M210,-167.339C210,-156.855 210,-144.718 210,-134.091"/>
<ellipse fill="none" stroke="#028239" cx="210" cy="-171.597" rx="4" ry="4"/>
<polygon fill="#028239" stroke="#028239" points="210,-134.084 214.5,-124.084 210,-129.084 210,-124.084 210,-124.084 210,-124.084 210,-129.084 205.5,-124.084 210,-134.084 210,-134.084"/>
</g>
<!-- Category -->
<g id="node4" class="node"><title>Category</title>
<ellipse fill="none" stroke="black" cx="42" cy="-342" rx="42.3456" ry="18"/>
<text text-anchor="middle" x="42" y="-338.3" font-family="Times,serif" font-size="14.00">Category</text>
</g>
<!-- Gusto -->
<g id="node5" class="node"><title>Gusto</title>
<ellipse fill="none" stroke="black" cx="127" cy="-194" rx="31.2735" ry="18"/>
<text text-anchor="middle" x="127" y="-190.3" font-family="Times,serif" font-size="14.00">Gusto</text>
</g>
<!-- Category&#45;&gt;Gusto -->
<g id="edge2" class="edge"><title>Category&#45;&gt;Gusto</title>
<path fill="none" stroke="#ee0f66" d="M55.8798,-317.159C71.3605,-290.569 96.3049,-247.723 112.163,-220.484"/>
<ellipse fill="none" stroke="#ee0f66" cx="53.7631" cy="-320.795" rx="4.00002" ry="4.00002"/>
<polygon fill="#ee0f66" stroke="#ee0f66" points="112.332,-220.195 121.252,-213.817 114.847,-215.874 117.363,-211.553 117.363,-211.553 117.363,-211.553 114.847,-215.874 113.474,-209.289 112.332,-220.195 112.332,-220.195"/>
</g>
<!-- Evento -->
<g id="node6" class="node"><title>Evento</title>
<ellipse fill="none" stroke="black" cx="229" cy="-268" rx="35.6194" ry="18"/>
<text text-anchor="middle" x="229" y="-264.3" font-family="Times,serif" font-size="14.00">Evento</text>
</g>
<!-- Category&#45;&gt;Evento -->
<g id="edge3" class="edge"><title>Category&#45;&gt;Evento</title>
<path fill="none" stroke="#7e4706" d="M80.3403,-326.238C113.048,-313.645 159.773,-295.654 192.069,-283.219"/>
<ellipse fill="none" stroke="#7e4706" cx="76.1938" cy="-327.834" rx="4.00001" ry="4.00001"/>
<polygon fill="#7e4706" stroke="#7e4706" points="192.265,-283.144 203.214,-283.75 196.931,-281.347 201.597,-279.551 201.597,-279.551 201.597,-279.551 196.931,-281.347 199.98,-275.351 192.265,-283.144 192.265,-283.144"/>
</g>
<!-- UserEvento -->
<g id="node10" class="node"><title>UserEvento</title>
<ellipse fill="none" stroke="black" cx="313" cy="-194" rx="51.4931" ry="18"/>
<text text-anchor="middle" x="313" y="-190.3" font-family="Times,serif" font-size="14.00">UserEvento</text>
</g>
<!-- Evento&#45;&gt;UserEvento -->
<g id="edge5" class="edge"><title>Evento&#45;&gt;UserEvento</title>
<path fill="none" stroke="#a0d8cd" d="M252.629,-246.746C263.282,-237.615 275.899,-226.801 286.837,-217.426"/>
<ellipse fill="none" stroke="#a0d8cd" cx="249.442" cy="-249.478" rx="4.00002" ry="4.00002"/>
<polygon fill="#a0d8cd" stroke="#a0d8cd" points="286.86,-217.406 297.381,-214.315 290.656,-214.152 294.452,-210.898 294.452,-210.898 294.452,-210.898 290.656,-214.152 291.524,-207.482 286.86,-217.406 286.86,-217.406"/>
</g>
<!-- Comment -->
<g id="node12" class="node"><title>Comment</title>
<ellipse fill="none" stroke="black" cx="153" cy="-18" rx="46.2191" ry="18"/>
<text text-anchor="middle" x="153" y="-14.3" font-family="Times,serif" font-size="14.00">Comment</text>
</g>
<!-- Evento&#45;&gt;Comment -->
<g id="edge4" class="edge"><title>Evento&#45;&gt;Comment</title>
<path fill="none" stroke="#4834bd" d="M185.995,-263.215C152.576,-257.756 108.281,-244.442 86,-212 49.0371,-158.181 99.8726,-81.9708 131.354,-43.3971"/>
<ellipse fill="none" stroke="#4834bd" cx="190.28" cy="-263.852" rx="4.00001" ry="4.00001"/>
<polygon fill="#4834bd" stroke="#4834bd" points="131.699,-42.9847 141.569,-38.2055 134.909,-39.1508 138.118,-35.3169 138.118,-35.3169 138.118,-35.3169 134.909,-39.1508 134.668,-32.4283 131.699,-42.9847 131.699,-42.9847"/>
<text text-anchor="middle" x="126" y="-146.3" font-family="Times,serif" font-size="14.00">comment_threads</text>
</g>
<!-- City -->
<g id="node7" class="node"><title>City</title>
<ellipse fill="none" stroke="black" cx="416" cy="-342" rx="27" ry="18"/>
<text text-anchor="middle" x="416" y="-338.3" font-family="Times,serif" font-size="14.00">City</text>
</g>
<!-- City&#45;&gt;Evento -->
<g id="edge7" class="edge"><title>City&#45;&gt;Evento</title>
<path fill="none" stroke="#059a25" d="M387.302,-327.545C384.509,-326.317 381.708,-325.117 379,-324 341.562,-308.564 298.04,-292.846 267.549,-282.188"/>
<ellipse fill="none" stroke="#059a25" cx="390.955" cy="-329.184" rx="4.00002" ry="4.00002"/>
<polygon fill="#059a25" stroke="#059a25" points="267.181,-282.06 259.214,-274.525 262.459,-280.418 257.736,-278.776 257.736,-278.776 257.736,-278.776 262.459,-280.418 256.258,-283.026 267.181,-282.06 267.181,-282.06"/>
</g>
<!-- User -->
<g id="node9" class="node"><title>User</title>
<ellipse fill="none" stroke="black" cx="427" cy="-268" rx="26.949" ry="18"/>
<text text-anchor="middle" x="427" y="-264.3" font-family="Times,serif" font-size="14.00">User</text>
</g>
<!-- City&#45;&gt;User -->
<g id="edge6" class="edge"><title>City&#45;&gt;User</title>
<path fill="none" stroke="#8a972f" d="M419.825,-315.965C420.796,-309.607 421.845,-302.745 422.832,-296.282"/>
<ellipse fill="none" stroke="#8a972f" cx="419.211" cy="-319.983" rx="4.00001" ry="4.00001"/>
<polygon fill="#8a972f" stroke="#8a972f" points="422.902,-295.826 428.86,-286.62 423.657,-290.883 424.412,-285.941 424.412,-285.941 424.412,-285.941 423.657,-290.883 419.963,-285.261 422.902,-295.826 422.902,-295.826"/>
</g>
<!-- User&#45;&gt;RedSocial -->
<g id="edge8" class="edge"><title>User&#45;&gt;RedSocial</title>
<path fill="none" stroke="#01083f" d="M428.05,-241.792C428.309,-235.58 428.588,-228.896 428.851,-222.579"/>
<ellipse fill="none" stroke="#01083f" cx="427.878" cy="-245.94" rx="4" ry="4"/>
<polygon fill="#01083f" stroke="#01083f" points="428.857,-222.432 433.769,-212.628 429.065,-217.436 429.273,-212.441 429.273,-212.441 429.273,-212.441 429.065,-217.436 424.777,-212.253 428.857,-222.432 428.857,-222.432"/>
</g>
<!-- User&#45;&gt;Gusto -->
<g id="edge11" class="edge"><title>User&#45;&gt;Gusto</title>
<path fill="none" stroke="#27941e" d="M392.949,-261.823C342.942,-253.76 247.01,-236.54 168,-212 165.553,-211.24 163.05,-210.391 160.547,-209.488"/>
<ellipse fill="none" stroke="#27941e" cx="396.913" cy="-262.454" rx="4.00001" ry="4.00001"/>
<polygon fill="#27941e" stroke="#27941e" points="160.343,-209.409 152.626,-201.619 155.677,-207.614 151.01,-205.818 151.01,-205.818 151.01,-205.818 155.677,-207.614 149.394,-210.018 160.343,-209.409 160.343,-209.409"/>
</g>
<!-- User&#45;&gt;UserEvento -->
<g id="edge10" class="edge"><title>User&#45;&gt;UserEvento</title>
<path fill="none" stroke="#271176" d="M401.15,-250.673C384.724,-240.299 363.318,-226.78 345.713,-215.661"/>
<ellipse fill="none" stroke="#271176" cx="404.537" cy="-252.813" rx="4.00002" ry="4.00002"/>
<polygon fill="#271176" stroke="#271176" points="345.355,-215.435 339.303,-206.29 341.128,-212.765 336.9,-210.095 336.9,-210.095 336.9,-210.095 341.128,-212.765 334.497,-213.9 345.355,-215.435 345.355,-215.435"/>
</g>
<!-- TransaccionCarpool -->
<g id="node16" class="node"><title>TransaccionCarpool</title>
<ellipse fill="none" stroke="black" cx="447" cy="-18" rx="81.3398" ry="18"/>
<text text-anchor="middle" x="447" y="-14.3" font-family="Times,serif" font-size="14.00">TransaccionCarpool</text>
</g>
<!-- User&#45;&gt;TransaccionCarpool -->
<g id="edge9" class="edge"><title>User&#45;&gt;TransaccionCarpool</title>
<path fill="none" stroke="#15df28" d="M452.693,-250.234C464.939,-240.666 478.342,-227.49 485,-212 509.306,-155.455 480.555,-82.8698 461.405,-44.8548"/>
<ellipse fill="none" stroke="#15df28" cx="449.268" cy="-252.783" rx="4.00002" ry="4.00002"/>
<polygon fill="#15df28" stroke="#15df28" points="461.396,-44.8373 460.774,-33.8891 459.089,-40.4015 456.782,-35.9656 456.782,-35.9656 456.782,-35.9656 459.089,-40.4015 452.789,-38.0421 461.396,-44.8373 461.396,-44.8373"/>
</g>
<!-- UserEvento&#45;&gt;Pasaje -->
<g id="edge12" class="edge"><title>UserEvento&#45;&gt;Pasaje</title>
<path fill="none" stroke="#2b5a95" d="M287.522,-171.727C271.586,-158.421 251.14,-141.35 235.248,-128.08"/>
<ellipse fill="none" stroke="#2b5a95" cx="291.038" cy="-174.663" rx="4.00002" ry="4.00002"/>
<polygon fill="#2b5a95" stroke="#2b5a95" points="235.076,-127.937 230.284,-118.074 231.238,-124.733 227.4,-121.528 227.4,-121.528 227.4,-121.528 231.238,-124.733 224.516,-124.982 235.076,-127.937 235.076,-127.937"/>
</g>
<!-- PublicacionCarpool -->
<g id="node14" class="node"><title>PublicacionCarpool</title>
<ellipse fill="none" stroke="black" cx="342" cy="-106" rx="80.389" ry="18"/>
<text text-anchor="middle" x="342" y="-102.3" font-family="Times,serif" font-size="14.00">PublicacionCarpool</text>
</g>
<!-- UserEvento&#45;&gt;PublicacionCarpool -->
<g id="edge13" class="edge"><title>UserEvento&#45;&gt;PublicacionCarpool</title>
<path fill="none" stroke="#98bfd8" d="M321.397,-168.097C325.243,-156.695 329.788,-143.216 333.629,-131.823"/>
<ellipse fill="none" stroke="#98bfd8" cx="320.008" cy="-172.219" rx="4.00001" ry="4.00001"/>
<ellipse fill="#98bfd8" stroke="#98bfd8" cx="335.004" cy="-127.746" rx="4.00001" ry="4.00001"/>
</g>
<!-- Organization -->
<g id="node11" class="node"><title>Organization</title>
<ellipse fill="none" stroke="black" cx="314" cy="-342" rx="56.3173" ry="18"/>
<text text-anchor="middle" x="314" y="-338.3" font-family="Times,serif" font-size="14.00">Organization</text>
</g>
<!-- Organization&#45;&gt;Evento -->
<g id="edge14" class="edge"><title>Organization&#45;&gt;Evento</title>
<path fill="none" stroke="#9b192a" d="M288.696,-319.566C277.82,-310.353 265.137,-299.61 254.265,-290.401"/>
<ellipse fill="none" stroke="#9b192a" cx="292.084" cy="-322.435" rx="4.00002" ry="4.00002"/>
<polygon fill="#9b192a" stroke="#9b192a" points="253.995,-290.172 249.273,-280.275 250.18,-286.94 246.364,-283.709 246.364,-283.709 246.364,-283.709 250.18,-286.94 243.456,-287.142 253.995,-290.172 253.995,-290.172"/>
</g>
<!-- Comment&#45;&gt;Comment -->
<g id="edge15" class="edge"><title>Comment&#45;&gt;Comment</title>
<path fill="none" stroke="#02fcd3" d="M202.4,-25.7313C211.012,-24.6981 217,-22.121 217,-18 217,-14.2537 212.051,-11.7832 204.681,-10.5887"/>
<ellipse fill="none" stroke="#02fcd3" cx="198.234" cy="-25.992" rx="4" ry="4"/>
<polygon fill="#02fcd3" stroke="#02fcd3" points="204.21,-10.5513 194.599,-5.27224 199.226,-10.1547 194.242,-9.75806 194.242,-9.75806 194.242,-9.75806 199.226,-10.1547 193.885,-14.2439 204.21,-10.5513 204.21,-10.5513"/>
<text text-anchor="middle" x="239.5" y="-14.3" font-family="Times,serif" font-size="14.00">children</text>
</g>
<!-- Publicador -->
<g id="node13" class="node"><title>Publicador</title>
<ellipse fill="none" stroke="black" cx="152" cy="-342" rx="48.6179" ry="18"/>
<text text-anchor="middle" x="152" y="-338.3" font-family="Times,serif" font-size="14.00">Publicador</text>
</g>
<!-- Publicador&#45;&gt;Evento -->
<g id="edge16" class="edge"><title>Publicador&#45;&gt;Evento</title>
<path fill="none" stroke="#4efba4" d="M175.174,-319.33C184.738,-310.388 195.81,-300.035 205.417,-291.052"/>
<ellipse fill="none" stroke="#4efba4" cx="172.011" cy="-322.289" rx="4.00002" ry="4.00002"/>
<polygon fill="#4efba4" stroke="#4efba4" points="205.445,-291.025 215.823,-287.482 209.098,-287.61 212.75,-284.195 212.75,-284.195 212.75,-284.195 209.098,-287.61 209.676,-280.908 205.445,-291.025 205.445,-291.025"/>
</g>
<!-- PublicacionCarpool&#45;&gt;Comment -->
<g id="edge18" class="edge"><title>PublicacionCarpool&#45;&gt;Comment</title>
<path fill="none" stroke="#c6822c" d="M300.783,-86.2451C268.199,-71.4185 223.06,-50.8792 191.267,-36.4126"/>
<ellipse fill="none" stroke="#c6822c" cx="304.57" cy="-87.9682" rx="4.00002" ry="4.00002"/>
<polygon fill="#c6822c" stroke="#c6822c" points="190.96,-36.2727 183.721,-28.0351 186.409,-34.2019 181.858,-32.131 181.858,-32.131 181.858,-32.131 186.409,-34.2019 179.994,-36.2269 190.96,-36.2727 190.96,-36.2727"/>
<text text-anchor="middle" x="314" y="-58.3" font-family="Times,serif" font-size="14.00">comment_threads</text>
</g>
<!-- PublicacionCarpool&#45;&gt;TransaccionCarpool -->
<g id="edge17" class="edge"><title>PublicacionCarpool&#45;&gt;TransaccionCarpool</title>
<path fill="none" stroke="#bc9c4b" d="M368.639,-83.1813C384.042,-70.5652 403.405,-54.7066 419.028,-41.91"/>
<ellipse fill="none" stroke="#bc9c4b" cx="365.34" cy="-85.8838" rx="4.00002" ry="4.00002"/>
<polygon fill="#bc9c4b" stroke="#bc9c4b" points="419.081,-41.8672 429.668,-39.0121 422.949,-38.699 426.817,-35.5308 426.817,-35.5308 426.817,-35.5308 422.949,-38.699 423.966,-32.0494 419.081,-41.8672 419.081,-41.8672"/>
</g>
<!-- Region -->
<g id="node15" class="node"><title>Region</title>
<ellipse fill="none" stroke="black" cx="416" cy="-437" rx="36.096" ry="18"/>
<text text-anchor="middle" x="416" y="-433.3" font-family="Times,serif" font-size="14.00">Region</text>
</g>
<!-- Region&#45;&gt;Evento -->
<g id="edge21" class="edge"><title>Region&#45;&gt;Evento</title>
<path fill="none" stroke="#3da210" d="M394.2,-415.06C386.932,-408.91 378.509,-402.606 370,-398 320.058,-370.962 286.182,-402.041 248,-360 232.364,-342.784 228.311,-316.116 227.755,-296.092"/>
<ellipse fill="none" stroke="#3da210" cx="397.514" cy="-417.971" rx="4.00002" ry="4.00002"/>
<polygon fill="#3da210" stroke="#3da210" points="227.755,-296.033 232.247,-286.029 227.751,-291.033 227.747,-286.033 227.747,-286.033 227.747,-286.033 227.751,-291.033 223.247,-286.036 227.755,-296.033 227.755,-296.033"/>
</g>
<!-- Region&#45;&gt;City -->
<g id="edge19" class="edge"><title>Region&#45;&gt;City</title>
<path fill="none" stroke="#e04268" d="M416,-410.562C416,-398.078 416,-383.025 416,-370.299"/>
<ellipse fill="none" stroke="#e04268" cx="416" cy="-414.942" rx="4" ry="4"/>
<polygon fill="#e04268" stroke="#e04268" points="416,-370.264 420.5,-360.264 416,-365.264 416,-360.264 416,-360.264 416,-360.264 416,-365.264 411.5,-360.264 416,-370.264 416,-370.264"/>
</g>
<!-- Region&#45;&gt;User -->
<g id="edge20" class="edge"><title>Region&#45;&gt;User</title>
<path fill="none" stroke="#adb82e" d="M430.498,-412.445C438.577,-397.912 447.827,-378.559 452,-360 455.51,-344.39 455.387,-339.637 452,-324 449.815,-313.912 445.616,-303.453 441.274,-294.399"/>
<ellipse fill="none" stroke="#adb82e" cx="428.402" cy="-416.104" rx="4.00002" ry="4.00002"/>
<polygon fill="#adb82e" stroke="#adb82e" points="441.132,-294.12 440.605,-283.167 438.863,-289.664 436.594,-285.209 436.594,-285.209 436.594,-285.209 438.863,-289.664 432.584,-287.251 441.132,-294.12 441.132,-294.12"/>
</g>
</g>
</svg>
