<?xml version="1.0" encoding="UTF-8" standalone="no"?>
<!DOCTYPE svg PUBLIC "-//W3C//DTD SVG 1.1//EN"
 "http://www.w3.org/Graphics/SVG/1.1/DTD/svg11.dtd">
<!-- Generated by graphviz version 2.36.0 (20140111.2315)
 -->
<!-- Title: models_diagram Pages: 1 -->
<svg width="489pt" height="470pt"
 viewBox="0.00 0.00 489.00 470.00" xmlns="http://www.w3.org/2000/svg" xmlns:xlink="http://www.w3.org/1999/xlink">
<g id="graph0" class="graph" transform="scale(1 1) rotate(0) translate(4 466)">
<title>models_diagram</title>
<polygon fill="white" stroke="none" points="-4,4 -4,-466 485,-466 485,4 -4,4"/>
<!-- _diagram_info -->
<g id="node1" class="node"><title>_diagram_info</title>
<text text-anchor="start" x="8" y="-447.6" font-family="Times,serif" font-size="13.00">Models diagram</text>
<text text-anchor="start" x="8" y="-433.6" font-family="Times,serif" font-size="13.00">Date: Jul 16 2014 &#45; 00:57</text>
<text text-anchor="start" x="8" y="-419.6" font-family="Times,serif" font-size="13.00">Migration version: 20140716032004</text>
<text text-anchor="start" x="8" y="-405.6" font-family="Times,serif" font-size="13.00">Generated by RailRoady 1.1.1</text>
<text text-anchor="start" x="8" y="-391.6" font-family="Times,serif" font-size="13.00">http://railroady.prestonlee.com</text>
</g>
<!-- RedSocial -->
<g id="node2" class="node"><title>RedSocial</title>
<ellipse fill="none" stroke="black" cx="187" cy="-180" rx="46.1964" ry="18"/>
<text text-anchor="middle" x="187" y="-176.3" font-family="Times,serif" font-size="14.00">RedSocial</text>
</g>
<!-- Evento -->
<g id="node3" class="node"><title>Evento</title>
<ellipse fill="none" stroke="black" cx="313" cy="-328" rx="35.6194" ry="18"/>
<text text-anchor="middle" x="313" y="-324.3" font-family="Times,serif" font-size="14.00">Evento</text>
</g>
<!-- User -->
<g id="node7" class="node"><title>User</title>
<ellipse fill="none" stroke="black" cx="262" cy="-254" rx="26.949" ry="18"/>
<text text-anchor="middle" x="262" y="-250.3" font-family="Times,serif" font-size="14.00">User</text>
</g>
<!-- Evento&#45;&gt;User -->
<g id="edge3" class="edge"><title>Evento&#45;&gt;User</title>
<path fill="none" stroke="#ed5c82" d="M295.512,-302.311C290.195,-294.804 284.36,-286.568 279.071,-279.101"/>
<polygon fill="#ed5c82" stroke="#ed5c82" points="295.647,-302.502 297.755,-313.263 298.537,-306.582 301.427,-310.662 301.427,-310.662 301.427,-310.662 298.537,-306.582 305.099,-308.061 295.647,-302.502 295.647,-302.502"/>
<polygon fill="#ed5c82" stroke="#ed5c82" points="278.957,-278.939 276.849,-268.177 276.067,-274.859 273.176,-270.778 273.176,-270.778 273.176,-270.778 276.067,-274.859 269.504,-273.38 278.957,-278.939 278.957,-278.939"/>
</g>
<!-- UserEvento -->
<g id="node8" class="node"><title>UserEvento</title>
<ellipse fill="none" stroke="black" cx="342" cy="-180" rx="51.4931" ry="18"/>
<text text-anchor="middle" x="342" y="-176.3" font-family="Times,serif" font-size="14.00">UserEvento</text>
</g>
<!-- Evento&#45;&gt;UserEvento -->
<g id="edge2" class="edge"><title>Evento&#45;&gt;UserEvento</title>
<path fill="none" stroke="#1f9182" d="M318.006,-301.8C323.187,-275.712 331.256,-235.09 336.584,-208.265"/>
<ellipse fill="none" stroke="#1f9182" cx="317.163" cy="-306.043" rx="4.00001" ry="4.00001"/>
<polygon fill="#1f9182" stroke="#1f9182" points="336.6,-208.186 342.962,-199.255 337.574,-203.282 338.548,-198.378 338.548,-198.378 338.548,-198.378 337.574,-203.282 334.134,-197.501 336.6,-208.186 336.6,-208.186"/>
</g>
<!-- Pasaje -->
<g id="node4" class="node"><title>Pasaje</title>
<ellipse fill="none" stroke="black" cx="240" cy="-106" rx="33.2209" ry="18"/>
<text text-anchor="middle" x="240" y="-102.3" font-family="Times,serif" font-size="14.00">Pasaje</text>
</g>
<!-- Oferta -->
<g id="node6" class="node"><title>Oferta</title>
<ellipse fill="none" stroke="black" cx="273" cy="-18" rx="33.2209" ry="18"/>
<text text-anchor="middle" x="273" y="-14.3" font-family="Times,serif" font-size="14.00">Oferta</text>
</g>
<!-- Pasaje&#45;&gt;Oferta -->
<g id="edge5" class="edge"><title>Pasaje&#45;&gt;Oferta</title>
<path fill="none" stroke="#db9b16" d="M249.423,-80.4421C253.895,-68.7894 259.222,-54.9075 263.68,-43.2893"/>
<ellipse fill="none" stroke="#db9b16" cx="247.953" cy="-84.2747" rx="4.00001" ry="4.00001"/>
<ellipse fill="#db9b16" stroke="#db9b16" cx="265.173" cy="-39.3974" rx="4.00001" ry="4.00001"/>
<text text-anchor="middle" x="275" y="-58.3" font-family="Times,serif" font-size="14.00">oferta</text>
</g>
<!-- PublicacionCarpool -->
<g id="node5" class="node"><title>PublicacionCarpool</title>
<ellipse fill="none" stroke="black" cx="372" cy="-106" rx="80.389" ry="18"/>
<text text-anchor="middle" x="372" y="-102.3" font-family="Times,serif" font-size="14.00">PublicacionCarpool</text>
</g>
<!-- Oferta&#45;&gt;Pasaje -->
<g id="edge8" class="edge"><title>Oferta&#45;&gt;Pasaje</title>
<path fill="none" stroke="#f7c15f" d="M259.338,-42.4195C257.398,-46.2217 255.542,-50.1696 254,-54 250.949,-61.5808 248.327,-70.0547 246.205,-77.8844"/>
<ellipse fill="none" stroke="#f7c15f" cx="261.227" cy="-38.8845" rx="4.00002" ry="4.00002"/>
<polygon fill="#f7c15f" stroke="#f7c15f" points="246.179,-77.9869 239.348,-86.5655 244.944,-82.832 243.709,-87.677 243.709,-87.677 243.709,-87.677 244.944,-82.832 248.07,-88.7886 246.179,-77.9869 246.179,-77.9869"/>
</g>
<!-- User&#45;&gt;RedSocial -->
<g id="edge10" class="edge"><title>User&#45;&gt;RedSocial</title>
<path fill="none" stroke="#46d012" d="M241.268,-233.098C231.905,-224.109 220.786,-213.435 211.058,-204.096"/>
<ellipse fill="none" stroke="#46d012" cx="244.297" cy="-236.005" rx="4.00002" ry="4.00002"/>
<polygon fill="#46d012" stroke="#46d012" points="210.828,-203.875 206.731,-193.704 207.221,-200.412 203.614,-196.95 203.614,-196.95 203.614,-196.95 207.221,-200.412 200.498,-200.196 210.828,-203.875 210.828,-203.875"/>
</g>
<!-- User&#45;&gt;Pasaje -->
<g id="edge12" class="edge"><title>User&#45;&gt;Pasaje</title>
<path fill="none" stroke="#250755" d="M257.912,-225.872C253.981,-199.785 248.07,-160.557 244.126,-134.384"/>
<polygon fill="#250755" stroke="#250755" points="257.943,-226.078 254.983,-236.637 258.688,-231.022 259.433,-235.966 259.433,-235.966 259.433,-235.966 258.688,-231.022 263.883,-235.296 257.943,-226.078 257.943,-226.078"/>
<polygon fill="#250755" stroke="#250755" points="244.109,-134.266 247.068,-123.707 243.364,-129.322 242.619,-124.378 242.619,-124.378 242.619,-124.378 243.364,-129.322 238.169,-125.048 244.109,-134.266 244.109,-134.266"/>
</g>
<!-- User&#45;&gt;UserEvento -->
<g id="edge11" class="edge"><title>User&#45;&gt;UserEvento</title>
<path fill="none" stroke="#a19a00" d="M283.379,-233.759C293.616,-224.546 305.947,-213.448 316.653,-203.812"/>
<ellipse fill="none" stroke="#a19a00" cx="280.398" cy="-236.442" rx="4.00002" ry="4.00002"/>
<polygon fill="#a19a00" stroke="#a19a00" points="316.676,-203.792 327.119,-200.447 320.392,-200.447 324.109,-197.102 324.109,-197.102 324.109,-197.102 320.392,-200.447 321.098,-193.757 316.676,-203.792 316.676,-203.792"/>
</g>
<!-- UserEvento&#45;&gt;Pasaje -->
<g id="edge14" class="edge"><title>UserEvento&#45;&gt;Pasaje</title>
<path fill="none" stroke="#efb971" d="M313.504,-158.885C299.226,-148.806 282.004,-136.65 267.82,-126.638"/>
<ellipse fill="none" stroke="#efb971" cx="316.851" cy="-161.247" rx="4.00002" ry="4.00002"/>
<polygon fill="#efb971" stroke="#efb971" points="267.605,-126.486 262.03,-117.042 263.52,-123.602 259.435,-120.719 259.435,-120.719 259.435,-120.719 263.52,-123.602 256.84,-124.395 267.605,-126.486 267.605,-126.486"/>
</g>
<!-- UserEvento&#45;&gt;PublicacionCarpool -->
<g id="edge15" class="edge"><title>UserEvento&#45;&gt;PublicacionCarpool</title>
<path fill="none" stroke="#1099f1" d="M352.307,-154.262C355.106,-147.545 358.148,-140.245 360.984,-133.438"/>
<ellipse fill="none" stroke="#1099f1" cx="350.648" cy="-158.245" rx="4.00001" ry="4.00001"/>
<polygon fill="#1099f1" stroke="#1099f1" points="361.095,-133.171 369.095,-125.671 363.018,-128.556 364.941,-123.941 364.941,-123.941 364.941,-123.941 363.018,-128.556 360.788,-122.21 361.095,-133.171 361.095,-133.171"/>
</g>
<!-- ActiveRecord::Base -->
<g id="node9" class="node"><title>ActiveRecord::Base</title>
<ellipse fill="none" stroke="black" cx="313" cy="-423" rx="81.3646" ry="18"/>
<text text-anchor="middle" x="313" y="-419.3" font-family="Times,serif" font-size="14.00">ActiveRecord::Base</text>
</g>
<!-- ActiveRecord::Base&#45;&gt;RedSocial -->
<g id="edge1" class="edge"><title>ActiveRecord::Base&#45;&gt;RedSocial</title>
<path fill="none" stroke="black" d="M299.986,-404.951C291.616,-393.911 280.556,-379.186 271,-366 264.633,-357.214 262.259,-355.491 257,-346 228.346,-294.285 203.666,-228.446 192.845,-197.934"/>
</g>
<!-- ActiveRecord::Base&#45;&gt;Evento -->
<g id="edge4" class="edge"><title>ActiveRecord::Base&#45;&gt;Evento</title>
<path fill="none" stroke="black" d="M313,-404.942C313,-388.267 313,-363.01 313,-346.264"/>
</g>
<!-- ActiveRecord::Base&#45;&gt;Pasaje -->
<g id="edge6" class="edge"><title>ActiveRecord::Base&#45;&gt;Pasaje</title>
<path fill="none" stroke="black" d="M277.988,-406.757C220.401,-381.556 112,-333.518 112,-329 112,-329 112,-329 112,-179 112,-135.018 170.118,-117.618 208.03,-110.946"/>
</g>
<!-- ActiveRecord::Base&#45;&gt;PublicacionCarpool -->
<g id="edge7" class="edge"><title>ActiveRecord::Base&#45;&gt;PublicacionCarpool</title>
<path fill="none" stroke="black" d="M352.352,-407.146C383.573,-392.507 422,-366.811 422,-329 422,-329 422,-329 422,-179 422,-157.085 406.18,-137.043 392.337,-123.701"/>
</g>
<!-- ActiveRecord::Base&#45;&gt;Oferta -->
<g id="edge9" class="edge"><title>ActiveRecord::Base&#45;&gt;Oferta</title>
<path fill="none" stroke="black" d="M378.916,-412.317C425.982,-401.237 481,-377.839 481,-329 481,-329 481,-329 481,-105 481,-30.3648 365.216,-19.2269 306.419,-18.3826"/>
</g>
<!-- ActiveRecord::Base&#45;&gt;User -->
<g id="edge13" class="edge"><title>ActiveRecord::Base&#45;&gt;User</title>
<path fill="none" stroke="black" d="M299.742,-405.002C289.082,-390.288 274.802,-367.972 268,-346 260.321,-321.195 260.018,-290.825 260.793,-272.2"/>
</g>
<!-- ActiveRecord::Base&#45;&gt;UserEvento -->
<g id="edge16" class="edge"><title>ActiveRecord::Base&#45;&gt;UserEvento</title>
<path fill="none" stroke="black" d="M326.333,-405.06C336.981,-390.383 351.068,-368.086 357,-346 371.102,-293.497 356.206,-228.583 347.442,-198.201"/>
</g>
</g>
</svg>
