<?xml version="1.0" encoding="UTF-8" standalone="no"?>
<!DOCTYPE svg PUBLIC "-//W3C//DTD SVG 1.1//EN"
 "http://www.w3.org/Graphics/SVG/1.1/DTD/svg11.dtd">
<!-- Generated by graphviz version 2.36.0 (20140111.2315)
 -->
<!-- Title: models_diagram Pages: 1 -->
<svg width="504pt" height="470pt"
 viewBox="0.00 0.00 504.00 470.00" xmlns="http://www.w3.org/2000/svg" xmlns:xlink="http://www.w3.org/1999/xlink">
<g id="graph0" class="graph" transform="scale(1 1) rotate(0) translate(4 466)">
<title>models_diagram</title>
<polygon fill="white" stroke="none" points="-4,4 -4,-466 500,-466 500,4 -4,4"/>
<!-- _diagram_info -->
<g id="node1" class="node"><title>_diagram_info</title>
<text text-anchor="start" x="7" y="-447.6" font-family="Times,serif" font-size="13.00">Models diagram</text>
<text text-anchor="start" x="7" y="-433.6" font-family="Times,serif" font-size="13.00">Date: Aug 18 2014 &#45; 11:26</text>
<text text-anchor="start" x="7" y="-419.6" font-family="Times,serif" font-size="13.00">Migration version: 20140727011228</text>
<text text-anchor="start" x="7" y="-405.6" font-family="Times,serif" font-size="13.00">Generated by RailRoady 1.1.1</text>
<text text-anchor="start" x="7" y="-391.6" font-family="Times,serif" font-size="13.00">http://railroady.prestonlee.com</text>
</g>
<!-- RedSocial -->
<g id="node2" class="node"><title>RedSocial</title>
<ellipse fill="none" stroke="black" cx="177" cy="-180" rx="46.1964" ry="18"/>
<text text-anchor="middle" x="177" y="-176.3" font-family="Times,serif" font-size="14.00">RedSocial</text>
</g>
<!-- Oferta -->
<g id="node3" class="node"><title>Oferta</title>
<ellipse fill="none" stroke="black" cx="270" cy="-18" rx="33.2209" ry="18"/>
<text text-anchor="middle" x="270" y="-14.3" font-family="Times,serif" font-size="14.00">Oferta</text>
</g>
<!-- Pasaje -->
<g id="node5" class="node"><title>Pasaje</title>
<ellipse fill="none" stroke="black" cx="255" cy="-106" rx="33.2209" ry="18"/>
<text text-anchor="middle" x="255" y="-102.3" font-family="Times,serif" font-size="14.00">Pasaje</text>
</g>
<!-- Oferta&#45;&gt;Pasaje -->
<g id="edge1" class="edge"><title>Oferta&#45;&gt;Pasaje</title>
<path fill="none" stroke="#730ee4" d="M281.319,-43.5256C283.78,-52.0119 284.891,-61.5183 282,-70 280.607,-74.0859 278.523,-78.0661 276.118,-81.7896"/>
<ellipse fill="none" stroke="#730ee4" cx="279.941" cy="-39.5481" rx="4.00001" ry="4.00001"/>
<polygon fill="#730ee4" stroke="#730ee4" points="276.04,-81.8961 266.48,-87.2688 273.07,-85.9188 270.101,-89.9414 270.101,-89.9414 270.101,-89.9414 273.07,-85.9188 273.721,-92.614 276.04,-81.8961 276.04,-81.8961"/>
</g>
<!-- Evento -->
<g id="node4" class="node"><title>Evento</title>
<ellipse fill="none" stroke="black" cx="280" cy="-328" rx="35.6194" ry="18"/>
<text text-anchor="middle" x="280" y="-324.3" font-family="Times,serif" font-size="14.00">Evento</text>
</g>
<!-- User -->
<g id="node6" class="node"><title>User</title>
<ellipse fill="none" stroke="black" cx="239" cy="-254" rx="26.949" ry="18"/>
<text text-anchor="middle" x="239" y="-250.3" font-family="Times,serif" font-size="14.00">User</text>
</g>
<!-- Evento&#45;&gt;User -->
<g id="edge3" class="edge"><title>Evento&#45;&gt;User</title>
<path fill="none" stroke="#1d7811" d="M265.457,-301.461C261.501,-294.513 257.22,-286.996 253.278,-280.074"/>
<polygon fill="#1d7811" stroke="#1d7811" points="265.542,-301.611 266.58,-312.528 268.017,-305.956 270.491,-310.301 270.491,-310.301 270.491,-310.301 268.017,-305.956 274.401,-308.074 265.542,-301.611 265.542,-301.611"/>
<polygon fill="#1d7811" stroke="#1d7811" points="253.124,-279.803 252.086,-268.887 250.65,-275.458 248.176,-271.113 248.176,-271.113 248.176,-271.113 250.65,-275.458 244.265,-273.34 253.124,-279.803 253.124,-279.803"/>
</g>
<!-- UserEvento -->
<g id="node7" class="node"><title>UserEvento</title>
<ellipse fill="none" stroke="black" cx="294" cy="-180" rx="51.4931" ry="18"/>
<text text-anchor="middle" x="294" y="-176.3" font-family="Times,serif" font-size="14.00">UserEvento</text>
</g>
<!-- Evento&#45;&gt;UserEvento -->
<g id="edge2" class="edge"><title>Evento&#45;&gt;UserEvento</title>
<path fill="none" stroke="#4f1f61" d="M282.416,-301.8C284.907,-275.827 288.779,-235.449 291.351,-208.622"/>
<ellipse fill="none" stroke="#4f1f61" cx="282.015" cy="-305.984" rx="4" ry="4"/>
<polygon fill="#4f1f61" stroke="#4f1f61" points="291.379,-208.332 296.813,-198.807 291.856,-203.355 292.334,-198.378 292.334,-198.378 292.334,-198.378 291.856,-203.355 287.854,-197.948 291.379,-208.332 291.379,-208.332"/>
</g>
<!-- Pasaje&#45;&gt;Oferta -->
<g id="edge4" class="edge"><title>Pasaje&#45;&gt;Oferta</title>
<path fill="none" stroke="#f57df0" d="M245.996,-80.4504C244.107,-71.962 243.378,-62.4605 246,-54 247.336,-49.6895 249.406,-45.4381 251.784,-41.4643"/>
<ellipse fill="none" stroke="#f57df0" cx="247.048" cy="-84.3495" rx="4.00001" ry="4.00001"/>
<ellipse fill="#f57df0" stroke="#f57df0" cx="254.089" cy="-37.991" rx="4.00002" ry="4.00002"/>
<text text-anchor="middle" x="262" y="-58.3" font-family="Times,serif" font-size="14.00">oferta</text>
</g>
<!-- User&#45;&gt;RedSocial -->
<g id="edge5" class="edge"><title>User&#45;&gt;RedSocial</title>
<path fill="none" stroke="#6e4cf1" d="M220.832,-231.902C213.576,-223.476 205.181,-213.726 197.692,-205.029"/>
<ellipse fill="none" stroke="#6e4cf1" cx="223.543" cy="-235.05" rx="4.00002" ry="4.00002"/>
<polygon fill="#6e4cf1" stroke="#6e4cf1" points="197.652,-204.983 194.537,-194.469 194.39,-201.194 191.127,-197.405 191.127,-197.405 191.127,-197.405 194.39,-201.194 187.717,-200.342 197.652,-204.983 197.652,-204.983"/>
</g>
<!-- User&#45;&gt;UserEvento -->
<g id="edge6" class="edge"><title>User&#45;&gt;UserEvento</title>
<path fill="none" stroke="#4ad4bf" d="M255.586,-231.288C261.801,-223.152 268.903,-213.854 275.297,-205.484"/>
<ellipse fill="none" stroke="#4ad4bf" cx="253.092" cy="-234.552" rx="4.00002" ry="4.00002"/>
<polygon fill="#4ad4bf" stroke="#4ad4bf" points="275.324,-205.448 284.971,-200.233 278.36,-201.475 281.395,-197.501 281.395,-197.501 281.395,-197.501 278.36,-201.475 277.819,-194.77 275.324,-205.448 275.324,-205.448"/>
</g>
<!-- UserEvento&#45;&gt;Pasaje -->
<g id="edge7" class="edge"><title>UserEvento&#45;&gt;Pasaje</title>
<path fill="none" stroke="#1169b6" d="M280.863,-154.748C276.94,-147.506 272.632,-139.551 268.675,-132.247"/>
<ellipse fill="none" stroke="#1169b6" cx="282.852" cy="-158.42" rx="4.00002" ry="4.00002"/>
<polygon fill="#1169b6" stroke="#1169b6" points="268.671,-132.238 267.864,-121.302 266.289,-127.841 263.908,-123.445 263.908,-123.445 263.908,-123.445 266.289,-127.841 259.951,-125.588 268.671,-132.238 268.671,-132.238"/>
</g>
<!-- PublicacionCarpool -->
<g id="node10" class="node"><title>PublicacionCarpool</title>
<ellipse fill="none" stroke="black" cx="387" cy="-106" rx="80.389" ry="18"/>
<text text-anchor="middle" x="387" y="-102.3" font-family="Times,serif" font-size="14.00">PublicacionCarpool</text>
</g>
<!-- UserEvento&#45;&gt;PublicacionCarpool -->
<g id="edge8" class="edge"><title>UserEvento&#45;&gt;PublicacionCarpool</title>
<path fill="none" stroke="#e78194" d="M320.881,-158.189C332.863,-148.913 346.973,-137.988 359.075,-128.619"/>
<ellipse fill="none" stroke="#e78194" cx="317.343" cy="-160.928" rx="4.00002" ry="4.00002"/>
<ellipse fill="#e78194" stroke="#e78194" cx="362.403" cy="-126.043" rx="4.00002" ry="4.00002"/>
</g>
<!-- Comment -->
<g id="node8" class="node"><title>Comment</title>
<ellipse fill="none" stroke="black" cx="387" cy="-18" rx="46.2191" ry="18"/>
<text text-anchor="middle" x="387" y="-14.3" font-family="Times,serif" font-size="14.00">Comment</text>
</g>
<!-- Comment&#45;&gt;Comment -->
<g id="edge9" class="edge"><title>Comment&#45;&gt;Comment</title>
<path fill="none" stroke="#854cd3" d="M436.4,-25.7313C445.012,-24.6981 451,-22.121 451,-18 451,-14.2537 446.051,-11.7832 438.681,-10.5887"/>
<ellipse fill="none" stroke="#854cd3" cx="432.234" cy="-25.992" rx="4" ry="4"/>
<polygon fill="#854cd3" stroke="#854cd3" points="438.21,-10.5513 428.599,-5.27224 433.226,-10.1547 428.242,-9.75806 428.242,-9.75806 428.242,-9.75806 433.226,-10.1547 427.885,-14.2439 438.21,-10.5513 438.21,-10.5513"/>
<text text-anchor="middle" x="473.5" y="-14.3" font-family="Times,serif" font-size="14.00">children</text>
</g>
<!-- Publicador -->
<g id="node9" class="node"><title>Publicador</title>
<ellipse fill="none" stroke="black" cx="280" cy="-423" rx="48.6179" ry="18"/>
<text text-anchor="middle" x="280" y="-419.3" font-family="Times,serif" font-size="14.00">Publicador</text>
</g>
<!-- Publicador&#45;&gt;Evento -->
<g id="edge10" class="edge"><title>Publicador&#45;&gt;Evento</title>
<path fill="none" stroke="#cfa3db" d="M280,-396.562C280,-384.078 280,-369.025 280,-356.299"/>
<ellipse fill="none" stroke="#cfa3db" cx="280" cy="-400.942" rx="4" ry="4"/>
<polygon fill="#cfa3db" stroke="#cfa3db" points="280,-356.264 284.5,-346.264 280,-351.264 280,-346.264 280,-346.264 280,-346.264 280,-351.264 275.5,-346.264 280,-356.264 280,-356.264"/>
</g>
<!-- PublicacionCarpool&#45;&gt;Comment -->
<g id="edge11" class="edge"><title>PublicacionCarpool&#45;&gt;Comment</title>
<path fill="none" stroke="#12cc1c" d="M387,-79.3391C387,-68.8546 387,-56.7182 387,-46.091"/>
<ellipse fill="none" stroke="#12cc1c" cx="387" cy="-83.5966" rx="4" ry="4"/>
<polygon fill="#12cc1c" stroke="#12cc1c" points="387,-46.084 391.5,-36.084 387,-41.084 387,-36.084 387,-36.084 387,-36.084 387,-41.084 382.5,-36.0841 387,-46.084 387,-46.084"/>
<text text-anchor="middle" x="436" y="-58.3" font-family="Times,serif" font-size="14.00">comment_threads</text>
</g>
</g>
</svg>
