<?xml version="1.0" encoding="UTF-8" standalone="no"?>
<!DOCTYPE svg PUBLIC "-//W3C//DTD SVG 1.1//EN"
 "http://www.w3.org/Graphics/SVG/1.1/DTD/svg11.dtd">
<!-- Generated by graphviz version 2.36.0 (20140111.2315)
 -->
<!-- Title: models_diagram Pages: 1 -->
<svg width="450pt" height="470pt"
 viewBox="0.00 0.00 450.00 470.00" xmlns="http://www.w3.org/2000/svg" xmlns:xlink="http://www.w3.org/1999/xlink">
<g id="graph0" class="graph" transform="scale(1 1) rotate(0) translate(4 466)">
<title>models_diagram</title>
<polygon fill="white" stroke="none" points="-4,4 -4,-466 446,-466 446,4 -4,4"/>
<!-- _diagram_info -->
<g id="node1" class="node"><title>_diagram_info</title>
<text text-anchor="start" x="7" y="-447.6" font-family="Times,serif" font-size="13.00">Models diagram</text>
<text text-anchor="start" x="7" y="-433.6" font-family="Times,serif" font-size="13.00">Date: Jul 23 2014 &#45; 02:11</text>
<text text-anchor="start" x="7" y="-419.6" font-family="Times,serif" font-size="13.00">Migration version: 20140723060452</text>
<text text-anchor="start" x="7" y="-405.6" font-family="Times,serif" font-size="13.00">Generated by RailRoady 1.1.1</text>
<text text-anchor="start" x="7" y="-391.6" font-family="Times,serif" font-size="13.00">http://railroady.prestonlee.com</text>
</g>
<!-- RedSocial -->
<g id="node2" class="node"><title>RedSocial</title>
<ellipse fill="none" stroke="black" cx="155" cy="-180" rx="46.1964" ry="18"/>
<text text-anchor="middle" x="155" y="-176.3" font-family="Times,serif" font-size="14.00">RedSocial</text>
</g>
<!-- Oferta -->
<g id="node3" class="node"><title>Oferta</title>
<ellipse fill="none" stroke="black" cx="230" cy="-18" rx="33.2209" ry="18"/>
<text text-anchor="middle" x="230" y="-14.3" font-family="Times,serif" font-size="14.00">Oferta</text>
</g>
<!-- Pasaje -->
<g id="node5" class="node"><title>Pasaje</title>
<ellipse fill="none" stroke="black" cx="230" cy="-106" rx="33.2209" ry="18"/>
<text text-anchor="middle" x="230" y="-102.3" font-family="Times,serif" font-size="14.00">Pasaje</text>
</g>
<!-- Oferta&#45;&gt;Pasaje -->
<g id="edge1" class="edge"><title>Oferta&#45;&gt;Pasaje</title>
<path fill="none" stroke="#be6ca5" d="M237.969,-43.6725C238.808,-47.1093 239.527,-50.6204 240,-54 240.986,-61.0424 240.986,-62.9576 240,-70 239.619,-72.7224 239.078,-75.5302 238.444,-78.3158"/>
<ellipse fill="none" stroke="#be6ca5" cx="236.9" cy="-39.7447" rx="4.00001" ry="4.00001"/>
<polygon fill="#be6ca5" stroke="#be6ca5" points="238.409,-78.4479 231.5,-86.9634 237.129,-83.2815 235.85,-88.115 235.85,-88.115 235.85,-88.115 237.129,-83.2815 240.2,-89.2665 238.409,-78.4479 238.409,-78.4479"/>
</g>
<!-- Evento -->
<g id="node4" class="node"><title>Evento</title>
<ellipse fill="none" stroke="black" cx="280" cy="-328" rx="35.6194" ry="18"/>
<text text-anchor="middle" x="280" y="-324.3" font-family="Times,serif" font-size="14.00">Evento</text>
</g>
<!-- User -->
<g id="node6" class="node"><title>User</title>
<ellipse fill="none" stroke="black" cx="236" cy="-254" rx="26.949" ry="18"/>
<text text-anchor="middle" x="236" y="-250.3" font-family="Times,serif" font-size="14.00">User</text>
</g>
<!-- Evento&#45;&gt;User -->
<g id="edge3" class="edge"><title>Evento&#45;&gt;User</title>
<path fill="none" stroke="#b6a05b" d="M264.798,-302.123C260.41,-294.943 255.622,-287.108 251.232,-279.925"/>
<polygon fill="#b6a05b" stroke="#b6a05b" points="264.801,-302.129 266.176,-313.009 267.408,-306.396 270.016,-310.662 270.016,-310.662 270.016,-310.662 267.408,-306.396 273.855,-308.316 264.801,-302.129 264.801,-302.129"/>
<polygon fill="#b6a05b" stroke="#b6a05b" points="251.159,-279.806 249.785,-268.927 248.552,-275.54 245.945,-271.273 245.945,-271.273 245.945,-271.273 248.552,-275.54 242.105,-273.62 251.159,-279.806 251.159,-279.806"/>
</g>
<!-- UserEvento -->
<g id="node7" class="node"><title>UserEvento</title>
<ellipse fill="none" stroke="black" cx="310" cy="-180" rx="51.4931" ry="18"/>
<text text-anchor="middle" x="310" y="-176.3" font-family="Times,serif" font-size="14.00">UserEvento</text>
</g>
<!-- Evento&#45;&gt;UserEvento -->
<g id="edge2" class="edge"><title>Evento&#45;&gt;UserEvento</title>
<path fill="none" stroke="#b7a662" d="M285.178,-301.8C290.539,-275.712 298.886,-235.09 304.398,-208.265"/>
<ellipse fill="none" stroke="#b7a662" cx="284.305" cy="-306.048" rx="4.00001" ry="4.00001"/>
<polygon fill="#b7a662" stroke="#b7a662" points="304.416,-208.173 310.837,-199.284 305.423,-203.276 306.429,-198.378 306.429,-198.378 306.429,-198.378 305.423,-203.276 302.021,-197.472 304.416,-208.173 304.416,-208.173"/>
</g>
<!-- Pasaje&#45;&gt;Oferta -->
<g id="edge4" class="edge"><title>Pasaje&#45;&gt;Oferta</title>
<path fill="none" stroke="#248ec4" d="M210.475,-82.9931C207.817,-78.9157 205.492,-74.5118 204,-70 200.7,-60.0234 204.561,-49.5879 210.231,-40.7744"/>
<ellipse fill="none" stroke="#248ec4" cx="212.835" cy="-86.2647" rx="4.00002" ry="4.00002"/>
<ellipse fill="#248ec4" stroke="#248ec4" cx="212.719" cy="-37.3347" rx="4.00002" ry="4.00002"/>
<text text-anchor="middle" x="220" y="-58.3" font-family="Times,serif" font-size="14.00">oferta</text>
</g>
<!-- User&#45;&gt;RedSocial -->
<g id="edge5" class="edge"><title>User&#45;&gt;RedSocial</title>
<path fill="none" stroke="#87959f" d="M214.311,-233.721C203.87,-224.44 191.284,-213.253 180.398,-203.576"/>
<ellipse fill="none" stroke="#87959f" cx="217.393" cy="-236.46" rx="4.00002" ry="4.00002"/>
<polygon fill="#87959f" stroke="#87959f" points="180.3,-203.489 175.816,-193.482 176.563,-200.167 172.826,-196.845 172.826,-196.845 172.826,-196.845 176.563,-200.167 169.836,-200.209 180.3,-203.489 180.3,-203.489"/>
</g>
<!-- User&#45;&gt;Pasaje -->
<g id="edge7" class="edge"><title>User&#45;&gt;Pasaje</title>
<path fill="none" stroke="#7b847a" d="M234.885,-225.872C233.813,-199.785 232.201,-160.557 231.125,-134.384"/>
<polygon fill="#7b847a" stroke="#7b847a" points="234.889,-225.975 230.804,-236.151 235.095,-230.97 235.3,-235.966 235.3,-235.966 235.3,-235.966 235.095,-230.97 239.796,-235.781 234.889,-225.975 234.889,-225.975"/>
<polygon fill="#7b847a" stroke="#7b847a" points="231.125,-134.369 235.21,-124.193 230.92,-129.374 230.714,-124.378 230.714,-124.378 230.714,-124.378 230.92,-129.374 226.218,-124.563 231.125,-134.369 231.125,-134.369"/>
</g>
<!-- User&#45;&gt;UserEvento -->
<g id="edge6" class="edge"><title>User&#45;&gt;UserEvento</title>
<path fill="none" stroke="#bd605f" d="M256.414,-233.138C265.584,-224.216 276.468,-213.626 286.023,-204.329"/>
<ellipse fill="none" stroke="#bd605f" cx="253.487" cy="-235.986" rx="4.00002" ry="4.00002"/>
<polygon fill="#bd605f" stroke="#bd605f" points="286.177,-204.179 296.482,-200.431 289.76,-200.693 293.344,-197.206 293.344,-197.206 293.344,-197.206 289.76,-200.693 290.206,-193.981 286.177,-204.179 286.177,-204.179"/>
</g>
<!-- UserEvento&#45;&gt;Pasaje -->
<g id="edge8" class="edge"><title>UserEvento&#45;&gt;Pasaje</title>
<path fill="none" stroke="#a5df8a" d="M286.184,-157.566C275.948,-148.353 264.011,-137.61 253.779,-128.401"/>
<ellipse fill="none" stroke="#a5df8a" cx="289.272" cy="-160.345" rx="4.00002" ry="4.00002"/>
<polygon fill="#a5df8a" stroke="#a5df8a" points="253.776,-128.398 249.353,-118.364 250.059,-125.054 246.343,-121.709 246.343,-121.709 246.343,-121.709 250.059,-125.054 243.333,-125.054 253.776,-128.398 253.776,-128.398"/>
</g>
<!-- PublicacionCarpool -->
<g id="node9" class="node"><title>PublicacionCarpool</title>
<ellipse fill="none" stroke="black" cx="362" cy="-106" rx="80.389" ry="18"/>
<text text-anchor="middle" x="362" y="-102.3" font-family="Times,serif" font-size="14.00">PublicacionCarpool</text>
</g>
<!-- UserEvento&#45;&gt;PublicacionCarpool -->
<g id="edge9" class="edge"><title>UserEvento&#45;&gt;PublicacionCarpool</title>
<path fill="none" stroke="#48f874" d="M326.753,-155.803C332.102,-148.397 338.052,-140.159 343.516,-132.593"/>
<ellipse fill="none" stroke="#48f874" cx="324.403" cy="-159.058" rx="4.00002" ry="4.00002"/>
<polygon fill="#48f874" stroke="#48f874" points="343.789,-132.215 353.292,-126.743 346.716,-128.162 349.644,-124.109 349.644,-124.109 349.644,-124.109 346.716,-128.162 345.996,-121.474 343.789,-132.215 343.789,-132.215"/>
</g>
<!-- Publicador -->
<g id="node8" class="node"><title>Publicador</title>
<ellipse fill="none" stroke="black" cx="280" cy="-423" rx="48.6179" ry="18"/>
<text text-anchor="middle" x="280" y="-419.3" font-family="Times,serif" font-size="14.00">Publicador</text>
</g>
<!-- Publicador&#45;&gt;Evento -->
<g id="edge10" class="edge"><title>Publicador&#45;&gt;Evento</title>
<path fill="none" stroke="#7a57cc" d="M280,-396.562C280,-384.078 280,-369.025 280,-356.299"/>
<ellipse fill="none" stroke="#7a57cc" cx="280" cy="-400.942" rx="4" ry="4"/>
<polygon fill="#7a57cc" stroke="#7a57cc" points="280,-356.264 284.5,-346.264 280,-351.264 280,-346.264 280,-346.264 280,-346.264 280,-351.264 275.5,-346.264 280,-356.264 280,-356.264"/>
</g>
</g>
</svg>
