<?xml version="1.0" encoding="UTF-8" standalone="no"?>
<!DOCTYPE svg PUBLIC "-//W3C//DTD SVG 1.1//EN"
 "http://www.w3.org/Graphics/SVG/1.1/DTD/svg11.dtd">
<!-- Generated by graphviz version 2.36.0 (20140111.2315)
 -->
<!-- Title: models_diagram Pages: 1 -->
<svg width="748pt" height="1486pt"
 viewBox="0.00 0.00 748.00 1486.00" xmlns="http://www.w3.org/2000/svg" xmlns:xlink="http://www.w3.org/1999/xlink">
<g id="graph0" class="graph" transform="scale(1 1) rotate(0) translate(4 1482)">
<title>models_diagram</title>
<polygon fill="white" stroke="none" points="-4,4 -4,-1482 744,-1482 744,4 -4,4"/>
<!-- _diagram_info -->
<g id="node1" class="node"><title>_diagram_info</title>
<text text-anchor="start" x="336" y="-1448.6" font-family="Times,serif" font-size="13.00">Models diagram</text>
<text text-anchor="start" x="336" y="-1434.6" font-family="Times,serif" font-size="13.00">Date: Aug 31 2014 &#45; 20:53</text>
<text text-anchor="start" x="336" y="-1420.6" font-family="Times,serif" font-size="13.00">Migration version: 20140901000518</text>
<text text-anchor="start" x="336" y="-1406.6" font-family="Times,serif" font-size="13.00">Generated by RailRoady 1.1.1</text>
<text text-anchor="start" x="336" y="-1392.6" font-family="Times,serif" font-size="13.00">http://railroady.prestonlee.com</text>
</g>
<!-- RedSocial -->
<g id="node2" class="node"><title>RedSocial</title>
<path fill="none" stroke="black" d="M591.5,-522.5C591.5,-522.5 698.5,-522.5 698.5,-522.5 704.5,-522.5 710.5,-528.5 710.5,-534.5 710.5,-534.5 710.5,-631.5 710.5,-631.5 710.5,-637.5 704.5,-643.5 698.5,-643.5 698.5,-643.5 591.5,-643.5 591.5,-643.5 585.5,-643.5 579.5,-637.5 579.5,-631.5 579.5,-631.5 579.5,-534.5 579.5,-534.5 579.5,-528.5 585.5,-522.5 591.5,-522.5"/>
<text text-anchor="middle" x="645" y="-628.3" font-family="Times,serif" font-size="14.00">RedSocial</text>
<polyline fill="none" stroke="black" points="579.5,-620.5 710.5,-620.5 "/>
<text text-anchor="start" x="587.5" y="-605.3" font-family="Times,serif" font-size="14.00">id :integer</text>
<text text-anchor="start" x="587.5" y="-590.3" font-family="Times,serif" font-size="14.00">user_id :integer</text>
<text text-anchor="start" x="587.5" y="-575.3" font-family="Times,serif" font-size="14.00">provider :string</text>
<text text-anchor="start" x="587.5" y="-560.3" font-family="Times,serif" font-size="14.00">uid :string</text>
<text text-anchor="start" x="587.5" y="-545.3" font-family="Times,serif" font-size="14.00">created_at :datetime</text>
<text text-anchor="start" x="587.5" y="-530.3" font-family="Times,serif" font-size="14.00">updated_at :datetime</text>
</g>
<!-- Oferta -->
<g id="node3" class="node"><title>Oferta</title>
<path fill="none" stroke="black" d="M280,-515C280,-515 400,-515 400,-515 406,-515 412,-521 412,-527 412,-527 412,-639 412,-639 412,-645 406,-651 400,-651 400,-651 280,-651 280,-651 274,-651 268,-645 268,-639 268,-639 268,-527 268,-527 268,-521 274,-515 280,-515"/>
<text text-anchor="middle" x="340" y="-635.8" font-family="Times,serif" font-size="14.00">Oferta</text>
<polyline fill="none" stroke="black" points="268,-628 412,-628 "/>
<text text-anchor="start" x="276" y="-612.8" font-family="Times,serif" font-size="14.00">id :integer</text>
<text text-anchor="start" x="276" y="-597.8" font-family="Times,serif" font-size="14.00">nombre :string</text>
<text text-anchor="start" x="276" y="-582.8" font-family="Times,serif" font-size="14.00">desc :string</text>
<text text-anchor="start" x="276" y="-567.8" font-family="Times,serif" font-size="14.00">porcentaje :integer</text>
<text text-anchor="start" x="276" y="-552.8" font-family="Times,serif" font-size="14.00">mod_cantidad :boolean</text>
<text text-anchor="start" x="276" y="-537.8" font-family="Times,serif" font-size="14.00">created_at :datetime</text>
<text text-anchor="start" x="276" y="-522.8" font-family="Times,serif" font-size="14.00">updated_at :datetime</text>
</g>
<!-- Pasaje -->
<g id="node8" class="node"><title>Pasaje</title>
<path fill="none" stroke="black" d="M280,-287.5C280,-287.5 400,-287.5 400,-287.5 406,-287.5 412,-293.5 412,-299.5 412,-299.5 412,-426.5 412,-426.5 412,-432.5 406,-438.5 400,-438.5 400,-438.5 280,-438.5 280,-438.5 274,-438.5 268,-432.5 268,-426.5 268,-426.5 268,-299.5 268,-299.5 268,-293.5 274,-287.5 280,-287.5"/>
<text text-anchor="middle" x="340" y="-423.3" font-family="Times,serif" font-size="14.00">Pasaje</text>
<polyline fill="none" stroke="black" points="268,-415.5 412,-415.5 "/>
<text text-anchor="start" x="276" y="-400.3" font-family="Times,serif" font-size="14.00">id :integer</text>
<text text-anchor="start" x="276" y="-385.3" font-family="Times,serif" font-size="14.00">user_evento_id :integer</text>
<text text-anchor="start" x="276" y="-370.3" font-family="Times,serif" font-size="14.00">oferta_id :integer</text>
<text text-anchor="start" x="276" y="-355.3" font-family="Times,serif" font-size="14.00">precio :integer</text>
<text text-anchor="start" x="276" y="-340.3" font-family="Times,serif" font-size="14.00">cantidad :integer</text>
<text text-anchor="start" x="276" y="-325.3" font-family="Times,serif" font-size="14.00">codigo :string</text>
<text text-anchor="start" x="276" y="-310.3" font-family="Times,serif" font-size="14.00">created_at :datetime</text>
<text text-anchor="start" x="276" y="-295.3" font-family="Times,serif" font-size="14.00">updated_at :datetime</text>
</g>
<!-- Oferta&#45;&gt;Pasaje -->
<g id="edge1" class="edge"><title>Oferta&#45;&gt;Pasaje</title>
<path fill="none" stroke="#f63f64" d="M340,-506.783C340,-488.075 340,-467.894 340,-448.761"/>
<ellipse fill="none" stroke="#f63f64" cx="340" cy="-510.814" rx="4" ry="4"/>
<polygon fill="#f63f64" stroke="#f63f64" points="340,-448.562 344.5,-438.562 340,-443.562 340,-438.562 340,-438.562 340,-438.562 340,-443.562 335.5,-438.562 340,-448.562 340,-448.562"/>
</g>
<!-- Category -->
<g id="node4" class="node"><title>Category</title>
<path fill="none" stroke="black" d="M11.5,-1165.5C11.5,-1165.5 118.5,-1165.5 118.5,-1165.5 124.5,-1165.5 130.5,-1171.5 130.5,-1177.5 130.5,-1177.5 130.5,-1244.5 130.5,-1244.5 130.5,-1250.5 124.5,-1256.5 118.5,-1256.5 118.5,-1256.5 11.5,-1256.5 11.5,-1256.5 5.5,-1256.5 -0.5,-1250.5 -0.5,-1244.5 -0.5,-1244.5 -0.5,-1177.5 -0.5,-1177.5 -0.5,-1171.5 5.5,-1165.5 11.5,-1165.5"/>
<text text-anchor="middle" x="65" y="-1241.3" font-family="Times,serif" font-size="14.00">Category</text>
<polyline fill="none" stroke="black" points="-0.5,-1233.5 130.5,-1233.5 "/>
<text text-anchor="start" x="7.5" y="-1218.3" font-family="Times,serif" font-size="14.00">id :integer</text>
<text text-anchor="start" x="7.5" y="-1203.3" font-family="Times,serif" font-size="14.00">name :string</text>
<text text-anchor="start" x="7.5" y="-1188.3" font-family="Times,serif" font-size="14.00">created_at :datetime</text>
<text text-anchor="start" x="7.5" y="-1173.3" font-family="Times,serif" font-size="14.00">updated_at :datetime</text>
</g>
<!-- Gusto -->
<g id="node5" class="node"><title>Gusto</title>
<path fill="none" stroke="black" d="M130.5,-530C130.5,-530 237.5,-530 237.5,-530 243.5,-530 249.5,-536 249.5,-542 249.5,-542 249.5,-624 249.5,-624 249.5,-630 243.5,-636 237.5,-636 237.5,-636 130.5,-636 130.5,-636 124.5,-636 118.5,-630 118.5,-624 118.5,-624 118.5,-542 118.5,-542 118.5,-536 124.5,-530 130.5,-530"/>
<text text-anchor="middle" x="184" y="-620.8" font-family="Times,serif" font-size="14.00">Gusto</text>
<polyline fill="none" stroke="black" points="118.5,-613 249.5,-613 "/>
<text text-anchor="start" x="126.5" y="-597.8" font-family="Times,serif" font-size="14.00">id :integer</text>
<text text-anchor="start" x="126.5" y="-582.8" font-family="Times,serif" font-size="14.00">user_id :integer</text>
<text text-anchor="start" x="126.5" y="-567.8" font-family="Times,serif" font-size="14.00">category_id :integer</text>
<text text-anchor="start" x="126.5" y="-552.8" font-family="Times,serif" font-size="14.00">created_at :datetime</text>
<text text-anchor="start" x="126.5" y="-537.8" font-family="Times,serif" font-size="14.00">updated_at :datetime</text>
</g>
<!-- Category&#45;&gt;Gusto -->
<g id="edge2" class="edge"><title>Category&#45;&gt;Gusto</title>
<path fill="none" stroke="#1fb17f" d="M74.9585,-1157.61C96.7871,-1042.78 148.764,-769.359 172.192,-646.118"/>
<ellipse fill="none" stroke="#1fb17f" cx="74.2098" cy="-1161.55" rx="4.00001" ry="4.00001"/>
<polygon fill="#1fb17f" stroke="#1fb17f" points="172.231,-645.911 178.519,-636.927 173.165,-640.999 174.098,-636.087 174.098,-636.087 174.098,-636.087 173.165,-640.999 169.678,-635.247 172.231,-645.911 172.231,-645.911"/>
</g>
<!-- Evento -->
<g id="node6" class="node"><title>Evento</title>
<path fill="none" stroke="black" d="M316,-750.5C316,-750.5 438,-750.5 438,-750.5 444,-750.5 450,-756.5 450,-762.5 450,-762.5 450,-979.5 450,-979.5 450,-985.5 444,-991.5 438,-991.5 438,-991.5 316,-991.5 316,-991.5 310,-991.5 304,-985.5 304,-979.5 304,-979.5 304,-762.5 304,-762.5 304,-756.5 310,-750.5 316,-750.5"/>
<text text-anchor="middle" x="377" y="-976.3" font-family="Times,serif" font-size="14.00">Evento</text>
<polyline fill="none" stroke="black" points="304,-968.5 450,-968.5 "/>
<text text-anchor="start" x="312" y="-953.3" font-family="Times,serif" font-size="14.00">id :integer</text>
<text text-anchor="start" x="312" y="-938.3" font-family="Times,serif" font-size="14.00">created_at :datetime</text>
<text text-anchor="start" x="312" y="-923.3" font-family="Times,serif" font-size="14.00">updated_at :datetime</text>
<text text-anchor="start" x="312" y="-908.3" font-family="Times,serif" font-size="14.00">publicador_id :integer</text>
<text text-anchor="start" x="312" y="-893.3" font-family="Times,serif" font-size="14.00">name :string</text>
<text text-anchor="start" x="312" y="-878.3" font-family="Times,serif" font-size="14.00">subtitle :string</text>
<text text-anchor="start" x="312" y="-863.3" font-family="Times,serif" font-size="14.00">address :string</text>
<text text-anchor="start" x="312" y="-848.3" font-family="Times,serif" font-size="14.00">information :string</text>
<text text-anchor="start" x="312" y="-833.3" font-family="Times,serif" font-size="14.00">coordinates :string</text>
<text text-anchor="start" x="312" y="-818.3" font-family="Times,serif" font-size="14.00">organization_id :integer</text>
<text text-anchor="start" x="312" y="-803.3" font-family="Times,serif" font-size="14.00">category_id :integer</text>
<text text-anchor="start" x="312" y="-788.3" font-family="Times,serif" font-size="14.00">city_id :integer</text>
<text text-anchor="start" x="312" y="-773.3" font-family="Times,serif" font-size="14.00">region_id :integer</text>
<text text-anchor="start" x="312" y="-758.3" font-family="Times,serif" font-size="14.00">image :string</text>
</g>
<!-- Category&#45;&gt;Evento -->
<g id="edge3" class="edge"><title>Category&#45;&gt;Evento</title>
<path fill="none" stroke="#a0a08f" d="M93.1664,-1158.3C106.171,-1136.32 122.583,-1110.98 140,-1090 186.776,-1033.65 247.735,-977.894 296.116,-936.872"/>
<ellipse fill="none" stroke="#a0a08f" cx="91.0864" cy="-1161.86" rx="4.00002" ry="4.00002"/>
<polygon fill="#a0a08f" stroke="#a0a08f" points="296.124,-936.865 306.67,-933.857 299.946,-933.641 303.768,-930.417 303.768,-930.417 303.768,-930.417 299.946,-933.641 300.867,-926.977 296.124,-936.865 296.124,-936.865"/>
</g>
<!-- UserEvento -->
<g id="node10" class="node"><title>UserEvento</title>
<path fill="none" stroke="black" d="M442.5,-530C442.5,-530 549.5,-530 549.5,-530 555.5,-530 561.5,-536 561.5,-542 561.5,-542 561.5,-624 561.5,-624 561.5,-630 555.5,-636 549.5,-636 549.5,-636 442.5,-636 442.5,-636 436.5,-636 430.5,-630 430.5,-624 430.5,-624 430.5,-542 430.5,-542 430.5,-536 436.5,-530 442.5,-530"/>
<text text-anchor="middle" x="496" y="-620.8" font-family="Times,serif" font-size="14.00">UserEvento</text>
<polyline fill="none" stroke="black" points="430.5,-613 561.5,-613 "/>
<text text-anchor="start" x="438.5" y="-597.8" font-family="Times,serif" font-size="14.00">id :integer</text>
<text text-anchor="start" x="438.5" y="-582.8" font-family="Times,serif" font-size="14.00">user_id :integer</text>
<text text-anchor="start" x="438.5" y="-567.8" font-family="Times,serif" font-size="14.00">evento_id :integer</text>
<text text-anchor="start" x="438.5" y="-552.8" font-family="Times,serif" font-size="14.00">created_at :datetime</text>
<text text-anchor="start" x="438.5" y="-537.8" font-family="Times,serif" font-size="14.00">updated_at :datetime</text>
</g>
<!-- Evento&#45;&gt;UserEvento -->
<g id="edge5" class="edge"><title>Evento&#45;&gt;UserEvento</title>
<path fill="none" stroke="#c5425f" d="M429.893,-742.879C443.932,-709.139 458.467,-674.204 470.321,-645.715"/>
<ellipse fill="none" stroke="#c5425f" cx="428.314" cy="-746.674" rx="4.00002" ry="4.00002"/>
<polygon fill="#c5425f" stroke="#c5425f" points="470.393,-645.544 478.389,-638.04 472.313,-640.928 474.234,-636.311 474.234,-636.311 474.234,-636.311 472.313,-640.928 470.079,-634.582 470.393,-645.544 470.393,-645.544"/>
</g>
<!-- Comment -->
<g id="node12" class="node"><title>Comment</title>
<path fill="none" stroke="black" d="M164.5,-0.5C164.5,-0.5 299.5,-0.5 299.5,-0.5 305.5,-0.5 311.5,-6.5 311.5,-12.5 311.5,-12.5 311.5,-199.5 311.5,-199.5 311.5,-205.5 305.5,-211.5 299.5,-211.5 299.5,-211.5 164.5,-211.5 164.5,-211.5 158.5,-211.5 152.5,-205.5 152.5,-199.5 152.5,-199.5 152.5,-12.5 152.5,-12.5 152.5,-6.5 158.5,-0.5 164.5,-0.5"/>
<text text-anchor="middle" x="232" y="-196.3" font-family="Times,serif" font-size="14.00">Comment</text>
<polyline fill="none" stroke="black" points="152.5,-188.5 311.5,-188.5 "/>
<text text-anchor="start" x="160.5" y="-173.3" font-family="Times,serif" font-size="14.00">id :integer</text>
<text text-anchor="start" x="160.5" y="-158.3" font-family="Times,serif" font-size="14.00">commentable_id :integer</text>
<text text-anchor="start" x="160.5" y="-143.3" font-family="Times,serif" font-size="14.00">commentable_type :string</text>
<text text-anchor="start" x="160.5" y="-128.3" font-family="Times,serif" font-size="14.00">title :string</text>
<text text-anchor="start" x="160.5" y="-113.3" font-family="Times,serif" font-size="14.00">body :text</text>
<text text-anchor="start" x="160.5" y="-98.3" font-family="Times,serif" font-size="14.00">subject :string</text>
<text text-anchor="start" x="160.5" y="-83.3" font-family="Times,serif" font-size="14.00">user_id :integer</text>
<text text-anchor="start" x="160.5" y="-68.3" font-family="Times,serif" font-size="14.00">parent_id :integer</text>
<text text-anchor="start" x="160.5" y="-53.3" font-family="Times,serif" font-size="14.00">lft :integer</text>
<text text-anchor="start" x="160.5" y="-38.3" font-family="Times,serif" font-size="14.00">rgt :integer</text>
<text text-anchor="start" x="160.5" y="-23.3" font-family="Times,serif" font-size="14.00">created_at :datetime</text>
<text text-anchor="start" x="160.5" y="-8.3" font-family="Times,serif" font-size="14.00">updated_at :datetime</text>
</g>
<!-- Evento&#45;&gt;Comment -->
<g id="edge4" class="edge"><title>Evento&#45;&gt;Comment</title>
<path fill="none" stroke="#a5ab61" d="M296.426,-830.238C232.429,-793.709 147.51,-732.967 109,-652 42.4247,-512.026 106.888,-334.446 164.74,-220.747"/>
<ellipse fill="none" stroke="#a5ab61" cx="300.243" cy="-832.39" rx="4.00002" ry="4.00002"/>
<polygon fill="#a5ab61" stroke="#a5ab61" points="164.845,-220.543 173.424,-213.712 167.134,-216.098 169.423,-211.652 169.423,-211.652 169.423,-211.652 167.134,-216.098 165.422,-209.592 164.845,-220.543 164.845,-220.543"/>
<text text-anchor="middle" x="132" y="-484.3" font-family="Times,serif" font-size="14.00">comment_threads</text>
</g>
<!-- City -->
<g id="node7" class="node"><title>City</title>
<path fill="none" stroke="black" d="M572.5,-1158C572.5,-1158 679.5,-1158 679.5,-1158 685.5,-1158 691.5,-1164 691.5,-1170 691.5,-1170 691.5,-1252 691.5,-1252 691.5,-1258 685.5,-1264 679.5,-1264 679.5,-1264 572.5,-1264 572.5,-1264 566.5,-1264 560.5,-1258 560.5,-1252 560.5,-1252 560.5,-1170 560.5,-1170 560.5,-1164 566.5,-1158 572.5,-1158"/>
<text text-anchor="middle" x="626" y="-1248.8" font-family="Times,serif" font-size="14.00">City</text>
<polyline fill="none" stroke="black" points="560.5,-1241 691.5,-1241 "/>
<text text-anchor="start" x="568.5" y="-1225.8" font-family="Times,serif" font-size="14.00">id :integer</text>
<text text-anchor="start" x="568.5" y="-1210.8" font-family="Times,serif" font-size="14.00">region_id :integer</text>
<text text-anchor="start" x="568.5" y="-1195.8" font-family="Times,serif" font-size="14.00">name :string</text>
<text text-anchor="start" x="568.5" y="-1180.8" font-family="Times,serif" font-size="14.00">created_at :datetime</text>
<text text-anchor="start" x="568.5" y="-1165.8" font-family="Times,serif" font-size="14.00">updated_at :datetime</text>
</g>
<!-- City&#45;&gt;Evento -->
<g id="edge7" class="edge"><title>City&#45;&gt;Evento</title>
<path fill="none" stroke="#cf9fc8" d="M590.932,-1150.9C578.76,-1131.21 564.715,-1109.37 551,-1090 521.61,-1048.49 487.047,-1004.35 456.504,-966.719"/>
<ellipse fill="none" stroke="#cf9fc8" cx="593.06" cy="-1154.36" rx="4.00002" ry="4.00002"/>
<polygon fill="#cf9fc8" stroke="#cf9fc8" points="456.364,-966.547 453.54,-955.95 453.207,-962.669 450.05,-958.791 450.05,-958.791 450.05,-958.791 453.207,-962.669 446.561,-961.632 456.364,-966.547 456.364,-966.547"/>
</g>
<!-- User -->
<g id="node9" class="node"><title>User</title>
<path fill="none" stroke="black" d="M552,-690.5C552,-690.5 728,-690.5 728,-690.5 734,-690.5 740,-696.5 740,-702.5 740,-702.5 740,-1039.5 740,-1039.5 740,-1045.5 734,-1051.5 728,-1051.5 728,-1051.5 552,-1051.5 552,-1051.5 546,-1051.5 540,-1045.5 540,-1039.5 540,-1039.5 540,-702.5 540,-702.5 540,-696.5 546,-690.5 552,-690.5"/>
<text text-anchor="middle" x="640" y="-1036.3" font-family="Times,serif" font-size="14.00">User</text>
<polyline fill="none" stroke="black" points="540,-1028.5 740,-1028.5 "/>
<text text-anchor="start" x="548" y="-1013.3" font-family="Times,serif" font-size="14.00">id :integer</text>
<text text-anchor="start" x="548" y="-998.3" font-family="Times,serif" font-size="14.00">email :string</text>
<text text-anchor="start" x="548" y="-983.3" font-family="Times,serif" font-size="14.00">encrypted_password :string</text>
<text text-anchor="start" x="548" y="-968.3" font-family="Times,serif" font-size="14.00">reset_password_token :string</text>
<text text-anchor="start" x="548" y="-953.3" font-family="Times,serif" font-size="14.00">reset_password_sent_at :datetime</text>
<text text-anchor="start" x="548" y="-938.3" font-family="Times,serif" font-size="14.00">remember_created_at :datetime</text>
<text text-anchor="start" x="548" y="-923.3" font-family="Times,serif" font-size="14.00">sign_in_count :integer</text>
<text text-anchor="start" x="548" y="-908.3" font-family="Times,serif" font-size="14.00">current_sign_in_at :datetime</text>
<text text-anchor="start" x="548" y="-893.3" font-family="Times,serif" font-size="14.00">last_sign_in_at :datetime</text>
<text text-anchor="start" x="548" y="-878.3" font-family="Times,serif" font-size="14.00">current_sign_in_ip :string</text>
<text text-anchor="start" x="548" y="-863.3" font-family="Times,serif" font-size="14.00">last_sign_in_ip :string</text>
<text text-anchor="start" x="548" y="-848.3" font-family="Times,serif" font-size="14.00">created_at :datetime</text>
<text text-anchor="start" x="548" y="-833.3" font-family="Times,serif" font-size="14.00">updated_at :datetime</text>
<text text-anchor="start" x="548" y="-818.3" font-family="Times,serif" font-size="14.00">nombre :string</text>
<text text-anchor="start" x="548" y="-803.3" font-family="Times,serif" font-size="14.00">ciudad :string</text>
<text text-anchor="start" x="548" y="-788.3" font-family="Times,serif" font-size="14.00">region :string</text>
<text text-anchor="start" x="548" y="-773.3" font-family="Times,serif" font-size="14.00">telefono :string</text>
<text text-anchor="start" x="548" y="-758.3" font-family="Times,serif" font-size="14.00">cumple :date</text>
<text text-anchor="start" x="548" y="-743.3" font-family="Times,serif" font-size="14.00">rut :string</text>
<text text-anchor="start" x="548" y="-728.3" font-family="Times,serif" font-size="14.00">dv :string</text>
<text text-anchor="start" x="548" y="-713.3" font-family="Times,serif" font-size="14.00">direccion :text</text>
<text text-anchor="start" x="548" y="-698.3" font-family="Times,serif" font-size="14.00">foto :string</text>
</g>
<!-- City&#45;&gt;User -->
<g id="edge6" class="edge"><title>City&#45;&gt;User</title>
<path fill="none" stroke="#df0e4e" d="M628.49,-1149.88C629.532,-1124.72 630.807,-1093.96 632.123,-1062.18"/>
<ellipse fill="none" stroke="#df0e4e" cx="628.322" cy="-1153.93" rx="4" ry="4"/>
<polygon fill="#df0e4e" stroke="#df0e4e" points="632.137,-1061.82 637.048,-1052.02 632.344,-1056.83 632.551,-1051.83 632.551,-1051.83 632.551,-1051.83 632.344,-1056.83 628.055,-1051.64 632.137,-1061.82 632.137,-1061.82"/>
</g>
<!-- User&#45;&gt;RedSocial -->
<g id="edge8" class="edge"><title>User&#45;&gt;RedSocial</title>
<path fill="none" stroke="#546590" d="M643.28,-682.382C643.454,-672.45 643.622,-662.837 643.78,-653.763"/>
<ellipse fill="none" stroke="#546590" cx="643.208" cy="-686.496" rx="4" ry="4"/>
<polygon fill="#546590" stroke="#546590" points="643.78,-653.758 648.455,-643.838 643.868,-648.758 643.955,-643.759 643.955,-643.759 643.955,-643.759 643.868,-648.758 639.456,-643.68 643.78,-653.758 643.78,-653.758"/>
</g>
<!-- User&#45;&gt;Gusto -->
<g id="edge11" class="edge"><title>User&#45;&gt;Gusto</title>
<path fill="none" stroke="#43dad6" d="M533.587,-744.029C510.872,-723.303 485.63,-704.04 459,-690 378.964,-647.802 339.989,-692.34 259,-652 253.425,-649.223 247.956,-645.912 242.671,-642.268"/>
<ellipse fill="none" stroke="#43dad6" cx="536.682" cy="-746.898" rx="4.00002" ry="4.00002"/>
<polygon fill="#43dad6" stroke="#43dad6" points="242.592,-642.21 237.19,-632.667 238.56,-639.253 234.528,-636.296 234.528,-636.296 234.528,-636.296 238.56,-639.253 231.867,-639.924 242.592,-642.21 242.592,-642.21"/>
</g>
<!-- User&#45;&gt;UserEvento -->
<g id="edge10" class="edge"><title>User&#45;&gt;UserEvento</title>
<path fill="none" stroke="#36f196" d="M545.937,-683.18C539.204,-669.807 532.755,-657 526.861,-645.293"/>
<ellipse fill="none" stroke="#36f196" cx="547.821" cy="-686.923" rx="4.00002" ry="4.00002"/>
<polygon fill="#36f196" stroke="#36f196" points="526.755,-645.082 526.277,-634.126 524.506,-640.616 522.257,-636.15 522.257,-636.15 522.257,-636.15 524.506,-640.616 518.238,-638.174 526.755,-645.082 526.755,-645.082"/>
</g>
<!-- TransaccionCarpool -->
<g id="node16" class="node"><title>TransaccionCarpool</title>
<path fill="none" stroke="black" d="M546.5,-38C546.5,-38 711.5,-38 711.5,-38 717.5,-38 723.5,-44 723.5,-50 723.5,-50 723.5,-162 723.5,-162 723.5,-168 717.5,-174 711.5,-174 711.5,-174 546.5,-174 546.5,-174 540.5,-174 534.5,-168 534.5,-162 534.5,-162 534.5,-50 534.5,-50 534.5,-44 540.5,-38 546.5,-38"/>
<text text-anchor="middle" x="629" y="-158.8" font-family="Times,serif" font-size="14.00">TransaccionCarpool</text>
<polyline fill="none" stroke="black" points="534.5,-151 723.5,-151 "/>
<text text-anchor="start" x="542.5" y="-135.8" font-family="Times,serif" font-size="14.00">id :integer</text>
<text text-anchor="start" x="542.5" y="-120.8" font-family="Times,serif" font-size="14.00">user_id :integer</text>
<text text-anchor="start" x="542.5" y="-105.8" font-family="Times,serif" font-size="14.00">publicacion_carpool_id :integer</text>
<text text-anchor="start" x="542.5" y="-90.8" font-family="Times,serif" font-size="14.00">aceptado :boolean</text>
<text text-anchor="start" x="542.5" y="-75.8" font-family="Times,serif" font-size="14.00">created_at :datetime</text>
<text text-anchor="start" x="542.5" y="-60.8" font-family="Times,serif" font-size="14.00">updated_at :datetime</text>
<text text-anchor="start" x="542.5" y="-45.8" font-family="Times,serif" font-size="14.00">asientos :integer</text>
</g>
<!-- User&#45;&gt;TransaccionCarpool -->
<g id="edge9" class="edge"><title>User&#45;&gt;TransaccionCarpool</title>
<path fill="none" stroke="#0fa797" d="M712.546,-682.407C715.053,-672.21 717.238,-662.032 719,-652 748.274,-485.298 694.408,-289.415 658.124,-183.819"/>
<ellipse fill="none" stroke="#0fa797" cx="711.551" cy="-686.33" rx="4.00001" ry="4.00001"/>
<polygon fill="#0fa797" stroke="#0fa797" points="658.063,-183.643 659.031,-172.72 656.421,-178.92 654.78,-174.197 654.78,-174.197 654.78,-174.197 656.421,-178.92 650.529,-175.674 658.063,-183.643 658.063,-183.643"/>
</g>
<!-- UserEvento&#45;&gt;Pasaje -->
<g id="edge12" class="edge"><title>UserEvento&#45;&gt;Pasaje</title>
<path fill="none" stroke="#d00724" d="M453.752,-522.961C437.029,-499.592 417.508,-472.313 399.406,-447.016"/>
<ellipse fill="none" stroke="#d00724" cx="456.306" cy="-526.531" rx="4.00002" ry="4.00002"/>
<polygon fill="#d00724" stroke="#d00724" points="399.403,-447.013 397.244,-436.261 396.494,-442.946 393.584,-438.88 393.584,-438.88 393.584,-438.88 396.494,-442.946 389.924,-441.499 399.403,-447.013 399.403,-447.013"/>
</g>
<!-- PublicacionCarpool -->
<g id="node14" class="node"><title>PublicacionCarpool</title>
<path fill="none" stroke="black" d="M442,-265C442,-265 562,-265 562,-265 568,-265 574,-271 574,-277 574,-277 574,-449 574,-449 574,-455 568,-461 562,-461 562,-461 442,-461 442,-461 436,-461 430,-455 430,-449 430,-449 430,-277 430,-277 430,-271 436,-265 442,-265"/>
<text text-anchor="middle" x="502" y="-445.8" font-family="Times,serif" font-size="14.00">PublicacionCarpool</text>
<polyline fill="none" stroke="black" points="430,-438 574,-438 "/>
<text text-anchor="start" x="438" y="-422.8" font-family="Times,serif" font-size="14.00">id :integer</text>
<text text-anchor="start" x="438" y="-407.8" font-family="Times,serif" font-size="14.00">user_evento_id :integer</text>
<text text-anchor="start" x="438" y="-392.8" font-family="Times,serif" font-size="14.00">fecha :date</text>
<text text-anchor="start" x="438" y="-377.8" font-family="Times,serif" font-size="14.00">descripcion :text</text>
<text text-anchor="start" x="438" y="-362.8" font-family="Times,serif" font-size="14.00">hora_desde :time</text>
<text text-anchor="start" x="438" y="-347.8" font-family="Times,serif" font-size="14.00">desde :string</text>
<text text-anchor="start" x="438" y="-332.8" font-family="Times,serif" font-size="14.00">created_at :datetime</text>
<text text-anchor="start" x="438" y="-317.8" font-family="Times,serif" font-size="14.00">updated_at :datetime</text>
<text text-anchor="start" x="438" y="-302.8" font-family="Times,serif" font-size="14.00">asientos_disp :integer</text>
<text text-anchor="start" x="438" y="-287.8" font-family="Times,serif" font-size="14.00">tipo_vehiculo :string</text>
<text text-anchor="start" x="438" y="-272.8" font-family="Times,serif" font-size="14.00">celular :string</text>
</g>
<!-- UserEvento&#45;&gt;PublicacionCarpool -->
<g id="edge13" class="edge"><title>UserEvento&#45;&gt;PublicacionCarpool</title>
<path fill="none" stroke="#b03651" d="M497.662,-521.616C498.11,-505.333 498.608,-487.229 499.103,-469.261"/>
<ellipse fill="none" stroke="#b03651" cx="497.547" cy="-525.785" rx="4" ry="4"/>
<ellipse fill="#b03651" stroke="#b03651" cx="499.22" cy="-465.02" rx="4" ry="4"/>
</g>
<!-- Organization -->
<g id="node11" class="node"><title>Organization</title>
<path fill="none" stroke="black" d="M417.5,-1120.5C417.5,-1120.5 530.5,-1120.5 530.5,-1120.5 536.5,-1120.5 542.5,-1126.5 542.5,-1132.5 542.5,-1132.5 542.5,-1289.5 542.5,-1289.5 542.5,-1295.5 536.5,-1301.5 530.5,-1301.5 530.5,-1301.5 417.5,-1301.5 417.5,-1301.5 411.5,-1301.5 405.5,-1295.5 405.5,-1289.5 405.5,-1289.5 405.5,-1132.5 405.5,-1132.5 405.5,-1126.5 411.5,-1120.5 417.5,-1120.5"/>
<text text-anchor="middle" x="474" y="-1286.3" font-family="Times,serif" font-size="14.00">Organization</text>
<polyline fill="none" stroke="black" points="405.5,-1278.5 542.5,-1278.5 "/>
<text text-anchor="start" x="413.5" y="-1263.3" font-family="Times,serif" font-size="14.00">id :integer</text>
<text text-anchor="start" x="413.5" y="-1248.3" font-family="Times,serif" font-size="14.00">name :string</text>
<text text-anchor="start" x="413.5" y="-1233.3" font-family="Times,serif" font-size="14.00">contact_person :string</text>
<text text-anchor="start" x="413.5" y="-1218.3" font-family="Times,serif" font-size="14.00">phone :string</text>
<text text-anchor="start" x="413.5" y="-1203.3" font-family="Times,serif" font-size="14.00">valid :boolean</text>
<text text-anchor="start" x="413.5" y="-1188.3" font-family="Times,serif" font-size="14.00">facebook :string</text>
<text text-anchor="start" x="413.5" y="-1173.3" font-family="Times,serif" font-size="14.00">twitter :string</text>
<text text-anchor="start" x="413.5" y="-1158.3" font-family="Times,serif" font-size="14.00">created_at :datetime</text>
<text text-anchor="start" x="413.5" y="-1143.3" font-family="Times,serif" font-size="14.00">updated_at :datetime</text>
<text text-anchor="start" x="413.5" y="-1128.3" font-family="Times,serif" font-size="14.00">picture :string</text>
</g>
<!-- Organization&#45;&gt;Evento -->
<g id="edge14" class="edge"><title>Organization&#45;&gt;Evento</title>
<path fill="none" stroke="#253c7d" d="M445.98,-1112.36C436.058,-1077.79 424.734,-1038.33 414.171,-1001.52"/>
<ellipse fill="none" stroke="#253c7d" cx="447.157" cy="-1116.46" rx="4.00001" ry="4.00001"/>
<polygon fill="#253c7d" stroke="#253c7d" points="414.117,-1001.33 415.684,-990.481 412.738,-996.529 411.358,-991.723 411.358,-991.723 411.358,-991.723 412.738,-996.529 407.033,-992.964 414.117,-1001.33 414.117,-1001.33"/>
</g>
<!-- Comment&#45;&gt;Comment -->
<g id="edge15" class="edge"><title>Comment&#45;&gt;Comment</title>
<path fill="none" stroke="#1756ac" d="M319.093,-124.107C325.245,-119.988 329,-113.952 329,-106 329,-98.7249 325.857,-93.0536 320.611,-88.9862"/>
<ellipse fill="none" stroke="#1756ac" cx="315.128" cy="-126.059" rx="4.00002" ry="4.00002"/>
<polygon fill="#1756ac" stroke="#1756ac" points="320.374,-88.8606 313.648,-80.1992 315.957,-86.5176 311.54,-84.1746 311.54,-84.1746 311.54,-84.1746 315.957,-86.5176 309.431,-88.1499 320.374,-88.8606 320.374,-88.8606"/>
<text text-anchor="middle" x="351.5" y="-102.3" font-family="Times,serif" font-size="14.00">children</text>
</g>
<!-- Publicador -->
<g id="node13" class="node"><title>Publicador</title>
<path fill="none" stroke="black" d="M161,-1090.5C161,-1090.5 337,-1090.5 337,-1090.5 343,-1090.5 349,-1096.5 349,-1102.5 349,-1102.5 349,-1319.5 349,-1319.5 349,-1325.5 343,-1331.5 337,-1331.5 337,-1331.5 161,-1331.5 161,-1331.5 155,-1331.5 149,-1325.5 149,-1319.5 149,-1319.5 149,-1102.5 149,-1102.5 149,-1096.5 155,-1090.5 161,-1090.5"/>
<text text-anchor="middle" x="249" y="-1316.3" font-family="Times,serif" font-size="14.00">Publicador</text>
<polyline fill="none" stroke="black" points="149,-1308.5 349,-1308.5 "/>
<text text-anchor="start" x="157" y="-1293.3" font-family="Times,serif" font-size="14.00">id :integer</text>
<text text-anchor="start" x="157" y="-1278.3" font-family="Times,serif" font-size="14.00">email :string</text>
<text text-anchor="start" x="157" y="-1263.3" font-family="Times,serif" font-size="14.00">encrypted_password :string</text>
<text text-anchor="start" x="157" y="-1248.3" font-family="Times,serif" font-size="14.00">reset_password_token :string</text>
<text text-anchor="start" x="157" y="-1233.3" font-family="Times,serif" font-size="14.00">reset_password_sent_at :datetime</text>
<text text-anchor="start" x="157" y="-1218.3" font-family="Times,serif" font-size="14.00">remember_created_at :datetime</text>
<text text-anchor="start" x="157" y="-1203.3" font-family="Times,serif" font-size="14.00">sign_in_count :integer</text>
<text text-anchor="start" x="157" y="-1188.3" font-family="Times,serif" font-size="14.00">current_sign_in_at :datetime</text>
<text text-anchor="start" x="157" y="-1173.3" font-family="Times,serif" font-size="14.00">last_sign_in_at :datetime</text>
<text text-anchor="start" x="157" y="-1158.3" font-family="Times,serif" font-size="14.00">current_sign_in_ip :string</text>
<text text-anchor="start" x="157" y="-1143.3" font-family="Times,serif" font-size="14.00">last_sign_in_ip :string</text>
<text text-anchor="start" x="157" y="-1128.3" font-family="Times,serif" font-size="14.00">created_at :datetime</text>
<text text-anchor="start" x="157" y="-1113.3" font-family="Times,serif" font-size="14.00">updated_at :datetime</text>
<text text-anchor="start" x="157" y="-1098.3" font-family="Times,serif" font-size="14.00">username :string</text>
</g>
<!-- Publicador&#45;&gt;Evento -->
<g id="edge16" class="edge"><title>Publicador&#45;&gt;Evento</title>
<path fill="none" stroke="#b942d7" d="M297.165,-1082.81C307.275,-1056.12 317.947,-1027.94 328.084,-1001.17"/>
<ellipse fill="none" stroke="#b942d7" cx="295.725" cy="-1086.62" rx="4.00001" ry="4.00001"/>
<polygon fill="#b942d7" stroke="#b942d7" points="328.103,-1001.12 335.853,-993.36 329.874,-996.442 331.645,-991.766 331.645,-991.766 331.645,-991.766 329.874,-996.442 327.437,-990.172 328.103,-1001.12 328.103,-1001.12"/>
</g>
<!-- PublicacionCarpool&#45;&gt;Comment -->
<g id="edge18" class="edge"><title>PublicacionCarpool&#45;&gt;Comment</title>
<path fill="none" stroke="#37658c" d="M424.334,-267.381C423.222,-266.241 422.111,-265.113 421,-264 389.624,-232.547 352.495,-200.7 319.488,-173.986"/>
<ellipse fill="none" stroke="#37658c" cx="427.12" cy="-270.286" rx="4.00002" ry="4.00002"/>
<polygon fill="#37658c" stroke="#37658c" points="319.423,-173.934 314.456,-164.158 315.528,-170.798 311.634,-167.663 311.634,-167.663 311.634,-167.663 315.528,-170.798 308.812,-171.168 319.423,-173.934 319.423,-173.934"/>
<text text-anchor="middle" x="451" y="-234.3" font-family="Times,serif" font-size="14.00">comment_threads</text>
</g>
<!-- PublicacionCarpool&#45;&gt;TransaccionCarpool -->
<g id="edge17" class="edge"><title>PublicacionCarpool&#45;&gt;TransaccionCarpool</title>
<path fill="none" stroke="#5408c9" d="M554.107,-257.376C566.461,-232.571 579.409,-206.572 590.999,-183.301"/>
<ellipse fill="none" stroke="#5408c9" cx="552.159" cy="-261.287" rx="4.00002" ry="4.00002"/>
<polygon fill="#5408c9" stroke="#5408c9" points="591.08,-183.138 599.566,-176.193 593.309,-178.663 595.538,-174.187 595.538,-174.187 595.538,-174.187 593.309,-178.663 591.51,-172.181 591.08,-183.138 591.08,-183.138"/>
</g>
<!-- Region -->
<g id="node15" class="node"><title>Region</title>
<path fill="none" stroke="black" d="M572.5,-1371C572.5,-1371 679.5,-1371 679.5,-1371 685.5,-1371 691.5,-1377 691.5,-1383 691.5,-1383 691.5,-1465 691.5,-1465 691.5,-1471 685.5,-1477 679.5,-1477 679.5,-1477 572.5,-1477 572.5,-1477 566.5,-1477 560.5,-1471 560.5,-1465 560.5,-1465 560.5,-1383 560.5,-1383 560.5,-1377 566.5,-1371 572.5,-1371"/>
<text text-anchor="middle" x="626" y="-1461.8" font-family="Times,serif" font-size="14.00">Region</text>
<polyline fill="none" stroke="black" points="560.5,-1454 691.5,-1454 "/>
<text text-anchor="start" x="568.5" y="-1438.8" font-family="Times,serif" font-size="14.00">id :integer</text>
<text text-anchor="start" x="568.5" y="-1423.8" font-family="Times,serif" font-size="14.00">name :string</text>
<text text-anchor="start" x="568.5" y="-1408.8" font-family="Times,serif" font-size="14.00">short_name :string</text>
<text text-anchor="start" x="568.5" y="-1393.8" font-family="Times,serif" font-size="14.00">created_at :datetime</text>
<text text-anchor="start" x="568.5" y="-1378.8" font-family="Times,serif" font-size="14.00">updated_at :datetime</text>
</g>
<!-- Region&#45;&gt;Evento -->
<g id="edge21" class="edge"><title>Region&#45;&gt;Evento</title>
<path fill="none" stroke="#d2743c" d="M552.845,-1371.32C551.896,-1370.87 550.948,-1370.43 550,-1370 485.787,-1340.9 440.606,-1386.59 396,-1332 356.134,-1283.21 358.164,-1120.05 365.607,-1001.9"/>
<ellipse fill="none" stroke="#d2743c" cx="556.537" cy="-1373.19" rx="4.00002" ry="4.00002"/>
<polygon fill="#d2743c" stroke="#d2743c" points="365.623,-1001.67 370.762,-991.979 365.947,-996.676 366.271,-991.687 366.271,-991.687 366.271,-991.687 365.947,-996.676 361.781,-991.395 365.623,-1001.67 365.623,-1001.67"/>
</g>
<!-- Region&#45;&gt;City -->
<g id="edge19" class="edge"><title>Region&#45;&gt;City</title>
<path fill="none" stroke="#ae139e" d="M626,-1362.68C626,-1335.01 626,-1302.24 626,-1274.33"/>
<ellipse fill="none" stroke="#ae139e" cx="626" cy="-1366.84" rx="4" ry="4"/>
<polygon fill="#ae139e" stroke="#ae139e" points="626,-1274.29 630.5,-1264.29 626,-1269.29 626,-1264.29 626,-1264.29 626,-1264.29 626,-1269.29 621.5,-1264.29 626,-1274.29 626,-1274.29"/>
</g>
<!-- Region&#45;&gt;User -->
<g id="edge20" class="edge"><title>Region&#45;&gt;User</title>
<path fill="none" stroke="#60f9fc" d="M682.853,-1364.42C689.866,-1354.28 695.974,-1343.33 700,-1332 730.506,-1246.13 722.326,-1146.31 703.697,-1061.64"/>
<ellipse fill="none" stroke="#60f9fc" cx="680.469" cy="-1367.71" rx="4.00002" ry="4.00002"/>
<polygon fill="#60f9fc" stroke="#60f9fc" points="703.645,-1061.41 705.826,-1050.67 702.541,-1056.54 701.437,-1051.66 701.437,-1051.66 701.437,-1051.66 702.541,-1056.54 697.048,-1052.65 703.645,-1061.41 703.645,-1061.41"/>
</g>
</g>
</svg>
