<?xml version="1.0" encoding="UTF-8" standalone="no"?>
<!DOCTYPE svg PUBLIC "-//W3C//DTD SVG 1.1//EN"
 "http://www.w3.org/Graphics/SVG/1.1/DTD/svg11.dtd">
<!-- Generated by graphviz version 2.36.0 (20140111.2315)
 -->
<!-- Title: models_diagram Pages: 1 -->
<svg width="1166pt" height="584pt"
 viewBox="0.00 0.00 1166.00 584.00" xmlns="http://www.w3.org/2000/svg" xmlns:xlink="http://www.w3.org/1999/xlink">
<g id="graph0" class="graph" transform="scale(1 1) rotate(0) translate(4 580)">
<title>models_diagram</title>
<polygon fill="white" stroke="none" points="-4,4 -4,-580 1162,-580 1162,4 -4,4"/>
<!-- _diagram_info -->
<g id="node1" class="node"><title>_diagram_info</title>
<text text-anchor="start" x="8" y="-471.6" font-family="Times,serif" font-size="13.00">Models diagram</text>
<text text-anchor="start" x="8" y="-457.6" font-family="Times,serif" font-size="13.00">Date: Nov 07 2014 &#45; 02:51</text>
<text text-anchor="start" x="8" y="-443.6" font-family="Times,serif" font-size="13.00">Migration version: 20141107025941</text>
<text text-anchor="start" x="8" y="-429.6" font-family="Times,serif" font-size="13.00">Generated by RailRoady 1.1.2</text>
<text text-anchor="start" x="8" y="-415.6" font-family="Times,serif" font-size="13.00">http://railroady.prestonlee.com</text>
</g>
<!-- Cuenta -->
<g id="node2" class="node"><title>Cuenta</title>
<path fill="none" stroke="black" d="M439,-145C439,-145 575,-145 575,-145 581,-145 587,-151 587,-157 587,-157 587,-269 587,-269 587,-275 581,-281 575,-281 575,-281 439,-281 439,-281 433,-281 427,-275 427,-269 427,-269 427,-157 427,-157 427,-151 433,-145 439,-145"/>
<text text-anchor="middle" x="507" y="-265.8" font-family="Times,serif" font-size="14.00">Cuenta</text>
<polyline fill="none" stroke="black" points="427,-258 587,-258 "/>
<text text-anchor="start" x="435" y="-242.8" font-family="Times,serif" font-size="14.00">id_cuenta :integer</text>
<text text-anchor="start" x="435" y="-227.8" font-family="Times,serif" font-size="14.00">id_empresa :integer</text>
<text text-anchor="start" x="435" y="-212.8" font-family="Times,serif" font-size="14.00">id_propio_empresa :string</text>
<text text-anchor="start" x="435" y="-197.8" font-family="Times,serif" font-size="14.00">monto :integer</text>
<text text-anchor="start" x="435" y="-182.8" font-family="Times,serif" font-size="14.00">fecha_registro :timestamp</text>
<text text-anchor="start" x="435" y="-167.8" font-family="Times,serif" font-size="14.00">fecha_limite :datetime</text>
<text text-anchor="start" x="435" y="-152.8" font-family="Times,serif" font-size="14.00">rut_cliente :string</text>
</g>
<!-- Detalle -->
<g id="node8" class="node"><title>Detalle</title>
<path fill="none" stroke="black" d="M374,-23.5C374,-23.5 464,-23.5 464,-23.5 470,-23.5 476,-29.5 476,-35.5 476,-35.5 476,-72.5 476,-72.5 476,-78.5 470,-84.5 464,-84.5 464,-84.5 374,-84.5 374,-84.5 368,-84.5 362,-78.5 362,-72.5 362,-72.5 362,-35.5 362,-35.5 362,-29.5 368,-23.5 374,-23.5"/>
<text text-anchor="middle" x="419" y="-69.3" font-family="Times,serif" font-size="14.00">Detalle</text>
<polyline fill="none" stroke="black" points="362,-61.5 476,-61.5 "/>
<text text-anchor="start" x="370" y="-46.3" font-family="Times,serif" font-size="14.00">id_pago :integer</text>
<text text-anchor="start" x="370" y="-31.3" font-family="Times,serif" font-size="14.00">id_cuenta :integer</text>
</g>
<!-- Cuenta&#45;&gt;Detalle -->
<g id="edge1" class="edge"><title>Cuenta&#45;&gt;Detalle</title>
<path fill="none" stroke="#e94918" d="M465.266,-137.543C456.423,-121.766 447.458,-105.772 439.804,-92.1165"/>
<ellipse fill="none" stroke="#e94918" cx="467.469" cy="-141.473" rx="4.00002" ry="4.00002"/>
<ellipse fill="#e94918" stroke="#e94918" cx="437.652" cy="-88.2766" rx="4.00002" ry="4.00002"/>
</g>
<!-- GroupAccount -->
<g id="node9" class="node"><title>GroupAccount</title>
<path fill="none" stroke="black" d="M215.5,-1C215.5,-1 322.5,-1 322.5,-1 328.5,-1 334.5,-7 334.5,-13 334.5,-13 334.5,-95 334.5,-95 334.5,-101 328.5,-107 322.5,-107 322.5,-107 215.5,-107 215.5,-107 209.5,-107 203.5,-101 203.5,-95 203.5,-95 203.5,-13 203.5,-13 203.5,-7 209.5,-1 215.5,-1"/>
<text text-anchor="middle" x="269" y="-91.8" font-family="Times,serif" font-size="14.00">GroupAccount</text>
<polyline fill="none" stroke="black" points="203.5,-84 334.5,-84 "/>
<text text-anchor="start" x="211.5" y="-68.8" font-family="Times,serif" font-size="14.00">id :integer</text>
<text text-anchor="start" x="211.5" y="-53.8" font-family="Times,serif" font-size="14.00">group_id :integer</text>
<text text-anchor="start" x="211.5" y="-38.8" font-family="Times,serif" font-size="14.00">cuenta_id :integer</text>
<text text-anchor="start" x="211.5" y="-23.8" font-family="Times,serif" font-size="14.00">created_at :datetime</text>
<text text-anchor="start" x="211.5" y="-8.8" font-family="Times,serif" font-size="14.00">updated_at :datetime</text>
</g>
<!-- Cuenta&#45;&gt;GroupAccount -->
<g id="edge2" class="edge"><title>Cuenta&#45;&gt;GroupAccount</title>
<path fill="none" stroke="#c9c461" d="M420.082,-146.034C419.052,-145.349 418.024,-144.67 417,-144 389.696,-126.123 381.032,-124.713 353,-108 349.853,-106.124 346.649,-104.193 343.42,-102.231"/>
<ellipse fill="none" stroke="#c9c461" cx="423.602" cy="-148.411" rx="4.00002" ry="4.00002"/>
<polygon fill="#c9c461" stroke="#c9c461" points="343.366,-102.198 337.184,-93.1403 339.101,-99.5884 334.836,-96.9787 334.836,-96.9787 334.836,-96.9787 339.101,-99.5884 332.487,-100.817 343.366,-102.198 343.366,-102.198"/>
</g>
<!-- Admin -->
<g id="node3" class="node"><title>Admin</title>
<path fill="none" stroke="black" d="M752,-326.5C752,-326.5 928,-326.5 928,-326.5 934,-326.5 940,-332.5 940,-338.5 940,-338.5 940,-555.5 940,-555.5 940,-561.5 934,-567.5 928,-567.5 928,-567.5 752,-567.5 752,-567.5 746,-567.5 740,-561.5 740,-555.5 740,-555.5 740,-338.5 740,-338.5 740,-332.5 746,-326.5 752,-326.5"/>
<text text-anchor="middle" x="840" y="-552.3" font-family="Times,serif" font-size="14.00">Admin</text>
<polyline fill="none" stroke="black" points="740,-544.5 940,-544.5 "/>
<text text-anchor="start" x="748" y="-529.3" font-family="Times,serif" font-size="14.00">id :integer</text>
<text text-anchor="start" x="748" y="-514.3" font-family="Times,serif" font-size="14.00">username :string</text>
<text text-anchor="start" x="748" y="-499.3" font-family="Times,serif" font-size="14.00">created_at :datetime</text>
<text text-anchor="start" x="748" y="-484.3" font-family="Times,serif" font-size="14.00">updated_at :datetime</text>
<text text-anchor="start" x="748" y="-469.3" font-family="Times,serif" font-size="14.00">email :string</text>
<text text-anchor="start" x="748" y="-454.3" font-family="Times,serif" font-size="14.00">encrypted_password :string</text>
<text text-anchor="start" x="748" y="-439.3" font-family="Times,serif" font-size="14.00">reset_password_token :string</text>
<text text-anchor="start" x="748" y="-424.3" font-family="Times,serif" font-size="14.00">reset_password_sent_at :datetime</text>
<text text-anchor="start" x="748" y="-409.3" font-family="Times,serif" font-size="14.00">remember_created_at :datetime</text>
<text text-anchor="start" x="748" y="-394.3" font-family="Times,serif" font-size="14.00">sign_in_count :integer</text>
<text text-anchor="start" x="748" y="-379.3" font-family="Times,serif" font-size="14.00">current_sign_in_at :datetime</text>
<text text-anchor="start" x="748" y="-364.3" font-family="Times,serif" font-size="14.00">last_sign_in_at :datetime</text>
<text text-anchor="start" x="748" y="-349.3" font-family="Times,serif" font-size="14.00">current_sign_in_ip :string</text>
<text text-anchor="start" x="748" y="-334.3" font-family="Times,serif" font-size="14.00">last_sign_in_ip :string</text>
</g>
<!-- Rubro -->
<g id="node4" class="node"><title>Rubro</title>
<path fill="none" stroke="black" d="M626,-416.5C626,-416.5 710,-416.5 710,-416.5 716,-416.5 722,-422.5 722,-428.5 722,-428.5 722,-465.5 722,-465.5 722,-471.5 716,-477.5 710,-477.5 710,-477.5 626,-477.5 626,-477.5 620,-477.5 614,-471.5 614,-465.5 614,-465.5 614,-428.5 614,-428.5 614,-422.5 620,-416.5 626,-416.5"/>
<text text-anchor="middle" x="668" y="-462.3" font-family="Times,serif" font-size="14.00">Rubro</text>
<polyline fill="none" stroke="black" points="614,-454.5 722,-454.5 "/>
<text text-anchor="start" x="622" y="-439.3" font-family="Times,serif" font-size="14.00">id_rubro :integer</text>
<text text-anchor="start" x="622" y="-424.3" font-family="Times,serif" font-size="14.00">nombre :string</text>
</g>
<!-- EmpresaRubro -->
<g id="node5" class="node"><title>EmpresaRubro</title>
<path fill="none" stroke="black" d="M617.5,-182.5C617.5,-182.5 718.5,-182.5 718.5,-182.5 724.5,-182.5 730.5,-188.5 730.5,-194.5 730.5,-194.5 730.5,-231.5 730.5,-231.5 730.5,-237.5 724.5,-243.5 718.5,-243.5 718.5,-243.5 617.5,-243.5 617.5,-243.5 611.5,-243.5 605.5,-237.5 605.5,-231.5 605.5,-231.5 605.5,-194.5 605.5,-194.5 605.5,-188.5 611.5,-182.5 617.5,-182.5"/>
<text text-anchor="middle" x="668" y="-228.3" font-family="Times,serif" font-size="14.00">EmpresaRubro</text>
<polyline fill="none" stroke="black" points="605.5,-220.5 730.5,-220.5 "/>
<text text-anchor="start" x="613.5" y="-205.3" font-family="Times,serif" font-size="14.00">id_empresa :integer</text>
<text text-anchor="start" x="613.5" y="-190.3" font-family="Times,serif" font-size="14.00">id_rubro :integer</text>
</g>
<!-- Rubro&#45;&gt;EmpresaRubro -->
<g id="edge3" class="edge"><title>Rubro&#45;&gt;EmpresaRubro</title>
<path fill="none" stroke="#c7fbdc" d="M668,-407.93C668,-365.462 668,-297.069 668,-253.881"/>
<ellipse fill="none" stroke="#c7fbdc" cx="668" cy="-412.145" rx="4" ry="4"/>
<polygon fill="#c7fbdc" stroke="#c7fbdc" points="668,-253.74 672.5,-243.74 668,-248.74 668,-243.74 668,-243.74 668,-243.74 668,-248.74 663.5,-243.74 668,-253.74 668,-253.74"/>
</g>
<!-- Pago -->
<g id="node6" class="node"><title>Pago</title>
<path fill="none" stroke="black" d="M267.5,-152.5C267.5,-152.5 396.5,-152.5 396.5,-152.5 402.5,-152.5 408.5,-158.5 408.5,-164.5 408.5,-164.5 408.5,-261.5 408.5,-261.5 408.5,-267.5 402.5,-273.5 396.5,-273.5 396.5,-273.5 267.5,-273.5 267.5,-273.5 261.5,-273.5 255.5,-267.5 255.5,-261.5 255.5,-261.5 255.5,-164.5 255.5,-164.5 255.5,-158.5 261.5,-152.5 267.5,-152.5"/>
<text text-anchor="middle" x="332" y="-258.3" font-family="Times,serif" font-size="14.00">Pago</text>
<polyline fill="none" stroke="black" points="255.5,-250.5 408.5,-250.5 "/>
<text text-anchor="start" x="263.5" y="-235.3" font-family="Times,serif" font-size="14.00">id_pago :integer</text>
<text text-anchor="start" x="263.5" y="-220.3" font-family="Times,serif" font-size="14.00">id_cuenta_banco :integer</text>
<text text-anchor="start" x="263.5" y="-205.3" font-family="Times,serif" font-size="14.00">detalle :text</text>
<text text-anchor="start" x="263.5" y="-190.3" font-family="Times,serif" font-size="14.00">fecha_pago :timestamp</text>
<text text-anchor="start" x="263.5" y="-175.3" font-family="Times,serif" font-size="14.00">rut_cliente :string</text>
<text text-anchor="start" x="263.5" y="-160.3" font-family="Times,serif" font-size="14.00">email :string</text>
</g>
<!-- Pago&#45;&gt;Detalle -->
<g id="edge4" class="edge"><title>Pago&#45;&gt;Detalle</title>
<path fill="none" stroke="#864a67" d="M369.065,-145.112C378.815,-127.519 389.005,-109.129 397.619,-93.5847"/>
<ellipse fill="none" stroke="#864a67" cx="367.078" cy="-148.698" rx="4.00002" ry="4.00002"/>
<polygon fill="#864a67" stroke="#864a67" points="397.646,-93.5356 406.429,-86.9699 400.069,-89.1621 402.493,-84.7887 402.493,-84.7887 402.493,-84.7887 400.069,-89.1621 398.557,-82.6076 397.646,-93.5356 397.646,-93.5356"/>
</g>
<!-- Enterprise -->
<g id="node7" class="node"><title>Enterprise</title>
<path fill="none" stroke="black" d="M970,-326.5C970,-326.5 1146,-326.5 1146,-326.5 1152,-326.5 1158,-332.5 1158,-338.5 1158,-338.5 1158,-555.5 1158,-555.5 1158,-561.5 1152,-567.5 1146,-567.5 1146,-567.5 970,-567.5 970,-567.5 964,-567.5 958,-561.5 958,-555.5 958,-555.5 958,-338.5 958,-338.5 958,-332.5 964,-326.5 970,-326.5"/>
<text text-anchor="middle" x="1058" y="-552.3" font-family="Times,serif" font-size="14.00">Enterprise</text>
<polyline fill="none" stroke="black" points="958,-544.5 1158,-544.5 "/>
<text text-anchor="start" x="966" y="-529.3" font-family="Times,serif" font-size="14.00">id :integer</text>
<text text-anchor="start" x="966" y="-514.3" font-family="Times,serif" font-size="14.00">rut_empresa :string</text>
<text text-anchor="start" x="966" y="-499.3" font-family="Times,serif" font-size="14.00">email :string</text>
<text text-anchor="start" x="966" y="-484.3" font-family="Times,serif" font-size="14.00">encrypted_password :string</text>
<text text-anchor="start" x="966" y="-469.3" font-family="Times,serif" font-size="14.00">reset_password_token :string</text>
<text text-anchor="start" x="966" y="-454.3" font-family="Times,serif" font-size="14.00">reset_password_sent_at :datetime</text>
<text text-anchor="start" x="966" y="-439.3" font-family="Times,serif" font-size="14.00">remember_created_at :datetime</text>
<text text-anchor="start" x="966" y="-424.3" font-family="Times,serif" font-size="14.00">sign_in_count :integer</text>
<text text-anchor="start" x="966" y="-409.3" font-family="Times,serif" font-size="14.00">current_sign_in_at :datetime</text>
<text text-anchor="start" x="966" y="-394.3" font-family="Times,serif" font-size="14.00">last_sign_in_at :datetime</text>
<text text-anchor="start" x="966" y="-379.3" font-family="Times,serif" font-size="14.00">current_sign_in_ip :string</text>
<text text-anchor="start" x="966" y="-364.3" font-family="Times,serif" font-size="14.00">last_sign_in_ip :string</text>
<text text-anchor="start" x="966" y="-349.3" font-family="Times,serif" font-size="14.00">created_at :datetime</text>
<text text-anchor="start" x="966" y="-334.3" font-family="Times,serif" font-size="14.00">updated_at :datetime</text>
</g>
<!-- User -->
<g id="node10" class="node"><title>User</title>
<path fill="none" stroke="black" d="M244,-319C244,-319 420,-319 420,-319 426,-319 432,-325 432,-331 432,-331 432,-563 432,-563 432,-569 426,-575 420,-575 420,-575 244,-575 244,-575 238,-575 232,-569 232,-563 232,-563 232,-331 232,-331 232,-325 238,-319 244,-319"/>
<text text-anchor="middle" x="332" y="-559.8" font-family="Times,serif" font-size="14.00">User</text>
<polyline fill="none" stroke="black" points="232,-552 432,-552 "/>
<text text-anchor="start" x="240" y="-536.8" font-family="Times,serif" font-size="14.00">id :integer</text>
<text text-anchor="start" x="240" y="-521.8" font-family="Times,serif" font-size="14.00">email :string</text>
<text text-anchor="start" x="240" y="-506.8" font-family="Times,serif" font-size="14.00">encrypted_password :string</text>
<text text-anchor="start" x="240" y="-491.8" font-family="Times,serif" font-size="14.00">reset_password_token :string</text>
<text text-anchor="start" x="240" y="-476.8" font-family="Times,serif" font-size="14.00">reset_password_sent_at :datetime</text>
<text text-anchor="start" x="240" y="-461.8" font-family="Times,serif" font-size="14.00">remember_created_at :datetime</text>
<text text-anchor="start" x="240" y="-446.8" font-family="Times,serif" font-size="14.00">sign_in_count :integer</text>
<text text-anchor="start" x="240" y="-431.8" font-family="Times,serif" font-size="14.00">current_sign_in_at :datetime</text>
<text text-anchor="start" x="240" y="-416.8" font-family="Times,serif" font-size="14.00">last_sign_in_at :datetime</text>
<text text-anchor="start" x="240" y="-401.8" font-family="Times,serif" font-size="14.00">current_sign_in_ip :string</text>
<text text-anchor="start" x="240" y="-386.8" font-family="Times,serif" font-size="14.00">last_sign_in_ip :string</text>
<text text-anchor="start" x="240" y="-371.8" font-family="Times,serif" font-size="14.00">created_at :datetime</text>
<text text-anchor="start" x="240" y="-356.8" font-family="Times,serif" font-size="14.00">updated_at :datetime</text>
<text text-anchor="start" x="240" y="-341.8" font-family="Times,serif" font-size="14.00">rut :string</text>
<text text-anchor="start" x="240" y="-326.8" font-family="Times,serif" font-size="14.00">name :string</text>
</g>
<!-- User&#45;&gt;Cuenta -->
<g id="edge5" class="edge"><title>User&#45;&gt;Cuenta</title>
<path fill="none" stroke="#cd7178" d="M432.982,-312.127C438.898,-304.284 444.73,-296.552 450.366,-289.08"/>
<ellipse fill="none" stroke="#cd7178" cx="430.357" cy="-315.607" rx="4.00002" ry="4.00002"/>
<polygon fill="#cd7178" stroke="#cd7178" points="450.378,-289.065 459.992,-283.791 453.389,-285.073 456.4,-281.082 456.4,-281.082 456.4,-281.082 453.389,-285.073 452.807,-278.372 450.378,-289.065 450.378,-289.065"/>
</g>
<!-- User&#45;&gt;Pago -->
<g id="edge6" class="edge"><title>User&#45;&gt;Pago</title>
<path fill="none" stroke="#138a0c" d="M332,-310.723C332,-301.44 332,-292.327 332,-283.63"/>
<ellipse fill="none" stroke="#138a0c" cx="332" cy="-314.801" rx="4" ry="4"/>
<polygon fill="#138a0c" stroke="#138a0c" points="332,-283.626 336.5,-273.626 332,-278.626 332,-273.626 332,-273.626 332,-273.626 332,-278.626 327.5,-273.626 332,-283.626 332,-283.626"/>
</g>
<!-- Group -->
<g id="node12" class="node"><title>Group</title>
<path fill="none" stroke="black" d="M118.5,-152.5C118.5,-152.5 225.5,-152.5 225.5,-152.5 231.5,-152.5 237.5,-158.5 237.5,-164.5 237.5,-164.5 237.5,-261.5 237.5,-261.5 237.5,-267.5 231.5,-273.5 225.5,-273.5 225.5,-273.5 118.5,-273.5 118.5,-273.5 112.5,-273.5 106.5,-267.5 106.5,-261.5 106.5,-261.5 106.5,-164.5 106.5,-164.5 106.5,-158.5 112.5,-152.5 118.5,-152.5"/>
<text text-anchor="middle" x="172" y="-258.3" font-family="Times,serif" font-size="14.00">Group</text>
<polyline fill="none" stroke="black" points="106.5,-250.5 237.5,-250.5 "/>
<text text-anchor="start" x="114.5" y="-235.3" font-family="Times,serif" font-size="14.00">id :integer</text>
<text text-anchor="start" x="114.5" y="-220.3" font-family="Times,serif" font-size="14.00">name :string</text>
<text text-anchor="start" x="114.5" y="-205.3" font-family="Times,serif" font-size="14.00">paid :boolean</text>
<text text-anchor="start" x="114.5" y="-190.3" font-family="Times,serif" font-size="14.00">user_id :integer</text>
<text text-anchor="start" x="114.5" y="-175.3" font-family="Times,serif" font-size="14.00">created_at :datetime</text>
<text text-anchor="start" x="114.5" y="-160.3" font-family="Times,serif" font-size="14.00">updated_at :datetime</text>
</g>
<!-- User&#45;&gt;Group -->
<g id="edge7" class="edge"><title>User&#45;&gt;Group</title>
<path fill="none" stroke="#6d6899" d="M239.715,-312.186C232.553,-301.801 225.525,-291.611 218.869,-281.96"/>
<ellipse fill="none" stroke="#6d6899" cx="242.005" cy="-315.508" rx="4.00002" ry="4.00002"/>
<polygon fill="#6d6899" stroke="#6d6899" points="218.799,-281.858 216.826,-271.071 215.96,-277.742 213.122,-273.626 213.122,-273.626 213.122,-273.626 215.96,-277.742 209.417,-276.181 218.799,-281.858 218.799,-281.858"/>
</g>
<!-- Empresa -->
<g id="node11" class="node"><title>Empresa</title>
<path fill="none" stroke="black" d="M467,-394C467,-394 579,-394 579,-394 585,-394 591,-400 591,-406 591,-406 591,-488 591,-488 591,-494 585,-500 579,-500 579,-500 467,-500 467,-500 461,-500 455,-494 455,-488 455,-488 455,-406 455,-406 455,-400 461,-394 467,-394"/>
<text text-anchor="middle" x="523" y="-484.8" font-family="Times,serif" font-size="14.00">Empresa</text>
<polyline fill="none" stroke="black" points="455,-477 591,-477 "/>
<text text-anchor="start" x="463" y="-461.8" font-family="Times,serif" font-size="14.00">id_empresa :integer</text>
<text text-anchor="start" x="463" y="-446.8" font-family="Times,serif" font-size="14.00">nombre :string</text>
<text text-anchor="start" x="463" y="-431.8" font-family="Times,serif" font-size="14.00">cuenta_banco :integer</text>
<text text-anchor="start" x="463" y="-416.8" font-family="Times,serif" font-size="14.00">rut_empresa :string</text>
<text text-anchor="start" x="463" y="-401.8" font-family="Times,serif" font-size="14.00">activa :boolean</text>
</g>
<!-- Empresa&#45;&gt;Cuenta -->
<g id="edge9" class="edge"><title>Empresa&#45;&gt;Cuenta</title>
<path fill="none" stroke="#4cc212" d="M518.831,-385.552C516.851,-356.835 514.46,-322.172 512.348,-291.543"/>
<ellipse fill="none" stroke="#4cc212" cx="519.134" cy="-389.944" rx="4" ry="4"/>
<polygon fill="#4cc212" stroke="#4cc212" points="512.331,-291.301 516.132,-281.015 511.987,-286.312 511.643,-281.324 511.643,-281.324 511.643,-281.324 511.987,-286.312 507.154,-281.634 512.331,-291.301 512.331,-291.301"/>
</g>
<!-- Empresa&#45;&gt;EmpresaRubro -->
<g id="edge8" class="edge"><title>Empresa&#45;&gt;EmpresaRubro</title>
<path fill="none" stroke="#de572a" d="M559.87,-387.008C586.273,-344.763 621.067,-289.092 643.964,-252.457"/>
<ellipse fill="none" stroke="#de572a" cx="557.661" cy="-390.543" rx="4.00002" ry="4.00002"/>
<polygon fill="#de572a" stroke="#de572a" points="644.217,-252.053 653.333,-245.958 646.867,-247.813 649.517,-243.573 649.517,-243.573 649.517,-243.573 646.867,-247.813 645.701,-241.188 644.217,-252.053 644.217,-252.053"/>
</g>
<!-- Group&#45;&gt;GroupAccount -->
<g id="edge10" class="edge"><title>Group&#45;&gt;GroupAccount</title>
<path fill="none" stroke="#58ecd9" d="M213.277,-145.191C219.287,-135.464 225.448,-125.492 231.38,-115.89"/>
<ellipse fill="none" stroke="#58ecd9" cx="211.051" cy="-148.794" rx="4.00002" ry="4.00002"/>
<polygon fill="#58ecd9" stroke="#58ecd9" points="231.496,-115.702 240.581,-109.56 234.124,-111.448 236.753,-107.194 236.753,-107.194 236.753,-107.194 234.124,-111.448 232.924,-104.829 231.496,-115.702 231.496,-115.702"/>
</g>
</g>
</svg>
