<?xml version="1.0" encoding="UTF-8" standalone="no"?>
<!DOCTYPE svg PUBLIC "-//W3C//DTD SVG 1.1//EN"
 "http://www.w3.org/Graphics/SVG/1.1/DTD/svg11.dtd">
<!-- Generated by graphviz version 2.36.0 (20140111.2315)
 -->
<!-- Title: models_diagram Pages: 1 -->
<svg width="629pt" height="1516pt"
 viewBox="0.00 0.00 629.00 1516.00" xmlns="http://www.w3.org/2000/svg" xmlns:xlink="http://www.w3.org/1999/xlink">
<g id="graph0" class="graph" transform="scale(1 1) rotate(0) translate(4 1512)">
<title>models_diagram</title>
<polygon fill="white" stroke="none" points="-4,4 -4,-1512 625,-1512 625,4 -4,4"/>
<!-- _diagram_info -->
<g id="node1" class="node"><title>_diagram_info</title>
<text text-anchor="start" x="7" y="-1411.6" font-family="Times,serif" font-size="13.00">Models diagram</text>
<text text-anchor="start" x="7" y="-1397.6" font-family="Times,serif" font-size="13.00">Date: Aug 18 2014 &#45; 11:26</text>
<text text-anchor="start" x="7" y="-1383.6" font-family="Times,serif" font-size="13.00">Migration version: 20140727011228</text>
<text text-anchor="start" x="7" y="-1369.6" font-family="Times,serif" font-size="13.00">Generated by RailRoady 1.1.1</text>
<text text-anchor="start" x="7" y="-1355.6" font-family="Times,serif" font-size="13.00">http://railroady.prestonlee.com</text>
</g>
<!-- RedSocial -->
<g id="node2" class="node"><title>RedSocial</title>
<path fill="none" stroke="black" d="M160.5,-500.5C160.5,-500.5 267.5,-500.5 267.5,-500.5 273.5,-500.5 279.5,-506.5 279.5,-512.5 279.5,-512.5 279.5,-609.5 279.5,-609.5 279.5,-615.5 273.5,-621.5 267.5,-621.5 267.5,-621.5 160.5,-621.5 160.5,-621.5 154.5,-621.5 148.5,-615.5 148.5,-609.5 148.5,-609.5 148.5,-512.5 148.5,-512.5 148.5,-506.5 154.5,-500.5 160.5,-500.5"/>
<text text-anchor="middle" x="214" y="-606.3" font-family="Times,serif" font-size="14.00">RedSocial</text>
<polyline fill="none" stroke="black" points="148.5,-598.5 279.5,-598.5 "/>
<text text-anchor="start" x="156.5" y="-583.3" font-family="Times,serif" font-size="14.00">id :integer</text>
<text text-anchor="start" x="156.5" y="-568.3" font-family="Times,serif" font-size="14.00">user_id :integer</text>
<text text-anchor="start" x="156.5" y="-553.3" font-family="Times,serif" font-size="14.00">provider :string</text>
<text text-anchor="start" x="156.5" y="-538.3" font-family="Times,serif" font-size="14.00">uid :string</text>
<text text-anchor="start" x="156.5" y="-523.3" font-family="Times,serif" font-size="14.00">created_at :datetime</text>
<text text-anchor="start" x="156.5" y="-508.3" font-family="Times,serif" font-size="14.00">updated_at :datetime</text>
</g>
<!-- Oferta -->
<g id="node3" class="node"><title>Oferta</title>
<path fill="none" stroke="black" d="M239,-38C239,-38 359,-38 359,-38 365,-38 371,-44 371,-50 371,-50 371,-162 371,-162 371,-168 365,-174 359,-174 359,-174 239,-174 239,-174 233,-174 227,-168 227,-162 227,-162 227,-50 227,-50 227,-44 233,-38 239,-38"/>
<text text-anchor="middle" x="299" y="-158.8" font-family="Times,serif" font-size="14.00">Oferta</text>
<polyline fill="none" stroke="black" points="227,-151 371,-151 "/>
<text text-anchor="start" x="235" y="-135.8" font-family="Times,serif" font-size="14.00">id :integer</text>
<text text-anchor="start" x="235" y="-120.8" font-family="Times,serif" font-size="14.00">nombre :string</text>
<text text-anchor="start" x="235" y="-105.8" font-family="Times,serif" font-size="14.00">desc :string</text>
<text text-anchor="start" x="235" y="-90.8" font-family="Times,serif" font-size="14.00">porcentaje :integer</text>
<text text-anchor="start" x="235" y="-75.8" font-family="Times,serif" font-size="14.00">mod_cantidad :boolean</text>
<text text-anchor="start" x="235" y="-60.8" font-family="Times,serif" font-size="14.00">created_at :datetime</text>
<text text-anchor="start" x="235" y="-45.8" font-family="Times,serif" font-size="14.00">updated_at :datetime</text>
</g>
<!-- Pasaje -->
<g id="node5" class="node"><title>Pasaje</title>
<path fill="none" stroke="black" d="M257,-287.5C257,-287.5 377,-287.5 377,-287.5 383,-287.5 389,-293.5 389,-299.5 389,-299.5 389,-426.5 389,-426.5 389,-432.5 383,-438.5 377,-438.5 377,-438.5 257,-438.5 257,-438.5 251,-438.5 245,-432.5 245,-426.5 245,-426.5 245,-299.5 245,-299.5 245,-293.5 251,-287.5 257,-287.5"/>
<text text-anchor="middle" x="317" y="-423.3" font-family="Times,serif" font-size="14.00">Pasaje</text>
<polyline fill="none" stroke="black" points="245,-415.5 389,-415.5 "/>
<text text-anchor="start" x="253" y="-400.3" font-family="Times,serif" font-size="14.00">id :integer</text>
<text text-anchor="start" x="253" y="-385.3" font-family="Times,serif" font-size="14.00">user_evento_id :integer</text>
<text text-anchor="start" x="253" y="-370.3" font-family="Times,serif" font-size="14.00">oferta_id :integer</text>
<text text-anchor="start" x="253" y="-355.3" font-family="Times,serif" font-size="14.00">precio :integer</text>
<text text-anchor="start" x="253" y="-340.3" font-family="Times,serif" font-size="14.00">cantidad :integer</text>
<text text-anchor="start" x="253" y="-325.3" font-family="Times,serif" font-size="14.00">codigo :string</text>
<text text-anchor="start" x="253" y="-310.3" font-family="Times,serif" font-size="14.00">created_at :datetime</text>
<text text-anchor="start" x="253" y="-295.3" font-family="Times,serif" font-size="14.00">updated_at :datetime</text>
</g>
<!-- Oferta&#45;&gt;Pasaje -->
<g id="edge1" class="edge"><title>Oferta&#45;&gt;Pasaje</title>
<path fill="none" stroke="#f74150" d="M308.583,-182.392C310.298,-198.103 311.89,-214.575 313,-230 314.093,-245.195 314.888,-261.394 315.466,-277.054"/>
<ellipse fill="none" stroke="#f74150" cx="308.119" cy="-178.231" rx="4.00001" ry="4.00001"/>
<polygon fill="#f74150" stroke="#f74150" points="315.473,-277.256 311.319,-287.404 315.645,-282.253 315.816,-287.25 315.816,-287.25 315.816,-287.25 315.645,-282.253 320.313,-287.096 315.473,-277.256 315.473,-277.256"/>
</g>
<!-- Evento -->
<g id="node4" class="node"><title>Evento</title>
<path fill="none" stroke="black" d="M274.5,-1061C274.5,-1061 387.5,-1061 387.5,-1061 393.5,-1061 399.5,-1067 399.5,-1073 399.5,-1073 399.5,-1215 399.5,-1215 399.5,-1221 393.5,-1227 387.5,-1227 387.5,-1227 274.5,-1227 274.5,-1227 268.5,-1227 262.5,-1221 262.5,-1215 262.5,-1215 262.5,-1073 262.5,-1073 262.5,-1067 268.5,-1061 274.5,-1061"/>
<text text-anchor="middle" x="331" y="-1211.8" font-family="Times,serif" font-size="14.00">Evento</text>
<polyline fill="none" stroke="black" points="262.5,-1204 399.5,-1204 "/>
<text text-anchor="start" x="270.5" y="-1188.8" font-family="Times,serif" font-size="14.00">id :integer</text>
<text text-anchor="start" x="270.5" y="-1173.8" font-family="Times,serif" font-size="14.00">nombre :string</text>
<text text-anchor="start" x="270.5" y="-1158.8" font-family="Times,serif" font-size="14.00">desc :string</text>
<text text-anchor="start" x="270.5" y="-1143.8" font-family="Times,serif" font-size="14.00">fecha_inicio :date</text>
<text text-anchor="start" x="270.5" y="-1128.8" font-family="Times,serif" font-size="14.00">fecha_termino :date</text>
<text text-anchor="start" x="270.5" y="-1113.8" font-family="Times,serif" font-size="14.00">imagen :string</text>
<text text-anchor="start" x="270.5" y="-1098.8" font-family="Times,serif" font-size="14.00">created_at :datetime</text>
<text text-anchor="start" x="270.5" y="-1083.8" font-family="Times,serif" font-size="14.00">updated_at :datetime</text>
<text text-anchor="start" x="270.5" y="-1068.8" font-family="Times,serif" font-size="14.00">publicador_id :integer</text>
</g>
<!-- User -->
<g id="node6" class="node"><title>User</title>
<path fill="none" stroke="black" d="M147,-660.5C147,-660.5 323,-660.5 323,-660.5 329,-660.5 335,-666.5 335,-672.5 335,-672.5 335,-1009.5 335,-1009.5 335,-1015.5 329,-1021.5 323,-1021.5 323,-1021.5 147,-1021.5 147,-1021.5 141,-1021.5 135,-1015.5 135,-1009.5 135,-1009.5 135,-672.5 135,-672.5 135,-666.5 141,-660.5 147,-660.5"/>
<text text-anchor="middle" x="235" y="-1006.3" font-family="Times,serif" font-size="14.00">User</text>
<polyline fill="none" stroke="black" points="135,-998.5 335,-998.5 "/>
<text text-anchor="start" x="143" y="-983.3" font-family="Times,serif" font-size="14.00">id :integer</text>
<text text-anchor="start" x="143" y="-968.3" font-family="Times,serif" font-size="14.00">email :string</text>
<text text-anchor="start" x="143" y="-953.3" font-family="Times,serif" font-size="14.00">encrypted_password :string</text>
<text text-anchor="start" x="143" y="-938.3" font-family="Times,serif" font-size="14.00">reset_password_token :string</text>
<text text-anchor="start" x="143" y="-923.3" font-family="Times,serif" font-size="14.00">reset_password_sent_at :datetime</text>
<text text-anchor="start" x="143" y="-908.3" font-family="Times,serif" font-size="14.00">remember_created_at :datetime</text>
<text text-anchor="start" x="143" y="-893.3" font-family="Times,serif" font-size="14.00">sign_in_count :integer</text>
<text text-anchor="start" x="143" y="-878.3" font-family="Times,serif" font-size="14.00">current_sign_in_at :datetime</text>
<text text-anchor="start" x="143" y="-863.3" font-family="Times,serif" font-size="14.00">last_sign_in_at :datetime</text>
<text text-anchor="start" x="143" y="-848.3" font-family="Times,serif" font-size="14.00">current_sign_in_ip :string</text>
<text text-anchor="start" x="143" y="-833.3" font-family="Times,serif" font-size="14.00">last_sign_in_ip :string</text>
<text text-anchor="start" x="143" y="-818.3" font-family="Times,serif" font-size="14.00">created_at :datetime</text>
<text text-anchor="start" x="143" y="-803.3" font-family="Times,serif" font-size="14.00">updated_at :datetime</text>
<text text-anchor="start" x="143" y="-788.3" font-family="Times,serif" font-size="14.00">nombre :string</text>
<text text-anchor="start" x="143" y="-773.3" font-family="Times,serif" font-size="14.00">ciudad :string</text>
<text text-anchor="start" x="143" y="-758.3" font-family="Times,serif" font-size="14.00">region :string</text>
<text text-anchor="start" x="143" y="-743.3" font-family="Times,serif" font-size="14.00">telefono :string</text>
<text text-anchor="start" x="143" y="-728.3" font-family="Times,serif" font-size="14.00">cumple :date</text>
<text text-anchor="start" x="143" y="-713.3" font-family="Times,serif" font-size="14.00">rut :string</text>
<text text-anchor="start" x="143" y="-698.3" font-family="Times,serif" font-size="14.00">dv :string</text>
<text text-anchor="start" x="143" y="-683.3" font-family="Times,serif" font-size="14.00">direccion :text</text>
<text text-anchor="start" x="143" y="-668.3" font-family="Times,serif" font-size="14.00">foto :string</text>
</g>
<!-- Evento&#45;&gt;User -->
<g id="edge3" class="edge"><title>Evento&#45;&gt;User</title>
<path fill="none" stroke="#5f650d" d="M301.65,-1050.97C299.611,-1044.58 297.518,-1038.02 295.391,-1031.35"/>
<polygon fill="#5f650d" stroke="#5f650d" points="301.729,-1051.22 300.48,-1062.12 303.248,-1055.99 304.768,-1060.75 304.768,-1060.75 304.768,-1060.75 303.248,-1055.99 309.055,-1059.38 301.729,-1051.22 301.729,-1051.22"/>
<polygon fill="#5f650d" stroke="#5f650d" points="295.29,-1031.03 296.539,-1020.14 293.771,-1026.27 292.251,-1021.51 292.251,-1021.51 292.251,-1021.51 293.771,-1026.27 287.964,-1022.87 295.29,-1031.03 295.29,-1031.03"/>
</g>
<!-- UserEvento -->
<g id="node7" class="node"><title>UserEvento</title>
<path fill="none" stroke="black" d="M309.5,-508C309.5,-508 416.5,-508 416.5,-508 422.5,-508 428.5,-514 428.5,-520 428.5,-520 428.5,-602 428.5,-602 428.5,-608 422.5,-614 416.5,-614 416.5,-614 309.5,-614 309.5,-614 303.5,-614 297.5,-608 297.5,-602 297.5,-602 297.5,-520 297.5,-520 297.5,-514 303.5,-508 309.5,-508"/>
<text text-anchor="middle" x="363" y="-598.8" font-family="Times,serif" font-size="14.00">UserEvento</text>
<polyline fill="none" stroke="black" points="297.5,-591 428.5,-591 "/>
<text text-anchor="start" x="305.5" y="-575.8" font-family="Times,serif" font-size="14.00">id :integer</text>
<text text-anchor="start" x="305.5" y="-560.8" font-family="Times,serif" font-size="14.00">user_id :integer</text>
<text text-anchor="start" x="305.5" y="-545.8" font-family="Times,serif" font-size="14.00">evento_id :integer</text>
<text text-anchor="start" x="305.5" y="-530.8" font-family="Times,serif" font-size="14.00">created_at :datetime</text>
<text text-anchor="start" x="305.5" y="-515.8" font-family="Times,serif" font-size="14.00">updated_at :datetime</text>
</g>
<!-- Evento&#45;&gt;UserEvento -->
<g id="edge2" class="edge"><title>Evento&#45;&gt;UserEvento</title>
<path fill="none" stroke="#683b65" d="M341.378,-1052.51C342.363,-1042.23 343.265,-1031.89 344,-1022 354.552,-879.962 359.62,-712.784 361.726,-624.284"/>
<ellipse fill="none" stroke="#683b65" cx="340.963" cy="-1056.75" rx="4" ry="4"/>
<polygon fill="#683b65" stroke="#683b65" points="361.729,-624.145 366.461,-614.253 361.846,-619.147 361.962,-614.148 361.962,-614.148 361.962,-614.148 361.846,-619.147 357.463,-614.043 361.729,-624.145 361.729,-624.145"/>
</g>
<!-- Pasaje&#45;&gt;Oferta -->
<g id="edge4" class="edge"><title>Pasaje&#45;&gt;Oferta</title>
<path fill="none" stroke="#b0872e" d="M284.919,-279.743C281.654,-268.55 278.859,-257.096 277,-246 273.542,-225.366 274.859,-202.983 278.144,-182.33"/>
<ellipse fill="none" stroke="#b0872e" cx="286.09" cy="-283.614" rx="4.00001" ry="4.00001"/>
<ellipse fill="#b0872e" stroke="#b0872e" cx="278.867" cy="-178.146" rx="4.00001" ry="4.00001"/>
<text text-anchor="middle" x="293" y="-234.3" font-family="Times,serif" font-size="14.00">oferta</text>
</g>
<!-- User&#45;&gt;RedSocial -->
<g id="edge5" class="edge"><title>User&#45;&gt;RedSocial</title>
<path fill="none" stroke="#9f0991" d="M220.808,-652.12C220.276,-645.082 219.759,-638.235 219.263,-631.666"/>
<ellipse fill="none" stroke="#9f0991" cx="221.132" cy="-656.415" rx="4" ry="4"/>
<polygon fill="#9f0991" stroke="#9f0991" points="219.254,-631.556 222.988,-621.245 218.878,-626.57 218.501,-621.584 218.501,-621.584 218.501,-621.584 218.878,-626.57 214.014,-621.923 219.254,-631.556 219.254,-631.556"/>
</g>
<!-- User&#45;&gt;UserEvento -->
<g id="edge6" class="edge"><title>User&#45;&gt;UserEvento</title>
<path fill="none" stroke="#cec37c" d="M321.078,-653.048C325.894,-642.59 330.519,-632.545 334.825,-623.193"/>
<ellipse fill="none" stroke="#cec37c" cx="319.365" cy="-656.77" rx="4.00002" ry="4.00002"/>
<polygon fill="#cec37c" stroke="#cec37c" points="334.837,-623.166 343.107,-615.965 336.928,-618.624 339.02,-614.083 339.02,-614.083 339.02,-614.083 336.928,-618.624 334.932,-612.201 334.837,-623.166 334.837,-623.166"/>
</g>
<!-- UserEvento&#45;&gt;Pasaje -->
<g id="edge7" class="edge"><title>UserEvento&#45;&gt;Pasaje</title>
<path fill="none" stroke="#74716a" d="M348.949,-500.132C345.151,-483.949 340.968,-466.122 336.914,-448.851"/>
<ellipse fill="none" stroke="#74716a" cx="349.88" cy="-504.096" rx="4.00001" ry="4.00001"/>
<polygon fill="#74716a" stroke="#74716a" points="336.831,-448.498 338.927,-437.734 335.689,-443.63 334.546,-438.762 334.546,-438.762 334.546,-438.762 335.689,-443.63 330.165,-439.79 336.831,-448.498 336.831,-448.498"/>
</g>
<!-- PublicacionCarpool -->
<g id="node10" class="node"><title>PublicacionCarpool</title>
<path fill="none" stroke="black" d="M419,-265C419,-265 539,-265 539,-265 545,-265 551,-271 551,-277 551,-277 551,-449 551,-449 551,-455 545,-461 539,-461 539,-461 419,-461 419,-461 413,-461 407,-455 407,-449 407,-449 407,-277 407,-277 407,-271 413,-265 419,-265"/>
<text text-anchor="middle" x="479" y="-445.8" font-family="Times,serif" font-size="14.00">PublicacionCarpool</text>
<polyline fill="none" stroke="black" points="407,-438 551,-438 "/>
<text text-anchor="start" x="415" y="-422.8" font-family="Times,serif" font-size="14.00">id :integer</text>
<text text-anchor="start" x="415" y="-407.8" font-family="Times,serif" font-size="14.00">user_evento_id :integer</text>
<text text-anchor="start" x="415" y="-392.8" font-family="Times,serif" font-size="14.00">fecha :date</text>
<text text-anchor="start" x="415" y="-377.8" font-family="Times,serif" font-size="14.00">descripcion :text</text>
<text text-anchor="start" x="415" y="-362.8" font-family="Times,serif" font-size="14.00">precio :integer</text>
<text text-anchor="start" x="415" y="-347.8" font-family="Times,serif" font-size="14.00">hora_desde :time</text>
<text text-anchor="start" x="415" y="-332.8" font-family="Times,serif" font-size="14.00">desde :string</text>
<text text-anchor="start" x="415" y="-317.8" font-family="Times,serif" font-size="14.00">hora_hasta :time</text>
<text text-anchor="start" x="415" y="-302.8" font-family="Times,serif" font-size="14.00">hasta :time</text>
<text text-anchor="start" x="415" y="-287.8" font-family="Times,serif" font-size="14.00">created_at :datetime</text>
<text text-anchor="start" x="415" y="-272.8" font-family="Times,serif" font-size="14.00">updated_at :datetime</text>
</g>
<!-- UserEvento&#45;&gt;PublicacionCarpool -->
<g id="edge8" class="edge"><title>UserEvento&#45;&gt;PublicacionCarpool</title>
<path fill="none" stroke="#fd1f6a" d="M398.054,-500.77C404.167,-490.443 410.684,-479.43 417.266,-468.309"/>
<ellipse fill="none" stroke="#fd1f6a" cx="395.819" cy="-504.548" rx="4.00002" ry="4.00002"/>
<ellipse fill="#fd1f6a" stroke="#fd1f6a" cx="419.332" cy="-464.818" rx="4.00002" ry="4.00002"/>
</g>
<!-- Comment -->
<g id="node8" class="node"><title>Comment</title>
<path fill="none" stroke="black" d="M411.5,-0.5C411.5,-0.5 546.5,-0.5 546.5,-0.5 552.5,-0.5 558.5,-6.5 558.5,-12.5 558.5,-12.5 558.5,-199.5 558.5,-199.5 558.5,-205.5 552.5,-211.5 546.5,-211.5 546.5,-211.5 411.5,-211.5 411.5,-211.5 405.5,-211.5 399.5,-205.5 399.5,-199.5 399.5,-199.5 399.5,-12.5 399.5,-12.5 399.5,-6.5 405.5,-0.5 411.5,-0.5"/>
<text text-anchor="middle" x="479" y="-196.3" font-family="Times,serif" font-size="14.00">Comment</text>
<polyline fill="none" stroke="black" points="399.5,-188.5 558.5,-188.5 "/>
<text text-anchor="start" x="407.5" y="-173.3" font-family="Times,serif" font-size="14.00">id :integer</text>
<text text-anchor="start" x="407.5" y="-158.3" font-family="Times,serif" font-size="14.00">commentable_id :integer</text>
<text text-anchor="start" x="407.5" y="-143.3" font-family="Times,serif" font-size="14.00">commentable_type :string</text>
<text text-anchor="start" x="407.5" y="-128.3" font-family="Times,serif" font-size="14.00">title :string</text>
<text text-anchor="start" x="407.5" y="-113.3" font-family="Times,serif" font-size="14.00">body :text</text>
<text text-anchor="start" x="407.5" y="-98.3" font-family="Times,serif" font-size="14.00">subject :string</text>
<text text-anchor="start" x="407.5" y="-83.3" font-family="Times,serif" font-size="14.00">user_id :integer</text>
<text text-anchor="start" x="407.5" y="-68.3" font-family="Times,serif" font-size="14.00">parent_id :integer</text>
<text text-anchor="start" x="407.5" y="-53.3" font-family="Times,serif" font-size="14.00">lft :integer</text>
<text text-anchor="start" x="407.5" y="-38.3" font-family="Times,serif" font-size="14.00">rgt :integer</text>
<text text-anchor="start" x="407.5" y="-23.3" font-family="Times,serif" font-size="14.00">created_at :datetime</text>
<text text-anchor="start" x="407.5" y="-8.3" font-family="Times,serif" font-size="14.00">updated_at :datetime</text>
</g>
<!-- Comment&#45;&gt;Comment -->
<g id="edge9" class="edge"><title>Comment&#45;&gt;Comment</title>
<path fill="none" stroke="#f4a2c1" d="M566.093,-124.107C572.245,-119.988 576,-113.952 576,-106 576,-98.7249 572.857,-93.0536 567.611,-88.9862"/>
<ellipse fill="none" stroke="#f4a2c1" cx="562.128" cy="-126.059" rx="4.00002" ry="4.00002"/>
<polygon fill="#f4a2c1" stroke="#f4a2c1" points="567.374,-88.8606 560.648,-80.1992 562.957,-86.5176 558.54,-84.1746 558.54,-84.1746 558.54,-84.1746 562.957,-86.5176 556.431,-88.1499 567.374,-88.8606 567.374,-88.8606"/>
<text text-anchor="middle" x="598.5" y="-102.3" font-family="Times,serif" font-size="14.00">children</text>
</g>
<!-- Publicador -->
<g id="node9" class="node"><title>Publicador</title>
<path fill="none" stroke="black" d="M243,-1266.5C243,-1266.5 419,-1266.5 419,-1266.5 425,-1266.5 431,-1272.5 431,-1278.5 431,-1278.5 431,-1495.5 431,-1495.5 431,-1501.5 425,-1507.5 419,-1507.5 419,-1507.5 243,-1507.5 243,-1507.5 237,-1507.5 231,-1501.5 231,-1495.5 231,-1495.5 231,-1278.5 231,-1278.5 231,-1272.5 237,-1266.5 243,-1266.5"/>
<text text-anchor="middle" x="331" y="-1492.3" font-family="Times,serif" font-size="14.00">Publicador</text>
<polyline fill="none" stroke="black" points="231,-1484.5 431,-1484.5 "/>
<text text-anchor="start" x="239" y="-1469.3" font-family="Times,serif" font-size="14.00">id :integer</text>
<text text-anchor="start" x="239" y="-1454.3" font-family="Times,serif" font-size="14.00">email :string</text>
<text text-anchor="start" x="239" y="-1439.3" font-family="Times,serif" font-size="14.00">encrypted_password :string</text>
<text text-anchor="start" x="239" y="-1424.3" font-family="Times,serif" font-size="14.00">reset_password_token :string</text>
<text text-anchor="start" x="239" y="-1409.3" font-family="Times,serif" font-size="14.00">reset_password_sent_at :datetime</text>
<text text-anchor="start" x="239" y="-1394.3" font-family="Times,serif" font-size="14.00">remember_created_at :datetime</text>
<text text-anchor="start" x="239" y="-1379.3" font-family="Times,serif" font-size="14.00">sign_in_count :integer</text>
<text text-anchor="start" x="239" y="-1364.3" font-family="Times,serif" font-size="14.00">current_sign_in_at :datetime</text>
<text text-anchor="start" x="239" y="-1349.3" font-family="Times,serif" font-size="14.00">last_sign_in_at :datetime</text>
<text text-anchor="start" x="239" y="-1334.3" font-family="Times,serif" font-size="14.00">current_sign_in_ip :string</text>
<text text-anchor="start" x="239" y="-1319.3" font-family="Times,serif" font-size="14.00">last_sign_in_ip :string</text>
<text text-anchor="start" x="239" y="-1304.3" font-family="Times,serif" font-size="14.00">created_at :datetime</text>
<text text-anchor="start" x="239" y="-1289.3" font-family="Times,serif" font-size="14.00">updated_at :datetime</text>
<text text-anchor="start" x="239" y="-1274.3" font-family="Times,serif" font-size="14.00">username :string</text>
</g>
<!-- Publicador&#45;&gt;Evento -->
<g id="edge10" class="edge"><title>Publicador&#45;&gt;Evento</title>
<path fill="none" stroke="#233422" d="M331,-1258.15C331,-1251.08 331,-1244.04 331,-1237.13"/>
<ellipse fill="none" stroke="#233422" cx="331" cy="-1262.21" rx="4" ry="4"/>
<polygon fill="#233422" stroke="#233422" points="331,-1237.12 335.5,-1227.12 331,-1232.12 331,-1227.12 331,-1227.12 331,-1227.12 331,-1232.12 326.5,-1227.12 331,-1237.12 331,-1237.12"/>
</g>
<!-- PublicacionCarpool&#45;&gt;Comment -->
<g id="edge11" class="edge"><title>PublicacionCarpool&#45;&gt;Comment</title>
<path fill="none" stroke="#b8dc15" d="M479,-256.633C479,-245.102 479,-233.322 479,-221.685"/>
<ellipse fill="none" stroke="#b8dc15" cx="479" cy="-260.868" rx="4" ry="4"/>
<polygon fill="#b8dc15" stroke="#b8dc15" points="479,-221.506 483.5,-211.506 479,-216.506 479,-211.506 479,-211.506 479,-211.506 479,-216.506 474.5,-211.506 479,-221.506 479,-221.506"/>
<text text-anchor="middle" x="528" y="-234.3" font-family="Times,serif" font-size="14.00">comment_threads</text>
</g>
</g>
</svg>
