<?xml version="1.0" encoding="UTF-8" standalone="no"?>
<!DOCTYPE svg PUBLIC "-//W3C//DTD SVG 1.1//EN"
 "http://www.w3.org/Graphics/SVG/1.1/DTD/svg11.dtd">
<!-- Generated by graphviz version 2.36.0 (20140111.2315)
 -->
<!-- Title: models_diagram Pages: 1 -->
<svg width="865pt" height="606pt"
 viewBox="0.00 0.00 865.00 606.00" xmlns="http://www.w3.org/2000/svg" xmlns:xlink="http://www.w3.org/1999/xlink">
<g id="graph0" class="graph" transform="scale(1 1) rotate(0) translate(4 602)">
<title>models_diagram</title>
<polygon fill="white" stroke="none" points="-4,4 -4,-602 861,-602 861,4 -4,4"/>
<!-- _diagram_info -->
<g id="node1" class="node"><title>_diagram_info</title>
<text text-anchor="start" x="159" y="-583.6" font-family="Times,serif" font-size="13.00">Models diagram</text>
<text text-anchor="start" x="159" y="-569.6" font-family="Times,serif" font-size="13.00">Date: Nov 06 2014 &#45; 20:01</text>
<text text-anchor="start" x="159" y="-555.6" font-family="Times,serif" font-size="13.00">Migration version: 20141011004157</text>
<text text-anchor="start" x="159" y="-541.6" font-family="Times,serif" font-size="13.00">Generated by RailRoady 1.1.2</text>
<text text-anchor="start" x="159" y="-527.6" font-family="Times,serif" font-size="13.00">http://railroady.prestonlee.com</text>
</g>
<!-- City -->
<g id="node2" class="node"><title>City</title>
<ellipse fill="none" stroke="black" cx="419" cy="-464" rx="27" ry="18"/>
<text text-anchor="middle" x="419" y="-460.3" font-family="Times,serif" font-size="14.00">City</text>
</g>
<!-- Evento -->
<g id="node7" class="node"><title>Evento</title>
<ellipse fill="none" stroke="black" cx="183" cy="-390" rx="35.6194" ry="18"/>
<text text-anchor="middle" x="183" y="-386.3" font-family="Times,serif" font-size="14.00">Evento</text>
</g>
<!-- City&#45;&gt;Evento -->
<g id="edge2" class="edge"><title>City&#45;&gt;Evento</title>
<path fill="none" stroke="#a7a104" d="M386.788,-453.172C344.016,-440.123 268.523,-417.092 222.404,-403.022"/>
<ellipse fill="none" stroke="#a7a104" cx="390.807" cy="-454.399" rx="4.00001" ry="4.00001"/>
<polygon fill="#a7a104" stroke="#a7a104" points="222.316,-402.995 214.064,-395.773 217.534,-401.536 212.751,-400.077 212.751,-400.077 212.751,-400.077 217.534,-401.536 211.438,-404.381 222.316,-402.995 222.316,-402.995"/>
</g>
<!-- User -->
<g id="node15" class="node"><title>User</title>
<ellipse fill="none" stroke="black" cx="509" cy="-390" rx="26.949" ry="18"/>
<text text-anchor="middle" x="509" y="-386.3" font-family="Times,serif" font-size="14.00">User</text>
</g>
<!-- City&#45;&gt;User -->
<g id="edge1" class="edge"><title>City&#45;&gt;User</title>
<path fill="none" stroke="#a18c8e" d="M442.305,-444.356C455.106,-434.115 470.986,-421.411 484.039,-410.969"/>
<ellipse fill="none" stroke="#a18c8e" cx="439.052" cy="-446.959" rx="4.00002" ry="4.00002"/>
<polygon fill="#a18c8e" stroke="#a18c8e" points="484.339,-410.729 494.959,-407.996 488.243,-407.605 492.148,-404.482 492.148,-404.482 492.148,-404.482 488.243,-407.605 489.336,-400.968 484.339,-410.729 484.339,-410.729"/>
</g>
<!-- Ranking -->
<g id="node3" class="node"><title>Ranking</title>
<ellipse fill="none" stroke="black" cx="671" cy="-248" rx="39.9464" ry="18"/>
<text text-anchor="middle" x="671" y="-244.3" font-family="Times,serif" font-size="14.00">Ranking</text>
</g>
<!-- PublicActivity::Activity -->
<g id="node21" class="node"><title>PublicActivity::Activity</title>
<ellipse fill="none" stroke="black" cx="329" cy="-18" rx="95.3122" ry="18"/>
<text text-anchor="middle" x="329" y="-14.3" font-family="Times,serif" font-size="14.00">PublicActivity::Activity</text>
</g>
<!-- Ranking&#45;&gt;PublicActivity::Activity -->
<g id="edge3" class="edge"><title>Ranking&#45;&gt;PublicActivity::Activity</title>
<path fill="none" stroke="#4e41b6" d="M666.506,-221.729C661.25,-198.577 650.518,-164.568 630,-142 572.541,-78.7988 477.853,-47.3389 410.017,-32.1776"/>
<ellipse fill="none" stroke="#4e41b6" cx="667.372" cy="-225.814" rx="4.00001" ry="4.00001"/>
<polygon fill="#4e41b6" stroke="#4e41b6" points="409.985,-32.1708 401.162,-25.6588 405.098,-31.114 400.211,-30.0572 400.211,-30.0572 400.211,-30.0572 405.098,-31.114 399.26,-34.4555 409.985,-32.1708 409.985,-32.1708"/>
<text text-anchor="middle" x="665.5" y="-146.3" font-family="Times,serif" font-size="14.00">activities</text>
</g>
<!-- Reserva -->
<g id="node4" class="node"><title>Reserva</title>
<ellipse fill="none" stroke="black" cx="189" cy="-194" rx="38.4949" ry="18"/>
<text text-anchor="middle" x="189" y="-190.3" font-family="Times,serif" font-size="14.00">Reserva</text>
</g>
<!-- Pasaje -->
<g id="node8" class="node"><title>Pasaje</title>
<ellipse fill="none" stroke="black" cx="38" cy="-106" rx="33.2209" ry="18"/>
<text text-anchor="middle" x="38" y="-102.3" font-family="Times,serif" font-size="14.00">Pasaje</text>
</g>
<!-- Reserva&#45;&gt;Pasaje -->
<g id="edge5" class="edge"><title>Reserva&#45;&gt;Pasaje</title>
<path fill="none" stroke="#2ae91f" d="M158.301,-175.516C132.17,-160.633 94.8232,-139.363 68.6942,-124.481"/>
<ellipse fill="none" stroke="#2ae91f" cx="161.93" cy="-177.583" rx="4.00002" ry="4.00002"/>
<polygon fill="#2ae91f" stroke="#2ae91f" points="68.6462,-124.454 62.1838,-115.595 64.3015,-121.98 59.9567,-119.505 59.9567,-119.505 59.9567,-119.505 64.3015,-121.98 57.7296,-123.415 68.6462,-124.454 68.6462,-124.454"/>
</g>
<!-- Reserva&#45;&gt;PublicActivity::Activity -->
<g id="edge4" class="edge"><title>Reserva&#45;&gt;PublicActivity::Activity</title>
<path fill="none" stroke="#cef5cf" d="M211.796,-171.854C225.519,-158.653 242.988,-140.991 257,-124 278.164,-98.3355 299.328,-66.5572 313.178,-44.7237"/>
<ellipse fill="none" stroke="#cef5cf" cx="208.676" cy="-174.828" rx="4.00002" ry="4.00002"/>
<polygon fill="#cef5cf" stroke="#cef5cf" points="313.324,-44.4899 322.454,-38.4159 315.984,-40.256 318.644,-36.0221 318.644,-36.0221 318.644,-36.0221 315.984,-40.256 314.833,-33.6283 313.324,-44.4899 313.324,-44.4899"/>
<text text-anchor="middle" x="307.5" y="-102.3" font-family="Times,serif" font-size="14.00">activities</text>
</g>
<!-- Organization -->
<g id="node5" class="node"><title>Organization</title>
<ellipse fill="none" stroke="black" cx="271" cy="-464" rx="56.3173" ry="18"/>
<text text-anchor="middle" x="271" y="-460.3" font-family="Times,serif" font-size="14.00">Organization</text>
</g>
<!-- Organization&#45;&gt;Evento -->
<g id="edge6" class="edge"><title>Organization&#45;&gt;Evento</title>
<path fill="none" stroke="#0f4b8c" d="M245.187,-441.88C233.758,-432.529 220.341,-421.552 208.901,-412.192"/>
<ellipse fill="none" stroke="#0f4b8c" cx="248.374" cy="-444.488" rx="4.00002" ry="4.00002"/>
<polygon fill="#0f4b8c" stroke="#0f4b8c" points="208.717,-412.041 203.827,-402.226 204.847,-408.875 200.977,-405.709 200.977,-405.709 200.977,-405.709 204.847,-408.875 198.128,-409.191 208.717,-412.041 208.717,-412.041"/>
</g>
<!-- RedSocial -->
<g id="node6" class="node"><title>RedSocial</title>
<ellipse fill="none" stroke="black" cx="729" cy="-302" rx="46.1964" ry="18"/>
<text text-anchor="middle" x="729" y="-298.3" font-family="Times,serif" font-size="14.00">RedSocial</text>
</g>
<!-- Bus -->
<g id="node9" class="node"><title>Bus</title>
<ellipse fill="none" stroke="black" cx="39" cy="-302" rx="27" ry="18"/>
<text text-anchor="middle" x="39" y="-298.3" font-family="Times,serif" font-size="14.00">Bus</text>
</g>
<!-- Evento&#45;&gt;Bus -->
<g id="edge9" class="edge"><title>Evento&#45;&gt;Bus</title>
<path fill="none" stroke="#d32ad9" d="M142.625,-380.636C122.845,-375.224 99.3909,-366.75 81,-354 70.2775,-346.566 60.7916,-335.669 53.5603,-325.855"/>
<ellipse fill="none" stroke="#d32ad9" cx="146.697" cy="-381.695" rx="4.00001" ry="4.00001"/>
<ellipse fill="#d32ad9" stroke="#d32ad9" cx="51.233" cy="-322.557" rx="4.00002" ry="4.00002"/>
</g>
<!-- UserEvento -->
<g id="node17" class="node"><title>UserEvento</title>
<ellipse fill="none" stroke="black" cx="174" cy="-302" rx="51.4931" ry="18"/>
<text text-anchor="middle" x="174" y="-298.3" font-family="Times,serif" font-size="14.00">UserEvento</text>
</g>
<!-- Evento&#45;&gt;UserEvento -->
<g id="edge8" class="edge"><title>Evento&#45;&gt;UserEvento</title>
<path fill="none" stroke="#1aa58b" d="M180.358,-363.756C179.26,-353.259 177.982,-341.049 176.861,-330.34"/>
<ellipse fill="none" stroke="#1aa58b" cx="180.806" cy="-368.031" rx="4" ry="4"/>
<polygon fill="#1aa58b" stroke="#1aa58b" points="176.846,-330.196 180.281,-319.781 176.326,-325.223 175.805,-320.25 175.805,-320.25 175.805,-320.25 176.326,-325.223 171.33,-320.718 176.846,-330.196 176.846,-330.196"/>
</g>
<!-- Comment -->
<g id="node18" class="node"><title>Comment</title>
<ellipse fill="none" stroke="black" cx="139" cy="-106" rx="46.2191" ry="18"/>
<text text-anchor="middle" x="139" y="-102.3" font-family="Times,serif" font-size="14.00">Comment</text>
</g>
<!-- Evento&#45;&gt;Comment -->
<g id="edge7" class="edge"><title>Evento&#45;&gt;Comment</title>
<path fill="none" stroke="#8ea617" d="M158.104,-368.985C143.456,-356.196 125.427,-338.571 113,-320 98.5874,-298.462 95.9818,-291.432 91,-266 81.6064,-218.046 105.685,-163.904 123.035,-132.781"/>
<ellipse fill="none" stroke="#8ea617" cx="161.524" cy="-371.908" rx="4.00002" ry="4.00002"/>
<polygon fill="#8ea617" stroke="#8ea617" points="123.165,-132.557 132.058,-126.141 125.662,-128.225 128.16,-123.894 128.16,-123.894 128.16,-123.894 125.662,-128.225 124.261,-121.646 123.165,-132.557 123.165,-132.557"/>
<text text-anchor="middle" x="140" y="-244.3" font-family="Times,serif" font-size="14.00">comment_threads</text>
</g>
<!-- Publicador -->
<g id="node10" class="node"><title>Publicador</title>
<ellipse fill="none" stroke="black" cx="109" cy="-464" rx="48.6179" ry="18"/>
<text text-anchor="middle" x="109" y="-460.3" font-family="Times,serif" font-size="14.00">Publicador</text>
</g>
<!-- Publicador&#45;&gt;Evento -->
<g id="edge10" class="edge"><title>Publicador&#45;&gt;Evento</title>
<path fill="none" stroke="#443c83" d="M131.271,-441.33C140.372,-432.476 150.893,-422.239 160.061,-413.319"/>
<ellipse fill="none" stroke="#443c83" cx="128.29" cy="-444.231" rx="4.00002" ry="4.00002"/>
<polygon fill="#443c83" stroke="#443c83" points="160.216,-413.169 170.521,-409.42 163.799,-409.682 167.383,-406.195 167.383,-406.195 167.383,-406.195 163.799,-409.682 164.245,-402.97 160.216,-413.169 160.216,-413.169"/>
</g>
<!-- TransaccionCarpool -->
<g id="node11" class="node"><title>TransaccionCarpool</title>
<ellipse fill="none" stroke="black" cx="433" cy="-106" rx="81.3398" ry="18"/>
<text text-anchor="middle" x="433" y="-102.3" font-family="Times,serif" font-size="14.00">TransaccionCarpool</text>
</g>
<!-- TransaccionCarpool&#45;&gt;PublicActivity::Activity -->
<g id="edge11" class="edge"><title>TransaccionCarpool&#45;&gt;PublicActivity::Activity</title>
<path fill="none" stroke="#ae3fc3" d="M406.657,-83.2163C391.644,-70.802 372.824,-55.2394 357.472,-42.544"/>
<ellipse fill="none" stroke="#ae3fc3" cx="409.865" cy="-85.8693" rx="4.00002" ry="4.00002"/>
<polygon fill="#ae3fc3" stroke="#ae3fc3" points="357.052,-42.1969 352.213,-32.3563 353.199,-39.0105 349.346,-35.8242 349.346,-35.8242 349.346,-35.8242 353.199,-39.0105 346.478,-39.2921 357.052,-42.1969 357.052,-42.1969"/>
<text text-anchor="middle" x="414.5" y="-58.3" font-family="Times,serif" font-size="14.00">activities</text>
</g>
<!-- Region -->
<g id="node12" class="node"><title>Region</title>
<ellipse fill="none" stroke="black" cx="419" cy="-559" rx="36.096" ry="18"/>
<text text-anchor="middle" x="419" y="-555.3" font-family="Times,serif" font-size="14.00">Region</text>
</g>
<!-- Region&#45;&gt;City -->
<g id="edge12" class="edge"><title>Region&#45;&gt;City</title>
<path fill="none" stroke="#898830" d="M419,-532.562C419,-520.078 419,-505.025 419,-492.299"/>
<ellipse fill="none" stroke="#898830" cx="419" cy="-536.942" rx="4" ry="4"/>
<polygon fill="#898830" stroke="#898830" points="419,-492.264 423.5,-482.264 419,-487.264 419,-482.264 419,-482.264 419,-482.264 419,-487.264 414.5,-482.264 419,-492.264 419,-492.264"/>
</g>
<!-- Region&#45;&gt;Evento -->
<g id="edge14" class="edge"><title>Region&#45;&gt;Evento</title>
<path fill="none" stroke="#aeeb9b" d="M397.413,-536.646C390.156,-530.476 381.685,-524.265 373,-520 304.284,-486.258 259.529,-535.73 205,-482 188.316,-465.561 183.444,-438.795 182.373,-418.537"/>
<ellipse fill="none" stroke="#aeeb9b" cx="400.719" cy="-539.585" rx="4.00002" ry="4.00002"/>
<polygon fill="#aeeb9b" stroke="#aeeb9b" points="182.368,-418.34 186.615,-408.23 182.242,-413.342 182.117,-408.343 182.117,-408.343 182.117,-408.343 182.242,-413.342 177.618,-408.456 182.368,-418.34 182.368,-418.34"/>
</g>
<!-- Region&#45;&gt;User -->
<g id="edge13" class="edge"><title>Region&#45;&gt;User</title>
<path fill="none" stroke="#0c9344" d="M431.907,-534.05C448.786,-502.731 478.221,-448.111 495.424,-416.191"/>
<ellipse fill="none" stroke="#0c9344" cx="429.856" cy="-537.856" rx="4.00002" ry="4.00002"/>
<polygon fill="#0c9344" stroke="#0c9344" points="495.598,-415.868 504.304,-409.2 497.97,-411.466 500.342,-407.065 500.342,-407.065 500.342,-407.065 497.97,-411.466 496.381,-404.93 495.598,-415.868 495.598,-415.868"/>
</g>
<!-- PublicacionCarpool -->
<g id="node13" class="node"><title>PublicacionCarpool</title>
<ellipse fill="none" stroke="black" cx="327" cy="-194" rx="80.389" ry="18"/>
<text text-anchor="middle" x="327" y="-190.3" font-family="Times,serif" font-size="14.00">PublicacionCarpool</text>
</g>
<!-- PublicacionCarpool&#45;&gt;TransaccionCarpool -->
<g id="edge15" class="edge"><title>PublicacionCarpool&#45;&gt;TransaccionCarpool</title>
<path fill="none" stroke="#3463bf" d="M390.091,-177.525C400.478,-172.669 410.337,-166.312 418,-158 424.049,-151.439 427.668,-142.56 429.83,-134.048"/>
<ellipse fill="none" stroke="#3463bf" cx="386.134" cy="-179.225" rx="4.00002" ry="4.00002"/>
<polygon fill="#3463bf" stroke="#3463bf" points="429.872,-133.84 436.225,-124.902 430.841,-128.935 431.811,-124.03 431.811,-124.03 431.811,-124.03 430.841,-128.935 427.396,-123.157 429.872,-133.84 429.872,-133.84"/>
</g>
<!-- PublicacionCarpool&#45;&gt;Comment -->
<g id="edge16" class="edge"><title>PublicacionCarpool&#45;&gt;Comment</title>
<path fill="none" stroke="#b6f141" d="M286.001,-174.245C253.589,-159.418 208.69,-138.879 177.065,-124.413"/>
<ellipse fill="none" stroke="#b6f141" cx="289.752" cy="-175.961" rx="4.00002" ry="4.00002"/>
<polygon fill="#b6f141" stroke="#b6f141" points="176.799,-124.291 169.577,-116.039 172.252,-122.211 167.705,-120.131 167.705,-120.131 167.705,-120.131 172.252,-122.211 165.833,-124.223 176.799,-124.291 176.799,-124.291"/>
<text text-anchor="middle" x="298" y="-146.3" font-family="Times,serif" font-size="14.00">comment_threads</text>
</g>
<!-- Oferta -->
<g id="node14" class="node"><title>Oferta</title>
<ellipse fill="none" stroke="black" cx="33" cy="-194" rx="33.2209" ry="18"/>
<text text-anchor="middle" x="33" y="-190.3" font-family="Times,serif" font-size="14.00">Oferta</text>
</g>
<!-- Oferta&#45;&gt;Pasaje -->
<g id="edge17" class="edge"><title>Oferta&#45;&gt;Pasaje</title>
<path fill="none" stroke="#156368" d="M34.4919,-167.339C35.1015,-156.855 35.8071,-144.718 36.4249,-134.091"/>
<ellipse fill="none" stroke="#156368" cx="34.244" cy="-171.603" rx="4" ry="4"/>
<polygon fill="#156368" stroke="#156368" points="36.4262,-134.067 41.4992,-124.345 36.7165,-129.076 37.0067,-124.084 37.0067,-124.084 37.0067,-124.084 36.7165,-129.076 32.5143,-123.823 36.4262,-134.067 36.4262,-134.067"/>
</g>
<!-- User&#45;&gt;Ranking -->
<g id="edge24" class="edge"><title>User&#45;&gt;Ranking</title>
<path fill="none" stroke="#49a8d6" d="M544.407,-387.014C570.962,-383.751 606.613,-375.356 630,-354 652.181,-333.745 662.503,-300.032 667.212,-276.281"/>
<ellipse fill="none" stroke="#49a8d6" cx="540.11" cy="-387.475" rx="4" ry="4"/>
<polygon fill="#49a8d6" stroke="#49a8d6" points="667.262,-276 673.435,-266.937 668.133,-271.077 669.004,-266.153 669.004,-266.153 669.004,-266.153 668.133,-271.077 664.573,-265.369 667.262,-276 667.262,-276"/>
</g>
<!-- User&#45;&gt;RedSocial -->
<g id="edge20" class="edge"><title>User&#45;&gt;RedSocial</title>
<path fill="none" stroke="#1b17cd" d="M543.96,-386.135C577.274,-382.314 628.123,-373.584 668,-354 682.158,-347.047 695.83,-336.14 706.629,-326.194"/>
<ellipse fill="none" stroke="#1b17cd" cx="539.862" cy="-386.576" rx="4" ry="4"/>
<polygon fill="#1b17cd" stroke="#1b17cd" points="706.724,-326.104 717.061,-322.445 710.337,-322.648 713.951,-319.193 713.951,-319.193 713.951,-319.193 710.337,-322.648 710.841,-315.94 706.724,-326.104 706.724,-326.104"/>
</g>
<!-- User&#45;&gt;TransaccionCarpool -->
<g id="edge21" class="edge"><title>User&#45;&gt;TransaccionCarpool</title>
<path fill="none" stroke="#0d4f86" d="M537.958,-375.469C558.747,-363.977 585.11,-345.306 597,-320 603.804,-305.519 602.84,-298.896 597,-284 570.519,-216.456 504.813,-159.296 465.072,-129.381"/>
<ellipse fill="none" stroke="#0d4f86" cx="534.403" cy="-377.357" rx="4.00002" ry="4.00002"/>
<polygon fill="#0d4f86" stroke="#0d4f86" points="465.049,-129.364 459.685,-119.799 461.029,-126.39 457.009,-123.417 457.009,-123.417 457.009,-123.417 461.029,-126.39 454.333,-127.035 465.049,-129.364 465.049,-129.364"/>
</g>
<!-- Gusto -->
<g id="node16" class="node"><title>Gusto</title>
<ellipse fill="none" stroke="black" cx="826" cy="-302" rx="31.2735" ry="18"/>
<text text-anchor="middle" x="826" y="-298.3" font-family="Times,serif" font-size="14.00">Gusto</text>
</g>
<!-- User&#45;&gt;Gusto -->
<g id="edge23" class="edge"><title>User&#45;&gt;Gusto</title>
<path fill="none" stroke="#fb72a7" d="M543.569,-384.216C580.853,-378.643 641.761,-368.334 693,-354 734.579,-342.369 743.764,-335.656 784,-320 786.525,-319.018 789.13,-317.992 791.749,-316.952"/>
<ellipse fill="none" stroke="#fb72a7" cx="539.486" cy="-384.817" rx="4.00001" ry="4.00001"/>
<polygon fill="#fb72a7" stroke="#fb72a7" points="791.887,-316.897 802.843,-317.357 796.529,-315.038 801.17,-313.179 801.17,-313.179 801.17,-313.179 796.529,-315.038 799.498,-309.002 791.887,-316.897 791.887,-316.897"/>
</g>
<!-- User&#45;&gt;UserEvento -->
<g id="edge22" class="edge"><title>User&#45;&gt;UserEvento</title>
<path fill="none" stroke="#b82af8" d="M476.201,-381.023C424.724,-368.439 321.865,-343.038 235,-320 230.935,-318.922 226.724,-317.787 222.499,-316.635"/>
<ellipse fill="none" stroke="#b82af8" cx="480.126" cy="-381.981" rx="4.00001" ry="4.00001"/>
<polygon fill="#b82af8" stroke="#b82af8" points="222.326,-316.588 213.876,-309.599 217.505,-315.263 212.684,-313.938 212.684,-313.938 212.684,-313.938 217.505,-315.263 211.491,-318.277 222.326,-316.588 222.326,-316.588"/>
</g>
<!-- Mailboxer::Message -->
<g id="node22" class="node"><title>Mailboxer::Message</title>
<ellipse fill="none" stroke="black" cx="328" cy="-302" rx="83.2649" ry="18"/>
<text text-anchor="middle" x="328" y="-298.3" font-family="Times,serif" font-size="14.00">Mailboxer::Message</text>
</g>
<!-- User&#45;&gt;Mailboxer::Message -->
<g id="edge18" class="edge"><title>User&#45;&gt;Mailboxer::Message</title>
<path fill="none" stroke="#8bf33f" d="M480.111,-375.274C450.372,-361.143 403.732,-338.983 369.934,-322.924"/>
<ellipse fill="none" stroke="#8bf33f" cx="483.913" cy="-377.08" rx="4.00002" ry="4.00002"/>
<polygon fill="#8bf33f" stroke="#8bf33f" points="369.799,-322.86 362.698,-314.504 365.282,-320.714 360.766,-318.569 360.766,-318.569 360.766,-318.569 365.282,-320.714 358.835,-322.633 369.799,-322.86 369.799,-322.86"/>
<text text-anchor="middle" x="460" y="-342.3" font-family="Times,serif" font-size="14.00">messages</text>
</g>
<!-- Mailboxer::Receipt -->
<g id="node23" class="node"><title>Mailboxer::Receipt</title>
<ellipse fill="none" stroke="black" cx="509" cy="-302" rx="78.9404" ry="18"/>
<text text-anchor="middle" x="509" y="-298.3" font-family="Times,serif" font-size="14.00">Mailboxer::Receipt</text>
</g>
<!-- User&#45;&gt;Mailboxer::Receipt -->
<g id="edge19" class="edge"><title>User&#45;&gt;Mailboxer::Receipt</title>
<path fill="none" stroke="#7dfbd4" d="M509,-363.339C509,-352.855 509,-340.718 509,-330.091"/>
<ellipse fill="none" stroke="#7dfbd4" cx="509" cy="-367.597" rx="4" ry="4"/>
<polygon fill="#7dfbd4" stroke="#7dfbd4" points="509,-330.084 513.5,-320.084 509,-325.084 509,-320.084 509,-320.084 509,-320.084 509,-325.084 504.5,-320.084 509,-330.084 509,-330.084"/>
<text text-anchor="middle" x="530.5" y="-342.3" font-family="Times,serif" font-size="14.00">receipts</text>
</g>
<!-- UserEvento&#45;&gt;Reserva -->
<g id="edge26" class="edge"><title>UserEvento&#45;&gt;Reserva</title>
<path fill="none" stroke="#e00853" d="M188.942,-277.127C190.612,-273.513 192.05,-269.74 193,-266 196.8,-251.037 195.933,-233.751 194.052,-219.982"/>
<ellipse fill="none" stroke="#e00853" cx="187.104" cy="-280.702" rx="4.00002" ry="4.00002"/>
<ellipse fill="#e00853" stroke="#e00853" cx="193.404" cy="-215.867" rx="4.00001" ry="4.00001"/>
</g>
<!-- UserEvento&#45;&gt;PublicacionCarpool -->
<g id="edge25" class="edge"><title>UserEvento&#45;&gt;PublicacionCarpool</title>
<path fill="none" stroke="#73453b" d="M202.941,-280.949C229.791,-262.348 269.595,-234.771 296.831,-215.901"/>
<ellipse fill="none" stroke="#73453b" cx="199.536" cy="-283.309" rx="4.00002" ry="4.00002"/>
<ellipse fill="#73453b" stroke="#73453b" cx="300.181" cy="-213.581" rx="4.00002" ry="4.00002"/>
</g>
<!-- Comment&#45;&gt;Comment -->
<g id="edge28" class="edge"><title>Comment&#45;&gt;Comment</title>
<path fill="none" stroke="#691fec" d="M188.4,-113.731C197.012,-112.698 203,-110.121 203,-106 203,-102.254 198.051,-99.7832 190.681,-98.5887"/>
<ellipse fill="none" stroke="#691fec" cx="184.234" cy="-113.992" rx="4" ry="4"/>
<polygon fill="#691fec" stroke="#691fec" points="190.21,-98.5513 180.599,-93.2722 185.226,-98.1547 180.242,-97.7581 180.242,-97.7581 180.242,-97.7581 185.226,-98.1547 179.885,-102.244 190.21,-98.5513 190.21,-98.5513"/>
<text text-anchor="middle" x="225.5" y="-102.3" font-family="Times,serif" font-size="14.00">children</text>
</g>
<!-- Comment&#45;&gt;PublicActivity::Activity -->
<g id="edge27" class="edge"><title>Comment&#45;&gt;PublicActivity::Activity</title>
<path fill="none" stroke="#df9e76" d="M166.881,-85.2929C182.316,-74.9994 202.145,-62.7591 221,-54 235.443,-47.2901 251.528,-41.3292 266.78,-36.3128"/>
<ellipse fill="none" stroke="#df9e76" cx="163.431" cy="-87.6254" rx="4.00002" ry="4.00002"/>
<polygon fill="#df9e76" stroke="#df9e76" points="267.131,-36.2005 278.027,-37.4405 271.894,-34.6774 276.656,-33.1544 276.656,-33.1544 276.656,-33.1544 271.894,-34.6774 275.285,-28.8682 267.131,-36.2005 267.131,-36.2005"/>
<text text-anchor="middle" x="245.5" y="-58.3" font-family="Times,serif" font-size="14.00">activities</text>
</g>
<!-- Category -->
<g id="node19" class="node"><title>Category</title>
<ellipse fill="none" stroke="black" cx="744" cy="-464" rx="42.3456" ry="18"/>
<text text-anchor="middle" x="744" y="-460.3" font-family="Times,serif" font-size="14.00">Category</text>
</g>
<!-- Category&#45;&gt;Evento -->
<g id="edge30" class="edge"><title>Category&#45;&gt;Evento</title>
<path fill="none" stroke="#5f872f" d="M695.604,-456.789C587.983,-442.976 330.199,-409.892 226.903,-396.635"/>
<ellipse fill="none" stroke="#5f872f" cx="699.687" cy="-457.313" rx="4.00001" ry="4.00001"/>
<polygon fill="#5f872f" stroke="#5f872f" points="226.739,-396.614 217.393,-390.877 221.779,-395.977 216.82,-395.341 216.82,-395.341 216.82,-395.341 221.779,-395.977 216.247,-399.804 226.739,-396.614 226.739,-396.614"/>
</g>
<!-- Category&#45;&gt;Gusto -->
<g id="edge29" class="edge"><title>Category&#45;&gt;Gusto</title>
<path fill="none" stroke="#ad2787" d="M756.412,-438.781C771.622,-409.104 797.281,-359.038 812.828,-328.701"/>
<ellipse fill="none" stroke="#ad2787" cx="754.445" cy="-442.62" rx="4.00002" ry="4.00002"/>
<polygon fill="#ad2787" stroke="#ad2787" points="812.934,-328.494 821.5,-321.647 815.215,-324.045 817.495,-319.595 817.495,-319.595 817.495,-319.595 815.215,-324.045 813.49,-317.543 812.934,-328.494 812.934,-328.494"/>
</g>
<!-- Route -->
<g id="node20" class="node"><title>Route</title>
<ellipse fill="none" stroke="black" cx="39" cy="-390" rx="31.2735" ry="18"/>
<text text-anchor="middle" x="39" y="-386.3" font-family="Times,serif" font-size="14.00">Route</text>
</g>
<!-- Route&#45;&gt;Bus -->
<g id="edge31" class="edge"><title>Route&#45;&gt;Bus</title>
<path fill="none" stroke="#13b80c" d="M39,-363.339C39,-352.855 39,-340.718 39,-330.091"/>
<ellipse fill="none" stroke="#13b80c" cx="39" cy="-367.597" rx="4" ry="4"/>
<polygon fill="#13b80c" stroke="#13b80c" points="39.0001,-330.084 43.5,-320.084 39,-325.084 39,-320.084 39,-320.084 39,-320.084 39,-325.084 34.5,-320.084 39.0001,-330.084 39.0001,-330.084"/>
</g>
</g>
</svg>
