<?xml version="1.0" encoding="UTF-8" standalone="no"?>
<!DOCTYPE svg PUBLIC "-//W3C//DTD SVG 1.1//EN"
 "http://www.w3.org/Graphics/SVG/1.1/DTD/svg11.dtd">
<!-- Generated by graphviz version 2.36.0 (20140111.2315)
 -->
<!-- Title: models_diagram Pages: 1 -->
<svg width="513pt" height="1278pt"
 viewBox="0.00 0.00 512.71 1278.00" xmlns="http://www.w3.org/2000/svg" xmlns:xlink="http://www.w3.org/1999/xlink">
<g id="graph0" class="graph" transform="scale(1 1) rotate(0) translate(4 1274)">
<title>models_diagram</title>
<polygon fill="white" stroke="none" points="-4,4 -4,-1274 508.709,-1274 508.709,4 -4,4"/>
<!-- _diagram_info -->
<g id="node1" class="node"><title>_diagram_info</title>
<text text-anchor="start" x="7" y="-1255.6" font-family="Times,serif" font-size="13.00">Models diagram</text>
<text text-anchor="start" x="7" y="-1241.6" font-family="Times,serif" font-size="13.00">Date: Jul 16 2014 &#45; 00:57</text>
<text text-anchor="start" x="7" y="-1227.6" font-family="Times,serif" font-size="13.00">Migration version: 20140716032004</text>
<text text-anchor="start" x="7" y="-1213.6" font-family="Times,serif" font-size="13.00">Generated by RailRoady 1.1.1</text>
<text text-anchor="start" x="7" y="-1199.6" font-family="Times,serif" font-size="13.00">http://railroady.prestonlee.com</text>
</g>
<!-- RedSocial -->
<g id="node2" class="node"><title>RedSocial</title>
<path fill="none" stroke="black" d="M104.5,-427C104.5,-427 211.5,-427 211.5,-427 217.5,-427 223.5,-433 223.5,-439 223.5,-439 223.5,-551 223.5,-551 223.5,-557 217.5,-563 211.5,-563 211.5,-563 104.5,-563 104.5,-563 98.5,-563 92.5,-557 92.5,-551 92.5,-551 92.5,-439 92.5,-439 92.5,-433 98.5,-427 104.5,-427"/>
<text text-anchor="middle" x="158" y="-547.8" font-family="Times,serif" font-size="14.00">RedSocial</text>
<polyline fill="none" stroke="black" points="92.5,-540 223.5,-540 "/>
<text text-anchor="start" x="100.5" y="-524.8" font-family="Times,serif" font-size="14.00">id :integer</text>
<text text-anchor="start" x="100.5" y="-509.8" font-family="Times,serif" font-size="14.00">tipo :integer</text>
<text text-anchor="start" x="100.5" y="-494.8" font-family="Times,serif" font-size="14.00">user_id :integer</text>
<text text-anchor="start" x="100.5" y="-479.8" font-family="Times,serif" font-size="14.00">provider :string</text>
<text text-anchor="start" x="100.5" y="-464.8" font-family="Times,serif" font-size="14.00">uid :string</text>
<text text-anchor="start" x="100.5" y="-449.8" font-family="Times,serif" font-size="14.00">created_at :datetime</text>
<text text-anchor="start" x="100.5" y="-434.8" font-family="Times,serif" font-size="14.00">updated_at :datetime</text>
</g>
<!-- Evento -->
<g id="node3" class="node"><title>Evento</title>
<path fill="none" stroke="black" d="M258.5,-1002.5C258.5,-1002.5 365.5,-1002.5 365.5,-1002.5 371.5,-1002.5 377.5,-1008.5 377.5,-1014.5 377.5,-1014.5 377.5,-1141.5 377.5,-1141.5 377.5,-1147.5 371.5,-1153.5 365.5,-1153.5 365.5,-1153.5 258.5,-1153.5 258.5,-1153.5 252.5,-1153.5 246.5,-1147.5 246.5,-1141.5 246.5,-1141.5 246.5,-1014.5 246.5,-1014.5 246.5,-1008.5 252.5,-1002.5 258.5,-1002.5"/>
<text text-anchor="middle" x="312" y="-1138.3" font-family="Times,serif" font-size="14.00">Evento</text>
<polyline fill="none" stroke="black" points="246.5,-1130.5 377.5,-1130.5 "/>
<text text-anchor="start" x="254.5" y="-1115.3" font-family="Times,serif" font-size="14.00">id :integer</text>
<text text-anchor="start" x="254.5" y="-1100.3" font-family="Times,serif" font-size="14.00">nombre :string</text>
<text text-anchor="start" x="254.5" y="-1085.3" font-family="Times,serif" font-size="14.00">desc :string</text>
<text text-anchor="start" x="254.5" y="-1070.3" font-family="Times,serif" font-size="14.00">fecha_inicio :date</text>
<text text-anchor="start" x="254.5" y="-1055.3" font-family="Times,serif" font-size="14.00">fecha_termino :date</text>
<text text-anchor="start" x="254.5" y="-1040.3" font-family="Times,serif" font-size="14.00">imagen :string</text>
<text text-anchor="start" x="254.5" y="-1025.3" font-family="Times,serif" font-size="14.00">created_at :datetime</text>
<text text-anchor="start" x="254.5" y="-1010.3" font-family="Times,serif" font-size="14.00">updated_at :datetime</text>
</g>
<!-- User -->
<g id="node7" class="node"><title>User</title>
<path fill="none" stroke="black" d="M152,-602.5C152,-602.5 328,-602.5 328,-602.5 334,-602.5 340,-608.5 340,-614.5 340,-614.5 340,-951.5 340,-951.5 340,-957.5 334,-963.5 328,-963.5 328,-963.5 152,-963.5 152,-963.5 146,-963.5 140,-957.5 140,-951.5 140,-951.5 140,-614.5 140,-614.5 140,-608.5 146,-602.5 152,-602.5"/>
<text text-anchor="middle" x="240" y="-948.3" font-family="Times,serif" font-size="14.00">User</text>
<polyline fill="none" stroke="black" points="140,-940.5 340,-940.5 "/>
<text text-anchor="start" x="148" y="-925.3" font-family="Times,serif" font-size="14.00">id :integer</text>
<text text-anchor="start" x="148" y="-910.3" font-family="Times,serif" font-size="14.00">email :string</text>
<text text-anchor="start" x="148" y="-895.3" font-family="Times,serif" font-size="14.00">encrypted_password :string</text>
<text text-anchor="start" x="148" y="-880.3" font-family="Times,serif" font-size="14.00">reset_password_token :string</text>
<text text-anchor="start" x="148" y="-865.3" font-family="Times,serif" font-size="14.00">reset_password_sent_at :datetime</text>
<text text-anchor="start" x="148" y="-850.3" font-family="Times,serif" font-size="14.00">remember_created_at :datetime</text>
<text text-anchor="start" x="148" y="-835.3" font-family="Times,serif" font-size="14.00">sign_in_count :integer</text>
<text text-anchor="start" x="148" y="-820.3" font-family="Times,serif" font-size="14.00">current_sign_in_at :datetime</text>
<text text-anchor="start" x="148" y="-805.3" font-family="Times,serif" font-size="14.00">last_sign_in_at :datetime</text>
<text text-anchor="start" x="148" y="-790.3" font-family="Times,serif" font-size="14.00">current_sign_in_ip :string</text>
<text text-anchor="start" x="148" y="-775.3" font-family="Times,serif" font-size="14.00">last_sign_in_ip :string</text>
<text text-anchor="start" x="148" y="-760.3" font-family="Times,serif" font-size="14.00">created_at :datetime</text>
<text text-anchor="start" x="148" y="-745.3" font-family="Times,serif" font-size="14.00">updated_at :datetime</text>
<text text-anchor="start" x="148" y="-730.3" font-family="Times,serif" font-size="14.00">nombre :string</text>
<text text-anchor="start" x="148" y="-715.3" font-family="Times,serif" font-size="14.00">ciudad :string</text>
<text text-anchor="start" x="148" y="-700.3" font-family="Times,serif" font-size="14.00">region :string</text>
<text text-anchor="start" x="148" y="-685.3" font-family="Times,serif" font-size="14.00">telefono :string</text>
<text text-anchor="start" x="148" y="-670.3" font-family="Times,serif" font-size="14.00">cumple :date</text>
<text text-anchor="start" x="148" y="-655.3" font-family="Times,serif" font-size="14.00">rut :string</text>
<text text-anchor="start" x="148" y="-640.3" font-family="Times,serif" font-size="14.00">dv :string</text>
<text text-anchor="start" x="148" y="-625.3" font-family="Times,serif" font-size="14.00">direccion :text</text>
<text text-anchor="start" x="148" y="-610.3" font-family="Times,serif" font-size="14.00">foto :string</text>
</g>
<!-- Evento&#45;&gt;User -->
<g id="edge3" class="edge"><title>Evento&#45;&gt;User</title>
<path fill="none" stroke="#8452e9" d="M291.211,-992.4C289.714,-986.307 288.173,-980.039 286.604,-973.651"/>
<polygon fill="#8452e9" stroke="#8452e9" points="291.259,-992.595 289.275,-1003.38 292.452,-997.45 293.645,-1002.31 293.645,-1002.31 293.645,-1002.31 292.452,-997.45 298.015,-1001.23 291.259,-992.595 291.259,-992.595"/>
<polygon fill="#8452e9" stroke="#8452e9" points="286.501,-973.233 288.485,-962.448 285.308,-968.378 284.115,-963.522 284.115,-963.522 284.115,-963.522 285.308,-968.378 279.745,-964.596 286.501,-973.233 286.501,-973.233"/>
</g>
<!-- UserEvento -->
<g id="node8" class="node"><title>UserEvento</title>
<path fill="none" stroke="black" d="M312.5,-464.5C312.5,-464.5 403.5,-464.5 403.5,-464.5 409.5,-464.5 415.5,-470.5 415.5,-476.5 415.5,-476.5 415.5,-513.5 415.5,-513.5 415.5,-519.5 409.5,-525.5 403.5,-525.5 403.5,-525.5 312.5,-525.5 312.5,-525.5 306.5,-525.5 300.5,-519.5 300.5,-513.5 300.5,-513.5 300.5,-476.5 300.5,-476.5 300.5,-470.5 306.5,-464.5 312.5,-464.5"/>
<text text-anchor="middle" x="358" y="-510.3" font-family="Times,serif" font-size="14.00">UserEvento</text>
<polyline fill="none" stroke="black" points="300.5,-502.5 415.5,-502.5 "/>
<text text-anchor="start" x="308.5" y="-487.3" font-family="Times,serif" font-size="14.00">user_id :integer</text>
<text text-anchor="start" x="308.5" y="-472.3" font-family="Times,serif" font-size="14.00">evento_id :integer</text>
</g>
<!-- Evento&#45;&gt;UserEvento -->
<g id="edge2" class="edge"><title>Evento&#45;&gt;UserEvento</title>
<path fill="none" stroke="#dfcab5" d="M342.069,-994.648C344.872,-984.439 347.296,-974.056 349,-964 375.535,-807.38 366.795,-617.079 361.179,-535.848"/>
<ellipse fill="none" stroke="#dfcab5" cx="340.953" cy="-998.567" rx="4.00001" ry="4.00001"/>
<polygon fill="#dfcab5" stroke="#dfcab5" points="361.158,-535.553 364.933,-525.258 360.801,-530.566 360.444,-525.579 360.444,-525.579 360.444,-525.579 360.801,-530.566 355.956,-525.9 361.158,-535.553 361.158,-535.553"/>
</g>
<!-- Pasaje -->
<g id="node4" class="node"><title>Pasaje</title>
<path fill="none" stroke="black" d="M181,-213.5C181,-213.5 301,-213.5 301,-213.5 307,-213.5 313,-219.5 313,-225.5 313,-225.5 313,-352.5 313,-352.5 313,-358.5 307,-364.5 301,-364.5 301,-364.5 181,-364.5 181,-364.5 175,-364.5 169,-358.5 169,-352.5 169,-352.5 169,-225.5 169,-225.5 169,-219.5 175,-213.5 181,-213.5"/>
<text text-anchor="middle" x="241" y="-349.3" font-family="Times,serif" font-size="14.00">Pasaje</text>
<polyline fill="none" stroke="black" points="169,-341.5 313,-341.5 "/>
<text text-anchor="start" x="177" y="-326.3" font-family="Times,serif" font-size="14.00">id :integer</text>
<text text-anchor="start" x="177" y="-311.3" font-family="Times,serif" font-size="14.00">user_evento_id :integer</text>
<text text-anchor="start" x="177" y="-296.3" font-family="Times,serif" font-size="14.00">oferta_id :integer</text>
<text text-anchor="start" x="177" y="-281.3" font-family="Times,serif" font-size="14.00">precio :integer</text>
<text text-anchor="start" x="177" y="-266.3" font-family="Times,serif" font-size="14.00">cantidad :integer</text>
<text text-anchor="start" x="177" y="-251.3" font-family="Times,serif" font-size="14.00">codigo :string</text>
<text text-anchor="start" x="177" y="-236.3" font-family="Times,serif" font-size="14.00">created_at :datetime</text>
<text text-anchor="start" x="177" y="-221.3" font-family="Times,serif" font-size="14.00">updated_at :datetime</text>
</g>
<!-- Oferta -->
<g id="node6" class="node"><title>Oferta</title>
<path fill="none" stroke="black" d="M214,-1C214,-1 334,-1 334,-1 340,-1 346,-7 346,-13 346,-13 346,-125 346,-125 346,-131 340,-137 334,-137 334,-137 214,-137 214,-137 208,-137 202,-131 202,-125 202,-125 202,-13 202,-13 202,-7 208,-1 214,-1"/>
<text text-anchor="middle" x="274" y="-121.8" font-family="Times,serif" font-size="14.00">Oferta</text>
<polyline fill="none" stroke="black" points="202,-114 346,-114 "/>
<text text-anchor="start" x="210" y="-98.8" font-family="Times,serif" font-size="14.00">id :integer</text>
<text text-anchor="start" x="210" y="-83.8" font-family="Times,serif" font-size="14.00">nombre :string</text>
<text text-anchor="start" x="210" y="-68.8" font-family="Times,serif" font-size="14.00">desc :string</text>
<text text-anchor="start" x="210" y="-53.8" font-family="Times,serif" font-size="14.00">porcentaje :integer</text>
<text text-anchor="start" x="210" y="-38.8" font-family="Times,serif" font-size="14.00">mod_cantidad :boolean</text>
<text text-anchor="start" x="210" y="-23.8" font-family="Times,serif" font-size="14.00">created_at :datetime</text>
<text text-anchor="start" x="210" y="-8.8" font-family="Times,serif" font-size="14.00">updated_at :datetime</text>
</g>
<!-- Pasaje&#45;&gt;Oferta -->
<g id="edge5" class="edge"><title>Pasaje&#45;&gt;Oferta</title>
<path fill="none" stroke="#2e97f7" d="M253.548,-205.107C256.515,-185.507 259.663,-164.71 262.577,-145.459"/>
<ellipse fill="none" stroke="#2e97f7" cx="252.909" cy="-209.327" rx="4.00001" ry="4.00001"/>
<ellipse fill="#2e97f7" stroke="#2e97f7" cx="263.212" cy="-141.266" rx="4.00001" ry="4.00001"/>
<text text-anchor="middle" x="276" y="-160.3" font-family="Times,serif" font-size="14.00">oferta</text>
</g>
<!-- PublicacionCarpool -->
<g id="node5" class="node"><title>PublicacionCarpool</title>
<path fill="none" stroke="black" d="M343,-191C343,-191 463,-191 463,-191 469,-191 475,-197 475,-203 475,-203 475,-375 475,-375 475,-381 469,-387 463,-387 463,-387 343,-387 343,-387 337,-387 331,-381 331,-375 331,-375 331,-203 331,-203 331,-197 337,-191 343,-191"/>
<text text-anchor="middle" x="403" y="-371.8" font-family="Times,serif" font-size="14.00">PublicacionCarpool</text>
<polyline fill="none" stroke="black" points="331,-364 475,-364 "/>
<text text-anchor="start" x="339" y="-348.8" font-family="Times,serif" font-size="14.00">id :integer</text>
<text text-anchor="start" x="339" y="-333.8" font-family="Times,serif" font-size="14.00">user_evento_id :integer</text>
<text text-anchor="start" x="339" y="-318.8" font-family="Times,serif" font-size="14.00">fecha :date</text>
<text text-anchor="start" x="339" y="-303.8" font-family="Times,serif" font-size="14.00">descripcion :text</text>
<text text-anchor="start" x="339" y="-288.8" font-family="Times,serif" font-size="14.00">precio :integer</text>
<text text-anchor="start" x="339" y="-273.8" font-family="Times,serif" font-size="14.00">hora_desde :time</text>
<text text-anchor="start" x="339" y="-258.8" font-family="Times,serif" font-size="14.00">desde :string</text>
<text text-anchor="start" x="339" y="-243.8" font-family="Times,serif" font-size="14.00">hora_hasta :time</text>
<text text-anchor="start" x="339" y="-228.8" font-family="Times,serif" font-size="14.00">hasta :time</text>
<text text-anchor="start" x="339" y="-213.8" font-family="Times,serif" font-size="14.00">created_at :datetime</text>
<text text-anchor="start" x="339" y="-198.8" font-family="Times,serif" font-size="14.00">updated_at :datetime</text>
</g>
<!-- Oferta&#45;&gt;Pasaje -->
<g id="edge8" class="edge"><title>Oferta&#45;&gt;Pasaje</title>
<path fill="none" stroke="#ac6449" d="M256.849,-145.358C256.19,-148.949 255.569,-152.51 255,-156 252.522,-171.206 250.383,-187.473 248.576,-203.209"/>
<ellipse fill="none" stroke="#ac6449" cx="257.602" cy="-141.394" rx="4.00001" ry="4.00001"/>
<polygon fill="#ac6449" stroke="#ac6449" points="248.541,-203.518 242.963,-212.959 247.989,-208.487 247.436,-213.456 247.436,-213.456 247.436,-213.456 247.989,-208.487 251.908,-213.954 248.541,-203.518 248.541,-203.518"/>
</g>
<!-- User&#45;&gt;RedSocial -->
<g id="edge10" class="edge"><title>User&#45;&gt;RedSocial</title>
<path fill="none" stroke="#083095" d="M186.323,-594.786C184.194,-587.361 182.116,-580.112 180.114,-573.131"/>
<ellipse fill="none" stroke="#083095" cx="187.431" cy="-598.651" rx="4.00001" ry="4.00001"/>
<polygon fill="#083095" stroke="#083095" points="179.996,-572.718 181.566,-561.865 178.618,-567.911 177.24,-563.105 177.24,-563.105 177.24,-563.105 178.618,-567.911 172.914,-564.345 179.996,-572.718 179.996,-572.718"/>
</g>
<!-- User&#45;&gt;Pasaje -->
<g id="edge12" class="edge"><title>User&#45;&gt;Pasaje</title>
<path fill="none" stroke="#f8a69e" d="M240.386,-592.138C240.539,-517.003 240.706,-434.486 240.828,-374.7"/>
<polygon fill="#f8a69e" stroke="#f8a69e" points="240.386,-592.288 235.865,-602.279 240.375,-597.288 240.365,-602.288 240.365,-602.288 240.365,-602.288 240.375,-597.288 244.865,-602.297 240.386,-592.288 240.386,-592.288"/>
<polygon fill="#f8a69e" stroke="#f8a69e" points="240.828,-374.558 245.348,-364.567 240.838,-369.558 240.848,-364.558 240.848,-364.558 240.848,-364.558 240.838,-369.558 236.348,-364.549 240.828,-374.558 240.828,-374.558"/>
</g>
<!-- User&#45;&gt;UserEvento -->
<g id="edge11" class="edge"><title>User&#45;&gt;UserEvento</title>
<path fill="none" stroke="#458e2b" d="M317.191,-594.91C326.397,-572.597 334.948,-551.871 341.82,-535.215"/>
<ellipse fill="none" stroke="#458e2b" cx="315.587" cy="-598.798" rx="4.00001" ry="4.00001"/>
<polygon fill="#458e2b" stroke="#458e2b" points="341.85,-535.142 349.824,-527.615 343.757,-530.52 345.664,-525.898 345.664,-525.898 345.664,-525.898 343.757,-530.52 341.504,-524.182 341.85,-535.142 341.85,-535.142"/>
</g>
<!-- UserEvento&#45;&gt;Pasaje -->
<g id="edge14" class="edge"><title>UserEvento&#45;&gt;Pasaje</title>
<path fill="none" stroke="#4f6f8d" d="M336.972,-457.336C323.582,-433.989 305.669,-402.757 288.946,-373.599"/>
<ellipse fill="none" stroke="#4f6f8d" cx="338.997" cy="-460.867" rx="4.00002" ry="4.00002"/>
<polygon fill="#4f6f8d" stroke="#4f6f8d" points="288.776,-373.302 287.705,-362.389 286.289,-368.965 283.801,-364.628 283.801,-364.628 283.801,-364.628 286.289,-368.965 279.898,-366.866 288.776,-373.302 288.776,-373.302"/>
</g>
<!-- UserEvento&#45;&gt;PublicacionCarpool -->
<g id="edge15" class="edge"><title>UserEvento&#45;&gt;PublicacionCarpool</title>
<path fill="none" stroke="#0cacac" d="M366.323,-456.267C370.079,-439.241 374.724,-418.184 379.432,-396.843"/>
<ellipse fill="none" stroke="#0cacac" cx="365.405" cy="-460.431" rx="4.00001" ry="4.00001"/>
<polygon fill="#0cacac" stroke="#0cacac" points="379.442,-396.797 385.99,-388.001 380.519,-391.914 381.596,-387.031 381.596,-387.031 381.596,-387.031 380.519,-391.914 377.202,-386.062 379.442,-396.797 379.442,-396.797"/>
</g>
<!-- ActiveRecord::Base -->
<g id="node9" class="node"><title>ActiveRecord::Base</title>
<ellipse fill="none" stroke="black" cx="312" cy="-1231" rx="81.3646" ry="18"/>
<text text-anchor="middle" x="312" y="-1227.3" font-family="Times,serif" font-size="14.00">ActiveRecord::Base</text>
</g>
<!-- ActiveRecord::Base&#45;&gt;RedSocial -->
<g id="edge1" class="edge"><title>ActiveRecord::Base&#45;&gt;RedSocial</title>
<path fill="none" stroke="black" d="M281.216,-1214.04C258.088,-1200.69 227.067,-1179.73 207,-1154 151.066,-1082.28 148.199,-1053.31 131,-964 100.575,-806.014 110.988,-761.639 131,-602 132.594,-589.281 135.225,-575.9 138.235,-563.09"/>
</g>
<!-- ActiveRecord::Base&#45;&gt;Evento -->
<g id="edge4" class="edge"><title>ActiveRecord::Base&#45;&gt;Evento</title>
<path fill="none" stroke="black" d="M312,-1212.97C312,-1198.24 312,-1175.86 312,-1153.58"/>
</g>
<!-- ActiveRecord::Base&#45;&gt;Pasaje -->
<g id="edge6" class="edge"><title>ActiveRecord::Base&#45;&gt;Pasaje</title>
<path fill="none" stroke="black" d="M275.92,-1214.81C224.804,-1193.27 137.112,-1156.18 134,-1154 96.6717,-1127.82 64,-1124.6 64,-1079 64,-1079 64,-1079 64,-494 64,-426.596 119.81,-370.567 168.752,-334.391"/>
</g>
<!-- ActiveRecord::Base&#45;&gt;PublicacionCarpool -->
<g id="edge7" class="edge"><title>ActiveRecord::Base&#45;&gt;PublicacionCarpool</title>
<path fill="none" stroke="black" d="M343.426,-1214.37C366.961,-1201.2 398.359,-1180.31 418,-1154 439.104,-1125.73 444,-1114.28 444,-1079 444,-1079 444,-1079 444,-494 444,-458.688 438.022,-420.6 430.632,-387.004"/>
</g>
<!-- ActiveRecord::Base&#45;&gt;Oferta -->
<g id="edge9" class="edge"><title>ActiveRecord::Base&#45;&gt;Oferta</title>
<path fill="none" stroke="black" d="M358.236,-1216.09C414.763,-1195.88 503,-1152.55 503,-1079 503,-1079 503,-1079 503,-288 503,-243.633 509.835,-226.068 484,-190 450.501,-143.232 392.714,-112.154 346.228,-93.3656"/>
</g>
<!-- ActiveRecord::Base&#45;&gt;User -->
<g id="edge13" class="edge"><title>ActiveRecord::Base&#45;&gt;User</title>
<path fill="none" stroke="black" d="M288.361,-1213.76C270.769,-1200.13 248.123,-1178.91 238,-1154 213.995,-1094.94 208.904,-1026.06 211.669,-963.849"/>
</g>
<!-- ActiveRecord::Base&#45;&gt;UserEvento -->
<g id="edge16" class="edge"><title>ActiveRecord::Base&#45;&gt;UserEvento</title>
<path fill="none" stroke="black" d="M335.639,-1213.76C353.231,-1200.13 375.877,-1178.91 386,-1154 477.913,-927.85 397.043,-621.252 367.659,-525.685"/>
</g>
</g>
</svg>
