<?xml version="1.0" encoding="UTF-8" standalone="no"?>
<!DOCTYPE svg PUBLIC "-//W3C//DTD SVG 1.1//EN"
 "http://www.w3.org/Graphics/SVG/1.1/DTD/svg11.dtd">
<!-- Generated by graphviz version 2.36.0 (20140111.2315)
 -->
<!-- Title: models_diagram Pages: 1 -->
<svg width="622pt" height="322pt"
 viewBox="0.00 0.00 622.00 322.00" xmlns="http://www.w3.org/2000/svg" xmlns:xlink="http://www.w3.org/1999/xlink">
<g id="graph0" class="graph" transform="scale(1 1) rotate(0) translate(4 318)">
<title>models_diagram</title>
<polygon fill="white" stroke="none" points="-4,4 -4,-318 618,-318 618,4 -4,4"/>
<!-- _diagram_info -->
<g id="node1" class="node"><title>_diagram_info</title>
<text text-anchor="start" x="7" y="-299.6" font-family="Times,serif" font-size="13.00">Models diagram</text>
<text text-anchor="start" x="7" y="-285.6" font-family="Times,serif" font-size="13.00">Date: Aug 26 2014 &#45; 15:08</text>
<text text-anchor="start" x="7" y="-271.6" font-family="Times,serif" font-size="13.00">Migration version: 20140826182948</text>
<text text-anchor="start" x="7" y="-257.6" font-family="Times,serif" font-size="13.00">Generated by RailRoady 1.1.1</text>
<text text-anchor="start" x="7" y="-243.6" font-family="Times,serif" font-size="13.00">http://railroady.prestonlee.com</text>
</g>
<!-- RedSocial -->
<g id="node2" class="node"><title>RedSocial</title>
<ellipse fill="none" stroke="black" cx="156" cy="-180" rx="46.1964" ry="18"/>
<text text-anchor="middle" x="156" y="-176.3" font-family="Times,serif" font-size="14.00">RedSocial</text>
</g>
<!-- Oferta -->
<g id="node3" class="node"><title>Oferta</title>
<ellipse fill="none" stroke="black" cx="161" cy="-18" rx="33.2209" ry="18"/>
<text text-anchor="middle" x="161" y="-14.3" font-family="Times,serif" font-size="14.00">Oferta</text>
</g>
<!-- Pasaje -->
<g id="node5" class="node"><title>Pasaje</title>
<ellipse fill="none" stroke="black" cx="170" cy="-106" rx="33.2209" ry="18"/>
<text text-anchor="middle" x="170" y="-102.3" font-family="Times,serif" font-size="14.00">Pasaje</text>
</g>
<!-- Oferta&#45;&gt;Pasaje -->
<g id="edge1" class="edge"><title>Oferta&#45;&gt;Pasaje</title>
<path fill="none" stroke="#bab9f0" d="M157.289,-44.2808C156.671,-52.5226 156.615,-61.6886 158,-70 158.459,-72.7563 159.109,-75.5864 159.871,-78.3857"/>
<ellipse fill="none" stroke="#bab9f0" cx="157.705" cy="-40.0816" rx="4" ry="4"/>
<polygon fill="#bab9f0" stroke="#bab9f0" points="159.962,-78.6704 158.696,-89.563 161.473,-83.4364 162.985,-88.2025 162.985,-88.2025 162.985,-88.2025 161.473,-83.4364 167.274,-86.8419 159.962,-78.6704 159.962,-78.6704"/>
</g>
<!-- Evento -->
<g id="node4" class="node"><title>Evento</title>
<ellipse fill="none" stroke="black" cx="319" cy="-18" rx="35.6194" ry="18"/>
<text text-anchor="middle" x="319" y="-14.3" font-family="Times,serif" font-size="14.00">Evento</text>
</g>
<!-- User -->
<g id="node6" class="node"><title>User</title>
<ellipse fill="none" stroke="black" cx="258" cy="-275" rx="26.949" ry="18"/>
<text text-anchor="middle" x="258" y="-271.3" font-family="Times,serif" font-size="14.00">User</text>
</g>
<!-- Evento&#45;&gt;User -->
<g id="edge3" class="edge"><title>Evento&#45;&gt;User</title>
<path fill="none" stroke="#867540" d="M302.503,-43.8031C285.315,-71.3205 259.579,-117.703 250,-162 243.811,-190.621 247.639,-224.215 251.86,-247.092"/>
<polygon fill="#867540" stroke="#867540" points="302.595,-43.6583 311.764,-37.6427 305.282,-39.4415 307.969,-35.2246 307.969,-35.2246 307.969,-35.2246 305.282,-39.4415 304.174,-32.8066 302.595,-43.6583 302.595,-43.6583"/>
<polygon fill="#867540" stroke="#867540" points="251.899,-247.286 249.444,-257.974 252.878,-252.189 253.857,-257.093 253.857,-257.093 253.857,-257.093 252.878,-252.189 258.27,-256.211 251.899,-247.286 251.899,-247.286"/>
</g>
<!-- UserEvento -->
<g id="node7" class="node"><title>UserEvento</title>
<ellipse fill="none" stroke="black" cx="311" cy="-180" rx="51.4931" ry="18"/>
<text text-anchor="middle" x="311" y="-176.3" font-family="Times,serif" font-size="14.00">UserEvento</text>
</g>
<!-- Evento&#45;&gt;UserEvento -->
<g id="edge2" class="edge"><title>Evento&#45;&gt;UserEvento</title>
<path fill="none" stroke="#51f3bc" d="M310.558,-43.3966C306.481,-56.4522 302.04,-72.9088 300,-88 297.857,-103.856 298.423,-108.078 300,-124 300.91,-133.194 302.657,-143.127 304.495,-151.989"/>
<ellipse fill="none" stroke="#51f3bc" cx="311.796" cy="-39.5567" rx="4.00001" ry="4.00001"/>
<polygon fill="#51f3bc" stroke="#51f3bc" points="304.502,-152.025 302.254,-162.758 305.576,-156.908 306.649,-161.792 306.649,-161.792 306.649,-161.792 305.576,-156.908 311.044,-160.826 304.502,-152.025 304.502,-152.025"/>
</g>
<!-- Pasaje&#45;&gt;Oferta -->
<g id="edge4" class="edge"><title>Pasaje&#45;&gt;Oferta</title>
<path fill="none" stroke="#251fce" d="M167.358,-79.7559C166.191,-68.6025 164.821,-55.5157 163.653,-44.35"/>
<ellipse fill="none" stroke="#251fce" cx="167.806" cy="-84.0309" rx="4" ry="4"/>
<ellipse fill="#251fce" stroke="#251fce" cx="163.222" cy="-40.2282" rx="4" ry="4"/>
<text text-anchor="middle" x="182" y="-58.3" font-family="Times,serif" font-size="14.00">oferta</text>
</g>
<!-- User&#45;&gt;RedSocial -->
<g id="edge5" class="edge"><title>User&#45;&gt;RedSocial</title>
<path fill="none" stroke="#906b28" d="M238.509,-253.258C232.96,-247.554 226.836,-241.442 221,-236 208.878,-224.696 194.905,-212.743 183.029,-202.878"/>
<ellipse fill="none" stroke="#906b28" cx="241.49" cy="-256.356" rx="4.00002" ry="4.00002"/>
<polygon fill="#906b28" stroke="#906b28" points="182.906,-202.777 178.052,-192.944 179.048,-199.597 175.19,-196.416 175.19,-196.416 175.19,-196.416 179.048,-199.597 172.327,-199.888 182.906,-202.777 182.906,-202.777"/>
</g>
<!-- User&#45;&gt;UserEvento -->
<g id="edge6" class="edge"><title>User&#45;&gt;UserEvento</title>
<path fill="none" stroke="#010c1a" d="M271.293,-250.675C278.884,-237.355 288.417,-220.627 296.239,-206.901"/>
<ellipse fill="none" stroke="#010c1a" cx="269.212" cy="-254.325" rx="4.00002" ry="4.00002"/>
<polygon fill="#010c1a" stroke="#010c1a" points="296.385,-206.644 305.246,-200.184 298.861,-202.3 301.337,-197.956 301.337,-197.956 301.337,-197.956 298.861,-202.3 297.427,-195.728 296.385,-206.644 296.385,-206.644"/>
</g>
<!-- UserEvento&#45;&gt;Pasaje -->
<g id="edge7" class="edge"><title>UserEvento&#45;&gt;Pasaje</title>
<path fill="none" stroke="#25536a" d="M275.806,-161.029C253.345,-149.559 224.438,-134.798 202.516,-123.604"/>
<ellipse fill="none" stroke="#25536a" cx="279.581" cy="-162.956" rx="4.00002" ry="4.00002"/>
<polygon fill="#25536a" stroke="#25536a" points="202.494,-123.593 195.634,-115.037 198.041,-121.319 193.588,-119.045 193.588,-119.045 193.588,-119.045 198.041,-121.319 191.541,-123.053 202.494,-123.593 202.494,-123.593"/>
</g>
<!-- PublicacionCarpool -->
<g id="node10" class="node"><title>PublicacionCarpool</title>
<ellipse fill="none" stroke="black" cx="505" cy="-106" rx="80.389" ry="18"/>
<text text-anchor="middle" x="505" y="-102.3" font-family="Times,serif" font-size="14.00">PublicacionCarpool</text>
</g>
<!-- UserEvento&#45;&gt;PublicacionCarpool -->
<g id="edge8" class="edge"><title>UserEvento&#45;&gt;PublicacionCarpool</title>
<path fill="none" stroke="#e24f80" d="M352.998,-163.413C383.759,-151.997 425.543,-136.489 457.517,-124.622"/>
<ellipse fill="none" stroke="#e24f80" cx="348.987" cy="-164.902" rx="4.00001" ry="4.00001"/>
<ellipse fill="#e24f80" stroke="#e24f80" cx="461.672" cy="-123.08" rx="4.00001" ry="4.00001"/>
</g>
<!-- Comment -->
<g id="node8" class="node"><title>Comment</title>
<ellipse fill="none" stroke="black" cx="505" cy="-18" rx="46.2191" ry="18"/>
<text text-anchor="middle" x="505" y="-14.3" font-family="Times,serif" font-size="14.00">Comment</text>
</g>
<!-- Comment&#45;&gt;Comment -->
<g id="edge9" class="edge"><title>Comment&#45;&gt;Comment</title>
<path fill="none" stroke="#9b34db" d="M554.4,-25.7313C563.012,-24.6981 569,-22.121 569,-18 569,-14.2537 564.051,-11.7832 556.681,-10.5887"/>
<ellipse fill="none" stroke="#9b34db" cx="550.234" cy="-25.992" rx="4" ry="4"/>
<polygon fill="#9b34db" stroke="#9b34db" points="556.21,-10.5513 546.599,-5.27224 551.226,-10.1547 546.242,-9.75806 546.242,-9.75806 546.242,-9.75806 551.226,-10.1547 545.885,-14.2439 556.21,-10.5513 556.21,-10.5513"/>
<text text-anchor="middle" x="591.5" y="-14.3" font-family="Times,serif" font-size="14.00">children</text>
</g>
<!-- Publicador -->
<g id="node9" class="node"><title>Publicador</title>
<ellipse fill="none" stroke="black" cx="358" cy="-106" rx="48.6179" ry="18"/>
<text text-anchor="middle" x="358" y="-102.3" font-family="Times,serif" font-size="14.00">Publicador</text>
</g>
<!-- Publicador&#45;&gt;Evento -->
<g id="edge10" class="edge"><title>Publicador&#45;&gt;Evento</title>
<path fill="none" stroke="#ce8e0d" d="M346.863,-80.4421C341.833,-69.3497 335.887,-56.2371 330.782,-44.9802"/>
<ellipse fill="none" stroke="#ce8e0d" cx="348.643" cy="-84.3662" rx="4.00002" ry="4.00002"/>
<polygon fill="#ce8e0d" stroke="#ce8e0d" points="330.687,-44.7702 330.655,-33.8044 328.621,-40.2166 326.556,-35.6629 326.556,-35.6629 326.556,-35.6629 328.621,-40.2166 322.458,-37.5215 330.687,-44.7702 330.687,-44.7702"/>
</g>
<!-- PublicacionCarpool&#45;&gt;Evento -->
<g id="edge12" class="edge"><title>PublicacionCarpool&#45;&gt;Evento</title>
<path fill="none" stroke="#5e332c" d="M463.774,-85.9386C430.106,-70.3716 383.151,-48.6611 351.95,-34.2349"/>
<ellipse fill="none" stroke="#5e332c" cx="467.686" cy="-87.7473" rx="4.00002" ry="4.00002"/>
<ellipse fill="#5e332c" stroke="#5e332c" cx="348.005" cy="-32.4111" rx="4.00002" ry="4.00002"/>
</g>
<!-- PublicacionCarpool&#45;&gt;User -->
<g id="edge11" class="edge"><title>PublicacionCarpool&#45;&gt;User</title>
<path fill="none" stroke="#1a345c" d="M473.87,-128.198C446.729,-146.666 406.29,-174.15 371,-198 340.822,-218.395 306.041,-241.768 283.127,-257.147"/>
<ellipse fill="none" stroke="#1a345c" cx="477.508" cy="-125.723" rx="4.00002" ry="4.00002"/>
<ellipse fill="#1a345c" stroke="#1a345c" cx="279.737" cy="-259.422" rx="4.00002" ry="4.00002"/>
</g>
<!-- PublicacionCarpool&#45;&gt;Comment -->
<g id="edge13" class="edge"><title>PublicacionCarpool&#45;&gt;Comment</title>
<path fill="none" stroke="#860781" d="M505,-79.3391C505,-68.8546 505,-56.7182 505,-46.091"/>
<ellipse fill="none" stroke="#860781" cx="505" cy="-83.5966" rx="4" ry="4"/>
<polygon fill="#860781" stroke="#860781" points="505,-46.084 509.5,-36.084 505,-41.084 505,-36.084 505,-36.084 505,-36.084 505,-41.084 500.5,-36.0841 505,-46.084 505,-46.084"/>
<text text-anchor="middle" x="554" y="-58.3" font-family="Times,serif" font-size="14.00">comment_threads</text>
</g>
</g>
</svg>
