<?xml version="1.0" encoding="UTF-8" standalone="no"?>
<!DOCTYPE svg PUBLIC "-//W3C//DTD SVG 1.1//EN"
 "http://www.w3.org/Graphics/SVG/1.1/DTD/svg11.dtd">
<!-- Generated by graphviz version 2.36.0 (20140111.2315)
 -->
<!-- Title: models_diagram Pages: 1 -->
<svg width="819pt" height="1074pt"
 viewBox="0.00 0.00 819.00 1074.00" xmlns="http://www.w3.org/2000/svg" xmlns:xlink="http://www.w3.org/1999/xlink">
<g id="graph0" class="graph" transform="scale(1 1) rotate(0) translate(4 1070)">
<title>models_diagram</title>
<polygon fill="white" stroke="none" points="-4,4 -4,-1070 815,-1070 815,4 -4,4"/>
<!-- _diagram_info -->
<g id="node1" class="node"><title>_diagram_info</title>
<text text-anchor="start" x="7" y="-909.6" font-family="Times,serif" font-size="13.00">Models diagram</text>
<text text-anchor="start" x="7" y="-895.6" font-family="Times,serif" font-size="13.00">Date: Aug 26 2014 &#45; 15:08</text>
<text text-anchor="start" x="7" y="-881.6" font-family="Times,serif" font-size="13.00">Migration version: 20140826182948</text>
<text text-anchor="start" x="7" y="-867.6" font-family="Times,serif" font-size="13.00">Generated by RailRoady 1.1.1</text>
<text text-anchor="start" x="7" y="-853.6" font-family="Times,serif" font-size="13.00">http://railroady.prestonlee.com</text>
</g>
<!-- RedSocial -->
<g id="node2" class="node"><title>RedSocial</title>
<path fill="none" stroke="black" d="M153.5,-544.5C153.5,-544.5 260.5,-544.5 260.5,-544.5 266.5,-544.5 272.5,-550.5 272.5,-556.5 272.5,-556.5 272.5,-653.5 272.5,-653.5 272.5,-659.5 266.5,-665.5 260.5,-665.5 260.5,-665.5 153.5,-665.5 153.5,-665.5 147.5,-665.5 141.5,-659.5 141.5,-653.5 141.5,-653.5 141.5,-556.5 141.5,-556.5 141.5,-550.5 147.5,-544.5 153.5,-544.5"/>
<text text-anchor="middle" x="207" y="-650.3" font-family="Times,serif" font-size="14.00">RedSocial</text>
<polyline fill="none" stroke="black" points="141.5,-642.5 272.5,-642.5 "/>
<text text-anchor="start" x="149.5" y="-627.3" font-family="Times,serif" font-size="14.00">id :integer</text>
<text text-anchor="start" x="149.5" y="-612.3" font-family="Times,serif" font-size="14.00">user_id :integer</text>
<text text-anchor="start" x="149.5" y="-597.3" font-family="Times,serif" font-size="14.00">provider :string</text>
<text text-anchor="start" x="149.5" y="-582.3" font-family="Times,serif" font-size="14.00">uid :string</text>
<text text-anchor="start" x="149.5" y="-567.3" font-family="Times,serif" font-size="14.00">created_at :datetime</text>
<text text-anchor="start" x="149.5" y="-552.3" font-family="Times,serif" font-size="14.00">updated_at :datetime</text>
</g>
<!-- Oferta -->
<g id="node3" class="node"><title>Oferta</title>
<path fill="none" stroke="black" d="M142,-38C142,-38 262,-38 262,-38 268,-38 274,-44 274,-50 274,-50 274,-162 274,-162 274,-168 268,-174 262,-174 262,-174 142,-174 142,-174 136,-174 130,-168 130,-162 130,-162 130,-50 130,-50 130,-44 136,-38 142,-38"/>
<text text-anchor="middle" x="202" y="-158.8" font-family="Times,serif" font-size="14.00">Oferta</text>
<polyline fill="none" stroke="black" points="130,-151 274,-151 "/>
<text text-anchor="start" x="138" y="-135.8" font-family="Times,serif" font-size="14.00">id :integer</text>
<text text-anchor="start" x="138" y="-120.8" font-family="Times,serif" font-size="14.00">nombre :string</text>
<text text-anchor="start" x="138" y="-105.8" font-family="Times,serif" font-size="14.00">desc :string</text>
<text text-anchor="start" x="138" y="-90.8" font-family="Times,serif" font-size="14.00">porcentaje :integer</text>
<text text-anchor="start" x="138" y="-75.8" font-family="Times,serif" font-size="14.00">mod_cantidad :boolean</text>
<text text-anchor="start" x="138" y="-60.8" font-family="Times,serif" font-size="14.00">created_at :datetime</text>
<text text-anchor="start" x="138" y="-45.8" font-family="Times,serif" font-size="14.00">updated_at :datetime</text>
</g>
<!-- Pasaje -->
<g id="node5" class="node"><title>Pasaje</title>
<path fill="none" stroke="black" d="M141,-309.5C141,-309.5 261,-309.5 261,-309.5 267,-309.5 273,-315.5 273,-321.5 273,-321.5 273,-448.5 273,-448.5 273,-454.5 267,-460.5 261,-460.5 261,-460.5 141,-460.5 141,-460.5 135,-460.5 129,-454.5 129,-448.5 129,-448.5 129,-321.5 129,-321.5 129,-315.5 135,-309.5 141,-309.5"/>
<text text-anchor="middle" x="201" y="-445.3" font-family="Times,serif" font-size="14.00">Pasaje</text>
<polyline fill="none" stroke="black" points="129,-437.5 273,-437.5 "/>
<text text-anchor="start" x="137" y="-422.3" font-family="Times,serif" font-size="14.00">id :integer</text>
<text text-anchor="start" x="137" y="-407.3" font-family="Times,serif" font-size="14.00">user_evento_id :integer</text>
<text text-anchor="start" x="137" y="-392.3" font-family="Times,serif" font-size="14.00">oferta_id :integer</text>
<text text-anchor="start" x="137" y="-377.3" font-family="Times,serif" font-size="14.00">precio :integer</text>
<text text-anchor="start" x="137" y="-362.3" font-family="Times,serif" font-size="14.00">cantidad :integer</text>
<text text-anchor="start" x="137" y="-347.3" font-family="Times,serif" font-size="14.00">codigo :string</text>
<text text-anchor="start" x="137" y="-332.3" font-family="Times,serif" font-size="14.00">created_at :datetime</text>
<text text-anchor="start" x="137" y="-317.3" font-family="Times,serif" font-size="14.00">updated_at :datetime</text>
</g>
<!-- Oferta&#45;&gt;Pasaje -->
<g id="edge1" class="edge"><title>Oferta&#45;&gt;Pasaje</title>
<path fill="none" stroke="#7145fb" d="M199.875,-182.2C199.51,-197.989 199.189,-214.54 199,-230 198.727,-252.374 198.846,-276.576 199.131,-299.021"/>
<ellipse fill="none" stroke="#7145fb" cx="199.974" cy="-178.022" rx="4" ry="4"/>
<polygon fill="#7145fb" stroke="#7145fb" points="199.133,-299.197 194.772,-309.259 199.202,-304.197 199.272,-309.196 199.272,-309.196 199.272,-309.196 199.202,-304.197 203.772,-309.134 199.133,-299.197 199.133,-299.197"/>
</g>
<!-- Evento -->
<g id="node4" class="node"><title>Evento</title>
<path fill="none" stroke="black" d="M363.5,-23C363.5,-23 476.5,-23 476.5,-23 482.5,-23 488.5,-29 488.5,-35 488.5,-35 488.5,-177 488.5,-177 488.5,-183 482.5,-189 476.5,-189 476.5,-189 363.5,-189 363.5,-189 357.5,-189 351.5,-183 351.5,-177 351.5,-177 351.5,-35 351.5,-35 351.5,-29 357.5,-23 363.5,-23"/>
<text text-anchor="middle" x="420" y="-173.8" font-family="Times,serif" font-size="14.00">Evento</text>
<polyline fill="none" stroke="black" points="351.5,-166 488.5,-166 "/>
<text text-anchor="start" x="359.5" y="-150.8" font-family="Times,serif" font-size="14.00">id :integer</text>
<text text-anchor="start" x="359.5" y="-135.8" font-family="Times,serif" font-size="14.00">nombre :string</text>
<text text-anchor="start" x="359.5" y="-120.8" font-family="Times,serif" font-size="14.00">desc :string</text>
<text text-anchor="start" x="359.5" y="-105.8" font-family="Times,serif" font-size="14.00">fecha_inicio :date</text>
<text text-anchor="start" x="359.5" y="-90.8" font-family="Times,serif" font-size="14.00">fecha_termino :date</text>
<text text-anchor="start" x="359.5" y="-75.8" font-family="Times,serif" font-size="14.00">imagen :string</text>
<text text-anchor="start" x="359.5" y="-60.8" font-family="Times,serif" font-size="14.00">created_at :datetime</text>
<text text-anchor="start" x="359.5" y="-45.8" font-family="Times,serif" font-size="14.00">updated_at :datetime</text>
<text text-anchor="start" x="359.5" y="-30.8" font-family="Times,serif" font-size="14.00">publicador_id :integer</text>
</g>
<!-- User -->
<g id="node6" class="node"><title>User</title>
<path fill="none" stroke="black" d="M243,-704.5C243,-704.5 419,-704.5 419,-704.5 425,-704.5 431,-710.5 431,-716.5 431,-716.5 431,-1053.5 431,-1053.5 431,-1059.5 425,-1065.5 419,-1065.5 419,-1065.5 243,-1065.5 243,-1065.5 237,-1065.5 231,-1059.5 231,-1053.5 231,-1053.5 231,-716.5 231,-716.5 231,-710.5 237,-704.5 243,-704.5"/>
<text text-anchor="middle" x="331" y="-1050.3" font-family="Times,serif" font-size="14.00">User</text>
<polyline fill="none" stroke="black" points="231,-1042.5 431,-1042.5 "/>
<text text-anchor="start" x="239" y="-1027.3" font-family="Times,serif" font-size="14.00">id :integer</text>
<text text-anchor="start" x="239" y="-1012.3" font-family="Times,serif" font-size="14.00">email :string</text>
<text text-anchor="start" x="239" y="-997.3" font-family="Times,serif" font-size="14.00">encrypted_password :string</text>
<text text-anchor="start" x="239" y="-982.3" font-family="Times,serif" font-size="14.00">reset_password_token :string</text>
<text text-anchor="start" x="239" y="-967.3" font-family="Times,serif" font-size="14.00">reset_password_sent_at :datetime</text>
<text text-anchor="start" x="239" y="-952.3" font-family="Times,serif" font-size="14.00">remember_created_at :datetime</text>
<text text-anchor="start" x="239" y="-937.3" font-family="Times,serif" font-size="14.00">sign_in_count :integer</text>
<text text-anchor="start" x="239" y="-922.3" font-family="Times,serif" font-size="14.00">current_sign_in_at :datetime</text>
<text text-anchor="start" x="239" y="-907.3" font-family="Times,serif" font-size="14.00">last_sign_in_at :datetime</text>
<text text-anchor="start" x="239" y="-892.3" font-family="Times,serif" font-size="14.00">current_sign_in_ip :string</text>
<text text-anchor="start" x="239" y="-877.3" font-family="Times,serif" font-size="14.00">last_sign_in_ip :string</text>
<text text-anchor="start" x="239" y="-862.3" font-family="Times,serif" font-size="14.00">created_at :datetime</text>
<text text-anchor="start" x="239" y="-847.3" font-family="Times,serif" font-size="14.00">updated_at :datetime</text>
<text text-anchor="start" x="239" y="-832.3" font-family="Times,serif" font-size="14.00">nombre :string</text>
<text text-anchor="start" x="239" y="-817.3" font-family="Times,serif" font-size="14.00">ciudad :string</text>
<text text-anchor="start" x="239" y="-802.3" font-family="Times,serif" font-size="14.00">region :string</text>
<text text-anchor="start" x="239" y="-787.3" font-family="Times,serif" font-size="14.00">telefono :string</text>
<text text-anchor="start" x="239" y="-772.3" font-family="Times,serif" font-size="14.00">cumple :date</text>
<text text-anchor="start" x="239" y="-757.3" font-family="Times,serif" font-size="14.00">rut :string</text>
<text text-anchor="start" x="239" y="-742.3" font-family="Times,serif" font-size="14.00">dv :string</text>
<text text-anchor="start" x="239" y="-727.3" font-family="Times,serif" font-size="14.00">direccion :text</text>
<text text-anchor="start" x="239" y="-712.3" font-family="Times,serif" font-size="14.00">foto :string</text>
</g>
<!-- Evento&#45;&gt;User -->
<g id="edge3" class="edge"><title>Evento&#45;&gt;User</title>
<path fill="none" stroke="#af1745" d="M376.416,-198.655C367.822,-219.734 359.709,-242.332 354,-264 316.891,-404.835 312.566,-569.861 316.746,-694.234"/>
<polygon fill="#af1745" stroke="#af1745" points="376.422,-198.641 384.412,-191.131 378.339,-194.023 380.256,-189.405 380.256,-189.405 380.256,-189.405 378.339,-194.023 376.1,-187.68 376.422,-198.641 376.422,-198.641"/>
<polygon fill="#af1745" stroke="#af1745" points="316.746,-694.254 312.606,-704.408 316.925,-699.251 317.104,-704.248 317.104,-704.248 317.104,-704.248 316.925,-699.251 321.601,-704.087 316.746,-694.254 316.746,-694.254"/>
</g>
<!-- UserEvento -->
<g id="node7" class="node"><title>UserEvento</title>
<path fill="none" stroke="black" d="M341.5,-552C341.5,-552 448.5,-552 448.5,-552 454.5,-552 460.5,-558 460.5,-564 460.5,-564 460.5,-646 460.5,-646 460.5,-652 454.5,-658 448.5,-658 448.5,-658 341.5,-658 341.5,-658 335.5,-658 329.5,-652 329.5,-646 329.5,-646 329.5,-564 329.5,-564 329.5,-558 335.5,-552 341.5,-552"/>
<text text-anchor="middle" x="395" y="-642.8" font-family="Times,serif" font-size="14.00">UserEvento</text>
<polyline fill="none" stroke="black" points="329.5,-635 460.5,-635 "/>
<text text-anchor="start" x="337.5" y="-619.8" font-family="Times,serif" font-size="14.00">id :integer</text>
<text text-anchor="start" x="337.5" y="-604.8" font-family="Times,serif" font-size="14.00">user_id :integer</text>
<text text-anchor="start" x="337.5" y="-589.8" font-family="Times,serif" font-size="14.00">evento_id :integer</text>
<text text-anchor="start" x="337.5" y="-574.8" font-family="Times,serif" font-size="14.00">created_at :datetime</text>
<text text-anchor="start" x="337.5" y="-559.8" font-family="Times,serif" font-size="14.00">updated_at :datetime</text>
</g>
<!-- Evento&#45;&gt;UserEvento -->
<g id="edge2" class="edge"><title>Evento&#45;&gt;UserEvento</title>
<path fill="none" stroke="#9ace11" d="M386.048,-197.237C379.395,-218.806 373.423,-241.972 370,-264 353.485,-370.28 356.603,-399.282 370,-506 371.478,-517.773 373.918,-530.16 376.709,-542.016"/>
<ellipse fill="none" stroke="#9ace11" cx="387.324" cy="-193.183" rx="4.00001" ry="4.00001"/>
<polygon fill="#9ace11" stroke="#9ace11" points="376.733,-542.114 374.752,-552.9 377.927,-546.969 379.122,-551.825 379.122,-551.825 379.122,-551.825 377.927,-546.969 383.492,-550.749 376.733,-542.114 376.733,-542.114"/>
</g>
<!-- Pasaje&#45;&gt;Oferta -->
<g id="edge4" class="edge"><title>Pasaje&#45;&gt;Oferta</title>
<path fill="none" stroke="#023846" d="M201.298,-301.39C201.435,-263.63 201.595,-219.211 201.728,-182.372"/>
<ellipse fill="none" stroke="#023846" cx="201.284" cy="-305.405" rx="4" ry="4"/>
<ellipse fill="#023846" stroke="#023846" cx="201.743" cy="-178.15" rx="4" ry="4"/>
<text text-anchor="middle" x="217" y="-234.3" font-family="Times,serif" font-size="14.00">oferta</text>
</g>
<!-- User&#45;&gt;RedSocial -->
<g id="edge5" class="edge"><title>User&#45;&gt;RedSocial</title>
<path fill="none" stroke="#2f8ab7" d="M247.62,-697.068C244.226,-689.459 240.93,-682.068 237.779,-675.004"/>
<ellipse fill="none" stroke="#2f8ab7" cx="249.263" cy="-700.751" rx="4.00002" ry="4.00002"/>
<polygon fill="#2f8ab7" stroke="#2f8ab7" points="237.651,-674.717 237.687,-663.751 235.614,-670.15 233.577,-665.584 233.577,-665.584 233.577,-665.584 235.614,-670.15 229.467,-667.417 237.651,-674.717 237.651,-674.717"/>
</g>
<!-- User&#45;&gt;UserEvento -->
<g id="edge6" class="edge"><title>User&#45;&gt;UserEvento</title>
<path fill="none" stroke="#2bcfe4" d="M374.216,-696.282C376.501,-686.356 378.699,-676.809 380.753,-667.883"/>
<ellipse fill="none" stroke="#2bcfe4" cx="373.243" cy="-700.506" rx="4.00001" ry="4.00001"/>
<polygon fill="#2bcfe4" stroke="#2bcfe4" points="380.766,-667.828 387.395,-659.092 381.888,-662.955 383.01,-658.083 383.01,-658.083 383.01,-658.083 381.888,-662.955 378.624,-657.073 380.766,-667.828 380.766,-667.828"/>
</g>
<!-- UserEvento&#45;&gt;Pasaje -->
<g id="edge7" class="edge"><title>UserEvento&#45;&gt;Pasaje</title>
<path fill="none" stroke="#bdae48" d="M343.049,-545.622C321.961,-521.925 297.221,-494.125 274.35,-468.424"/>
<ellipse fill="none" stroke="#bdae48" cx="345.873" cy="-548.795" rx="4.00002" ry="4.00002"/>
<polygon fill="#bdae48" stroke="#bdae48" points="274.284,-468.351 270.998,-457.889 270.961,-464.615 267.637,-460.88 267.637,-460.88 267.637,-460.88 270.961,-464.615 264.275,-463.872 274.284,-468.351 274.284,-468.351"/>
</g>
<!-- PublicacionCarpool -->
<g id="node10" class="node"><title>PublicacionCarpool</title>
<path fill="none" stroke="black" d="M609,-287C609,-287 729,-287 729,-287 735,-287 741,-293 741,-299 741,-299 741,-471 741,-471 741,-477 735,-483 729,-483 729,-483 609,-483 609,-483 603,-483 597,-477 597,-471 597,-471 597,-299 597,-299 597,-293 603,-287 609,-287"/>
<text text-anchor="middle" x="669" y="-467.8" font-family="Times,serif" font-size="14.00">PublicacionCarpool</text>
<polyline fill="none" stroke="black" points="597,-460 741,-460 "/>
<text text-anchor="start" x="605" y="-444.8" font-family="Times,serif" font-size="14.00">id :integer</text>
<text text-anchor="start" x="605" y="-429.8" font-family="Times,serif" font-size="14.00">user_evento_id :integer</text>
<text text-anchor="start" x="605" y="-414.8" font-family="Times,serif" font-size="14.00">fecha :date</text>
<text text-anchor="start" x="605" y="-399.8" font-family="Times,serif" font-size="14.00">descripcion :text</text>
<text text-anchor="start" x="605" y="-384.8" font-family="Times,serif" font-size="14.00">hora_desde :time</text>
<text text-anchor="start" x="605" y="-369.8" font-family="Times,serif" font-size="14.00">desde :string</text>
<text text-anchor="start" x="605" y="-354.8" font-family="Times,serif" font-size="14.00">created_at :datetime</text>
<text text-anchor="start" x="605" y="-339.8" font-family="Times,serif" font-size="14.00">updated_at :datetime</text>
<text text-anchor="start" x="605" y="-324.8" font-family="Times,serif" font-size="14.00">asientos_disp :integer</text>
<text text-anchor="start" x="605" y="-309.8" font-family="Times,serif" font-size="14.00">tipo_vehiculo :string</text>
<text text-anchor="start" x="605" y="-294.8" font-family="Times,serif" font-size="14.00">celular :string</text>
</g>
<!-- UserEvento&#45;&gt;PublicacionCarpool -->
<g id="edge8" class="edge"><title>UserEvento&#45;&gt;PublicacionCarpool</title>
<path fill="none" stroke="#33d541" d="M468.192,-571.502C514.287,-550.159 568.616,-523.119 588,-506 593.864,-500.821 599.499,-495.128 604.875,-489.121"/>
<ellipse fill="none" stroke="#33d541" cx="464.504" cy="-573.202" rx="4.00002" ry="4.00002"/>
<ellipse fill="#33d541" stroke="#33d541" cx="607.543" cy="-486.042" rx="4.00002" ry="4.00002"/>
</g>
<!-- Comment -->
<g id="node8" class="node"><title>Comment</title>
<path fill="none" stroke="black" d="M601.5,-0.5C601.5,-0.5 736.5,-0.5 736.5,-0.5 742.5,-0.5 748.5,-6.5 748.5,-12.5 748.5,-12.5 748.5,-199.5 748.5,-199.5 748.5,-205.5 742.5,-211.5 736.5,-211.5 736.5,-211.5 601.5,-211.5 601.5,-211.5 595.5,-211.5 589.5,-205.5 589.5,-199.5 589.5,-199.5 589.5,-12.5 589.5,-12.5 589.5,-6.5 595.5,-0.5 601.5,-0.5"/>
<text text-anchor="middle" x="669" y="-196.3" font-family="Times,serif" font-size="14.00">Comment</text>
<polyline fill="none" stroke="black" points="589.5,-188.5 748.5,-188.5 "/>
<text text-anchor="start" x="597.5" y="-173.3" font-family="Times,serif" font-size="14.00">id :integer</text>
<text text-anchor="start" x="597.5" y="-158.3" font-family="Times,serif" font-size="14.00">commentable_id :integer</text>
<text text-anchor="start" x="597.5" y="-143.3" font-family="Times,serif" font-size="14.00">commentable_type :string</text>
<text text-anchor="start" x="597.5" y="-128.3" font-family="Times,serif" font-size="14.00">title :string</text>
<text text-anchor="start" x="597.5" y="-113.3" font-family="Times,serif" font-size="14.00">body :text</text>
<text text-anchor="start" x="597.5" y="-98.3" font-family="Times,serif" font-size="14.00">subject :string</text>
<text text-anchor="start" x="597.5" y="-83.3" font-family="Times,serif" font-size="14.00">user_id :integer</text>
<text text-anchor="start" x="597.5" y="-68.3" font-family="Times,serif" font-size="14.00">parent_id :integer</text>
<text text-anchor="start" x="597.5" y="-53.3" font-family="Times,serif" font-size="14.00">lft :integer</text>
<text text-anchor="start" x="597.5" y="-38.3" font-family="Times,serif" font-size="14.00">rgt :integer</text>
<text text-anchor="start" x="597.5" y="-23.3" font-family="Times,serif" font-size="14.00">created_at :datetime</text>
<text text-anchor="start" x="597.5" y="-8.3" font-family="Times,serif" font-size="14.00">updated_at :datetime</text>
</g>
<!-- Comment&#45;&gt;Comment -->
<g id="edge9" class="edge"><title>Comment&#45;&gt;Comment</title>
<path fill="none" stroke="#77d637" d="M756.093,-124.107C762.245,-119.988 766,-113.952 766,-106 766,-98.7249 762.857,-93.0536 757.611,-88.9862"/>
<ellipse fill="none" stroke="#77d637" cx="752.128" cy="-126.059" rx="4.00002" ry="4.00002"/>
<polygon fill="#77d637" stroke="#77d637" points="757.374,-88.8606 750.648,-80.1992 752.957,-86.5176 748.54,-84.1746 748.54,-84.1746 748.54,-84.1746 752.957,-86.5176 746.431,-88.1499 757.374,-88.8606 757.374,-88.8606"/>
<text text-anchor="middle" x="788.5" y="-102.3" font-family="Times,serif" font-size="14.00">children</text>
</g>
<!-- Publicador -->
<g id="node9" class="node"><title>Publicador</title>
<path fill="none" stroke="black" d="M391,-264.5C391,-264.5 567,-264.5 567,-264.5 573,-264.5 579,-270.5 579,-276.5 579,-276.5 579,-493.5 579,-493.5 579,-499.5 573,-505.5 567,-505.5 567,-505.5 391,-505.5 391,-505.5 385,-505.5 379,-499.5 379,-493.5 379,-493.5 379,-276.5 379,-276.5 379,-270.5 385,-264.5 391,-264.5"/>
<text text-anchor="middle" x="479" y="-490.3" font-family="Times,serif" font-size="14.00">Publicador</text>
<polyline fill="none" stroke="black" points="379,-482.5 579,-482.5 "/>
<text text-anchor="start" x="387" y="-467.3" font-family="Times,serif" font-size="14.00">id :integer</text>
<text text-anchor="start" x="387" y="-452.3" font-family="Times,serif" font-size="14.00">email :string</text>
<text text-anchor="start" x="387" y="-437.3" font-family="Times,serif" font-size="14.00">encrypted_password :string</text>
<text text-anchor="start" x="387" y="-422.3" font-family="Times,serif" font-size="14.00">reset_password_token :string</text>
<text text-anchor="start" x="387" y="-407.3" font-family="Times,serif" font-size="14.00">reset_password_sent_at :datetime</text>
<text text-anchor="start" x="387" y="-392.3" font-family="Times,serif" font-size="14.00">remember_created_at :datetime</text>
<text text-anchor="start" x="387" y="-377.3" font-family="Times,serif" font-size="14.00">sign_in_count :integer</text>
<text text-anchor="start" x="387" y="-362.3" font-family="Times,serif" font-size="14.00">current_sign_in_at :datetime</text>
<text text-anchor="start" x="387" y="-347.3" font-family="Times,serif" font-size="14.00">last_sign_in_at :datetime</text>
<text text-anchor="start" x="387" y="-332.3" font-family="Times,serif" font-size="14.00">current_sign_in_ip :string</text>
<text text-anchor="start" x="387" y="-317.3" font-family="Times,serif" font-size="14.00">last_sign_in_ip :string</text>
<text text-anchor="start" x="387" y="-302.3" font-family="Times,serif" font-size="14.00">created_at :datetime</text>
<text text-anchor="start" x="387" y="-287.3" font-family="Times,serif" font-size="14.00">updated_at :datetime</text>
<text text-anchor="start" x="387" y="-272.3" font-family="Times,serif" font-size="14.00">username :string</text>
</g>
<!-- Publicador&#45;&gt;Evento -->
<g id="edge10" class="edge"><title>Publicador&#45;&gt;Evento</title>
<path fill="none" stroke="#833927" d="M451.755,-256.087C447.666,-236.89 443.519,-217.42 439.631,-199.164"/>
<ellipse fill="none" stroke="#833927" cx="452.632" cy="-260.203" rx="4.00001" ry="4.00001"/>
<polygon fill="#833927" stroke="#833927" points="439.582,-198.936 441.9,-188.218 438.541,-194.046 437.499,-189.156 437.499,-189.156 437.499,-189.156 438.541,-194.046 433.098,-190.093 439.582,-198.936 439.582,-198.936"/>
</g>
<!-- PublicacionCarpool&#45;&gt;Evento -->
<g id="edge12" class="edge"><title>PublicacionCarpool&#45;&gt;Evento</title>
<path fill="none" stroke="#657711" d="M601.238,-280.308C596.884,-274.695 592.457,-269.222 588,-264 559.817,-230.978 525.262,-197.68 494.834,-170.299"/>
<ellipse fill="none" stroke="#657711" cx="603.885" cy="-283.774" rx="4.00002" ry="4.00002"/>
<ellipse fill="#657711" stroke="#657711" cx="491.787" cy="-167.571" rx="4.00002" ry="4.00002"/>
</g>
<!-- PublicacionCarpool&#45;&gt;User -->
<g id="edge11" class="edge"><title>PublicacionCarpool&#45;&gt;User</title>
<path fill="none" stroke="#39e18a" d="M598.758,-490.108C595.122,-495.483 591.519,-500.806 588,-506 538.085,-579.681 482.582,-661.349 435.966,-729.866"/>
<ellipse fill="none" stroke="#39e18a" cx="601.138" cy="-486.589" rx="4.00002" ry="4.00002"/>
<ellipse fill="#39e18a" stroke="#39e18a" cx="433.445" cy="-733.571" rx="4.00002" ry="4.00002"/>
</g>
<!-- PublicacionCarpool&#45;&gt;Comment -->
<g id="edge13" class="edge"><title>PublicacionCarpool&#45;&gt;Comment</title>
<path fill="none" stroke="#b26cca" d="M669,-278.688C669,-260.051 669,-240.562 669,-221.683"/>
<ellipse fill="none" stroke="#b26cca" cx="669" cy="-282.73" rx="4" ry="4"/>
<polygon fill="#b26cca" stroke="#b26cca" points="669,-221.571 673.5,-211.571 669,-216.571 669,-211.571 669,-211.571 669,-211.571 669,-216.571 664.5,-211.571 669,-221.571 669,-221.571"/>
<text text-anchor="middle" x="718" y="-234.3" font-family="Times,serif" font-size="14.00">comment_threads</text>
</g>
</g>
</svg>
