<?xml version="1.0" encoding="UTF-8" standalone="no"?>
<!DOCTYPE svg PUBLIC "-//W3C//DTD SVG 1.1//EN"
 "http://www.w3.org/Graphics/SVG/1.1/DTD/svg11.dtd">
<!-- Generated by graphviz version 2.36.0 (20140111.2315)
 -->
<!-- Title: models_diagram Pages: 1 -->
<svg width="608pt" height="1278pt"
 viewBox="0.00 0.00 608.37 1278.00" xmlns="http://www.w3.org/2000/svg" xmlns:xlink="http://www.w3.org/1999/xlink">
<g id="graph0" class="graph" transform="scale(1 1) rotate(0) translate(4 1274)">
<title>models_diagram</title>
<polygon fill="white" stroke="none" points="-4,4 -4,-1274 604.373,-1274 604.373,4 -4,4"/>
<!-- _diagram_info -->
<g id="node1" class="node"><title>_diagram_info</title>
<text text-anchor="start" x="7" y="-1255.6" font-family="Times,serif" font-size="13.00">Models diagram</text>
<text text-anchor="start" x="7" y="-1241.6" font-family="Times,serif" font-size="13.00">Date: Jul 15 2014 &#45; 23:46</text>
<text text-anchor="start" x="7" y="-1227.6" font-family="Times,serif" font-size="13.00">Migration version: 20140716032004</text>
<text text-anchor="start" x="7" y="-1213.6" font-family="Times,serif" font-size="13.00">Generated by RailRoady 1.1.1</text>
<text text-anchor="start" x="7" y="-1199.6" font-family="Times,serif" font-size="13.00">http://railroady.prestonlee.com</text>
</g>
<!-- RedSocial -->
<g id="node2" class="node"><title>RedSocial</title>
<path fill="none" stroke="black" d="M176.5,-381C176.5,-381 283.5,-381 283.5,-381 289.5,-381 295.5,-387 295.5,-393 295.5,-393 295.5,-505 295.5,-505 295.5,-511 289.5,-517 283.5,-517 283.5,-517 176.5,-517 176.5,-517 170.5,-517 164.5,-511 164.5,-505 164.5,-505 164.5,-393 164.5,-393 164.5,-387 170.5,-381 176.5,-381"/>
<text text-anchor="middle" x="230" y="-501.8" font-family="Times,serif" font-size="14.00">RedSocial</text>
<polyline fill="none" stroke="black" points="164.5,-494 295.5,-494 "/>
<text text-anchor="start" x="172.5" y="-478.8" font-family="Times,serif" font-size="14.00">id :integer</text>
<text text-anchor="start" x="172.5" y="-463.8" font-family="Times,serif" font-size="14.00">tipo :integer</text>
<text text-anchor="start" x="172.5" y="-448.8" font-family="Times,serif" font-size="14.00">user_id :integer</text>
<text text-anchor="start" x="172.5" y="-433.8" font-family="Times,serif" font-size="14.00">provider :string</text>
<text text-anchor="start" x="172.5" y="-418.8" font-family="Times,serif" font-size="14.00">uid :string</text>
<text text-anchor="start" x="172.5" y="-403.8" font-family="Times,serif" font-size="14.00">created_at :datetime</text>
<text text-anchor="start" x="172.5" y="-388.8" font-family="Times,serif" font-size="14.00">updated_at :datetime</text>
</g>
<!-- Evento -->
<g id="node3" class="node"><title>Evento</title>
<path fill="none" stroke="black" d="M414.5,-979.5C414.5,-979.5 521.5,-979.5 521.5,-979.5 527.5,-979.5 533.5,-985.5 533.5,-991.5 533.5,-991.5 533.5,-1118.5 533.5,-1118.5 533.5,-1124.5 527.5,-1130.5 521.5,-1130.5 521.5,-1130.5 414.5,-1130.5 414.5,-1130.5 408.5,-1130.5 402.5,-1124.5 402.5,-1118.5 402.5,-1118.5 402.5,-991.5 402.5,-991.5 402.5,-985.5 408.5,-979.5 414.5,-979.5"/>
<text text-anchor="middle" x="468" y="-1115.3" font-family="Times,serif" font-size="14.00">Evento</text>
<polyline fill="none" stroke="black" points="402.5,-1107.5 533.5,-1107.5 "/>
<text text-anchor="start" x="410.5" y="-1092.3" font-family="Times,serif" font-size="14.00">id :integer</text>
<text text-anchor="start" x="410.5" y="-1077.3" font-family="Times,serif" font-size="14.00">nombre :string</text>
<text text-anchor="start" x="410.5" y="-1062.3" font-family="Times,serif" font-size="14.00">desc :string</text>
<text text-anchor="start" x="410.5" y="-1047.3" font-family="Times,serif" font-size="14.00">fecha_inicio :date</text>
<text text-anchor="start" x="410.5" y="-1032.3" font-family="Times,serif" font-size="14.00">fecha_termino :date</text>
<text text-anchor="start" x="410.5" y="-1017.3" font-family="Times,serif" font-size="14.00">imagen :string</text>
<text text-anchor="start" x="410.5" y="-1002.3" font-family="Times,serif" font-size="14.00">created_at :datetime</text>
<text text-anchor="start" x="410.5" y="-987.3" font-family="Times,serif" font-size="14.00">updated_at :datetime</text>
</g>
<!-- User -->
<g id="node7" class="node"><title>User</title>
<path fill="none" stroke="black" d="M236,-556.5C236,-556.5 412,-556.5 412,-556.5 418,-556.5 424,-562.5 424,-568.5 424,-568.5 424,-905.5 424,-905.5 424,-911.5 418,-917.5 412,-917.5 412,-917.5 236,-917.5 236,-917.5 230,-917.5 224,-911.5 224,-905.5 224,-905.5 224,-568.5 224,-568.5 224,-562.5 230,-556.5 236,-556.5"/>
<text text-anchor="middle" x="324" y="-902.3" font-family="Times,serif" font-size="14.00">User</text>
<polyline fill="none" stroke="black" points="224,-894.5 424,-894.5 "/>
<text text-anchor="start" x="232" y="-879.3" font-family="Times,serif" font-size="14.00">id :integer</text>
<text text-anchor="start" x="232" y="-864.3" font-family="Times,serif" font-size="14.00">email :string</text>
<text text-anchor="start" x="232" y="-849.3" font-family="Times,serif" font-size="14.00">encrypted_password :string</text>
<text text-anchor="start" x="232" y="-834.3" font-family="Times,serif" font-size="14.00">reset_password_token :string</text>
<text text-anchor="start" x="232" y="-819.3" font-family="Times,serif" font-size="14.00">reset_password_sent_at :datetime</text>
<text text-anchor="start" x="232" y="-804.3" font-family="Times,serif" font-size="14.00">remember_created_at :datetime</text>
<text text-anchor="start" x="232" y="-789.3" font-family="Times,serif" font-size="14.00">sign_in_count :integer</text>
<text text-anchor="start" x="232" y="-774.3" font-family="Times,serif" font-size="14.00">current_sign_in_at :datetime</text>
<text text-anchor="start" x="232" y="-759.3" font-family="Times,serif" font-size="14.00">last_sign_in_at :datetime</text>
<text text-anchor="start" x="232" y="-744.3" font-family="Times,serif" font-size="14.00">current_sign_in_ip :string</text>
<text text-anchor="start" x="232" y="-729.3" font-family="Times,serif" font-size="14.00">last_sign_in_ip :string</text>
<text text-anchor="start" x="232" y="-714.3" font-family="Times,serif" font-size="14.00">created_at :datetime</text>
<text text-anchor="start" x="232" y="-699.3" font-family="Times,serif" font-size="14.00">updated_at :datetime</text>
<text text-anchor="start" x="232" y="-684.3" font-family="Times,serif" font-size="14.00">nombre :string</text>
<text text-anchor="start" x="232" y="-669.3" font-family="Times,serif" font-size="14.00">ciudad :string</text>
<text text-anchor="start" x="232" y="-654.3" font-family="Times,serif" font-size="14.00">region :string</text>
<text text-anchor="start" x="232" y="-639.3" font-family="Times,serif" font-size="14.00">telefono :string</text>
<text text-anchor="start" x="232" y="-624.3" font-family="Times,serif" font-size="14.00">cumple :date</text>
<text text-anchor="start" x="232" y="-609.3" font-family="Times,serif" font-size="14.00">rut :string</text>
<text text-anchor="start" x="232" y="-594.3" font-family="Times,serif" font-size="14.00">dv :string</text>
<text text-anchor="start" x="232" y="-579.3" font-family="Times,serif" font-size="14.00">direccion :text</text>
<text text-anchor="start" x="232" y="-564.3" font-family="Times,serif" font-size="14.00">foto :string</text>
</g>
<!-- Evento&#45;&gt;User -->
<g id="edge3" class="edge"><title>Evento&#45;&gt;User</title>
<path fill="none" stroke="#0f23ea" d="M429.58,-969.69C423.437,-956.209 416.873,-941.805 410.138,-927.024"/>
<polygon fill="#0f23ea" stroke="#0f23ea" points="429.727,-970.013 429.779,-980.978 431.801,-974.563 433.874,-979.112 433.874,-979.112 433.874,-979.112 431.801,-974.563 437.969,-977.246 429.727,-970.013 429.727,-970.013"/>
<polygon fill="#0f23ea" stroke="#0f23ea" points="410.071,-926.877 410.019,-915.911 407.997,-922.327 405.924,-917.777 405.924,-917.777 405.924,-917.777 407.997,-922.327 401.829,-919.643 410.071,-926.877 410.071,-926.877"/>
</g>
<!-- UserEvento -->
<g id="node8" class="node"><title>UserEvento</title>
<path fill="none" stroke="black" d="M422.5,-418.5C422.5,-418.5 513.5,-418.5 513.5,-418.5 519.5,-418.5 525.5,-424.5 525.5,-430.5 525.5,-430.5 525.5,-467.5 525.5,-467.5 525.5,-473.5 519.5,-479.5 513.5,-479.5 513.5,-479.5 422.5,-479.5 422.5,-479.5 416.5,-479.5 410.5,-473.5 410.5,-467.5 410.5,-467.5 410.5,-430.5 410.5,-430.5 410.5,-424.5 416.5,-418.5 422.5,-418.5"/>
<text text-anchor="middle" x="468" y="-464.3" font-family="Times,serif" font-size="14.00">UserEvento</text>
<polyline fill="none" stroke="black" points="410.5,-456.5 525.5,-456.5 "/>
<text text-anchor="start" x="418.5" y="-441.3" font-family="Times,serif" font-size="14.00">user_id :integer</text>
<text text-anchor="start" x="418.5" y="-426.3" font-family="Times,serif" font-size="14.00">evento_id :integer</text>
</g>
<!-- Evento&#45;&gt;UserEvento -->
<g id="edge2" class="edge"><title>Evento&#45;&gt;UserEvento</title>
<path fill="none" stroke="#f1de9b" d="M468,-971.331C468,-839.626 468,-587.11 468,-489.693"/>
<ellipse fill="none" stroke="#f1de9b" cx="468" cy="-975.332" rx="4" ry="4"/>
<polygon fill="#f1de9b" stroke="#f1de9b" points="468,-489.676 472.5,-479.676 468,-484.676 468,-479.676 468,-479.676 468,-479.676 468,-484.676 463.5,-479.676 468,-489.676 468,-489.676"/>
</g>
<!-- Pasaje -->
<g id="node4" class="node"><title>Pasaje</title>
<path fill="none" stroke="black" d="M260,-190.5C260,-190.5 380,-190.5 380,-190.5 386,-190.5 392,-196.5 392,-202.5 392,-202.5 392,-329.5 392,-329.5 392,-335.5 386,-341.5 380,-341.5 380,-341.5 260,-341.5 260,-341.5 254,-341.5 248,-335.5 248,-329.5 248,-329.5 248,-202.5 248,-202.5 248,-196.5 254,-190.5 260,-190.5"/>
<text text-anchor="middle" x="320" y="-326.3" font-family="Times,serif" font-size="14.00">Pasaje</text>
<polyline fill="none" stroke="black" points="248,-318.5 392,-318.5 "/>
<text text-anchor="start" x="256" y="-303.3" font-family="Times,serif" font-size="14.00">id :integer</text>
<text text-anchor="start" x="256" y="-288.3" font-family="Times,serif" font-size="14.00">user_evento_id :integer</text>
<text text-anchor="start" x="256" y="-273.3" font-family="Times,serif" font-size="14.00">oferta_id :integer</text>
<text text-anchor="start" x="256" y="-258.3" font-family="Times,serif" font-size="14.00">precio :integer</text>
<text text-anchor="start" x="256" y="-243.3" font-family="Times,serif" font-size="14.00">cantidad :integer</text>
<text text-anchor="start" x="256" y="-228.3" font-family="Times,serif" font-size="14.00">codigo :string</text>
<text text-anchor="start" x="256" y="-213.3" font-family="Times,serif" font-size="14.00">created_at :datetime</text>
<text text-anchor="start" x="256" y="-198.3" font-family="Times,serif" font-size="14.00">updated_at :datetime</text>
</g>
<!-- Oferta -->
<g id="node6" class="node"><title>Oferta</title>
<path fill="none" stroke="black" d="M293,-1C293,-1 413,-1 413,-1 419,-1 425,-7 425,-13 425,-13 425,-125 425,-125 425,-131 419,-137 413,-137 413,-137 293,-137 293,-137 287,-137 281,-131 281,-125 281,-125 281,-13 281,-13 281,-7 287,-1 293,-1"/>
<text text-anchor="middle" x="353" y="-121.8" font-family="Times,serif" font-size="14.00">Oferta</text>
<polyline fill="none" stroke="black" points="281,-114 425,-114 "/>
<text text-anchor="start" x="289" y="-98.8" font-family="Times,serif" font-size="14.00">id :integer</text>
<text text-anchor="start" x="289" y="-83.8" font-family="Times,serif" font-size="14.00">nombre :string</text>
<text text-anchor="start" x="289" y="-68.8" font-family="Times,serif" font-size="14.00">desc :string</text>
<text text-anchor="start" x="289" y="-53.8" font-family="Times,serif" font-size="14.00">porcentaje :integer</text>
<text text-anchor="start" x="289" y="-38.8" font-family="Times,serif" font-size="14.00">mod_cantidad :boolean</text>
<text text-anchor="start" x="289" y="-23.8" font-family="Times,serif" font-size="14.00">created_at :datetime</text>
<text text-anchor="start" x="289" y="-8.8" font-family="Times,serif" font-size="14.00">updated_at :datetime</text>
</g>
<!-- Pasaje&#45;&gt;Oferta -->
<g id="edge5" class="edge"><title>Pasaje&#45;&gt;Oferta</title>
<path fill="none" stroke="#975ad9" d="M334.019,-182.162C336.103,-169.846 338.241,-157.211 340.296,-145.067"/>
<ellipse fill="none" stroke="#975ad9" cx="333.285" cy="-186.5" rx="4.00001" ry="4.00001"/>
<ellipse fill="#975ad9" stroke="#975ad9" cx="340.966" cy="-141.11" rx="4.00001" ry="4.00001"/>
<text text-anchor="middle" x="353" y="-160.3" font-family="Times,serif" font-size="14.00">oferta</text>
</g>
<!-- PublicacionCaropool -->
<g id="node5" class="node"><title>PublicacionCaropool</title>
<path fill="none" stroke="black" d="M252,-957C252,-957 372,-957 372,-957 378,-957 384,-963 384,-969 384,-969 384,-1141 384,-1141 384,-1147 378,-1153 372,-1153 372,-1153 252,-1153 252,-1153 246,-1153 240,-1147 240,-1141 240,-1141 240,-969 240,-969 240,-963 246,-957 252,-957"/>
<text text-anchor="middle" x="312" y="-1137.8" font-family="Times,serif" font-size="14.00">PublicacionCaropool</text>
<polyline fill="none" stroke="black" points="240,-1130 384,-1130 "/>
<text text-anchor="start" x="248" y="-1114.8" font-family="Times,serif" font-size="14.00">id :integer</text>
<text text-anchor="start" x="248" y="-1099.8" font-family="Times,serif" font-size="14.00">user_evento_id :integer</text>
<text text-anchor="start" x="248" y="-1084.8" font-family="Times,serif" font-size="14.00">fecha :date</text>
<text text-anchor="start" x="248" y="-1069.8" font-family="Times,serif" font-size="14.00">descripcion :text</text>
<text text-anchor="start" x="248" y="-1054.8" font-family="Times,serif" font-size="14.00">precio :integer</text>
<text text-anchor="start" x="248" y="-1039.8" font-family="Times,serif" font-size="14.00">hora_desde :time</text>
<text text-anchor="start" x="248" y="-1024.8" font-family="Times,serif" font-size="14.00">desde :string</text>
<text text-anchor="start" x="248" y="-1009.8" font-family="Times,serif" font-size="14.00">hora_hasta :time</text>
<text text-anchor="start" x="248" y="-994.8" font-family="Times,serif" font-size="14.00">hasta :time</text>
<text text-anchor="start" x="248" y="-979.8" font-family="Times,serif" font-size="14.00">created_at :datetime</text>
<text text-anchor="start" x="248" y="-964.8" font-family="Times,serif" font-size="14.00">updated_at :datetime</text>
</g>
<!-- Oferta&#45;&gt;Pasaje -->
<g id="edge8" class="edge"><title>Oferta&#45;&gt;Pasaje</title>
<path fill="none" stroke="#06cfa7" d="M335.996,-145.105C335.292,-148.783 334.622,-152.429 334,-156 332.626,-163.884 331.326,-172.11 330.113,-180.356"/>
<ellipse fill="none" stroke="#06cfa7" cx="336.813" cy="-140.945" rx="4.00001" ry="4.00001"/>
<polygon fill="#06cfa7" stroke="#06cfa7" points="330.092,-180.502 324.223,-189.764 329.385,-185.451 328.678,-190.401 328.678,-190.401 328.678,-190.401 329.385,-185.451 333.132,-191.038 330.092,-180.502 330.092,-180.502"/>
</g>
<!-- User&#45;&gt;RedSocial -->
<g id="edge10" class="edge"><title>User&#45;&gt;RedSocial</title>
<path fill="none" stroke="#4683da" d="M262.468,-548.786C259.971,-541.188 257.534,-533.775 255.191,-526.644"/>
<ellipse fill="none" stroke="#4683da" cx="263.753" cy="-552.696" rx="4.00001" ry="4.00001"/>
<polygon fill="#4683da" stroke="#4683da" points="255.178,-526.605 256.331,-515.7 253.617,-521.855 252.056,-517.105 252.056,-517.105 252.056,-517.105 253.617,-521.855 247.781,-518.51 255.178,-526.605 255.178,-526.605"/>
</g>
<!-- User&#45;&gt;Pasaje -->
<g id="edge12" class="edge"><title>User&#45;&gt;Pasaje</title>
<path fill="none" stroke="#7ea685" d="M322.382,-546.255C321.806,-478.779 321.187,-406.167 320.724,-351.903"/>
<polygon fill="#7ea685" stroke="#7ea685" points="322.382,-546.349 317.968,-556.387 322.425,-551.349 322.468,-556.349 322.468,-556.349 322.468,-556.349 322.425,-551.349 326.968,-556.31 322.382,-546.349 322.382,-546.349"/>
<polygon fill="#7ea685" stroke="#7ea685" points="320.722,-351.646 325.136,-341.608 320.679,-346.646 320.637,-341.646 320.637,-341.646 320.637,-341.646 320.679,-346.646 316.137,-341.685 320.722,-351.646 320.722,-351.646"/>
</g>
<!-- User&#45;&gt;UserEvento -->
<g id="edge11" class="edge"><title>User&#45;&gt;UserEvento</title>
<path fill="none" stroke="#4603c6" d="M418.027,-549.253C429.318,-526.828 439.809,-505.991 448.234,-489.257"/>
<ellipse fill="none" stroke="#4603c6" cx="416.179" cy="-552.923" rx="4.00002" ry="4.00002"/>
<polygon fill="#4603c6" stroke="#4603c6" points="448.449,-488.83 456.966,-481.922 450.698,-484.364 452.946,-479.898 452.946,-479.898 452.946,-479.898 450.698,-484.364 448.927,-477.875 448.449,-488.83 448.449,-488.83"/>
</g>
<!-- UserEvento&#45;&gt;Pasaje -->
<g id="edge14" class="edge"><title>UserEvento&#45;&gt;Pasaje</title>
<path fill="none" stroke="#2d698d" d="M438.405,-411.806C423.795,-393.938 405.52,-371.589 387.732,-349.835"/>
<ellipse fill="none" stroke="#2d698d" cx="441.029" cy="-415.015" rx="4.00002" ry="4.00002"/>
<polygon fill="#2d698d" stroke="#2d698d" points="387.539,-349.598 384.692,-339.008 384.374,-345.727 381.209,-341.857 381.209,-341.857 381.209,-341.857 384.374,-345.727 377.725,-344.705 387.539,-349.598 387.539,-349.598"/>
</g>
<!-- PublicacionCarpool -->
<g id="node10" class="node"><title>PublicacionCarpool</title>
<ellipse fill="none" stroke="black" cx="491" cy="-266" rx="80.389" ry="18"/>
<text text-anchor="middle" x="491" y="-262.3" font-family="Times,serif" font-size="14.00">PublicacionCarpool</text>
</g>
<!-- UserEvento&#45;&gt;PublicacionCarpool -->
<g id="edge15" class="edge"><title>UserEvento&#45;&gt;PublicacionCarpool</title>
<path fill="none" stroke="#3ded27" d="M472.868,-409.69C477.264,-375.096 483.624,-325.047 487.526,-294.342"/>
<ellipse fill="none" stroke="#3ded27" cx="472.302" cy="-414.143" rx="4.00001" ry="4.00001"/>
<polygon fill="#3ded27" stroke="#3ded27" points="487.535,-294.265 493.26,-284.912 488.166,-289.305 488.796,-284.345 488.796,-284.345 488.796,-284.345 488.166,-289.305 484.332,-283.777 487.535,-294.265 487.535,-294.265"/>
</g>
<!-- ActiveRecord::Base -->
<g id="node9" class="node"><title>ActiveRecord::Base</title>
<ellipse fill="none" stroke="black" cx="312" cy="-1231" rx="81.3646" ry="18"/>
<text text-anchor="middle" x="312" y="-1227.3" font-family="Times,serif" font-size="14.00">ActiveRecord::Base</text>
</g>
<!-- ActiveRecord::Base&#45;&gt;RedSocial -->
<g id="edge1" class="edge"><title>ActiveRecord::Base&#45;&gt;RedSocial</title>
<path fill="none" stroke="black" d="M275.614,-1214.83C251.042,-1202.43 220.533,-1182.3 206,-1154 149.719,-1044.4 196.906,-671.175 219.548,-517.233"/>
</g>
<!-- ActiveRecord::Base&#45;&gt;Evento -->
<g id="edge4" class="edge"><title>ActiveRecord::Base&#45;&gt;Evento</title>
<path fill="none" stroke="black" d="M331.509,-1213.33C348.47,-1198.46 373.34,-1175.74 393,-1154 399.682,-1146.61 406.412,-1138.67 412.95,-1130.63"/>
</g>
<!-- ActiveRecord::Base&#45;&gt;Pasaje -->
<g id="edge6" class="edge"><title>ActiveRecord::Base&#45;&gt;Pasaje</title>
<path fill="none" stroke="black" d="M269.871,-1215.46C239.873,-1203.21 200.512,-1183 175,-1154 144.036,-1118.8 136,-1102.88 136,-1056 136,-1056 136,-1056 136,-448 136,-416.498 137.523,-405.515 156,-380 179.525,-347.515 215.403,-321.268 247.609,-302.276"/>
</g>
<!-- ActiveRecord::Base&#45;&gt;PublicacionCaropool -->
<g id="edge7" class="edge"><title>ActiveRecord::Base&#45;&gt;PublicacionCaropool</title>
<path fill="none" stroke="black" d="M312,-1213C312,-1198.46 312,-1176.27 312,-1153.11"/>
</g>
<!-- ActiveRecord::Base&#45;&gt;Oferta -->
<g id="edge9" class="edge"><title>ActiveRecord::Base&#45;&gt;Oferta</title>
<path fill="none" stroke="black" d="M377.055,-1220.13C423.53,-1211.61 486.809,-1196.99 539,-1174 593.028,-1150.2 600,-1115.04 600,-1056 600,-1056 600,-1056 600,-265 600,-230.502 601.492,-216.986 580,-190 540.704,-140.659 475.496,-109.201 425.027,-90.9315"/>
</g>
<!-- ActiveRecord::Base&#45;&gt;User -->
<g id="edge13" class="edge"><title>ActiveRecord::Base&#45;&gt;User</title>
<path fill="none" stroke="black" d="M285.39,-1213.72C266.283,-1200.34 242.033,-1179.48 231,-1154 196.034,-1073.24 213.378,-1042.22 231,-956 233.596,-943.301 236.96,-930.427 240.866,-917.612"/>
</g>
<!-- ActiveRecord::Base&#45;&gt;UserEvento -->
<g id="edge16" class="edge"><title>ActiveRecord::Base&#45;&gt;UserEvento</title>
<path fill="none" stroke="black" d="M390.756,-1226.57C442.894,-1219.71 507.759,-1201.38 542,-1154 621.547,-1043.94 508.602,-599.246 476.232,-479.707"/>
</g>
</g>
</svg>
