<?xml version="1.0" encoding="UTF-8" standalone="no"?>
<!DOCTYPE svg PUBLIC "-//W3C//DTD SVG 1.1//EN"
 "http://www.w3.org/Graphics/SVG/1.1/DTD/svg11.dtd">
<!-- Generated by graphviz version 2.36.0 (20140111.2315)
 -->
<!-- Title: models_diagram Pages: 1 -->
<svg width="561pt" height="470pt"
 viewBox="0.00 0.00 561.00 470.00" xmlns="http://www.w3.org/2000/svg" xmlns:xlink="http://www.w3.org/1999/xlink">
<g id="graph0" class="graph" transform="scale(1 1) rotate(0) translate(4 466)">
<title>models_diagram</title>
<polygon fill="white" stroke="none" points="-4,4 -4,-466 557,-466 557,4 -4,4"/>
<!-- _diagram_info -->
<g id="node1" class="node"><title>_diagram_info</title>
<text text-anchor="start" x="7" y="-447.6" font-family="Times,serif" font-size="13.00">Models diagram</text>
<text text-anchor="start" x="7" y="-433.6" font-family="Times,serif" font-size="13.00">Date: Jul 15 2014 &#45; 23:59</text>
<text text-anchor="start" x="7" y="-419.6" font-family="Times,serif" font-size="13.00">Migration version: 20140716032004</text>
<text text-anchor="start" x="7" y="-405.6" font-family="Times,serif" font-size="13.00">Generated by RailRoady 1.1.1</text>
<text text-anchor="start" x="7" y="-391.6" font-family="Times,serif" font-size="13.00">http://railroady.prestonlee.com</text>
</g>
<!-- RedSocial -->
<g id="node2" class="node"><title>RedSocial</title>
<ellipse fill="none" stroke="black" cx="218" cy="-180" rx="46.1964" ry="18"/>
<text text-anchor="middle" x="218" y="-176.3" font-family="Times,serif" font-size="14.00">RedSocial</text>
</g>
<!-- Evento -->
<g id="node3" class="node"><title>Evento</title>
<ellipse fill="none" stroke="black" cx="451" cy="-328" rx="35.6194" ry="18"/>
<text text-anchor="middle" x="451" y="-324.3" font-family="Times,serif" font-size="14.00">Evento</text>
</g>
<!-- User -->
<g id="node7" class="node"><title>User</title>
<ellipse fill="none" stroke="black" cx="312" cy="-254" rx="26.949" ry="18"/>
<text text-anchor="middle" x="312" y="-250.3" font-family="Times,serif" font-size="14.00">User</text>
</g>
<!-- Evento&#45;&gt;User -->
<g id="edge3" class="edge"><title>Evento&#45;&gt;User</title>
<path fill="none" stroke="#37c598" d="M418.214,-310.017C395.1,-298.044 364.385,-282.135 341.933,-270.505"/>
<polygon fill="#37c598" stroke="#37c598" points="418.226,-310.023 425.035,-318.619 422.665,-312.323 427.105,-314.623 427.105,-314.623 427.105,-314.623 422.665,-312.323 429.175,-310.627 418.226,-310.023 418.226,-310.023"/>
<polygon fill="#37c598" stroke="#37c598" points="341.742,-270.406 334.932,-261.811 337.302,-268.106 332.863,-265.807 332.863,-265.807 332.863,-265.807 337.302,-268.106 330.793,-269.802 341.742,-270.406 341.742,-270.406"/>
</g>
<!-- UserEvento -->
<g id="node8" class="node"><title>UserEvento</title>
<ellipse fill="none" stroke="black" cx="444" cy="-180" rx="51.4931" ry="18"/>
<text text-anchor="middle" x="444" y="-176.3" font-family="Times,serif" font-size="14.00">UserEvento</text>
</g>
<!-- Evento&#45;&gt;UserEvento -->
<g id="edge2" class="edge"><title>Evento&#45;&gt;UserEvento</title>
<path fill="none" stroke="#34b16d" d="M449.792,-301.8C448.547,-275.827 446.611,-235.449 445.324,-208.622"/>
<ellipse fill="none" stroke="#34b16d" cx="449.992" cy="-305.971" rx="4" ry="4"/>
<polygon fill="#34b16d" stroke="#34b16d" points="445.312,-208.366 449.328,-198.162 445.073,-203.372 444.833,-198.378 444.833,-198.378 444.833,-198.378 445.073,-203.372 440.338,-198.593 445.312,-208.366 445.312,-208.366"/>
</g>
<!-- Pasaje -->
<g id="node4" class="node"><title>Pasaje</title>
<ellipse fill="none" stroke="black" cx="312" cy="-106" rx="33.2209" ry="18"/>
<text text-anchor="middle" x="312" y="-102.3" font-family="Times,serif" font-size="14.00">Pasaje</text>
</g>
<!-- Oferta -->
<g id="node6" class="node"><title>Oferta</title>
<ellipse fill="none" stroke="black" cx="345" cy="-18" rx="33.2209" ry="18"/>
<text text-anchor="middle" x="345" y="-14.3" font-family="Times,serif" font-size="14.00">Oferta</text>
</g>
<!-- Pasaje&#45;&gt;Oferta -->
<g id="edge5" class="edge"><title>Pasaje&#45;&gt;Oferta</title>
<path fill="none" stroke="#81d00b" d="M321.423,-80.4421C325.895,-68.7894 331.222,-54.9075 335.68,-43.2893"/>
<ellipse fill="none" stroke="#81d00b" cx="319.953" cy="-84.2747" rx="4.00001" ry="4.00001"/>
<ellipse fill="#81d00b" stroke="#81d00b" cx="337.173" cy="-39.3974" rx="4.00001" ry="4.00001"/>
<text text-anchor="middle" x="347" y="-58.3" font-family="Times,serif" font-size="14.00">oferta</text>
</g>
<!-- PublicacionCaropool -->
<g id="node5" class="node"><title>PublicacionCaropool</title>
<ellipse fill="none" stroke="black" cx="312" cy="-328" rx="85.2138" ry="18"/>
<text text-anchor="middle" x="312" y="-324.3" font-family="Times,serif" font-size="14.00">PublicacionCaropool</text>
</g>
<!-- Oferta&#45;&gt;Pasaje -->
<g id="edge8" class="edge"><title>Oferta&#45;&gt;Pasaje</title>
<path fill="none" stroke="#85f95b" d="M331.338,-42.4195C329.398,-46.2217 327.542,-50.1696 326,-54 322.949,-61.5808 320.327,-70.0547 318.205,-77.8844"/>
<ellipse fill="none" stroke="#85f95b" cx="333.227" cy="-38.8845" rx="4.00002" ry="4.00002"/>
<polygon fill="#85f95b" stroke="#85f95b" points="318.179,-77.9869 311.348,-86.5655 316.944,-82.832 315.709,-87.677 315.709,-87.677 315.709,-87.677 316.944,-82.832 320.07,-88.7886 318.179,-77.9869 318.179,-77.9869"/>
</g>
<!-- User&#45;&gt;RedSocial -->
<g id="edge10" class="edge"><title>User&#45;&gt;RedSocial</title>
<path fill="none" stroke="#98e278" d="M288.002,-234.619C275.202,-224.814 259.382,-212.697 246.02,-202.462"/>
<ellipse fill="none" stroke="#98e278" cx="291.583" cy="-237.362" rx="4.00002" ry="4.00002"/>
<polygon fill="#98e278" stroke="#98e278" points="246.007,-202.452 240.804,-192.799 242.037,-199.412 238.068,-196.371 238.068,-196.371 238.068,-196.371 242.037,-199.412 235.332,-199.944 246.007,-202.452 246.007,-202.452"/>
</g>
<!-- User&#45;&gt;Pasaje -->
<g id="edge12" class="edge"><title>User&#45;&gt;Pasaje</title>
<path fill="none" stroke="#e11029" d="M312,-225.872C312,-199.785 312,-160.557 312,-134.384"/>
<polygon fill="#e11029" stroke="#e11029" points="312,-225.966 307.5,-235.966 312,-230.966 312,-235.966 312,-235.966 312,-235.966 312,-230.966 316.5,-235.966 312,-225.966 312,-225.966"/>
<polygon fill="#e11029" stroke="#e11029" points="312,-134.378 316.5,-124.378 312,-129.378 312,-124.378 312,-124.378 312,-124.378 312,-129.378 307.5,-124.378 312,-134.378 312,-134.378"/>
</g>
<!-- User&#45;&gt;UserEvento -->
<g id="edge11" class="edge"><title>User&#45;&gt;UserEvento</title>
<path fill="none" stroke="#e23b6d" d="M339.416,-238.046C359.47,-227.107 386.848,-212.174 408.562,-200.33"/>
<ellipse fill="none" stroke="#e23b6d" cx="335.847" cy="-239.992" rx="4.00002" ry="4.00002"/>
<polygon fill="#e23b6d" stroke="#e23b6d" points="408.705,-200.252 419.639,-199.414 413.094,-197.858 417.484,-195.463 417.484,-195.463 417.484,-195.463 413.094,-197.858 415.329,-191.513 408.705,-200.252 408.705,-200.252"/>
</g>
<!-- UserEvento&#45;&gt;Pasaje -->
<g id="edge14" class="edge"><title>UserEvento&#45;&gt;Pasaje</title>
<path fill="none" stroke="#364cf2" d="M410.191,-160.559C389.743,-149.405 363.834,-135.273 343.766,-124.327"/>
<ellipse fill="none" stroke="#364cf2" cx="413.776" cy="-162.514" rx="4.00002" ry="4.00002"/>
<polygon fill="#364cf2" stroke="#364cf2" points="343.494,-124.179 336.87,-115.44 339.105,-121.784 334.715,-119.39 334.715,-119.39 334.715,-119.39 339.105,-121.784 332.56,-123.341 343.494,-124.179 343.494,-124.179"/>
</g>
<!-- PublicacionCarpool -->
<g id="node10" class="node"><title>PublicacionCarpool</title>
<ellipse fill="none" stroke="black" cx="444" cy="-106" rx="80.389" ry="18"/>
<text text-anchor="middle" x="444" y="-102.3" font-family="Times,serif" font-size="14.00">PublicacionCarpool</text>
</g>
<!-- UserEvento&#45;&gt;PublicacionCarpool -->
<g id="edge15" class="edge"><title>UserEvento&#45;&gt;PublicacionCarpool</title>
<path fill="none" stroke="#ab4f81" d="M444,-153.792C444,-147.58 444,-140.896 444,-134.579"/>
<ellipse fill="none" stroke="#ab4f81" cx="444" cy="-157.937" rx="4" ry="4"/>
<polygon fill="#ab4f81" stroke="#ab4f81" points="444,-134.441 448.5,-124.441 444,-129.441 444,-124.441 444,-124.441 444,-124.441 444,-129.441 439.5,-124.441 444,-134.441 444,-134.441"/>
</g>
<!-- ActiveRecord::Base -->
<g id="node9" class="node"><title>ActiveRecord::Base</title>
<ellipse fill="none" stroke="black" cx="312" cy="-423" rx="81.3646" ry="18"/>
<text text-anchor="middle" x="312" y="-419.3" font-family="Times,serif" font-size="14.00">ActiveRecord::Base</text>
</g>
<!-- ActiveRecord::Base&#45;&gt;RedSocial -->
<g id="edge1" class="edge"><title>ActiveRecord::Base&#45;&gt;RedSocial</title>
<path fill="none" stroke="black" d="M272.863,-407.136C247.852,-395.074 218.252,-375.227 208,-346 189.951,-294.547 204.202,-228.58 212.75,-197.987"/>
</g>
<!-- ActiveRecord::Base&#45;&gt;Evento -->
<g id="edge4" class="edge"><title>ActiveRecord::Base&#45;&gt;Evento</title>
<path fill="none" stroke="black" d="M336.212,-405.801C362.813,-388.003 405.093,-359.715 430.237,-342.892"/>
</g>
<!-- ActiveRecord::Base&#45;&gt;Pasaje -->
<g id="edge6" class="edge"><title>ActiveRecord::Base&#45;&gt;Pasaje</title>
<path fill="none" stroke="black" d="M276.893,-406.655C222.236,-382.501 123,-337.48 123,-329 123,-329 123,-329 123,-179 123,-145.643 227.109,-122.14 280.79,-112.238"/>
</g>
<!-- ActiveRecord::Base&#45;&gt;PublicacionCaropool -->
<g id="edge7" class="edge"><title>ActiveRecord::Base&#45;&gt;PublicacionCaropool</title>
<path fill="none" stroke="black" d="M312,-404.942C312,-388.267 312,-363.01 312,-346.264"/>
</g>
<!-- ActiveRecord::Base&#45;&gt;Oferta -->
<g id="edge9" class="edge"><title>ActiveRecord::Base&#45;&gt;Oferta</title>
<path fill="none" stroke="black" d="M372.814,-410.99C444.209,-396.292 553,-367.569 553,-329 553,-329 553,-329 553,-105 553,-30.3648 437.216,-19.2269 378.419,-18.3826"/>
</g>
<!-- ActiveRecord::Base&#45;&gt;User -->
<g id="edge13" class="edge"><title>ActiveRecord::Base&#45;&gt;User</title>
<path fill="none" stroke="black" d="M281.569,-406.15C246.469,-385.633 196.215,-347.986 218,-310 232.768,-284.249 264.777,-269.397 287.325,-261.761"/>
</g>
<!-- ActiveRecord::Base&#45;&gt;UserEvento -->
<g id="edge16" class="edge"><title>ActiveRecord::Base&#45;&gt;UserEvento</title>
<path fill="none" stroke="black" d="M379.177,-412.898C420.101,-403.509 469.311,-384.484 495,-346 526.961,-298.12 482.293,-229.247 457.961,-197.804"/>
</g>
</g>
</svg>
