<?xml version="1.0" encoding="UTF-8" standalone="no"?>
<!DOCTYPE svg PUBLIC "-//W3C//DTD SVG 1.1//EN"
 "http://www.w3.org/Graphics/SVG/1.1/DTD/svg11.dtd">
<!-- Generated by graphviz version 2.36.0 (20140111.2315)
 -->
<!-- Title: models_diagram Pages: 1 -->
<svg width="493pt" height="1458pt"
 viewBox="0.00 0.00 493.00 1458.00" xmlns="http://www.w3.org/2000/svg" xmlns:xlink="http://www.w3.org/1999/xlink">
<g id="graph0" class="graph" transform="scale(1 1) rotate(0) translate(4 1454)">
<title>models_diagram</title>
<polygon fill="white" stroke="none" points="-4,4 -4,-1454 489,-1454 489,4 -4,4"/>
<!-- _diagram_info -->
<g id="node1" class="node"><title>_diagram_info</title>
<text text-anchor="start" x="7" y="-1353.6" font-family="Times,serif" font-size="13.00">Models diagram</text>
<text text-anchor="start" x="7" y="-1339.6" font-family="Times,serif" font-size="13.00">Date: Jul 23 2014 &#45; 02:11</text>
<text text-anchor="start" x="7" y="-1325.6" font-family="Times,serif" font-size="13.00">Migration version: 20140723060452</text>
<text text-anchor="start" x="7" y="-1311.6" font-family="Times,serif" font-size="13.00">Generated by RailRoady 1.1.1</text>
<text text-anchor="start" x="7" y="-1297.6" font-family="Times,serif" font-size="13.00">http://railroady.prestonlee.com</text>
</g>
<!-- RedSocial -->
<g id="node2" class="node"><title>RedSocial</title>
<path fill="none" stroke="black" d="M103.5,-427C103.5,-427 210.5,-427 210.5,-427 216.5,-427 222.5,-433 222.5,-439 222.5,-439 222.5,-551 222.5,-551 222.5,-557 216.5,-563 210.5,-563 210.5,-563 103.5,-563 103.5,-563 97.5,-563 91.5,-557 91.5,-551 91.5,-551 91.5,-439 91.5,-439 91.5,-433 97.5,-427 103.5,-427"/>
<text text-anchor="middle" x="157" y="-547.8" font-family="Times,serif" font-size="14.00">RedSocial</text>
<polyline fill="none" stroke="black" points="91.5,-540 222.5,-540 "/>
<text text-anchor="start" x="99.5" y="-524.8" font-family="Times,serif" font-size="14.00">id :integer</text>
<text text-anchor="start" x="99.5" y="-509.8" font-family="Times,serif" font-size="14.00">tipo :integer</text>
<text text-anchor="start" x="99.5" y="-494.8" font-family="Times,serif" font-size="14.00">user_id :integer</text>
<text text-anchor="start" x="99.5" y="-479.8" font-family="Times,serif" font-size="14.00">provider :string</text>
<text text-anchor="start" x="99.5" y="-464.8" font-family="Times,serif" font-size="14.00">uid :string</text>
<text text-anchor="start" x="99.5" y="-449.8" font-family="Times,serif" font-size="14.00">created_at :datetime</text>
<text text-anchor="start" x="99.5" y="-434.8" font-family="Times,serif" font-size="14.00">updated_at :datetime</text>
</g>
<!-- Oferta -->
<g id="node3" class="node"><title>Oferta</title>
<path fill="none" stroke="black" d="M191,-1C191,-1 311,-1 311,-1 317,-1 323,-7 323,-13 323,-13 323,-125 323,-125 323,-131 317,-137 311,-137 311,-137 191,-137 191,-137 185,-137 179,-131 179,-125 179,-125 179,-13 179,-13 179,-7 185,-1 191,-1"/>
<text text-anchor="middle" x="251" y="-121.8" font-family="Times,serif" font-size="14.00">Oferta</text>
<polyline fill="none" stroke="black" points="179,-114 323,-114 "/>
<text text-anchor="start" x="187" y="-98.8" font-family="Times,serif" font-size="14.00">id :integer</text>
<text text-anchor="start" x="187" y="-83.8" font-family="Times,serif" font-size="14.00">nombre :string</text>
<text text-anchor="start" x="187" y="-68.8" font-family="Times,serif" font-size="14.00">desc :string</text>
<text text-anchor="start" x="187" y="-53.8" font-family="Times,serif" font-size="14.00">porcentaje :integer</text>
<text text-anchor="start" x="187" y="-38.8" font-family="Times,serif" font-size="14.00">mod_cantidad :boolean</text>
<text text-anchor="start" x="187" y="-23.8" font-family="Times,serif" font-size="14.00">created_at :datetime</text>
<text text-anchor="start" x="187" y="-8.8" font-family="Times,serif" font-size="14.00">updated_at :datetime</text>
</g>
<!-- Pasaje -->
<g id="node5" class="node"><title>Pasaje</title>
<path fill="none" stroke="black" d="M191,-213.5C191,-213.5 311,-213.5 311,-213.5 317,-213.5 323,-219.5 323,-225.5 323,-225.5 323,-352.5 323,-352.5 323,-358.5 317,-364.5 311,-364.5 311,-364.5 191,-364.5 191,-364.5 185,-364.5 179,-358.5 179,-352.5 179,-352.5 179,-225.5 179,-225.5 179,-219.5 185,-213.5 191,-213.5"/>
<text text-anchor="middle" x="251" y="-349.3" font-family="Times,serif" font-size="14.00">Pasaje</text>
<polyline fill="none" stroke="black" points="179,-341.5 323,-341.5 "/>
<text text-anchor="start" x="187" y="-326.3" font-family="Times,serif" font-size="14.00">id :integer</text>
<text text-anchor="start" x="187" y="-311.3" font-family="Times,serif" font-size="14.00">user_evento_id :integer</text>
<text text-anchor="start" x="187" y="-296.3" font-family="Times,serif" font-size="14.00">oferta_id :integer</text>
<text text-anchor="start" x="187" y="-281.3" font-family="Times,serif" font-size="14.00">precio :integer</text>
<text text-anchor="start" x="187" y="-266.3" font-family="Times,serif" font-size="14.00">cantidad :integer</text>
<text text-anchor="start" x="187" y="-251.3" font-family="Times,serif" font-size="14.00">codigo :string</text>
<text text-anchor="start" x="187" y="-236.3" font-family="Times,serif" font-size="14.00">created_at :datetime</text>
<text text-anchor="start" x="187" y="-221.3" font-family="Times,serif" font-size="14.00">updated_at :datetime</text>
</g>
<!-- Oferta&#45;&gt;Pasaje -->
<g id="edge1" class="edge"><title>Oferta&#45;&gt;Pasaje</title>
<path fill="none" stroke="#c41a02" d="M260.25,-145.139C260.54,-148.808 260.794,-152.443 261,-156 261.883,-171.245 261.635,-187.469 260.782,-203.136"/>
<ellipse fill="none" stroke="#c41a02" cx="259.9" cy="-141.056" rx="4" ry="4"/>
<polygon fill="#c41a02" stroke="#c41a02" points="260.768,-203.356 255.649,-213.053 260.454,-208.346 260.14,-213.336 260.14,-213.336 260.14,-213.336 260.454,-208.346 264.631,-213.618 260.768,-203.356 260.768,-203.356"/>
</g>
<!-- Evento -->
<g id="node4" class="node"><title>Evento</title>
<path fill="none" stroke="black" d="M274.5,-1003C274.5,-1003 387.5,-1003 387.5,-1003 393.5,-1003 399.5,-1009 399.5,-1015 399.5,-1015 399.5,-1157 399.5,-1157 399.5,-1163 393.5,-1169 387.5,-1169 387.5,-1169 274.5,-1169 274.5,-1169 268.5,-1169 262.5,-1163 262.5,-1157 262.5,-1157 262.5,-1015 262.5,-1015 262.5,-1009 268.5,-1003 274.5,-1003"/>
<text text-anchor="middle" x="331" y="-1153.8" font-family="Times,serif" font-size="14.00">Evento</text>
<polyline fill="none" stroke="black" points="262.5,-1146 399.5,-1146 "/>
<text text-anchor="start" x="270.5" y="-1130.8" font-family="Times,serif" font-size="14.00">id :integer</text>
<text text-anchor="start" x="270.5" y="-1115.8" font-family="Times,serif" font-size="14.00">nombre :string</text>
<text text-anchor="start" x="270.5" y="-1100.8" font-family="Times,serif" font-size="14.00">desc :string</text>
<text text-anchor="start" x="270.5" y="-1085.8" font-family="Times,serif" font-size="14.00">fecha_inicio :date</text>
<text text-anchor="start" x="270.5" y="-1070.8" font-family="Times,serif" font-size="14.00">fecha_termino :date</text>
<text text-anchor="start" x="270.5" y="-1055.8" font-family="Times,serif" font-size="14.00">imagen :string</text>
<text text-anchor="start" x="270.5" y="-1040.8" font-family="Times,serif" font-size="14.00">created_at :datetime</text>
<text text-anchor="start" x="270.5" y="-1025.8" font-family="Times,serif" font-size="14.00">updated_at :datetime</text>
<text text-anchor="start" x="270.5" y="-1010.8" font-family="Times,serif" font-size="14.00">publicador_id :integer</text>
</g>
<!-- User -->
<g id="node6" class="node"><title>User</title>
<path fill="none" stroke="black" d="M153,-602.5C153,-602.5 329,-602.5 329,-602.5 335,-602.5 341,-608.5 341,-614.5 341,-614.5 341,-951.5 341,-951.5 341,-957.5 335,-963.5 329,-963.5 329,-963.5 153,-963.5 153,-963.5 147,-963.5 141,-957.5 141,-951.5 141,-951.5 141,-614.5 141,-614.5 141,-608.5 147,-602.5 153,-602.5"/>
<text text-anchor="middle" x="241" y="-948.3" font-family="Times,serif" font-size="14.00">User</text>
<polyline fill="none" stroke="black" points="141,-940.5 341,-940.5 "/>
<text text-anchor="start" x="149" y="-925.3" font-family="Times,serif" font-size="14.00">id :integer</text>
<text text-anchor="start" x="149" y="-910.3" font-family="Times,serif" font-size="14.00">email :string</text>
<text text-anchor="start" x="149" y="-895.3" font-family="Times,serif" font-size="14.00">encrypted_password :string</text>
<text text-anchor="start" x="149" y="-880.3" font-family="Times,serif" font-size="14.00">reset_password_token :string</text>
<text text-anchor="start" x="149" y="-865.3" font-family="Times,serif" font-size="14.00">reset_password_sent_at :datetime</text>
<text text-anchor="start" x="149" y="-850.3" font-family="Times,serif" font-size="14.00">remember_created_at :datetime</text>
<text text-anchor="start" x="149" y="-835.3" font-family="Times,serif" font-size="14.00">sign_in_count :integer</text>
<text text-anchor="start" x="149" y="-820.3" font-family="Times,serif" font-size="14.00">current_sign_in_at :datetime</text>
<text text-anchor="start" x="149" y="-805.3" font-family="Times,serif" font-size="14.00">last_sign_in_at :datetime</text>
<text text-anchor="start" x="149" y="-790.3" font-family="Times,serif" font-size="14.00">current_sign_in_ip :string</text>
<text text-anchor="start" x="149" y="-775.3" font-family="Times,serif" font-size="14.00">last_sign_in_ip :string</text>
<text text-anchor="start" x="149" y="-760.3" font-family="Times,serif" font-size="14.00">created_at :datetime</text>
<text text-anchor="start" x="149" y="-745.3" font-family="Times,serif" font-size="14.00">updated_at :datetime</text>
<text text-anchor="start" x="149" y="-730.3" font-family="Times,serif" font-size="14.00">nombre :string</text>
<text text-anchor="start" x="149" y="-715.3" font-family="Times,serif" font-size="14.00">ciudad :string</text>
<text text-anchor="start" x="149" y="-700.3" font-family="Times,serif" font-size="14.00">region :string</text>
<text text-anchor="start" x="149" y="-685.3" font-family="Times,serif" font-size="14.00">telefono :string</text>
<text text-anchor="start" x="149" y="-670.3" font-family="Times,serif" font-size="14.00">cumple :date</text>
<text text-anchor="start" x="149" y="-655.3" font-family="Times,serif" font-size="14.00">rut :string</text>
<text text-anchor="start" x="149" y="-640.3" font-family="Times,serif" font-size="14.00">dv :string</text>
<text text-anchor="start" x="149" y="-625.3" font-family="Times,serif" font-size="14.00">direccion :text</text>
<text text-anchor="start" x="149" y="-610.3" font-family="Times,serif" font-size="14.00">foto :string</text>
</g>
<!-- Evento&#45;&gt;User -->
<g id="edge3" class="edge"><title>Evento&#45;&gt;User</title>
<path fill="none" stroke="#ba3ee9" d="M303.484,-992.975C301.572,-986.581 299.611,-980.021 297.617,-973.351"/>
<polygon fill="#ba3ee9" stroke="#ba3ee9" points="303.542,-993.17 302.096,-1004.04 304.975,-997.96 306.407,-1002.75 306.407,-1002.75 306.407,-1002.75 304.975,-997.96 310.719,-1001.46 303.542,-993.17 303.542,-993.17"/>
<polygon fill="#ba3ee9" stroke="#ba3ee9" points="297.538,-973.088 298.985,-962.218 296.106,-968.298 294.673,-963.507 294.673,-963.507 294.673,-963.507 296.106,-968.298 290.362,-964.796 297.538,-973.088 297.538,-973.088"/>
</g>
<!-- UserEvento -->
<g id="node7" class="node"><title>UserEvento</title>
<path fill="none" stroke="black" d="M302.5,-464.5C302.5,-464.5 393.5,-464.5 393.5,-464.5 399.5,-464.5 405.5,-470.5 405.5,-476.5 405.5,-476.5 405.5,-513.5 405.5,-513.5 405.5,-519.5 399.5,-525.5 393.5,-525.5 393.5,-525.5 302.5,-525.5 302.5,-525.5 296.5,-525.5 290.5,-519.5 290.5,-513.5 290.5,-513.5 290.5,-476.5 290.5,-476.5 290.5,-470.5 296.5,-464.5 302.5,-464.5"/>
<text text-anchor="middle" x="348" y="-510.3" font-family="Times,serif" font-size="14.00">UserEvento</text>
<polyline fill="none" stroke="black" points="290.5,-502.5 405.5,-502.5 "/>
<text text-anchor="start" x="298.5" y="-487.3" font-family="Times,serif" font-size="14.00">user_id :integer</text>
<text text-anchor="start" x="298.5" y="-472.3" font-family="Times,serif" font-size="14.00">evento_id :integer</text>
</g>
<!-- Evento&#45;&gt;UserEvento -->
<g id="edge2" class="edge"><title>Evento&#45;&gt;UserEvento</title>
<path fill="none" stroke="#21a64b" d="M346.724,-994.934C348.07,-984.531 349.216,-974.052 350,-964 362.341,-805.851 354.695,-616.728 350.371,-535.856"/>
<ellipse fill="none" stroke="#21a64b" cx="346.191" cy="-998.902" rx="4.00001" ry="4.00001"/>
<polygon fill="#21a64b" stroke="#21a64b" points="350.357,-535.615 354.303,-525.384 350.084,-530.622 349.81,-525.63 349.81,-525.63 349.81,-525.63 350.084,-530.622 345.317,-525.876 350.357,-535.615 350.357,-535.615"/>
</g>
<!-- Pasaje&#45;&gt;Oferta -->
<g id="edge4" class="edge"><title>Pasaje&#45;&gt;Oferta</title>
<path fill="none" stroke="#87021d" d="M225.894,-205.247C223.449,-188.969 222.637,-171.985 225,-156 225.528,-152.432 226.172,-148.806 226.908,-145.163"/>
<ellipse fill="none" stroke="#87021d" cx="226.559" cy="-209.228" rx="4.00001" ry="4.00001"/>
<ellipse fill="#87021d" stroke="#87021d" cx="227.8" cy="-141.083" rx="4.00001" ry="4.00001"/>
<text text-anchor="middle" x="241" y="-160.3" font-family="Times,serif" font-size="14.00">oferta</text>
</g>
<!-- User&#45;&gt;RedSocial -->
<g id="edge5" class="edge"><title>User&#45;&gt;RedSocial</title>
<path fill="none" stroke="#7be814" d="M186.014,-594.786C183.833,-587.361 181.704,-580.112 179.654,-573.131"/>
<ellipse fill="none" stroke="#7be814" cx="187.151" cy="-598.658" rx="4.00001" ry="4.00001"/>
<polygon fill="#7be814" stroke="#7be814" points="179.527,-572.7 181.027,-561.837 178.118,-567.902 176.709,-563.105 176.709,-563.105 176.709,-563.105 178.118,-567.902 172.392,-564.373 179.527,-572.7 179.527,-572.7"/>
</g>
<!-- User&#45;&gt;Pasaje -->
<g id="edge7" class="edge"><title>User&#45;&gt;Pasaje</title>
<path fill="none" stroke="#7dc8a3" d="M244.859,-592.138C246.386,-517.003 248.063,-434.486 249.278,-374.7"/>
<polygon fill="#7dc8a3" stroke="#7dc8a3" points="244.856,-592.29 240.154,-602.197 244.754,-597.289 244.653,-602.288 244.653,-602.288 244.653,-602.288 244.754,-597.289 249.152,-602.38 244.856,-592.29 244.856,-592.29"/>
<polygon fill="#7dc8a3" stroke="#7dc8a3" points="249.281,-374.556 253.984,-364.65 249.383,-369.557 249.485,-364.558 249.485,-364.558 249.485,-364.558 249.383,-369.557 244.986,-364.467 249.281,-374.556 249.281,-374.556"/>
</g>
<!-- User&#45;&gt;UserEvento -->
<g id="edge6" class="edge"><title>User&#45;&gt;UserEvento</title>
<path fill="none" stroke="#4ddb83" d="M310.995,-594.91C319.265,-572.805 326.952,-552.258 333.153,-535.684"/>
<ellipse fill="none" stroke="#4ddb83" cx="309.559" cy="-598.749" rx="4.00001" ry="4.00001"/>
<polygon fill="#4ddb83" stroke="#4ddb83" points="333.31,-535.264 341.029,-527.475 335.062,-530.581 336.814,-525.898 336.814,-525.898 336.814,-525.898 335.062,-530.581 332.6,-524.321 333.31,-535.264 333.31,-535.264"/>
</g>
<!-- UserEvento&#45;&gt;Pasaje -->
<g id="edge8" class="edge"><title>UserEvento&#45;&gt;Pasaje</title>
<path fill="none" stroke="#e4dbba" d="M330.409,-457.005C319.368,-433.785 304.664,-402.86 290.911,-373.936"/>
<ellipse fill="none" stroke="#e4dbba" cx="332.178" cy="-460.724" rx="4.00002" ry="4.00002"/>
<polygon fill="#e4dbba" stroke="#e4dbba" points="290.779,-373.659 290.549,-362.695 288.632,-369.143 286.485,-364.628 286.485,-364.628 286.485,-364.628 288.632,-369.143 282.421,-366.56 290.779,-373.659 290.779,-373.659"/>
</g>
<!-- PublicacionCarpool -->
<g id="node9" class="node"><title>PublicacionCarpool</title>
<path fill="none" stroke="black" d="M353,-191C353,-191 473,-191 473,-191 479,-191 485,-197 485,-203 485,-203 485,-375 485,-375 485,-381 479,-387 473,-387 473,-387 353,-387 353,-387 347,-387 341,-381 341,-375 341,-375 341,-203 341,-203 341,-197 347,-191 353,-191"/>
<text text-anchor="middle" x="413" y="-371.8" font-family="Times,serif" font-size="14.00">PublicacionCarpool</text>
<polyline fill="none" stroke="black" points="341,-364 485,-364 "/>
<text text-anchor="start" x="349" y="-348.8" font-family="Times,serif" font-size="14.00">id :integer</text>
<text text-anchor="start" x="349" y="-333.8" font-family="Times,serif" font-size="14.00">user_evento_id :integer</text>
<text text-anchor="start" x="349" y="-318.8" font-family="Times,serif" font-size="14.00">fecha :date</text>
<text text-anchor="start" x="349" y="-303.8" font-family="Times,serif" font-size="14.00">descripcion :text</text>
<text text-anchor="start" x="349" y="-288.8" font-family="Times,serif" font-size="14.00">precio :integer</text>
<text text-anchor="start" x="349" y="-273.8" font-family="Times,serif" font-size="14.00">hora_desde :time</text>
<text text-anchor="start" x="349" y="-258.8" font-family="Times,serif" font-size="14.00">desde :string</text>
<text text-anchor="start" x="349" y="-243.8" font-family="Times,serif" font-size="14.00">hora_hasta :time</text>
<text text-anchor="start" x="349" y="-228.8" font-family="Times,serif" font-size="14.00">hasta :time</text>
<text text-anchor="start" x="349" y="-213.8" font-family="Times,serif" font-size="14.00">created_at :datetime</text>
<text text-anchor="start" x="349" y="-198.8" font-family="Times,serif" font-size="14.00">updated_at :datetime</text>
</g>
<!-- UserEvento&#45;&gt;PublicacionCarpool -->
<g id="edge9" class="edge"><title>UserEvento&#45;&gt;PublicacionCarpool</title>
<path fill="none" stroke="#9f18b0" d="M359.939,-456.53C365.399,-439.393 372.174,-418.132 379.035,-396.597"/>
<ellipse fill="none" stroke="#9f18b0" cx="358.666" cy="-460.525" rx="4.00001" ry="4.00001"/>
<polygon fill="#9f18b0" stroke="#9f18b0" points="379.047,-396.559 386.371,-388.398 380.565,-391.795 382.083,-387.031 382.083,-387.031 382.083,-387.031 380.565,-391.795 377.796,-385.665 379.047,-396.559 379.047,-396.559"/>
</g>
<!-- Publicador -->
<g id="node8" class="node"><title>Publicador</title>
<path fill="none" stroke="black" d="M243,-1208.5C243,-1208.5 419,-1208.5 419,-1208.5 425,-1208.5 431,-1214.5 431,-1220.5 431,-1220.5 431,-1437.5 431,-1437.5 431,-1443.5 425,-1449.5 419,-1449.5 419,-1449.5 243,-1449.5 243,-1449.5 237,-1449.5 231,-1443.5 231,-1437.5 231,-1437.5 231,-1220.5 231,-1220.5 231,-1214.5 237,-1208.5 243,-1208.5"/>
<text text-anchor="middle" x="331" y="-1434.3" font-family="Times,serif" font-size="14.00">Publicador</text>
<polyline fill="none" stroke="black" points="231,-1426.5 431,-1426.5 "/>
<text text-anchor="start" x="239" y="-1411.3" font-family="Times,serif" font-size="14.00">id :integer</text>
<text text-anchor="start" x="239" y="-1396.3" font-family="Times,serif" font-size="14.00">email :string</text>
<text text-anchor="start" x="239" y="-1381.3" font-family="Times,serif" font-size="14.00">encrypted_password :string</text>
<text text-anchor="start" x="239" y="-1366.3" font-family="Times,serif" font-size="14.00">reset_password_token :string</text>
<text text-anchor="start" x="239" y="-1351.3" font-family="Times,serif" font-size="14.00">reset_password_sent_at :datetime</text>
<text text-anchor="start" x="239" y="-1336.3" font-family="Times,serif" font-size="14.00">remember_created_at :datetime</text>
<text text-anchor="start" x="239" y="-1321.3" font-family="Times,serif" font-size="14.00">sign_in_count :integer</text>
<text text-anchor="start" x="239" y="-1306.3" font-family="Times,serif" font-size="14.00">current_sign_in_at :datetime</text>
<text text-anchor="start" x="239" y="-1291.3" font-family="Times,serif" font-size="14.00">last_sign_in_at :datetime</text>
<text text-anchor="start" x="239" y="-1276.3" font-family="Times,serif" font-size="14.00">current_sign_in_ip :string</text>
<text text-anchor="start" x="239" y="-1261.3" font-family="Times,serif" font-size="14.00">last_sign_in_ip :string</text>
<text text-anchor="start" x="239" y="-1246.3" font-family="Times,serif" font-size="14.00">created_at :datetime</text>
<text text-anchor="start" x="239" y="-1231.3" font-family="Times,serif" font-size="14.00">updated_at :datetime</text>
<text text-anchor="start" x="239" y="-1216.3" font-family="Times,serif" font-size="14.00">username :string</text>
</g>
<!-- Publicador&#45;&gt;Evento -->
<g id="edge10" class="edge"><title>Publicador&#45;&gt;Evento</title>
<path fill="none" stroke="#f753e8" d="M331,-1200.15C331,-1193.08 331,-1186.04 331,-1179.13"/>
<ellipse fill="none" stroke="#f753e8" cx="331" cy="-1204.21" rx="4" ry="4"/>
<polygon fill="#f753e8" stroke="#f753e8" points="331,-1179.12 335.5,-1169.12 331,-1174.12 331,-1169.12 331,-1169.12 331,-1169.12 331,-1174.12 326.5,-1169.12 331,-1179.12 331,-1179.12"/>
</g>
</g>
</svg>
